<svg width="200" height="200" viewBox="0 0 200 200" fill="none" xmlns="http://www.w3.org/2000/svg">
<path d="M100 6.30005C48.25 6.30005 6.30005 48.25 6.30005 100C6.30005 151.75 48.25 193.7 100 193.7C151.75 193.7 193.7 151.75 193.7 100C193.7 48.25 151.75 6.30005 100 6.30005ZM42.41 76.28C42.37 76.42 42.3701 76.57 42.4701 76.74L42.03 76.44C42.16 76.38 42.29 76.33 42.41 76.28ZM74.01 139.29L74.32 139.07C74.31 139.23 74.41 139.4 74.26 139.43L74.47 139.62C74.47 139.65 74.48 139.67 74.49 139.71C74.33 139.56 74.17 139.43 74.01 139.29ZM74.52 139.72C74.52 139.7 74.52 139.67 74.52 139.65L74.84 139.94C75.39 140.19 76.15 140.95 76.71 140.64C76.76 141.18 77.8 141.46 77.65 142.06C78.2 142.37 78.6 142.69 78.94 143.03C77.4 142.04 75.93 140.94 74.52 139.72ZM137.18 128.34L137.04 128.22L136.92 128.36L137.05 128.48L127.76 137.77C120.95 144.58 112.25 148.35 103.34 149.09C100.61 149.32 97.86 149.26 95.14 148.91C95.17 148.76 95.16 148.54 95.08 148.2C94.63 147.55 93.95 147.43 93.69 147.28L93.71 147.53C93.18 146.97 92.14 146.94 92.36 147.71C92.8 147.77 93.54 148.37 94.15 148.77C91.08 148.3 88.06 147.47 85.15 146.27L85.14 146.26C83.22 145.47 81.35 144.51 79.54 143.39C79.57 143.32 79.63 143.28 79.72 143.29L79.37 143.19C78.66 142.96 77.99 142.11 78.02 141.64C77.04 140.85 75.8 139.32 74.48 139.19L74.32 138.07L74.88 138.17C74.38 137.72 74.69 137.09 73.94 136.75C73.66 136.91 73.11 136.65 72.96 137.09C74.21 137.89 73.57 138.3 74.06 139.06C73.88 138.97 73.72 139 73.62 138.83L73.65 138.94C73.23 138.55 72.81 138.16 72.4 137.75L54.0601 119.41L54.1301 119.34L53.8301 119.18L48.4701 113.82C48.9201 113.75 49.7401 114.62 50.4001 114.7C50.5801 115.51 51.15 114.89 51.48 115.26C51.03 115.02 50.84 114.52 50.82 114.25C49.97 113.27 49.1601 113.6 48.2901 113.63L30.8601 96.23C30.6101 95.98 30.4001 95.72 30.2001 95.44L30.22 95.42L30.1 95.31C28.34 92.77 28.5901 89.26 30.8601 87L38.7201 79.14L38.78 79.2L38.9001 79.07L38.84 79.02L40.0801 77.78C40.4801 77.38 40.9301 77.05 41.4001 76.77C41.3201 76.99 41.19 77.14 41.14 77.19C41.46 76.98 41.94 77.18 42.34 77.61L41.78 76.78C41.83 76.58 42.0101 76.67 42.1301 76.69C42.2801 77.23 43.4001 77.75 42.9901 78.19L43.4901 78.07L43.1301 77.75C43.1801 77.55 43.5501 77.72 43.7701 77.76C43.8801 77.21 45.28 77.41 44.39 76.36C44.83 76.44 44.9801 76.2 45.0201 75.88C46.1401 75.94 47.25 76.28 48.23 76.91L48.0801 77.07L48.37 77.33L48.53 77.15L48.42 77.05C48.73 77.26 49.0201 77.5 49.2901 77.78L59.2201 87.71L59.19 87.74L59.51 88L59.53 87.98L62.0801 90.53C61.3901 90.65 61.41 90.78 61.48 91.54C61.77 91.8 61.58 91.14 62.05 91.64C62.14 91.4 62.5201 91.41 62.2401 91L62.62 91.06L90.85 119.29C95.82 124.26 103.8 124.37 108.92 119.64L108.94 119.72L109.14 119.5H109.06C109.14 119.43 109.22 119.36 109.3 119.29L117.44 111.15C118.01 111.66 118.64 111.41 118.37 111.41C117.98 111.21 117.79 111.04 117.72 110.87L150.68 77.91C153.23 75.36 157.36 75.36 159.91 77.91L169.14 87.14C171.69 89.69 171.69 93.82 169.14 96.37L137.18 128.34Z" fill="white"/>
</svg>
