<?xml version="1.0" encoding="utf-8"?>
<!-- Generator: Adobe Illustrator 21.0.0, SVG Export Plug-In . SVG Version: 6.00 Build 0)  -->
<svg version="1.1" id="Layer_1" xmlns="http://www.w3.org/2000/svg" xmlns:xlink="http://www.w3.org/1999/xlink" x="0px" y="0px"
	 viewBox="0 0 100 100" style="enable-background:new 0 0 100 100;" xml:space="preserve">
<style type="text/css">
	.st0{fill:#CBC2AC;}
</style>
<path class="st0" d="M15.9,20.2C15.8,20.2,15.8,20.2,15.9,20.2L15.9,20.2c0-0.1,0-0.1,0-0.1C15.9,20.1,15.9,20.1,15.9,20.2z
	 M16.3,20.5L16.3,20.5L16.3,20.5L16.3,20.5z M38,15.6C38,9,43.3,3.7,49.9,3.7c2.3,0,4.4,0.7,6.2,1.8c0,0,0,0-0.1,0.1
	c0.1,0,0.1,0,0.2,0c0.2,0.1,0.4,0.3,0.6,0.4v0.2c0,0,0.1,0,0.1,0c0,0,0-0.1,0-0.1c0.4,0.3,0.7,0.6,1,0.9c0,0,0,0,0,0
	C58,7,58,7,58.1,7.1c0,0,0,0,0,0c0,0,0,0,0,0c1.5,1.4,2.6,3.3,3.2,5.4c0,0,0,0,0,0c0,0,0,0,0,0c0,0,0,0.1,0.1,0.1
	c0.1,0.2,0.1,0.4,0.2,0.7c0,0,0,0.1-0.1,0.1c-0.2,0.2-0.3,0.6-0.1,0.9c0.1-0.1,0.2-0.1,0.2-0.1c0-0.1,0.1-0.1,0.1-0.2
	c0-0.2-0.1-0.5-0.1-0.7c0.2,0.8,0.3,1.6,0.3,2.4c0-0.1,0-0.2,0-0.3c-0.1,0-0.3,0-0.4,0c-0.1,0.1-0.1,0.2-0.2,0.3
	c-0.3,0.2-0.4,0.5-0.5,1c0.2-0.2,0.4-0.3,0.5-0.5c0.2,0.2,0.4,0.3,0.5,0.1c0-0.1,0-0.1,0.1-0.2c0-0.1,0-0.2,0-0.3
	c0,1.9-0.4,3.6-1.2,5.2c0.2-0.4,0.3-0.7,0.5-1.1c0,0-0.1-0.1-0.1-0.1c-0.2-0.1-0.4-0.1-0.6-0.1c0.1,0.2,0.1,0.4,0.2,0.6
	c-0.2-0.1-0.3-0.1-0.5-0.2c-0.1,0.5,0.4,0.6,0.5,1c-0.3,0.6-0.7,1.2-1.1,1.8c0.4-0.5,0.7-1,1-1.6c-0.1,0-0.2-0.1-0.2-0.1
	c-0.1,0.1-0.2,0.2-0.3,0.2c-0.3,0-0.5,0.1-0.6,0.4c-0.1,0.3-0.1,0.7,0.2,0.9c0,0,0,0.1,0.1,0.1c-2.2,3-5.6,4.9-9.6,4.9
	C43.3,27.5,38,22.1,38,15.6z M60.8,17.7c0,0.1,0.1,0.1,0.2,0.2c0.1-0.1,0.2-0.3,0.2-0.3c0-0.1-0.1-0.2-0.2-0.2
	C60.9,17.5,60.8,17.6,60.8,17.7z M61.6,15L61.6,15C61.6,15,61.6,15,61.6,15C61.6,15,61.6,15,61.6,15C61.6,15,61.6,15,61.6,15
	L61.6,15z M60,14.3C60,14.3,60,14.2,60,14.3c-0.1-0.1-0.1-0.1-0.1,0C59.9,14.3,59.9,14.3,60,14.3C60,14.3,60,14.3,60,14.3z
	 M60.5,17.4C60.5,17.4,60.5,17.4,60.5,17.4C60.4,17.4,60.4,17.5,60.5,17.4C60.5,17.5,60.5,17.5,60.5,17.4
	C60.5,17.4,60.5,17.4,60.5,17.4z M60.7,15.6c-0.1,0-0.1-0.1-0.2-0.1c0,0.1-0.1,0.2-0.1,0.3l0.1,0C60.5,15.8,60.6,15.7,60.7,15.6z
	 M61,12.9c0-0.1-0.1-0.1-0.1-0.2C61,12.8,61,12.8,61,12.9C61,12.9,61,12.9,61,12.9z M61.1,14.3c-0.1,0.4,0,0.7,0.2,0.9
	C61.3,14.9,61.3,14.7,61.1,14.3z M61.1,13.4C61.1,13.4,61.1,13.4,61.1,13.4L61.1,13.4C61.1,13.3,61.1,13.3,61.1,13.4
	C61.1,13.3,61.1,13.3,61.1,13.4C61.1,13.3,61.1,13.4,61.1,13.4z M60.8,11.8c0.1,0,0.2,0.1,0.2,0.1c0,0,0.1-0.1,0.1-0.1
	c-0.1-0.1-0.2-0.1-0.2-0.1C60.9,11.7,60.9,11.8,60.8,11.8z M59.7,13.6c0.1,0.2,0.4,0.2,1,0.2c0-0.2,0.3-0.5-0.1-0.6
	c-0.1,0-0.1,0-0.2,0c0,0.2,0.1,0.3,0.1,0.4H59.7L59.7,13.6z M59.5,19.8L59.5,19.8L59.5,19.8L59.5,19.8z M46.1,26.4
	c0-0.1-0.1-0.2-0.2-0.4c-0.1,0.2-0.1,0.3-0.1,0.3c0,0.1,0.2,0.2,0.2,0.2C46,26.5,46.1,26.4,46.1,26.4z M47.8,24.9L47.8,24.9
	L47.8,24.9L47.8,24.9z M48.4,19.1C48.3,19.1,48.3,19.1,48.4,19.1L48.4,19.1C48.3,19.2,48.3,19.2,48.4,19.1
	C48.4,19.1,48.4,19.1,48.4,19.1z M50.1,12.4c0,0-0.1-0.1-0.1-0.1c0,0-0.1,0.1-0.1,0.1c0,0,0.1,0.1,0.1,0.1
	C50.1,12.5,50.1,12.4,50.1,12.4z M50,11.3C50,11.3,50,11.2,50,11.3c0.1-0.1,0.1-0.2,0.1-0.2v0c0,0-0.1,0-0.1,0
	C50,11.2,50,11.2,50,11.3z M53,20.8C53,20.8,52.9,20.7,53,20.8c-0.1-0.1-0.1,0-0.1,0h0C52.9,20.8,52.9,20.8,53,20.8
	C53,20.8,53,20.8,53,20.8z M53.2,17.7c0,0-0.1-0.1-0.1-0.1c-0.1,0-0.1,0.1-0.2,0.1l0,0.1C53.1,17.8,53.1,17.7,53.2,17.7z M53.2,15.2
	c-0.3-0.3-0.5-0.5-0.8-0.7c-0.3,0.1-0.3,0.4-0.1,0.7v0C52.5,14.9,52.8,15.5,53.2,15.2z M53.4,13.2C53.4,13.2,53.4,13.2,53.4,13.2
	L53.4,13.2C53.4,13.2,53.4,13.3,53.4,13.2L53.4,13.2C53.4,13.3,53.4,13.2,53.4,13.2z M54.3,26.4C54.3,26.4,54.2,26.3,54.3,26.4
	c-0.1-0.1-0.1,0-0.2,0c0,0,0.1,0.1,0.1,0.1C54.2,26.5,54.3,26.5,54.3,26.4z M54.2,14.3C54.1,14.3,54.1,14.2,54.2,14.3
	C54.1,14.2,54.1,14.2,54.2,14.3C54.1,14.3,54.1,14.3,54.2,14.3C54.1,14.3,54.2,14.3,54.2,14.3z M54.1,21.6
	C54.1,21.6,54.2,21.6,54.1,21.6C54.2,21.7,54.2,21.6,54.1,21.6C54.2,21.6,54.2,21.6,54.1,21.6C54.2,21.6,54.1,21.6,54.1,21.6z
	 M54.5,20.2c0,0-0.1-0.1-0.1-0.1c-0.2,0-0.2,0.2-0.2,0.4C54.4,20.4,54.5,20.4,54.5,20.2z M54.4,13.7L54.4,13.7c0-0.1,0-0.1,0-0.1
	c0,0-0.1,0.1-0.1,0.1C54.4,13.7,54.4,13.7,54.4,13.7z M54.8,17.9c0.1,0,0.2-0.1,0.3-0.2c0,0-0.1-0.2-0.2-0.3
	c-0.1,0.2-0.2,0.2-0.3,0.3C54.6,17.8,54.7,17.9,54.8,17.9z M55.3,21c0-0.1-0.1-0.1-0.1-0.2c0,0-0.1,0.1-0.1,0.1c0,0.1,0,0.2,0.1,0.3
	C55.3,21.1,55.3,21,55.3,21z M55.4,20.5c-0.2-0.6-0.3-0.8-0.5-0.8C55.1,20,54.9,20.4,55.4,20.5z M55.5,17.9
	c-0.3,0.2-0.2,0.4-0.2,0.7C55.6,18.4,55.6,18.1,55.5,17.9z M55.7,22.7c0-0.1-0.1-0.2-0.1-0.2v0c0,0-0.1,0-0.1,0c0,0.1,0,0.1,0,0.1
	C55.6,22.7,55.7,22.7,55.7,22.7z M55.7,13.6L55.7,13.6C55.7,13.6,55.7,13.6,55.7,13.6C55.7,13.5,55.6,13.5,55.7,13.6
	C55.6,13.6,55.6,13.6,55.7,13.6L55.7,13.6z M55.8,20.8C55.8,20.8,55.7,20.8,55.8,20.8l-0.1,0C55.7,20.8,55.7,20.8,55.8,20.8
	C55.7,20.8,55.8,20.8,55.8,20.8z M55.9,19.9C55.9,19.9,55.8,19.8,55.9,19.9c-0.1-0.1-0.1,0-0.1,0C55.8,19.9,55.8,20,55.9,19.9
	C55.8,20,55.9,19.9,55.9,19.9z M57.4,20.1c-0.1-0.2-0.2-0.2-0.4-0.2c0,0.2,0.1,0.3,0.3,0.3C57.3,20.2,57.4,20.1,57.4,20.1z
	 M57.4,16.2c0,0-0.1-0.1-0.1-0.1c0,0-0.1,0-0.1,0.1C57.2,16.2,57.2,16.3,57.4,16.2C57.3,16.3,57.4,16.2,57.4,16.2z M58.9,21.9
	c-0.4,0-0.7,0.5-0.7,1h0.9C59.4,22.5,58.9,22.3,58.9,21.9z M58.5,21.6L58.5,21.6L58.5,21.6L58.5,21.6z M58.7,14.3
	c0.2,0.2,0.4,0.2,0.5-0.1C59,14.3,58.9,14.3,58.7,14.3z M59,15.5L59,15.5C59,15.5,59,15.5,59,15.5C59,15.5,59,15.5,59,15.5z
	 M58.4,13.1c0.1,0.1,0.1,0.2,0.2,0.3c0,0,0.1-0.1,0.1-0.1C58.6,13.2,58.5,13.1,58.4,13.1L58.4,13.1z M58.2,18.6c0,0,0.1,0.1,0.1,0.2
	c0.3-0.2,0.5-0.3,0.8-0.5c-0.2-0.4-0.4-0.4-0.5-0.3C58.4,18.2,58.3,18.4,58.2,18.6z M57.7,19.4c0.2,0,0.3,0.1,0.4,0.1
	C58,19.2,58,19.2,57.7,19.4z M57,12.8c0,0.4,0.2,0.5,0.4,0.5c0.1,0,0.2-0.1,0.3-0.2c-0.1-0.1-0.1-0.3-0.2-0.3
	C57.4,12.8,57.2,12.8,57,12.8L57,12.8z M56.6,16.8c0.1,0.2,0.3,0.1,0.7-0.2c-0.1-0.1-0.2-0.3-0.3-0.5C56.9,16.5,56.5,16.4,56.6,16.8
	z M56.7,8.5c0,0,0.1,0.1,0.1,0.1c0.1,0,0.1-0.1,0.1-0.2c0,0-0.1-0.1-0.1-0.2C56.7,8.4,56.7,8.4,56.7,8.5z M56.6,12.1L56.6,12.1
	c0.1-0.1,0.1-0.1,0.1-0.1l0-0.1C56.6,12,56.6,12,56.6,12.1C56.6,12.1,56.6,12.1,56.6,12.1z M56.5,17.4c0,0.1,0.1,0.1,0.1,0.1
	c0.1,0,0.2-0.1,0.2-0.1c0,0,0-0.1,0-0.1C56.6,17.4,56.5,17.4,56.5,17.4z M55.5,9.5c0.1,0.2,0.2,0.4,0.3,0.5v0
	C55.9,10,56,10,56.2,9.9C56,9.5,55.8,9.6,55.5,9.5z M55.4,11.2c0.1,0.6,0.2,0.6,0.7,0.3C55.9,11.2,55.6,11.4,55.4,11.2z M55,13.8
	L55,13.8c-0.2,0.1-0.4,0.4-0.3,0.6c0.1,0.2,0.2,0.2,0.7,0C55.3,13.8,55.2,13.7,55,13.8z M55.2,13.2c-0.1-0.1-0.2-0.3-0.3-0.4
	c-0.1,0.3-0.6,0.4-0.2,0.8c0.1-0.1,0.1-0.1,0.2-0.1C55,13.4,55.1,13.3,55.2,13.2z M54.6,11.7C54.6,11.7,54.7,11.7,54.6,11.7
	c0.1-0.1,0-0.1,0-0.1C54.6,11.7,54.6,11.7,54.6,11.7C54.6,11.7,54.6,11.7,54.6,11.7z M55,12.2C55,12.2,55,12.1,55,12.2L55,12.2
	C54.9,12.2,54.9,12.2,55,12.2L55,12.2z M55.1,6.8c0,0-0.1,0-0.1,0c0,0,0,0.1-0.1,0.1C55,6.8,55,6.9,55.1,6.8
	C55.1,6.9,55.1,6.8,55.1,6.8z M54.9,5.5C55,5.5,55,5.6,55,5.6c0-0.1,0.1-0.1,0.1-0.2c0,0-0.1-0.1-0.1-0.1h0
	C55,5.4,54.9,5.5,54.9,5.5z M54.8,8.2C54.9,8.2,54.9,8.3,54.8,8.2C54.9,8.3,55,8.2,55,8.2C54.9,8.2,54.9,8.2,54.8,8.2
	C54.9,8.2,54.9,8.2,54.8,8.2z M54.6,9.7c0.1,0,0.2,0.1,0.4,0.1c-0.1-0.3-0.2-0.4-0.4-0.3L54.6,9.7z M54.4,15.1c0,0,0.1,0.1,0.1,0.1
	c0.1-0.1,0.1-0.1,0.1-0.1c0,0-0.1-0.1-0.1-0.1C54.5,15.1,54.4,15.1,54.4,15.1z M54.4,12.8C54.3,12.8,54.3,12.8,54.4,12.8
	C54.3,12.8,54.3,12.8,54.4,12.8c0,0.1,0,0.1,0,0.1c0,0.1-0.1,0.2-0.1,0.2c0.1-0.1,0.1-0.2,0.1-0.3C54.4,12.9,54.4,12.9,54.4,12.8
	C54.4,12.8,54.4,12.8,54.4,12.8z M54.2,9.7c0,0,0.1-0.1,0.1-0.1c-0.1-0.1-0.1-0.3-0.3-0.5v0C54,9.5,54.1,9.6,54.2,9.7z M53.9,18.6
	C53.9,18.6,53.9,18.6,53.9,18.6c0.1,0,0.2-0.1,0.2-0.2c0,0-0.1-0.1-0.1-0.1C53.9,18.4,53.9,18.5,53.9,18.6z M52.9,10.4
	c0,0.2,0.1,0.3,0.3,0.3c0.2,0,0.3-0.1,0.2-0.3c0-0.2,0-0.4,0-0.6C53,10,52.9,10.1,52.9,10.4L52.9,10.4z M52.1,6.8
	c0,0.1,0.1,0.1,0.2,0.2c0.1-0.1,0.1-0.2,0.1-0.2h0c0,0-0.1-0.1-0.2-0.1C52.2,6.7,52.1,6.8,52.1,6.8z M51.2,5.1
	C51.2,5.1,51.3,5.1,51.2,5.1L51.2,5.1c0.1,0.1,0.1,0,0.1,0C51.3,5.1,51.3,5,51.2,5.1C51.2,5,51.2,5.1,51.2,5.1z M50.9,22.7
	C50.9,22.7,50.9,22.8,50.9,22.7C50.9,22.8,51,22.8,50.9,22.7C50.9,22.8,50.9,22.7,50.9,22.7C50.9,22.7,50.9,22.7,50.9,22.7z
	 M49.9,9.1C49.9,9.2,50,9.3,50,9.3l0,0c0,0,0.1-0.1,0.2-0.1C50.1,9.1,50.1,9,50,9C50,9,49.9,9.1,49.9,9.1z M49,12.4
	c-0.1-0.1-0.2-0.2-0.2-0.2c0,0.1-0.1,0.1-0.1,0.1c0.1,0.1,0.1,0.1,0.2,0.2C48.9,12.5,48.9,12.5,49,12.4z M48.7,11.9
	c0,0,0.1,0.1,0.1,0.1c0,0,0-0.1,0-0.1C48.8,11.9,48.7,11.9,48.7,11.9L48.7,11.9z M48.3,4.9c0,0.1,0.1,0.1,0.1,0.1v0
	c0,0,0.1-0.1,0.1-0.1c0,0,0-0.1,0-0.1C48.3,4.9,48.3,4.9,48.3,4.9z M48.1,4.4C48.1,4.4,48.1,4.4,48.1,4.4
	C48.1,4.4,48.1,4.4,48.1,4.4C48.1,4.4,48.1,4.3,48.1,4.4L48.1,4.4L48.1,4.4z M47.4,12.6c-0.1,0.2-0.3,0.3-0.4,0.5
	c0.3,0.3,0.6,0.1,0.8,0.1C48,12.7,48,12.6,47.4,12.6z M47.6,9.7c0.1-0.1,0.1-0.1,0.1-0.2c0-0.1-0.1-0.1-0.1-0.1c0,0-0.1,0.1-0.1,0.1
	C47.5,9.6,47.5,9.6,47.6,9.7z M47.7,4.7C47.7,4.8,47.8,5,47.8,5c0,0,0.1-0.1,0.1-0.1c0-0.1-0.1-0.2-0.1-0.3
	C47.8,4.7,47.7,4.7,47.7,4.7z M47.3,4.3L47.3,4.3L47.3,4.3L47.3,4.3z M46.9,5.2c0.1,0.1,0.3,0.1,0.4,0.2c0.1,0.1,0.3,0.1,0.5,0.2
	c-0.1-0.3-0.1-0.6-0.4-0.6c-0.2,0-0.1-0.2-0.2-0.3c0-0.1-0.1-0.1-0.2-0.2C47,4.7,47,4.9,46.9,5.2z M46.9,6.6c0.2,0,0.4-0.1,0.4-0.4
	C47.2,6.4,47.1,6.5,46.9,6.6z M46.9,8.5c0,0,0.1,0.1,0.1,0.1c0.1,0,0.1-0.1,0.2-0.1C47.1,8.4,47,8.3,47,8.3v0
	C46.9,8.3,46.9,8.4,46.9,8.5z M46.6,11.1c0,0.1,0.1,0.1,0.1,0.1c0,0,0.1-0.1,0.1-0.1v0c-0.1-0.1-0.1-0.1-0.1-0.1
	S46.6,11.1,46.6,11.1z M46.6,12.9c0.1,0,0.1,0,0.2,0c0,0,0,0,0,0c-0.1,0-0.1-0.1-0.2-0.1C46.6,12.9,46.6,12.9,46.6,12.9z M46.6,24.6
	c0.2,0.2,0.3,0.1,0.4-0.1c-0.1-0.2-0.2-0.3-0.3-0.2C46.6,24.4,46.5,24.5,46.6,24.6z M45.1,13.1c0,0.2,0.1,0.5,0.1,0.8
	c0.1-0.1,0.2-0.1,0.2-0.2c0.1-0.1,0.1-0.2,0.2-0.2c0.3,0.1,0.4-0.2,0.6-0.4c0,0,0,0,0,0c0,0.1,0.1,0.1,0.1,0.2c0,0,0-0.1,0.1-0.1
	c-0.1,0-0.1-0.1-0.2-0.1c-0.2-0.4-0.6-0.5-1-0.7C45.2,12.7,45.1,12.9,45.1,13.1z M45.1,15.7C45.1,15.7,45.1,15.7,45.1,15.7
	C45.1,15.7,45.2,15.7,45.1,15.7C45.2,15.6,45.1,15.6,45.1,15.7C45.1,15.6,45.1,15.7,45.1,15.7z M44.9,17.4c0,0.1,0.1,0.1,0.1,0.1
	c0,0,0.1-0.1,0.1-0.1v0c0,0-0.1-0.1-0.1-0.1C44.9,17.3,44.9,17.4,44.9,17.4z M44.5,6.8C44.6,6.8,44.6,6.8,44.5,6.8
	c0.1-0.1,0.1-0.2,0.1-0.3c-0.1,0-0.1,0-0.1,0V6.8z M44.1,7.7c0,0,0.1-0.1,0.1-0.1c0-0.2-0.1-0.3-0.3-0.2C43.9,7.6,43.9,7.7,44.1,7.7
	z M43.2,11c0.2,0.3,0.2,0.3,0.4,0.3c0,0,0.1-0.1,0.1-0.1C43.6,11.1,43.4,11.1,43.2,11z M42.9,7.3c0,0.1,0.1,0.2,0.1,0.3
	c0,0,0.1,0,0.1,0c0-0.1,0-0.2,0-0.3H42.9z M42.8,14.5c0.1,0.2,0.1,0.3,0.2,0.4C43.2,14.7,43.1,14.6,42.8,14.5z M41.8,21
	C41.8,21,41.8,21.1,41.8,21C41.8,21.1,41.9,21,41.8,21C41.8,21,41.8,21,41.8,21L41.8,21z M38.9,17.6c0,0,0-0.1-0.1-0.2
	c-0.1,0.2-0.1,0.3-0.1,0.3c0,0,0.1,0.1,0.1,0.1C38.8,17.8,38.9,17.6,38.9,17.6L38.9,17.6z M39.3,19.8c0.1,0.3,0.2,0.4,0.2,0.6
	C39.6,20.1,39.6,20,39.3,19.8z M40.7,18.3c0-0.1-0.2-0.2-0.3-0.2c-0.2-0.1-0.3,0.1-0.3,0.3c0,0.2,0,0.4,0.2,0.4
	C40.5,18.9,40.6,18.7,40.7,18.3z M41.2,17.7c0-0.1,0-0.2-0.1-0.3c-0.2-0.3-0.5-0.5-0.1-0.9c-0.1-0.1-0.1-0.2-0.1-0.3
	c-0.1-0.1-0.3-0.1-0.3,0c-0.2,0.2-0.3,0.3-0.4,0.5l0,0c-0.1,0.2,0.1,0.3,0.2,0.5c0.1,0.1,0.1,0.2,0.1,0.3c0.1,0.2,0.2,0.3,0.3,0.4
	c0.1,0.1,0.2,0.1,0.3,0C41.1,18,41.2,17.8,41.2,17.7z M41.3,13.1c-0.1-0.1-0.2-0.3-0.2-0.3c0,0-0.1,0.1-0.1,0.1
	C41.1,13,41.1,13.1,41.3,13.1C41.2,13.2,41.2,13.1,41.3,13.1z M41.3,11.5c0.1-0.2,0.2-0.3,0.2-0.3c-0.1-0.1-0.2-0.2-0.2-0.3
	c-0.1,0.1-0.2,0.1-0.2,0.2C41.2,11.2,41.3,11.3,41.3,11.5z M72,68.2l-2.5,0.3l-1.7,0.2c-0.1,0-0.2,0-0.3,0c-1.3,0-2.5-1-2.7-2.4
	l-3.1-17.2v12.7c-0.1,0-0.1,0-0.2,0c0,0.1,0.1,0.2,0.1,0.2v0c0,0,0,0,0.1-0.1v2.2c0,0,0-0.1-0.1-0.1c0,0,0,0.1-0.1,0.1
	c0,0,0.1,0.1,0.1,0.1c0,0,0,0,0,0v26.4c0,0,0,0-0.1,0c0,0.1,0,0.1-0.1,0.1c0,0,0.1,0,0.1,0v0c-1.3,1.2-2.9,3.1-4.2,5.6
	c0.1-5.9,3-9.1,3.2-9.3c0.2-0.2,0.3-0.5,0.2-0.8c-0.1-0.3-0.3-0.6-0.5-0.7c-1.1-0.5-5.7,2.5-7.6,6.4c-0.3,0.7-0.7,1.6-1.1,3
	c-0.1-0.7-0.2-1.4-0.1-2c0.6-5.9,4.1-10.2,5.5-11.8c0.2-0.3,0.3-0.6,0.2-1c-0.1-0.3-0.4-0.6-0.8-0.6c-0.8-0.1-4.9,0.9-8.8,7.2
	c-0.8,1.4-1.4,2.9-1.8,4.7c-2.1-4.5-5.1-5.5-5.2-5.6c-0.4-0.1-0.9,0-1.1,0.4c-0.2,0.4-0.2,0.8,0.1,1.1c0.1,0.1,2.4,2.6,2.3,7.8
	c-0.8-2.3-2-4.2-3.7-5.7c-0.1-0.1-0.2-0.1-0.3-0.2V49.1l-0.1,0.4l-2.8,15.8l-0.2,1c-0.2,1.4-1.3,2.4-2.7,2.4c-0.1,0-0.2,0-0.3,0
	l-4.2-0.5c-1.5-0.2-2.5-1.5-2.3-3L30.8,36l0.4-2.2c0.2-1.4,1.3-2.3,2.6-2.3c0.1,0,0.1,0,0.2,0c0.1,0,0.2,0,0.2,0h31.2
	c0.1,0,0.1,0,0.2,0c0.1,0,0.1,0,0.2,0c0,0,0,0,0,0c-0.2,0.2-0.4,0.3-0.6,0.4c0.4,0.2,0.5,0.1,0.7-0.4c0,0,0,0,0,0
	c1.3,0,2.4,1,2.6,2.3l0.4,2.2l2.9,15.9c0,0,0,0,0,0.1c0,0,0,0,0,0l0.8,4.6c0,0,0,0,0,0c0,0,0,0.1,0.1,0.1l0.4,2.2l0-0.2
	c-0.1,0-0.1,0.1-0.2,0.1c0,0.1,0,0.2,0,0.2c0.1,0,0.2,0,0.2,0l1.2,6.4C74.5,66.7,73.5,68.1,72,68.2z M26.4,64.9
	C26.4,64.9,26.4,64.9,26.4,64.9C26.4,65,26.4,65,26.4,64.9C26.4,65,26.4,65,26.4,64.9z M26.5,60.4C26.4,60.4,26.4,60.4,26.5,60.4
	C26.4,60.4,26.4,60.4,26.5,60.4C26.4,60.4,26.4,60.4,26.5,60.4z M27.4,58.8C27.4,58.8,27.4,58.8,27.4,58.8L27.4,58.8
	c-0.1,0-0.1,0-0.1,0L27.4,58.8C27.4,58.9,27.4,58.8,27.4,58.8z M32.9,44c-0.1,0-0.3,0-0.4,0c0,0.1,0,0.2,0,0.2h0.4
	C32.9,44.1,32.9,44.1,32.9,44z M33,40.3c0-0.1-0.1-0.1-0.1-0.2c-0.1,0.1-0.1,0.1-0.1,0.2c0,0,0.1,0.1,0.1,0.1
	C32.9,40.3,32.9,40.3,33,40.3z M33.4,60.1L33.4,60.1L33.4,60.1c-0.1,0.1-0.1,0.1-0.1,0.1C33.3,60.1,33.4,60.1,33.4,60.1L33.4,60.1z
	 M34.7,33.2c-0.1-0.1-0.1-0.2-0.2-0.2c0,0-0.1,0.1-0.1,0.1c0,0.1,0.1,0.1,0.1,0.1C34.5,33.2,34.6,33.2,34.7,33.2z M36.9,32.5
	L36.9,32.5L36.9,32.5L36.9,32.5z M36.9,46L36.9,46L36.9,46L36.9,46z M35.8,33.3L35.8,33.3L35.8,33.3L35.8,33.3z M35.5,39.8
	c0,0.1,0.1,0.1,0.2,0.2c0-0.1,0.1-0.2,0.1-0.2c0-0.1-0.1-0.1-0.1-0.1C35.6,39.7,35.5,39.8,35.5,39.8z M35.2,34.7
	c0-0.1-0.1-0.1-0.1-0.2c-0.1,0.1-0.1,0.1-0.1,0.2c0,0.1,0.1,0.1,0.1,0.1C35.2,34.8,35.2,34.7,35.2,34.7z M35.5,59
	C35.5,59,35.4,59,35.5,59c-0.1,0-0.1,0-0.1,0.1C35.4,59.1,35.4,59.1,35.5,59C35.5,59.1,35.5,59,35.5,59z M35.7,41
	c0.1-0.2,0.1-0.3,0.1-0.4c0-0.1-0.2-0.2-0.2-0.2c-0.1,0.1-0.2,0.2-0.2,0.3C35.4,40.8,35.5,40.8,35.7,41z M36.2,58
	c0.1-0.2,0-0.4-0.2-0.4c-0.1,0-0.1,0.1-0.3,0.3C35.9,58,36,58,36.2,58z M36.7,42.4C36.7,42.4,36.6,42.3,36.7,42.4
	c-0.1-0.1-0.2,0-0.2,0c0.1,0,0.1,0.1,0.1,0.1C36.6,42.5,36.7,42.4,36.7,42.4z M37.4,52.3C37.3,52.3,37.3,52.3,37.4,52.3
	C37.3,52.3,37.3,52.4,37.4,52.3C37.3,52.4,37.4,52.4,37.4,52.3C37.4,52.4,37.4,52.3,37.4,52.3z M37.6,51.1c-0.3-0.1-0.6-0.1-0.9-0.1
	c0,0-0.1,0.1-0.1,0.1c0.2,0.3,0.4,0.7,0.8,0.8C37.6,51.6,37.6,51.4,37.6,51.1z M37.7,39.8c0,0,0-0.2,0-0.2c-0.1,0-0.2,0-0.3,0
	c-0.1,0-0.1,0.1-0.2,0.2c0.2,0.1,0.2,0.1,0.3,0.1C37.5,39.9,37.7,39.8,37.7,39.8z M45,33c0,0.1,0,0.1,0.1,0.2
	c0.1-0.1,0.2-0.2,0.3-0.3C45.1,32.8,45,32.8,45,33z M44.9,48.2C44.9,48.2,44.9,48.2,44.9,48.2c0.1,0,0.1-0.1,0.1-0.1
	c0,0-0.1,0-0.1,0C44.9,48.1,44.9,48.2,44.9,48.2z M44.5,47.2c0.1,0.1,0.1,0.1,0.1,0.1c0,0,0.1-0.1,0.2-0.1c-0.1-0.1-0.2-0.1-0.2-0.1
	h0C44.6,47.1,44.6,47.2,44.5,47.2z M43.7,31.8c0.1,0.3,0.3,0.3,0.6,0.1c-0.1-0.2-0.1-0.5-0.4-0.4C43.8,31.5,43.6,31.7,43.7,31.8z
	 M43.9,34c0,0-0.1,0.1-0.1,0.1c0,0.1,0.1,0.2,0.1,0.2c0,0,0.1-0.1,0.2-0.1C44,34.1,43.9,34.1,43.9,34z M43.6,41.6L43.6,41.6
	C43.6,41.6,43.7,41.6,43.6,41.6C43.7,41.6,43.7,41.6,43.6,41.6C43.6,41.6,43.6,41.6,43.6,41.6z M42.9,37.3c0,0,0.1,0.1,0.1,0.1
	c0,0,0.1-0.1,0.1-0.1c0,0,0-0.1-0.1-0.1C43,37.3,43,37.3,42.9,37.3z M42.7,46c0,0.2,0,0.4,0,0.6c0.3,0,0.3-0.1,0.3-0.3
	C43.1,46,43,45.9,42.7,46z M42.3,47.4c0,0.1,0.1,0.2,0.2,0.2c0.1,0,0.2-0.1,0.3-0.1c0-0.1-0.1-0.1-0.1-0.2c-0.1,0-0.2-0.1-0.2-0.1
	l0,0C42.4,47.2,42.3,47.3,42.3,47.4z M41.5,46.9c0.2,0,0.3-0.1,0.4-0.1c0,0,0.1-0.1,0.1-0.1c-0.2-0.2,0.1-0.6-0.4-0.7
	C41.6,46.3,41.6,46.6,41.5,46.9z M41.8,47.2C41.7,47.2,41.7,47.2,41.8,47.2C41.8,47.2,41.8,47.3,41.8,47.2
	C41.8,47.3,41.8,47.2,41.8,47.2C41.8,47.2,41.8,47.2,41.8,47.2z M40.3,45.4C40.3,45.4,40.4,45.4,40.3,45.4
	C40.4,45.4,40.4,45.4,40.3,45.4C40.4,45.3,40.3,45.3,40.3,45.4C40.3,45.3,40.3,45.4,40.3,45.4z M39.1,45.7c0,0-0.2,0.2-0.2,0.3
	c-0.1,0.2,0,0.4-0.1,0.6c0.2,0.1,0.4,0.1,0.7,0.2c-0.1-0.4,0-0.7-0.1-0.9C39.5,45.8,39.3,45.7,39.1,45.7z M39,53.6L39,53.6l0.2,0.3
	c0,0,0.1-0.1,0.1-0.1C39.1,53.7,39,53.6,39,53.6z M39.1,41.8C39.1,41.8,39.2,41.8,39.1,41.8L39.1,41.8L39.1,41.8
	C39.1,41.8,39.1,41.8,39.1,41.8z M39.3,41.3L39.3,41.3L39.3,41.3L39.3,41.3z M38.9,32.3c0.1,0,0.1,0.1,0.1,0.1
	c0.1,0,0.1-0.1,0.2-0.1c-0.1,0-0.2-0.1-0.2-0.1C38.9,32.2,38.9,32.3,38.9,32.3z M38.5,41.2c0,0.1,0.1,0.2,0.2,0.2
	c0,0,0.2-0.1,0.2-0.1c-0.1-0.1-0.1-0.2-0.2-0.2C38.6,41.1,38.5,41.2,38.5,41.2z M38.1,47.8c0,0.1,0.1,0.1,0.1,0.1
	c0,0,0.1-0.1,0.1-0.1c-0.1-0.1-0.1-0.1-0.1-0.1S38.1,47.8,38.1,47.8z M38.7,50.6c0.1-0.2,0.1-0.3,0.1-0.5c0-0.1-0.1-0.1-0.1-0.1
	c-0.2,0.1-0.4,0.1-0.6,0.2c0,0.2,0,0.3,0,0.3c0,0.1,0.1,0.3,0.2,0.3C38.4,50.8,38.6,50.7,38.7,50.6z M39.7,57.3
	c0-0.2-0.1-0.4-0.3-0.3c-0.2,0.1-0.5,0.2-0.7,0.3c0.1,0.3,0.1,0.7,0.4,0.7c0.3,0,0.4-0.1,0.6-0.4C39.7,57.6,39.7,57.4,39.7,57.3z
	 M39.9,47.8c0-0.1,0.1-0.2,0-0.3c0-0.1-0.1-0.1-0.2-0.3c0,0.2-0.1,0.3-0.1,0.4c0,0.1,0.1,0.2,0.1,0.3C39.8,47.8,39.9,47.8,39.9,47.8
	L39.9,47.8z M39.9,53.3c0.1,0.1,0.1,0.2,0.2,0.2c0-0.1,0.1-0.1,0.2-0.2c-0.1-0.1-0.2-0.2-0.3-0.2C40,53.1,39.9,53.3,39.9,53.3z
	 M40.7,57c0-0.1-0.3-0.3-0.5-0.3c-0.1,0-0.1,0.1-0.1,0.1c0,0.2,0.2,0.4,0.5,0.4C40.6,57.1,40.7,57,40.7,57z M40.9,50.6
	c0-0.1,0-0.1-0.1-0.2c-0.1,0.1-0.1,0.2-0.1,0.2C40.8,50.6,40.8,50.6,40.9,50.6C40.9,50.6,40.9,50.6,40.9,50.6z M40.9,46
	c0,0-0.1-0.1-0.1-0.2c-0.1,0.1-0.1,0.1-0.1,0.2c0,0,0.1,0.1,0.1,0.1C40.8,46.1,40.9,46,40.9,46z M41,43.8c-0.1-0.2-0.1-0.4-0.1-0.6
	c-0.4,0.1-0.6,0.4-0.4,0.8c0.1,0.2,0.3,0.3,0.5,0.2C41.1,44.1,41.1,43.9,41,43.8z M41.4,41.5c0,0,0-0.1-0.1-0.2
	c-0.1,0.1-0.1,0.1-0.2,0.1c0,0.1,0.1,0.1,0.1,0.1C41.3,41.6,41.4,41.5,41.4,41.5z M42.3,54.6C42.3,54.6,42.3,54.6,42.3,54.6
	L42.3,54.6C42.3,54.7,42.3,54.7,42.3,54.6L42.3,54.6z M43.1,49.9c-0.6,0.2-1.1,0.3-1.7,0.4c0.2,0.4,0.4,0.3,0.6,0.3
	c0.3-0.1,0.6-0.1,0.9-0.2C43,50.3,43.1,50.1,43.1,49.9z M43,49.2C43,49.2,43,49.1,43,49.2c0-0.1,0-0.1,0-0.1
	C42.9,49.1,42.9,49.1,43,49.2C42.9,49.2,42.9,49.2,43,49.2z M43.4,47.7c-0.2-0.2-0.2-0.3-0.3-0.3c-0.2-0.1-0.3,0.2-0.3,0.4
	c0,0.2,0.2,0.3,0.3,0.2C43.2,48,43.3,47.9,43.4,47.7z M43.5,50.5C43.5,50.5,43.4,50.5,43.5,50.5L43.5,50.5
	C43.5,50.6,43.5,50.6,43.5,50.5C43.5,50.6,43.5,50.5,43.5,50.5z M43.5,43.8c0.5-0.1,0.5-0.1,0.6-0.7c-0.1-0.1-0.3-0.2-0.4-0.2
	c-0.2-0.1-0.3,0.1-0.3,0.3C43.4,43.3,43.5,43.6,43.5,43.8z M44.3,48.6c-0.1-0.2-0.3-0.2-0.6,0.1c0.3,0.4,0.4,0.5,0.5,0.3
	C44.2,49,44.3,48.8,44.3,48.6z M45,49.5c0-0.2-0.2-0.5-0.4-0.4l0,0c-0.2,0-0.3,0.2-0.3,0.5c0,0.1,0,0.2,0.1,0.4
	c0.1,0.1,0.2,0.2,0.2,0.2c0.1,0,0.2-0.1,0.2-0.2C44.9,49.9,45,49.7,45,49.5z M45.7,46.6c0-0.1-0.1-0.3-0.3-0.3
	c-0.2-0.1-0.4,0.1-0.5,0.3c0.2,0.1,0.3,0.3,0.5,0.5C45.5,46.9,45.7,46.8,45.7,46.6z M46.1,49.2c0-0.1-0.1-0.1-0.1-0.1
	c-0.1,0.1-0.1,0.1-0.1,0.2c0,0,0.1,0.1,0.1,0.1C46,49.2,46.1,49.2,46.1,49.2z M47,34.8c-0.1-0.1-0.2-0.1-0.2-0.1
	c-0.1,0-0.1,0.2-0.1,0.2c0,0.1,0.1,0.1,0.1,0.1C46.9,34.9,47,34.9,47,34.8z M61.3,47C61.4,47,61.4,47,61.3,47
	C61.4,47,61.4,47,61.3,47C61.4,46.9,61.4,46.9,61.3,47C61.3,47,61.3,47,61.3,47z M60.8,36.3c0,0.1,0.1,0.1,0.1,0.2
	c0,0,0.1-0.1,0.2-0.2c-0.1-0.1-0.1-0.1-0.2-0.1C60.9,36.2,60.8,36.3,60.8,36.3z M60.9,52.6C60.9,52.6,61,52.7,60.9,52.6
	c0.1,0.1,0.2,0.1,0.2,0c0,0,0-0.1-0.1-0.2C61,52.5,60.9,52.5,60.9,52.6z M60.4,33.5c0.1,0.1,0.2,0.2,0.2,0.2s0.1-0.1,0.2-0.2
	c-0.1-0.1-0.2-0.2-0.3-0.2L60.4,33.5z M60.2,48.6c0.1,0,0.2,0,0.2,0c0.1-0.1,0.1-0.2,0.2-0.3c-0.2,0-0.4,0.1-0.4,0.1
	C60.2,48.3,60.2,48.5,60.2,48.6z M59.2,52c0,0.2,0.2,0.3,0.4,0.3c0.2,0,0.3-0.1,0.3-0.3c0.1,0,0.2,0,0.3,0c0,0,0-0.1,0.1-0.1
	c-0.1-0.1-0.2-0.2-0.3-0.3c-0.2-0.1-0.4-0.1-0.6-0.1C59.3,51.6,59.2,51.9,59.2,52z M59.5,51.1c0-0.1,0.1-0.2,0.1-0.3
	c-0.1,0.1-0.2,0.2-0.2,0.2C59.4,51.1,59.4,51.1,59.5,51.1z M60,51.1C60,51.1,59.9,51.2,60,51.1c-0.1,0.1-0.1,0.1-0.1,0.1
	C60,51.2,60,51.2,60,51.1C60,51.1,60,51.1,60,51.1z M59.8,48.6c-0.3,0.2-0.6,0.2-0.7,0.6c0.3,0,0.5,0,0.8-0.1
	C59.9,49,59.9,48.9,59.8,48.6z M59,41.6c0,0.3,0.1,0.5,0.3,0.5c0.2,0,0.3-0.1,0.3-0.3C59.5,41.7,59.3,41.7,59,41.6z M58.4,50.6
	C58.4,50.6,58.4,50.6,58.4,50.6C58.4,50.5,58.3,50.5,58.4,50.6C58.3,50.6,58.4,50.6,58.4,50.6c0,0.5,0,0.5,0.5,0.5
	C58.9,50.7,58.5,50.7,58.4,50.6z M58.8,33C58.8,33,58.8,33,58.8,33L58.8,33C58.8,33,58.8,33,58.8,33z M58.7,48.7
	c-0.1-0.1-0.2-0.1-0.2-0.1c-0.1,0-0.1,0.1-0.1,0.1c0.1,0.1,0.1,0.1,0.1,0.1C58.5,48.9,58.5,48.8,58.7,48.7z M58.5,33.8L58.5,33.8
	L58.5,33.8L58.5,33.8z M58.1,34.2c0,0,0,0.1,0,0.1c0,0,0.1-0.1,0.1-0.1C58.3,34.2,58.2,34.2,58.1,34.2
	C58.2,34.2,58.1,34.2,58.1,34.2z M58.1,44h0.6C58.5,43.7,58.3,43.7,58.1,44z M57.8,51.2c-0.1,0.2,0,0.4,0.4,0.6
	c0-0.2,0.1-0.3,0.1-0.5C58,51.1,57.9,51.1,57.8,51.2z M57.7,54.6C57.8,54.6,57.8,54.6,57.7,54.6C57.8,54.6,57.8,54.5,57.7,54.6
	C57.8,54.5,57.8,54.5,57.7,54.6C57.7,54.5,57.7,54.6,57.7,54.6z M57.2,42.5C57.2,42.5,57.3,42.6,57.2,42.5c0.1,0.1,0.2,0,0.2,0
	c-0.1,0-0.1-0.1-0.1-0.1C57.3,42.4,57.2,42.5,57.2,42.5z M57.4,48c0,0-0.1,0.1-0.1,0.1c0.1,0,0.1,0.1,0.2,0.1c0,0,0.1-0.1,0.1-0.1
	C57.5,48,57.4,48,57.4,48z M56.3,47.6C56.3,47.6,56.4,47.7,56.3,47.6c0.1,0.1,0.1,0,0.1,0C56.4,47.6,56.4,47.6,56.3,47.6
	C56.4,47.6,56.3,47.6,56.3,47.6z M55.7,43.2C55.7,43.2,55.8,43.2,55.7,43.2c0.1,0,0.1,0,0.1,0C55.8,43.2,55.8,43.1,55.7,43.2
	C55.8,43.2,55.7,43.2,55.7,43.2z M55.7,51.2L55.7,51.2L55.7,51.2L55.7,51.2z M55.4,49.7L55.4,49.7C55.5,49.7,55.5,49.7,55.4,49.7
	C55.5,49.7,55.4,49.7,55.4,49.7z M55.1,52c-0.1,0-0.1,0.1-0.2,0.1c0,0.1,0.1,0.2,0.1,0.2c0.1-0.1,0.1-0.1,0.2-0.2
	C55.2,52,55.1,52,55.1,52z M55,50.5c0-0.1,0-0.1,0-0.1c0,0-0.1,0-0.1,0C55,50.4,55,50.4,55,50.5z M54.6,32.5
	c0.2,0.1,0.3,0.1,0.5-0.1C54.9,32.4,54.8,32.4,54.6,32.5z M52.9,51.5C52.9,51.5,52.8,51.4,52.9,51.5c-0.1,0-0.1,0-0.1,0
	C52.8,51.5,52.8,51.5,52.9,51.5C52.9,51.5,52.9,51.5,52.9,51.5z M53.7,52.5c-0.1,0-0.1-0.1-0.1-0.1c0,0-0.1,0.1-0.1,0.1
	c0,0,0.1,0.1,0.1,0.1C53.6,52.6,53.6,52.5,53.7,52.5z M53.9,54.1c-0.1,0-0.1,0-0.1,0c0,0.1,0,0.2,0.1,0.3c0,0,0.1,0,0.1,0
	C53.9,54.4,53.9,54.3,53.9,54.1z M54.1,51.1c0.1-0.3,0.2-0.4,0.2-0.6c0-0.1,0-0.3-0.1-0.4c-0.1-0.1-0.2,0-0.3,0
	c-0.1,0-0.2,0.1-0.3,0.2h0C53.9,50.5,53.6,51,54.1,51.1z M54.4,54.4c0.1,0,0.1,0,0.2-0.1c-0.1-0.1-0.2-0.1-0.2-0.1
	c0,0-0.1,0.1-0.1,0.1C54.3,54.3,54.3,54.4,54.4,54.4z M54.7,55.3c-0.1,0.3-0.1,0.5-0.2,0.7c0.2,0,0.4,0.5,0.7,0
	C55.3,55.8,55.2,55.6,54.7,55.3z M55.4,58.2C55.4,58.2,55.4,58.2,55.4,58.2C55.4,58.2,55.3,58.2,55.4,58.2
	C55.4,58.2,55.4,58.2,55.4,58.2C55.4,58.2,55.4,58.2,55.4,58.2z M55.6,54.4c-0.1,0.1-0.1,0.3-0.2,0.4C55.7,54.7,55.7,54.6,55.6,54.4
	z M56,53.2c0-0.3,0-0.6-0.3-0.7c-0.1,0-0.3,0.1-0.4,0.2c-0.2,0.2-0.1,0.4,0.1,0.7C55.6,53.4,55.8,53.3,56,53.2z M56,45
	C56,45,56,44.9,56,45C56,44.9,55.9,45,56,45l-0.1,0C55.9,45,55.9,45,56,45C56,45,56,45,56,45z M56.9,49.2c0.1-0.1,0.4,0.1,0.5-0.2
	c-0.2-0.2-0.3-0.4-0.5-0.7c-0.2,0.2-0.3,0.5-0.5,0.6c-0.3,0.2-0.2,0.5,0,0.9C56.6,49.5,56.8,49.4,56.9,49.2z M57.1,53
	c0,0,0,0.1,0,0.1c0.1,0,0.2,0,0.3,0c0,0,0-0.1,0-0.1C57.3,53,57.2,53,57.1,53z M56.9,51.5L56.9,51.5L56.9,51.5L56.9,51.5z
	 M56.8,52.5c0.1,0,0.1-0.1,0.3-0.2c-0.2-0.1-0.2-0.1-0.3-0.1c-0.1,0-0.1,0.2-0.1,0.2C56.8,52.4,56.8,52.5,56.8,52.5z M57.2,64.9
	c0,0-0.1-0.1-0.1-0.1c0,0.1,0,0.2,0,0.2l0,0c0,0,0.1,0.1,0.1,0.1C57.1,65,57.2,64.9,57.2,64.9z M57.7,64.5
	C57.6,64.5,57.6,64.5,57.7,64.5C57.6,64.5,57.6,64.5,57.7,64.5c-0.1,0.1-0.1,0.1,0,0.1C57.6,64.6,57.7,64.5,57.7,64.5z M57.7,60.5
	C57.7,60.5,57.7,60.5,57.7,60.5l-0.1,0C57.6,60.5,57.6,60.6,57.7,60.5L57.7,60.5z M58.1,63.4c-0.2,0.1-0.3,0.2-0.2,0.4
	C58,63.7,58,63.6,58.1,63.4z M57.9,58.9C57.9,58.9,58,58.9,57.9,58.9c0-0.1,0-0.1,0-0.1L57.9,58.9C57.9,58.9,57.9,58.9,57.9,58.9z
	 M58.3,62.5C58.2,62.5,58.2,62.4,58.3,62.5c-0.1,0-0.1,0-0.1,0C58.2,62.5,58.2,62.5,58.3,62.5C58.2,62.5,58.3,62.5,58.3,62.5
	L58.3,62.5z M58.4,56.6c0.2,0,0.3,0.2,0.5,0c0.1-0.1,0.3-0.1,0.5,0.1c0.1,0.1,0.2,0.2,0.2,0.2v-0.7c-0.1-0.1-0.3-0.2-0.5-0.4
	c-0.2,0.1-0.3,0.2-0.4,0.4c-0.1-0.1-0.2-0.2-0.3-0.3c-0.2,0-0.3,0.3-0.5,0c0,0,0,0,0,0c-0.2,0-0.3,0.1-0.4,0.1c0-0.1,0-0.1,0-0.1
	c0,0-0.1,0.1-0.1,0.1c0,0,0.1-0.1,0.1-0.1c0-0.2-0.2-0.2-0.4-0.2c0,0.2,0.1,0.4,0.3,0.4c0.2,0.1,0.4,0.2,0.7,0.3
	c-0.3,0.1-0.4,0.2-0.6,0.3c-0.2-0.1-0.4-0.2-0.5-0.3l0,0c0.2,0.4,0.4,0.7,0.9,0.6c0.1,0,0.2,0.1,0.3,0.2c0,0.2,0.1,0.4,0.1,0.5
	c0.1-0.4,0.1-0.4-0.1-0.5C58.2,57,58.4,56.9,58.4,56.6z M59,70.1C59,70,59,70,59,70c-0.1,0-0.1,0.1-0.2,0.1c0,0.1,0.1,0.1,0.1,0.1
	C58.9,70.2,59,70.1,59,70.1z M59.3,58.2c-0.1-0.1-0.2-0.3-0.2-0.4c-0.2,0.1-0.3,0.1-0.5,0.2C58.9,58.1,59.1,58.2,59.3,58.2
	C59.3,58.2,59.3,58.2,59.3,58.2z M60.3,61.6c-0.1-0.2-0.2-0.4-0.3-0.4c-0.3-0.1-0.4,0.2-0.6,0.4h0C59.7,62,59.9,61.7,60.3,61.6z
	 M60.3,49.1c0,0,0.1-0.1,0.2-0.1c-0.1-0.1-0.1-0.1-0.2-0.1c-0.1,0-0.1,0.1-0.1,0.1v0C60.2,49,60.2,49.1,60.3,49.1z M60.8,61.4
	c0,0-0.1-0.1-0.1-0.1c0,0-0.1,0.1-0.1,0.1c0,0,0.1,0.1,0.1,0.1C60.7,61.4,60.8,61.4,60.8,61.4z M60.9,53.7c-0.1-0.3-0.2-0.5-0.5-0.4
	c0,0.1-0.1,0.2-0.1,0.2L60.9,53.7z M61,62.9C61,62.9,61,62.8,61,62.9c0-0.1,0-0.1-0.1-0.1C60.9,62.8,60.9,62.8,61,62.9
	C61,62.9,61,62.9,61,62.9z M58.7,90.8C58.6,90.8,58.6,90.8,58.7,90.8L58.7,90.8C58.7,90.8,58.7,90.8,58.7,90.8z M60,90.6
	c0-0.1,0-0.2,0-0.2c0,0-0.1,0-0.1,0C59.8,90.4,59.9,90.6,60,90.6C59.9,90.6,60,90.6,60,90.6z M61.2,90.9c0-0.2-0.2-0.3-0.4-0.3
	c0,0.2,0.1,0.5,0.1,0.8C61.1,91.3,61.2,91.1,61.2,90.9z M61.2,61.5L61.2,61.5L61.2,61.5C61.2,61.6,61.2,61.6,61.2,61.5
	C61.2,61.6,61.2,61.6,61.2,61.5L61.2,61.5z M61.4,50.4C61.5,50.4,61.5,50.4,61.4,50.4C61.4,50.3,61.4,50.3,61.4,50.4L61.4,50.4
	C61.4,50.4,61.4,50.4,61.4,50.4z M61.6,48.7c-0.3-0.1-0.4,0-0.5,0.3h0.3C61.4,48.9,61.5,48.8,61.6,48.7z M62.5,51.8
	c0-0.1,0.1-0.2,0.2-0.3c-0.1-0.1-0.2-0.1-0.3-0.2c-0.1,0-0.1,0-0.2,0l0.2,1.3c0.1,0,0.1-0.1,0.1-0.1C62.6,52.4,62.5,52.1,62.5,51.8
	L62.5,51.8z M63.8,35.8c0.1-0.4-0.1-0.5-0.6-0.3h0c0.2,0.2,0.3,0.4,0.2,0.7c0,0,0.1,0.1,0.3,0.2C63.7,36.2,63.8,36,63.8,35.8z
	 M64.2,39.2c0,0,0.1-0.1,0.1-0.1C64.2,39,64,39,63.9,38.9C63.9,39.2,64.1,39.3,64.2,39.2z M64.1,44.8L64.1,44.8L64.1,44.8L64.1,44.8
	z M64.3,50.3c-0.1-0.1-0.1-0.2-0.2-0.2c0,0-0.1,0-0.1,0.1c0,0.1,0.1,0.2,0.1,0.2C64.2,50.4,64.2,50.3,64.3,50.3z M64.4,46.8
	c0,0-0.1-0.1-0.1-0.1c0,0.1-0.1,0.2-0.1,0.2c0,0,0.1,0.1,0.1,0.1C64.4,46.9,64.4,46.9,64.4,46.8z M64.7,53.9L64.7,53.9
	C64.7,53.9,64.7,53.8,64.7,53.9c-0.1-0.1-0.1,0-0.1,0C64.7,53.9,64.7,53.9,64.7,53.9C64.7,53.9,64.7,53.9,64.7,53.9z M64.7,49.2
	C64.7,49.2,64.7,49.2,64.7,49.2c-0.1,0-0.1,0-0.1,0C64.6,49.3,64.7,49.3,64.7,49.2C64.7,49.3,64.7,49.2,64.7,49.2z M64.8,38.9
	C64.8,38.9,64.8,38.9,64.8,38.9C64.8,38.9,64.8,38.9,64.8,38.9C64.8,38.9,64.8,38.9,64.8,38.9C64.8,38.9,64.8,38.9,64.8,38.9z
	 M65,45.9C65,45.9,64.9,45.9,65,45.9c-0.1-0.1-0.1,0-0.1,0C64.9,46,64.9,46,65,45.9C64.9,46,65,46,65,45.9z M65.3,37.9
	C65.2,37.9,65.2,37.9,65.3,37.9c-0.1,0-0.1,0-0.1,0C65.2,38,65.2,38,65.3,37.9C65.2,38,65.3,37.9,65.3,37.9z M65.4,47
	c0,0,0.1,0.1,0.1,0.1h0v0C65.4,47.1,65.4,47,65.4,47z M65.5,50.1L65.5,50c0,0-0.1,0-0.1,0.1C65.4,50.1,65.5,50.1,65.5,50.1
	C65.5,50.1,65.5,50.1,65.5,50.1z M65.8,35.9C65.8,35.9,65.8,35.9,65.8,35.9L65.8,35.9C65.8,35.9,65.8,35.9,65.8,35.9L65.8,35.9z
	 M65.9,50C65.9,50,65.8,50,65.9,50c-0.1,0-0.1,0-0.1,0C65.8,50.1,65.8,50.1,65.9,50C65.9,50.1,65.9,50,65.9,50z M66.4,50.6
	L66.4,50.6c0.1-0.1,0-0.2,0-0.2c-0.1,0-0.1,0.1-0.1,0.1C66.3,50.6,66.4,50.6,66.4,50.6z M66.7,53.2c-0.1-0.1-0.2-0.1-0.2-0.1
	c0,0-0.1,0.1-0.1,0.1c0,0.1,0.1,0.1,0.1,0.2C66.5,53.3,66.6,53.3,66.7,53.2z M67.1,50.5L67.1,50.5L67.1,50.5L67.1,50.5z M67.1,43.7
	C67.1,43.8,67.1,43.8,67.1,43.7C67.1,43.8,67.1,43.8,67.1,43.7C67.1,43.8,67.1,43.8,67.1,43.7z M67.4,58.2
	C67.4,58.2,67.4,58.2,67.4,58.2c-0.1,0-0.1,0-0.1,0C67.3,58.2,67.4,58.2,67.4,58.2C67.4,58.2,67.4,58.2,67.4,58.2z M73.8,64.1
	c-0.4-0.1-0.7-0.3-1.1-0.2c-0.1,0-0.2,0.1-0.2,0.2c0,0.1,0.1,0.3,0.2,0.3c0.4,0,0.7-0.1,1.1-0.1h0C73.8,64.2,73.8,64.2,73.8,64.1z
	 M73.7,62.3C73.7,62.3,73.7,62.3,73.7,62.3C73.8,62.3,73.7,62.3,73.7,62.3C73.7,62.3,73.7,62.3,73.7,62.3
	C73.7,62.3,73.7,62.3,73.7,62.3z M72.9,62.3C73,62.3,73,62.3,72.9,62.3C73,62.3,73,62.3,72.9,62.3C73,62.2,72.9,62.2,72.9,62.3
	C72.9,62.3,72.9,62.3,72.9,62.3z M72.3,62.1h0.5C72.7,61.9,72.6,61.8,72.3,62.1z M72.3,66.5C72.2,66.4,72.2,66.4,72.3,66.5
	C72.2,66.4,72.2,66.4,72.3,66.5C72.2,66.5,72.2,66.5,72.3,66.5C72.2,66.5,72.3,66.5,72.3,66.5z M72,62c0.2-0.1,0.3-0.2,0.2-0.4
	C72,61.7,71.9,61.8,72,62z M71.8,52.7C71.9,52.7,71.9,52.7,71.8,52.7C71.9,52.7,71.8,52.7,71.8,52.7C71.8,52.7,71.8,52.7,71.8,52.7z
	 M71.7,52.8C71.7,52.8,71.7,52.8,71.7,52.8c0.1,0,0.1-0.1,0.1-0.1C71.8,52.7,71.7,52.8,71.7,52.8z M71.1,54.4
	C71.1,54.4,71.2,54.4,71.1,54.4c0.1,0,0.1,0,0.1,0C71.2,54.4,71.2,54.3,71.1,54.4C71.2,54.4,71.1,54.4,71.1,54.4z M71.1,55.5
	c0.2,0.1,0.3,0,0.5-0.2C71.3,55.4,71.2,55.5,71.1,55.5z M70.8,48.4C70.8,48.5,70.8,48.5,70.8,48.4C70.8,48.5,70.9,48.5,70.8,48.4
	C70.8,48.5,70.8,48.4,70.8,48.4C70.8,48.4,70.8,48.4,70.8,48.4z M70.5,46.9c0,0,0.1,0.1,0.1,0.1l0-0.1c0,0-0.1-0.1-0.1-0.1
	C70.6,46.9,70.5,46.9,70.5,46.9z M70.6,53.4L70.6,53.4L70.6,53.4L70.6,53.4z M69.5,53.9L69.5,53.9C69.6,53.9,69.6,53.9,69.5,53.9
	L69.5,53.9C69.5,53.9,69.5,53.9,69.5,53.9z M67.7,50.1c0.1,0,0.1-0.1,0.1-0.1C67.7,50,67.7,50.1,67.7,50.1z M68.6,64
	c-0.1,0-0.1-0.1-0.1-0.1C68.2,64,68,64,67.7,64.1c-0.1,0-0.1-0.1-0.2-0.1c0,0,0,0.1,0,0.1h0.2C68.1,64.4,68.3,64.1,68.6,64z
	 M68.1,53.9L68.1,53.9L68.1,53.9L68.1,53.9z M68.4,59.6C68.4,59.6,68.4,59.5,68.4,59.6c0-0.1,0-0.1,0-0.1
	C68.4,59.5,68.3,59.5,68.4,59.6C68.3,59.5,68.4,59.5,68.4,59.6z M68.7,44c0-0.1-0.1-0.3-0.1-0.3c-0.2,0-0.4,0-0.5,0.1
	c-0.2,0.2-0.2,0.4,0.1,0.7h0C68.5,44.4,68.7,44.3,68.7,44z M68.9,63.4C68.8,63.4,68.8,63.4,68.9,63.4L68.9,63.4
	C68.8,63.5,68.9,63.5,68.9,63.4C68.9,63.4,68.9,63.4,68.9,63.4z M68.9,58.8c0.1,0,0.1-0.1,0.3-0.2c-0.1-0.1-0.2-0.1-0.2-0.1h0
	c-0.1,0-0.1,0.1-0.2,0.1C68.8,58.8,68.9,58.8,68.9,58.8z M69.8,62.7c-0.3,0.2-0.6,0.2-0.8,0.5c0.2,0,0.4-0.1,0.5-0.1
	C69.7,63.2,69.8,63.1,69.8,62.7z M70.5,58.9h1C71.1,58.6,70.8,58.8,70.5,58.9z M71,62.7C71,62.7,71,62.7,71,62.7
	C71,62.7,71,62.7,71,62.7C71,62.7,71,62.8,71,62.7C71,62.7,71,62.7,71,62.7z M71.4,66.9c0,0,0-0.1,0-0.1c-0.1,0-0.2,0.1-0.2,0.1
	c0,0,0,0.1,0,0.1C71.2,67,71.3,66.9,71.4,66.9z M71.7,65.7c-0.1,0-0.1-0.1-0.1-0.1c0,0,0,0.1,0,0.1C71.6,65.8,71.7,65.7,71.7,65.7z
	 M72.1,62.6c-0.3,0-0.5-0.1-0.7-0.1c0,0.1,0,0.2,0,0.2C71.7,62.8,71.8,62.9,72.1,62.6z M71.9,63.7c0.1,0,0.2,0.1,0.3,0.1
	c0,0,0.1-0.1,0.1-0.1c-0.1,0-0.1-0.1-0.2-0.1C72,63.6,71.9,63.6,71.9,63.7C71.9,63.6,71.9,63.7,71.9,63.7z M27,70.5l2.7,0.3v10.8
	c-0.1,0-0.2,0-0.2,0.1c-1.3,1.1-2.3,2.7-2.9,4.4c-0.1-4,1.7-6,1.8-6.1c0.2-0.3,0.3-0.6,0.1-0.9c-0.2-0.3-0.5-0.4-0.9-0.3
	c-0.1,0.1-2.4,0.8-4.1,4.3c-0.3-1.4-0.8-2.6-1.4-3.7c-3-4.9-6.2-5.7-6.9-5.6c-0.3,0-0.5,0.2-0.6,0.5c-0.1,0.3,0,0.6,0.2,0.8
	c1.1,1.2,3.8,4.6,4.3,9.2c0.1,0.5,0,1.1-0.1,1.6c-0.3-1-0.6-1.8-0.8-2.3c-1.5-3.1-5.1-5.4-6-5c-0.2,0.1-0.4,0.3-0.4,0.5
	c-0.1,0.2,0,0.5,0.2,0.7c0.1,0.1,2.4,2.6,2.5,7.3c-1.2-2.2-2.5-3.7-3.6-4.7V61c0,0.1,0.1,0.1,0.1,0.2c0.1,0,0.1,0,0.1-0.1
	c0-0.1-0.1-0.2-0.1-0.4c0,0-0.1,0-0.1,0v-3.4c0,0,0.1-0.1,0.2-0.1C11,57.3,11,57.2,11,57.2v-1.9c0,0,0,0,0.1,0c0,0,0-0.1,0-0.1l0,0
	c0,0,0,0-0.1,0v-4.8l-1.6,9.1c0,0-0.1,0-0.1,0.1C9,59.8,9,60,9.2,60.4l-0.7,3.7c-0.1,1.1-1.2,2-2.3,1.8l-3.4-0.4
	c-1.1-0.1-2-1.2-1.8-2.3l3.5-18.9c0,0,0,0,0,0c0,0,0-0.1,0-0.1l0,0.1l1.1-5.9c0.1-1.1,1.1-1.9,2.3-1.8c0.1,0,0.1,0,0.1,0h20.5
	l-5.4,29c0,0,0,0.1,0,0.1c-0.1,1.2,0.2,2.3,0.9,3.2C24.8,69.8,25.8,70.3,27,70.5z M27.7,39.8c0,0.1,0.1,0.1,0.1,0.1l0.1-0.4
	c0,0,0,0,0,0C27.8,39.6,27.7,39.8,27.7,39.8z M27.3,39.8C27.3,39.8,27.3,39.8,27.3,39.8C27.3,39.8,27.3,39.7,27.3,39.8
	C27.3,39.7,27.3,39.7,27.3,39.8C27.3,39.7,27.3,39.8,27.3,39.8z M27,38.3c0,0,0.1,0.1,0.1,0.1c0,0.1,0.1,0.1,0.1,0.1v0
	c0,0-0.1-0.1-0.1-0.1C27.1,38.4,27,38.3,27,38.3L27,38.3z M26,39c0.1,0,0.1,0.1,0.2,0.1c0,0,0.1,0,0.1,0c0-0.1-0.1-0.1-0.1-0.2
	c0,0-0.1,0-0.1,0C26.1,38.9,26,39,26,39z M24.7,42.1C24.7,42.1,24.7,42.1,24.7,42.1C24.8,42.1,24.8,42,24.7,42.1
	C24.7,42,24.7,42,24.7,42.1L24.7,42.1z M3.1,53.7C3.1,53.7,3.1,53.7,3.1,53.7C3,53.7,3,53.8,3.1,53.7L3.1,53.7
	C3.1,53.8,3.1,53.7,3.1,53.7z M4.1,52.8c-0.3-0.2-0.4-0.2-0.5,0.1C3.7,53.1,3.9,53.1,4.1,52.8z M5.6,52.8c-0.1-0.1-0.2-0.3-0.3-0.1
	C5,52.8,4.8,53,4.6,53.2c0,0.1,0.1,0.1,0.1,0.1h0c0.1,0,0.2,0.1,0.3,0.1c0.1,0,0.2,0,0.3,0C5.5,53.3,5.7,53,5.6,52.8z M6.8,46.3
	C6.8,46.3,6.8,46.2,6.8,46.3L6.8,46.3C6.7,46.3,6.8,46.3,6.8,46.3C6.8,46.3,6.8,46.3,6.8,46.3z M8.5,53c-0.2-0.2-0.3-0.4-0.5-0.5
	c-0.1-0.1-0.3-0.2-0.4-0.1c-0.1,0-0.2,0.2-0.2,0.3C7.3,53,7.7,53.3,8,53.2C8.2,53.1,8.4,53.1,8.5,53z M8.7,37.2L8.7,37.2L8.7,37.2
	L8.7,37.2z M9.7,52.5c-0.1,0.2-0.2,0.2-0.3,0.3c-0.1,0.1-0.2,0.2-0.3,0.4c0.1,0.2,0.2,0.4,0.3,0.5c0,0,0.1,0,0.1,0
	C9.5,53.3,9.9,53,9.7,52.5z M10.7,36.6L10.7,36.6L10.7,36.6L10.7,36.6z M14.5,54.1C14.5,54.1,14.6,54.1,14.5,54.1c0.1,0,0.1,0,0.1,0
	C14.6,54,14.6,54,14.5,54.1C14.6,54,14.5,54.1,14.5,54.1z M13.2,48.4c0,0.1,0.1,0.1,0.1,0.1c0,0,0.1-0.1,0.1-0.1
	c0,0-0.1-0.1-0.1-0.1C13.2,48.3,13.2,48.4,13.2,48.4z M12.2,39.4L12.2,39.4L12.2,39.4L12.2,39.4z M11.9,47.6L11.9,47.6L11.9,47.6
	L11.9,47.6z M11.8,53.9c0.1,0,0.1,0.1,0.1,0.1c0.1,0,0.1-0.1,0.2-0.2c-0.1-0.1-0.2-0.1-0.2-0.1C11.9,53.7,11.8,53.8,11.8,53.9z
	 M11.5,54.7C11.5,54.6,11.4,54.6,11.5,54.7C11.4,54.7,11.5,54.7,11.5,54.7L11.5,54.7L11.5,54.7z M11.5,41.7
	C11.5,41.7,11.5,41.7,11.5,41.7c-0.1,0-0.1,0-0.1,0C11.4,41.7,11.4,41.7,11.5,41.7L11.5,41.7C11.5,41.7,11.5,41.7,11.5,41.7z
	 M12.4,56.4c0.6,0,1-0.2,1.1-0.7h-0.4c-0.2-0.2-0.3-0.4-0.5-0.6c0.1-0.2,0.3-0.4,0.3-0.7c0.1-0.2-0.1-0.4-0.3-0.3
	c-0.4,0.1-0.5,0.4-0.4,0.8c0,0.1,0.1,0.2,0.1,0.3c-0.2,0.1-0.4,0.1-0.6,0.2C12,55.7,12.2,56,12.4,56.4z M12,59C12,59,12,59,12,59
	C12,58.9,12.1,58.9,12,59L12,59C12,58.9,12,59,12,59z M12,60.5c0.1-0.2,0.2-0.3,0.2-0.4c0-0.1-0.2-0.2-0.2-0.2
	c-0.1,0-0.2,0.1-0.2,0.2C11.8,60.2,11.9,60.3,12,60.5z M12.2,59.6c0.1,0,0.1-0.1,0.1-0.1c-0.1-0.1-0.1-0.1-0.2-0.2
	c-0.1,0.1-0.1,0.2-0.1,0.2h0C12.1,59.6,12.2,59.6,12.2,59.6z M12.4,61.7c-0.5-0.2-0.5-0.1-0.5,0.4C12.1,62,12.3,61.9,12.4,61.7z
	 M13.3,60.5c-0.2,0.1-0.3,0.2-0.5,0.2C13.3,61,13.3,61,13.3,60.5z M13.5,58.7c-0.1-0.3-0.2-0.6-0.3-1c0,0-0.1,0-0.3-0.1
	c0-0.1,0.1-0.1,0.1-0.2c0-0.2,0-0.3-0.1-0.4C12.8,57,12.5,57,12.4,57c-0.1,0.1-0.2,0.3-0.2,0.4c0.1,0.3-0.1,0.4-0.2,0.6
	c0.3,0.6,0.5,0.7,1,0.5C13.1,58.6,13.2,58.9,13.5,58.7z M13.6,60.1L13.6,60.1L13.6,60.1L13.6,60.1z M13.9,60.5L13.9,60.5L13.9,60.5
	L13.9,60.5z M14.1,61c0-0.1-0.1-0.2-0.1-0.2v0c0,0-0.1,0-0.1,0c0,0.1,0,0.1,0.1,0.2C14,61.1,14,61,14.1,61z M13.9,56.2
	c-0.1,0.2-0.3,0.3-0.4,0.5c0.2,0.4,0.4,0.5,0.7,0.4C14.2,56.8,14.3,56.4,13.9,56.2z M14.4,60.6c0.4-0.1,0.5-0.4,0.4-0.7
	C14.6,60.2,14.5,60.3,14.4,60.6z M14.7,62.7C14.8,62.6,14.8,62.6,14.7,62.7c0.1-0.1,0-0.2,0-0.2c0,0-0.1,0.1-0.1,0.1h0
	C14.7,62.6,14.7,62.6,14.7,62.7z M14.8,63.1C14.8,63.1,14.7,63,14.8,63.1C14.7,63,14.7,63.1,14.8,63.1
	C14.7,63.1,14.8,63.2,14.8,63.1C14.8,63.1,14.8,63.1,14.8,63.1z M15.4,62.8C15.4,62.7,15.3,62.7,15.4,62.8c-0.1-0.1-0.2-0.1-0.2,0
	c0,0,0,0.1,0.1,0.2C15.3,62.8,15.4,62.8,15.4,62.8z M15.6,56.1C15.4,56,15.3,56,15.3,56c-0.1,0-0.2,0.1-0.2,0.2c0,0.1,0,0.2,0,0.2
	c0.1,0,0.3,0,0.3,0l0,0C15.4,56.4,15.5,56.3,15.6,56.1z M16,61.1C16,61.1,15.9,61.1,16,61.1C15.9,61.1,15.9,61.1,16,61.1
	C15.9,61.1,15.9,61.1,16,61.1C16,61.1,16,61.1,16,61.1z M16.2,38.9C16.2,38.9,16.2,38.8,16.2,38.9c-0.1-0.1-0.2,0-0.2,0
	c0,0,0,0.1,0,0.1C16.1,38.9,16.2,38.9,16.2,38.9z M17,38.5c0,0-0.1-0.1-0.1-0.1c0,0-0.1,0.1-0.1,0.1c0.1,0,0.1,0.1,0.1,0.1
	C17,38.6,17,38.6,17,38.5z M17.6,38.7C17.6,38.6,17.6,38.6,17.6,38.7L17.6,38.7C17.6,38.7,17.6,38.7,17.6,38.7L17.6,38.7z
	 M18.7,58.8c-0.1,0-0.2-0.1-0.4-0.1c0.1,0.2,0.1,0.3,0.1,0.4c0.1,0,0.2-0.1,0.3-0.1C18.7,58.9,18.7,58.8,18.7,58.8z M19.7,37
	c-0.1-0.1-0.2-0.1-0.3-0.2c-0.3-0.1-0.5,0-0.4,0.3c0.1,0.4-0.1,0.6-0.4,0.9l0,0c0.3-0.2,0.7-0.3,1-0.4C20,37.4,20,37.2,19.7,37z
	 M20.8,62.5c0-0.1-0.1-0.2-0.2-0.2c-0.3,0-0.2,0.2-0.3,0.5C20.7,62.8,20.8,62.8,20.8,62.5z M21.2,38.2c-0.1,0-0.2-0.1-0.3-0.1
	c0,0.1,0,0.1,0,0.1C21,38.3,21.1,38.3,21.2,38.2z M99,63.2c0.1,1.1-0.7,2.2-1.8,2.3l-3.4,0.4c-1.1,0.1-2.2-0.7-2.3-1.8l-1.8-10.2
	l0,0c0.1,0,0.1-0.1,0.2-0.1c-0.1,0-0.2,0-0.2,0L89,50.5v3.4c0,0-0.1,0-0.1,0.1c0,0,0.1,0,0.1,0.1v10.1c0,0,0,0,0,0c0,0,0,0,0,0v18.1
	c-1.1,1-2.5,2.5-3.7,4.8c0.1-4.6,2.4-7.1,2.5-7.3c0.2-0.2,0.2-0.4,0.2-0.7c0-0.2-0.2-0.4-0.4-0.5c-0.9-0.4-4.4,1.9-6,5
	c-0.3,0.5-0.6,1.3-0.8,2.3c-0.1-0.5-0.1-1.1-0.1-1.6c0.5-4.6,3.2-8,4.3-9.2c0.2-0.2,0.3-0.5,0.2-0.8c-0.1-0.3-0.4-0.4-0.6-0.5
	c-0.6-0.1-3.8,0.7-6.9,5.6c-0.6,0.9-1,2.1-1.3,3.3c-0.1-0.1-0.2-0.2-0.3-0.2c0,0,0,0-0.1,0c-1.6-3.1-3.7-3.8-3.8-3.8
	c-0.3-0.1-0.7,0-0.9,0.3c-0.2,0.3-0.1,0.7,0.1,0.9c0,0,0.4,0.5,0.9,1.4c0,0,0,0,0,0c0,0,0,0.1,0.1,0.1c0,0,0,0,0,0
	c0.3,0.6,0.5,1.3,0.7,2.2c-0.1,0.1-0.3,0.3-0.4,0.4c0,0.1,0.1,0.1,0.1,0.1c0.1,0,0.3-0.1,0.4-0.1c0,0,0-0.1,0-0.1
	c0.1,0.6,0.2,1.3,0.2,2.1c-0.6-1.8-1.6-3.3-2.9-4.4c0,0,0,0,0,0V70.8l2.7-0.3c1.2-0.1,2.2-0.7,2.9-1.6c0.7-0.9,1.1-2.1,0.9-3.2
	c0-0.1,0-0.1,0-0.1l-5.4-29H78c0,0-0.1,0.1-0.1,0.1c0,0.1,0.1,0.1,0.2,0.3c0.1-0.2,0.2-0.2,0.2-0.3c0,0,0,0,0-0.1h1.6
	c0,0.1-0.1,0.1-0.1,0.1c0.1,0.1,0.2,0.1,0.2,0.1v0c0.1,0,0.2-0.1,0.2-0.3H92c0.1,0,0.1,0,0.1,0c1.1-0.1,2.1,0.7,2.3,1.8L99,63.2z
	 M72.1,83.2L72.1,83.2L72.1,83.2L72.1,83.2L72.1,83.2z M71.7,78c-0.1,0.1-0.2,0.2-0.4,0.3C71.5,78.3,71.7,78.2,71.7,78z M72.9,71.2
	C72.8,71.2,72.8,71.2,72.9,71.2C72.8,71.2,72.8,71.3,72.9,71.2C72.8,71.3,72.8,71.3,72.9,71.2C72.9,71.2,72.9,71.2,72.9,71.2z
	 M83.5,55.6C83.5,55.7,83.5,55.7,83.5,55.6c0.1,0.1,0.1,0,0.1,0C83.6,55.6,83.6,55.6,83.5,55.6C83.5,55.6,83.5,55.6,83.5,55.6z
	 M83.1,38.7c0.1-0.1,0.1-0.2,0.2-0.4C83.1,38.4,83,38.5,83.1,38.7z M82.4,55.3C82.4,55.3,82.5,55.3,82.4,55.3L82.4,55.3
	C82.4,55.3,82.4,55.3,82.4,55.3L82.4,55.3z M82,55.2C82,55.1,82,55.1,82,55.2c-0.1-0.1-0.2-0.1-0.3-0.1c0,0,0,0.1,0,0.1
	C81.8,55.2,81.9,55.2,82,55.2z M81.7,67.1C81.7,67.1,81.7,67.2,81.7,67.1L81.7,67.1L81.7,67.1L81.7,67.1
	C81.7,67.1,81.7,67.1,81.7,67.1z M81.5,39.7L81.5,39.7c0.1,0.1,0.1,0.1,0.2,0.3c0.1-0.2,0.2-0.2,0.2-0.3c0,0-0.1-0.1-0.1-0.1
	C81.7,39.6,81.6,39.7,81.5,39.7z M81.4,70.7c0,0,0.1,0.1,0.1,0.1c0,0,0,0,0.1-0.1C81.6,70.7,81.5,70.6,81.4,70.7
	C81.5,70.6,81.5,70.7,81.4,70.7z M80.8,37c0,0.1,0.1,0.3,0.1,0.4c0.1-0.1,0.3-0.1,0.4-0.2C81.1,36.9,81,36.8,80.8,37z M80.6,41.8
	c0.1,0.1,0.2,0.2,0.2,0.2c0-0.1,0.1-0.1,0.1-0.1c-0.1-0.1-0.1-0.2-0.2-0.2C80.7,41.7,80.6,41.8,80.6,41.8z M79.6,41.4
	c0.1,0,0.2,0,0.4,0c0,0,0-0.1,0-0.1C79.9,41.1,79.8,41.1,79.6,41.4z M79.8,69.6c0.1,0,0.1,0.1,0.1,0.2c0,0,0.1-0.1,0.1-0.1
	C79.9,69.7,79.9,69.6,79.8,69.6z M79.6,47.6L79.6,47.6L79.6,47.6L79.6,47.6L79.6,47.6z M78.9,40.4C78.9,40.4,78.9,40.4,78.9,40.4
	c0.1,0.1,0.1,0,0.2,0c0-0.1-0.1-0.1-0.1-0.1C79,40.3,78.9,40.3,78.9,40.4z M78.6,52.8c0.1,0,0.2,0,0.3-0.1c0.1,0,0.1-0.1,0.1-0.2
	c0-0.1-0.1-0.2-0.1-0.2c-0.1,0-0.2,0-0.2,0.1C78.6,52.5,78.6,52.7,78.6,52.8z M78.6,52.9c-0.2,0-0.3,0.1-0.2,0.3
	c0.2,0,0.4,0.1,0.6,0.1C78.8,53.1,78.7,53,78.6,52.9z M78.2,40.5C78.2,40.5,78.2,40.6,78.2,40.5C78.2,40.6,78.2,40.5,78.2,40.5
	L78.2,40.5L78.2,40.5L78.2,40.5z M78.1,41C78.1,41.1,78.1,41.1,78.1,41c0.1,0.1,0.2,0,0.3,0c0,0,0-0.1,0-0.1
	C78.2,41,78.2,41,78.1,41z M77.7,42.3L77.7,42.3c0.5,0,0.5,0,0.6-0.4c0.1,0,0.1-0.1,0.2-0.1c0,0-0.1-0.1-0.1-0.1
	c-0.1,0.1-0.1,0.1-0.1,0.1c0,0,0,0,0,0c-0.2,0-0.4-0.1-0.6-0.1V42.3z M78,48.4c-0.1-0.2-0.1-0.4-0.2-0.4c-0.1,0-0.3,0.1-0.5,0.2
	C77.5,48.4,77.6,48.4,78,48.4z M77.4,50.4c0,0-0.1,0.1-0.1,0.1c0,0.1,0,0.1,0.1,0.2c0.1,0,0.1-0.1,0.2-0.1
	C77.5,50.5,77.4,50.5,77.4,50.4z M77.6,45.6c-0.1,0-0.1,0.1-0.2,0.2c0.1,0.1,0.2,0.1,0.2,0.1c0,0,0.1-0.1,0.1-0.1
	C77.7,45.7,77.6,45.7,77.6,45.6z M76.8,39.4c0,0.1,0.2,0.2,0.2,0.2c0.1,0,0.2-0.1,0.4-0.2c-0.2-0.1-0.2-0.2-0.3-0.3
	C76.9,39.1,76.8,39.2,76.8,39.4z M76.8,41.3c0.1,0,0.2,0,0.2,0l0,0c0,0,0.1-0.1,0.1-0.1h0c-0.1,0-0.1,0-0.1,0
	C76.9,41.2,76.9,41.2,76.8,41.3z M77,54.7C77,54.7,77,54.8,77,54.7c0.1,0.1,0.1,0,0.1,0C77.1,54.7,77.1,54.7,77,54.7
	C77,54.7,77,54.7,77,54.7z M77,47.9C77,47.9,77,47.9,77,47.9c0.1,0,0.1-0.1,0.1-0.1C77,47.8,76.9,47.8,77,47.9L77,47.9
	C76.9,47.8,77,47.9,77,47.9z M76.4,44.5c0.2,0,0.4,0,0.4-0.2c0-0.1-0.1-0.2-0.1-0.2C76.5,44.1,76.4,44.2,76.4,44.5z M76.7,59.4
	C76.7,59.4,76.7,59.5,76.7,59.4l0,0.1C76.7,59.5,76.8,59.5,76.7,59.4C76.7,59.5,76.7,59.4,76.7,59.4z M76.1,56.6
	c0.1,0.4,0.2,0.5,0.4,0.4c0.1,0,0.2-0.2,0.2-0.3C76.7,56.5,76.5,56.4,76.1,56.6L76.1,56.6z M76.1,57.7c0.1,0.1,0.2,0.2,0.3,0.2
	C76.4,57.6,76.3,57.5,76.1,57.7z M76.1,59C76.1,59.1,76.1,59.1,76.1,59C76.1,59.1,76.1,59.1,76.1,59L76.1,59
	C76.1,59,76.1,59,76.1,59z M75.4,46.1L75.4,46.1C75.4,46.1,75.4,46.2,75.4,46.1c0,0.1,0,0.1,0,0.1C75.4,46.2,75.4,46.2,75.4,46.1
	C75.4,46.1,75.4,46.1,75.4,46.1z M75.3,43.5c0,0,0,0.1,0.1,0.1c0,0,0.1-0.1,0.1-0.1C75.4,43.6,75.4,43.5,75.3,43.5
	C75.3,43.5,75.3,43.5,75.3,43.5L75.3,43.5z M74.6,38.3C74.6,38.3,74.7,38.3,74.6,38.3c0.1,0.1,0.2,0,0.2,0c-0.1-0.1-0.2-0.2-0.2-0.2
	v0C74.7,38.2,74.6,38.2,74.6,38.3z M72.9,38.6L72.9,38.6L72.9,38.6L72.9,38.6z M73.6,40.9c0.1-0.1,0.2-0.2,0.4-0.4
	c-0.3-0.1-0.5-0.3-0.7-0.1C73.3,40.6,73.4,40.8,73.6,40.9z M73.5,43.5c0,0-0.1,0-0.1,0v0.4c0,0,0.1,0,0.1,0
	C73.5,43.8,73.5,43.7,73.5,43.5z M73.7,42.6c-0.1,0-0.2-0.1-0.2-0.1c0,0,0,0.1-0.1,0.1c0.1,0,0.1,0.1,0.1,0.1v0
	C73.6,42.7,73.7,42.7,73.7,42.6z M74.2,46.2C74.2,46.2,74.2,46.1,74.2,46.2c-0.1-0.1-0.2,0-0.2,0c0,0,0.1,0.1,0.1,0.1
	C74.2,46.3,74.2,46.2,74.2,46.2z M74.7,48.3c0.1,0,0.2-0.1,0.4-0.2c-0.2-0.1-0.2-0.3-0.3-0.3c-0.1,0-0.2,0.1-0.2,0.2
	C74.6,48.1,74.7,48.3,74.7,48.3z M75.4,54.2c-0.1,0.1-0.2,0.2-0.4,0.3C75.4,54.6,75.4,54.5,75.4,54.2z M75.8,47.1
	c0-0.1-0.1-0.2-0.2-0.4c-0.1,0.2-0.2,0.3-0.2,0.4h0c0,0,0.2,0.2,0.2,0.2C75.7,47.3,75.8,47.2,75.8,47.1z M75.9,41.7
	C75.9,41.7,76,41.6,75.9,41.7c0-0.1,0-0.2,0-0.2s-0.1,0.1-0.1,0.1l0,0C75.8,41.6,75.9,41.7,75.9,41.7z M76.4,68.5
	C76.4,68.5,76.4,68.5,76.4,68.5L76.4,68.5C76.4,68.5,76.4,68.5,76.4,68.5L76.4,68.5z M76.3,74.9c0,0,0.1,0.1,0.1,0.1
	c0.1-0.1,0.3-0.1,0.4-0.2c0,0,0-0.1,0-0.1l0,0C76.6,74.7,76.5,74.8,76.3,74.9z M75.2,76.1L75.2,76.1L75.2,76.1L75.2,76.1z
	 M75.5,80.3c-0.1,0-0.2,0.1-0.2,0.1c0,0,0,0.1,0,0.1c0.1,0,0.2-0.1,0.2-0.1C75.5,80.3,75.5,80.3,75.5,80.3z M76,70.2
	c-0.2,0.1-0.3,0.1-0.5,0.2C75.8,70.6,75.9,70.5,76,70.2z M76.4,80.4c-0.2,0.1-0.4,0.1-0.5,0.2c-0.1,0.1,0,0.3,0,0.4
	c0.1,0,0.3-0.1,0.3-0.1C76.2,80.8,76.3,80.6,76.4,80.4z M77.4,77.1c0,0-0.1-0.1-0.1-0.1c-0.2,0-0.3,0.1-0.4,0.4
	C77.1,77.3,77.2,77.2,77.4,77.1z M77.4,75.6c-0.1-0.3-0.2-0.4-0.4-0.2c-0.2,0.2-0.5,0.3-0.7,0.5c0.1,0.2,0.1,0.3,0.2,0.5
	C76.9,76.3,76.9,75.6,77.4,75.6z M77.1,70.6C77.1,70.6,77.1,70.6,77.1,70.6c0-0.1-0.1-0.1-0.2-0.2c0,0,0,0.1,0,0.1
	C77,70.6,77,70.6,77.1,70.6z M77.6,75.1C77.6,75.1,77.6,75.1,77.6,75.1C77.5,75.1,77.6,75.1,77.6,75.1
	C77.6,75.1,77.6,75.1,77.6,75.1z M77.6,64.9c0-0.1-0.1-0.2-0.1-0.2c-0.1,0-0.3,0.1-0.4,0.2c-0.1,0.1,0,0.3-0.1,0.5
	c0.2-0.1,0.4-0.1,0.4-0.1C77.5,65.2,77.6,65.1,77.6,64.9z M77.8,72.6C77.8,72.6,77.8,72.5,77.8,72.6c-0.1-0.1-0.1-0.1-0.1,0
	C77.7,72.6,77.7,72.6,77.8,72.6C77.7,72.6,77.8,72.6,77.8,72.6z M77.7,70.3C77.7,70.3,77.7,70.3,77.7,70.3
	C77.7,70.3,77.7,70.3,77.7,70.3L77.7,70.3C77.7,70.3,77.7,70.3,77.7,70.3z M78.2,59.4c-0.3-0.1-0.6-0.1-0.8,0.2
	c-0.2,0.2-0.4,0.5-0.5,0.7c-0.4-0.1-0.8,0-1,0.2l0.1,0.5c0,0,0.1,0.1,0.1,0.1c0.3-0.3,0.6-0.5,0.9-0.7c0.2,0,0.4,0,0.5,0
	C77.7,60,78,59.7,78.2,59.4z M78.3,71.5C78.3,71.5,78.3,71.5,78.3,71.5C78.3,71.5,78.3,71.5,78.3,71.5
	C78.3,71.5,78.3,71.5,78.3,71.5C78.3,71.5,78.3,71.5,78.3,71.5z M78.3,55.9c0.3,0.1,0.4-0.1,0.5-0.3c0-0.1-0.1-0.2-0.2-0.4
	C78.5,55.5,78.4,55.7,78.3,55.9z M78.7,71L78.7,71L78.7,71c-0.1-0.1-0.2,0-0.2,0c0,0,0,0.1,0,0.1C78.5,71,78.7,71,78.7,71z
	 M78.7,66.1c0,0,0-0.1,0-0.1c0,0-0.1,0-0.1,0.1C78.5,66.1,78.6,66.1,78.7,66.1C78.6,66.1,78.6,66.1,78.7,66.1z M78.7,63.6
	c-0.1,0-0.1,0-0.1,0c0,0,0,0.1,0,0.1c0,0,0.1,0,0.1,0C78.7,63.8,78.7,63.7,78.7,63.6z M79.1,60.3c-0.2-0.1-0.3-0.1-0.5-0.2
	C78.7,60.6,78.8,60.5,79.1,60.3z M79.3,53.6c-0.1-0.1-0.1-0.1-0.1-0.1c0,0-0.1,0-0.1,0c0,0.1,0.1,0.1,0.1,0.1
	C79.1,53.7,79.2,53.6,79.3,53.6z M79.3,55.2c0.1-0.1,0.2-0.2,0.2-0.3C79.4,54.9,79.3,54.9,79.3,55.2z M79.4,65.1L79.4,65.1
	L79.4,65.1L79.4,65.1z M79.7,76.8c0-0.1-0.1-0.1-0.1-0.2c0,0.1-0.1,0.1-0.1,0.1c0,0.1,0,0.1,0.1,0.1C79.6,76.9,79.7,76.8,79.7,76.8z
	 M79.8,70.2c-0.3,0-0.4,0.1-0.4,0.2c0,0,0,0.1,0.1,0.1C79.6,70.5,79.7,70.4,79.8,70.2z M80.1,72.8c-0.1,0-0.2,0-0.2,0.1
	c0,0,0,0.1,0,0.1c0.1,0,0.2,0,0.2,0C80.1,72.9,80.1,72.9,80.1,72.8z M80.4,55C80.4,55,80.3,55,80.4,55c-0.1-0.1-0.1-0.1-0.1-0.1
	C80.3,55,80.3,55.1,80.4,55C80.3,55.1,80.4,55,80.4,55z M80.7,65.6L80.7,65.6c0.1,0,0.1,0,0.2-0.1c-0.1-0.1-0.1-0.1-0.1-0.1
	c-0.1,0-0.1,0.1-0.2,0.1C80.6,65.5,80.7,65.6,80.7,65.6z M80.8,68.8C80.8,68.8,80.8,68.8,80.8,68.8c-0.1-0.1-0.1,0-0.1,0
	C80.7,68.8,80.8,68.8,80.8,68.8C80.8,68.8,80.8,68.8,80.8,68.8z M80.9,67.8C80.9,67.8,80.9,67.7,80.9,67.8
	C80.9,67.8,80.9,67.8,80.9,67.8C80.9,67.8,80.9,67.8,80.9,67.8z M81,55c-0.1,0-0.2,0.1-0.2,0.1c0,0,0,0.1,0,0.1c0.1,0,0.1,0,0.2,0
	C81,55,81,55,81,55z M81.2,38.6c0-0.1-0.1-0.2-0.1-0.2c0,0-0.2,0-0.2,0.1c0,0.1-0.1,0.2,0,0.3c0,0.1,0.1,0.2,0.3,0.4
	C81.2,38.9,81.2,38.7,81.2,38.6z M81.3,44.1C81.3,44,81.3,44,81.3,44.1C81.3,44,81.3,44.1,81.3,44.1L81.3,44.1
	C81.3,44.1,81.3,44.1,81.3,44.1z M81.9,72.4c-0.2-0.3-0.3-0.3-0.4,0C81.6,72.4,81.7,72.4,81.9,72.4z M82,70.6
	c-0.1-0.1-0.1-0.2-0.1-0.2c-0.1,0.1-0.1,0.1-0.1,0.1c0.1,0,0.1,0.1,0.2,0.1C82,70.7,82,70.6,82,70.6z M82.6,72.3
	c0,0-0.1-0.1-0.1-0.1v0c0,0.1-0.1,0.1-0.1,0.1c0,0,0.1,0.1,0.1,0.1C82.5,72.4,82.6,72.3,82.6,72.3z M82.8,39.6
	c0.2-0.1,0.3-0.2,0.2-0.4c0,0-0.1-0.1-0.1-0.1c-0.4,0.2-0.4,0.2-0.4,0.4C82.7,39.5,82.8,39.6,82.8,39.6z M83.2,68.7
	c-0.2,0-0.3-0.1-0.4-0.1C82.9,68.9,82.9,68.9,83.2,68.7z M83.8,63.7C83.8,63.7,83.7,63.6,83.8,63.7c-0.1-0.1-0.1,0-0.1,0
	c-0.5,0.1-0.6,0.2-0.7,0.7l0,0C83.3,64.1,83.5,63.9,83.8,63.7L83.8,63.7C83.7,63.7,83.7,63.7,83.8,63.7z M84.2,55.5
	C84.2,55.5,84.2,55.5,84.2,55.5c-0.1,0-0.1,0-0.1,0C84.1,55.5,84.1,55.5,84.2,55.5C84.2,55.5,84.2,55.5,84.2,55.5z M84.8,58.6
	C84.8,58.6,84.8,58.6,84.8,58.6C84.8,58.6,84.8,58.6,84.8,58.6C84.8,58.5,84.8,58.6,84.8,58.6C84.8,58.6,84.8,58.6,84.8,58.6z
	 M84.9,70.2L84.9,70.2L84.9,70.2C84.9,70.2,84.9,70.2,84.9,70.2z M85.2,47.5C85.2,47.5,85.1,47.5,85.2,47.5c-0.1,0-0.1,0-0.1,0
	C85.1,47.5,85.1,47.6,85.2,47.5L85.2,47.5z M81.1,83.3C81,83.3,81,83.3,81.1,83.3c-0.1,0-0.2,0.1-0.2,0.1c0,0,0.1,0.1,0.1,0.1
	L81.1,83.3z M86.2,85.1C86.2,85.1,86.1,85.1,86.2,85.1c-0.1-0.1-0.2,0-0.2,0c0,0,0.1,0.1,0.1,0.1C86.2,85.2,86.2,85.1,86.2,85.1z
	 M88.2,43.7c0.1,0.1,0.1,0.2,0.2,0.3c0.1,0,0.2-0.1,0.4-0.1c-0.1-0.1-0.2-0.3-0.3-0.3h0C88.5,43.6,88.3,43.7,88.2,43.7z M87.6,45
	C87.6,45,87.6,45,87.6,45C87.6,45,87.7,45,87.6,45C87.6,45,87.6,44.9,87.6,45C87.6,44.9,87.6,45,87.6,45z M86.5,45
	c0,0.1,0.1,0.2,0.1,0.2c0.1,0,0.1,0,0.3-0.1c-0.1-0.1-0.2-0.2-0.2-0.2C86.6,44.9,86.6,45,86.5,45z M86.4,53.8
	c-0.1,0-0.1,0.2-0.1,0.2c0.1,0,0.1,0.1,0.2,0.1c0.1,0,0.1-0.1,0.2-0.2C86.5,53.8,86.5,53.8,86.4,53.8z M86,37.3
	C86,37.3,86.1,37.2,86,37.3C86.1,37.2,86.1,37.2,86,37.3C86,37.2,86,37.2,86,37.3L86,37.3z M85.9,38.8c0.1,0,0.3,0,0.4,0
	c0,0,0-0.1,0-0.1C86.2,38.7,86,38.8,85.9,38.8z M85.5,39.2c0.2-0.1,0.4-0.2,0.4-0.4C85.7,38.9,85.6,39,85.5,39.2z M85.9,54.4
	C85.9,54.4,85.9,54.4,85.9,54.4c-0.1,0-0.1,0-0.1,0C85.8,54.5,85.9,54.4,85.9,54.4z M85.9,41.1c0,0-0.1-0.1-0.1-0.1
	c0,0.1-0.1,0.1-0.1,0.2c0,0,0.1,0.1,0.1,0.1C85.9,41.1,85.9,41.1,85.9,41.1z M86.3,59.2C86.3,59.2,86.3,59.1,86.3,59.2
	C86.3,59.1,86.3,59.1,86.3,59.2C86.3,59.1,86.3,59.2,86.3,59.2C86.3,59.2,86.3,59.2,86.3,59.2z M86.4,62.3c0.2,0,0.4,0.3,0.6,0H86.4
	z M86.7,65.8c-0.3-0.1-0.3,0.1-0.3,0.3C86.5,66,86.6,65.9,86.7,65.8z M87,67.3L87,67.3L87,67.3L87,67.3z M87,63.9
	c-0.2,0-0.3,0-0.5,0.1C86.8,64.2,86.9,64.3,87,63.9z M87.1,38.7c0,0,0.1,0,0.1-0.1c-0.2-0.3-0.3-0.1-0.4,0v0.1
	C86.9,38.7,87,38.7,87.1,38.7z M87.5,42.5c-0.1-0.2-0.2-0.3-0.3-0.4C87.1,42.3,87.2,42.4,87.5,42.5z M87.4,53.8
	C87.4,53.7,87.4,53.7,87.4,53.8C87.4,53.8,87.4,53.8,87.4,53.8C87.4,53.8,87.4,53.8,87.4,53.8C87.4,53.8,87.4,53.8,87.4,53.8z
	 M87.9,64.3c0-0.1-0.1-0.1-0.1-0.1c0,0-0.1,0.1-0.1,0.1c0,0,0.1,0.1,0.1,0.1C87.8,64.4,87.9,64.4,87.9,64.3z M87.9,53.9
	c-0.1-0.1-0.2-0.1-0.2-0.1c0,0-0.1,0.1-0.1,0.1C87.7,54,87.8,54,87.9,53.9z M87.7,49.5C87.7,49.4,87.7,49.4,87.7,49.5L87.7,49.5
	L87.7,49.5L87.7,49.5C87.7,49.4,87.7,49.4,87.7,49.5z M88,57.4L88,57.4L88,57.4L88,57.4z M88.2,46.7L88.2,46.7
	c0.1-0.2,0.2-0.3,0.4-0.4c0.1-0.1,0.2-0.3,0.2-0.4c0-0.1-0.2-0.3-0.3-0.3c-0.1-0.1-0.2,0-0.4,0c-0.1,0.2-0.1,0.4-0.1,0.6
	c-0.2,0.1-0.4,0.1-0.6,0.2c0,0.2,0,0.5,0,0.7C87.8,47.2,88,47,88.2,46.7z M88.5,53.9L88.5,53.9L88.5,53.9L88.5,53.9z M88.8,77.4
	c-0.1-0.3-0.2-0.3-0.4-0.1C88.6,77.3,88.7,77.4,88.8,77.4z M88.8,66.9C88.8,66.9,88.8,66.9,88.8,66.9h-0.1
	C88.8,66.9,88.8,67,88.8,66.9C88.8,67,88.8,66.9,88.8,66.9z M88.9,64.1l0-0.2c-0.1,0.1-0.2,0.1-0.3,0.2c0,0,0,0.1,0,0.1
	C88.7,64.2,88.8,64.1,88.9,64.1z M89.5,50.3L89.5,50.3L89.5,50.3L89.5,50.3z M89.8,50.9c0-0.1,0-0.1,0-0.1c-0.1,0-0.1,0-0.1,0
	c0,0.1,0,0.1,0,0.1C89.7,50.9,89.8,50.9,89.8,50.9z M90.3,45.4c0-0.1,0-0.2,0-0.3c-0.2-0.2-0.3,0-0.4,0.2v0
	C90,45.4,90.2,45.6,90.3,45.4z M90.5,49.3C90.5,49.3,90.4,49.3,90.5,49.3c-0.1-0.1-0.1,0-0.1,0C90.4,49.3,90.4,49.4,90.5,49.3
	C90.4,49.4,90.5,49.3,90.5,49.3z M90.5,48.2c-0.1-0.1-0.2-0.1-0.3-0.1c-0.1,0-0.2,0.1-0.2,0.1l0,0c0.1,0.1,0.1,0.2,0.2,0.2
	C90.3,48.4,90.4,48.3,90.5,48.2z M90.7,53.1C90.7,53.1,90.7,53.1,90.7,53.1C90.7,53.1,90.6,53.1,90.7,53.1
	C90.6,53.1,90.7,53.1,90.7,53.1L90.7,53.1z M91.1,53.3L91.1,53.3L91.1,53.3L91.1,53.3L91.1,53.3z M91.3,43.8c0.2-0.3,0.2-0.5,0-0.5
	c0,0-0.2,0.1-0.2,0.1C91.2,43.5,91.2,43.6,91.3,43.8z M91.6,48.1c0.1-0.2,0.2-0.4,0.3-0.6c-0.3-0.1-0.5,0.1-0.5,0.3
	C91.3,48,91.3,48.1,91.6,48.1z M92.1,50.6c0-0.1-0.1-0.1-0.3-0.2h0c0.1,0.2,0.2,0.3,0.2,0.4c0,0,0.1-0.1,0.1-0.1
	C92.1,50.7,92.1,50.6,92.1,50.6z M92.3,38.4L92.3,38.4L92.3,38.4L92.3,38.4z M92.2,39.4c0,0,0.1,0.1,0.1,0.1c0.1,0,0.1-0.1,0.3-0.1
	c-0.2-0.1-0.3-0.2-0.3-0.2C92.3,39.3,92.3,39.4,92.2,39.4z M92.4,41.8c-0.1,0-0.1,0.1-0.1,0.1c0,0,0,0.1,0,0.1c0,0,0.1,0,0.2,0
	C92.5,41.9,92.5,41.9,92.4,41.8z M92.3,51C92.4,51,92.4,51,92.3,51c0.1-0.1,0-0.1,0-0.1C92.3,50.9,92.3,50.9,92.3,51
	C92.3,51,92.3,51,92.3,51z M92.8,57c-0.2,0-0.3,0-0.5,0.1c0.1,0.2,0.2,0.3,0.3,0.5C92.7,57.3,92.8,57.2,92.8,57z M92.8,53.1
	c-0.2-0.1-0.3-0.1-0.4-0.2c0.1,0.2,0,0.5,0.3,0.3C92.8,53.3,92.8,53.2,92.8,53.1z M93.3,40.1L93.3,40.1
	C93.2,40.1,93.2,40.1,93.3,40.1C93.2,40.1,93.3,40.1,93.3,40.1C93.3,40.1,93.3,40.1,93.3,40.1z M93.5,52.8L93.5,52.8L93.5,52.8
	L93.5,52.8z M93.8,50.6c-0.2,0.1-0.3,0.1-0.4,0.2C93.6,51,93.7,50.9,93.8,50.6z M94.3,50.6C94.3,50.5,94.3,50.5,94.3,50.6
	c-0.1-0.1-0.2-0.1-0.2,0c0,0,0,0.1,0.1,0.1C94.2,50.6,94.3,50.6,94.3,50.6z M95.3,51.9C95.2,51.9,95.2,51.8,95.3,51.9L95.3,51.9
	C95.2,51.9,95.2,51.9,95.3,51.9C95.2,51.9,95.3,51.9,95.3,51.9z M96.5,56.4L96.5,56.4L96.5,56.4L96.5,56.4z M83.7,63.7L83.7,63.7
	C83.7,63.7,83.7,63.7,83.7,63.7L83.7,63.7z M11,25.3C11,24.9,11,24.5,11,24c0-5.2,4.2-9.4,9.4-9.4c5.2,0,9.4,4.2,9.4,9.4
	c0,2.9-1.4,5.6-3.5,7.3c0,0,0,0,0.1-0.1h-0.1c0-0.2-0.1-0.4,0-0.5c0.1-0.2,0.2-0.3-0.1-0.6c-0.3,0.7-1.1,0.7-1.5,1.2
	c0.1,0.3,0.2,0.5,0.4,0.7c0,0,0.1-0.1,0.1-0.1c0,0,0,0,0.1,0c-1.4,0.8-3,1.3-4.8,1.3C15.6,33.4,11.7,29.9,11,25.3
	C11.1,25.4,11.1,25.4,11,25.3C11.1,25.3,11.1,25.3,11,25.3C11.1,25.3,11.1,25.3,11,25.3z M28,24.8c0.1,0.1,0.1,0.2,0.2,0.2
	c0,0,0.1-0.1,0.2-0.1c-0.1-0.1-0.2-0.2-0.2-0.2C28.1,24.7,28,24.8,28,24.8z M27.4,23.9c0.1,0.1,0.1,0.1,0.2,0.2
	c0-0.1,0.1-0.1,0.1-0.1C27.5,23.9,27.4,23.9,27.4,23.9L27.4,23.9z M27.3,27.7c-0.1,0-0.1,0.1-0.2,0.1c0,0.1,0.1,0.1,0.1,0.1
	c0,0,0.1,0,0.1-0.1C27.4,27.8,27.3,27.7,27.3,27.7z M27.1,19.2L27.1,19.2C27.1,19.2,27.2,19.2,27.1,19.2
	C27.1,19.1,27.1,19.1,27.1,19.2C27.1,19.2,27.1,19.2,27.1,19.2z M25,30.6C25,30.6,24.9,30.6,25,30.6C25,30.6,25,30.7,25,30.6
	L25,30.6z M26.8,29.1c0,0-0.1-0.1-0.1-0.1c-0.2,0.1-0.4,0.2-0.7,0.3c0.1,0.1,0.2,0.3,0.2,0.3C26.4,29.4,26.6,29.3,26.8,29.1z
	 M26.1,26.8C26.1,26.8,26.1,26.8,26.1,26.8L26.1,26.8C26.1,26.8,26.1,26.8,26.1,26.8C26.1,26.8,26.1,26.8,26.1,26.8z M26.9,28
	c-0.2,0-0.4-0.1-0.6-0.1c0,0.2-0.1,0.4-0.1,0.5C26.4,28.4,26.7,28.3,26.9,28z M26.3,25.2c0.1,0.1,0.1,0.1,0.2,0.2
	c0-0.1,0.1-0.1,0.1-0.1c-0.1-0.1-0.2-0.1-0.2-0.1L26.3,25.2C26.3,25.2,26.3,25.2,26.3,25.2z M26,19.1C26,19.1,26.1,19.2,26,19.1
	c0.1,0.1,0.2,0,0.2-0.1c0,0-0.1-0.1-0.1-0.1C26.1,19,26,19,26,19.1z M25.9,21.4C25.9,21.5,26,21.5,25.9,21.4c0.1,0,0.1,0,0.1,0
	C26,21.4,26,21.4,25.9,21.4C26,21.4,25.9,21.4,25.9,21.4L25.9,21.4z M25.8,25.3c-0.1-0.2-0.2-0.5-0.4-0.8c-0.2,0.6-0.2,1,0,1.2
	C25.8,25.7,25.9,25.6,25.8,25.3z M25.3,17.7c0.1,0,0.2,0,0.3-0.1v-0.2c-0.1,0-0.2,0-0.3,0C25.3,17.5,25.3,17.6,25.3,17.7z M25,23
	L25,23c0.1,0.3,0.3,0.3,0.8,0.1c-0.2-0.2-0.3-0.4-0.4-0.5c-0.1-0.1-0.3,0-0.3,0.1C24.9,22.7,24.9,22.9,25,23z M24.6,29.3
	C24.7,29.3,24.7,29.3,24.6,29.3c0.1,0,0.2-0.1,0.2-0.1c-0.1,0-0.1-0.1-0.1-0.1C24.7,29.2,24.7,29.2,24.6,29.3z M22.9,31.1
	c-0.1-0.2-0.1-0.4-0.1-0.6h-0.1c0,0.1-0.1,0.3-0.1,0.3C22.6,31,22.6,31.1,22.9,31.1z M23.9,31.2c-0.2-0.2-0.2-0.3-0.4-0.4
	C23.6,31.1,23.6,31.2,23.9,31.2z M24.4,32c-0.1-0.4-0.4-0.4-0.7-0.4v0.6C24,32.3,24.2,32.2,24.4,32z M23.8,30.4
	c0.2,0.1,0.4,0.2,0.6,0.3C24,30.1,24,30.1,23.8,30.4z M23.8,21.4C23.8,21.4,23.8,21.4,23.8,21.4L23.8,21.4
	C23.8,21.3,23.8,21.3,23.8,21.4C23.8,21.3,23.8,21.4,23.8,21.4z M23.5,28.2c0.2,0.2,0.4,0,0.5-0.3c-0.2-0.1-0.4-0.3-0.5-0.1
	C23.4,27.9,23.4,28.2,23.5,28.2z M23.1,22.6c-0.1,0.1-0.1,0.2-0.2,0.3c0.1,0,0.2,0.1,0.2,0.1c0.1-0.1,0.1-0.2,0.1-0.3
	C23.2,22.6,23.1,22.6,23.1,22.6z M22.5,20.9c0.2-0.1,0.4-0.1,0.5-0.2c0,0,0-0.1,0-0.1C22.8,20.5,22.6,20.6,22.5,20.9z M22.5,24.7
	C22.5,24.7,22.5,24.7,22.5,24.7C22.5,24.7,22.5,24.7,22.5,24.7L22.5,24.7C22.5,24.7,22.5,24.7,22.5,24.7z M21.5,32.7
	c0,0,0.1,0.1,0.1,0.1c0.2-0.1,0.5-0.2,0.8-0.3C21.9,32.4,21.7,32.5,21.5,32.7z M21.1,28.2C21.2,28.2,21.2,28.2,21.1,28.2
	C21.2,28.1,21.2,28.1,21.1,28.2L21.1,28.2C21.1,28.1,21.1,28.1,21.1,28.2z M14.2,29.1C14.1,29,14,28.9,14,28.9
	c-0.1,0-0.2,0.2-0.2,0.2c0,0.1,0.1,0.2,0.2,0.3C14,29.3,14.1,29.2,14.2,29.1z M15.7,30.5L15.7,30.5L15.7,30.5L15.7,30.5z M16.4,23.1
	L16.4,23.1C16.4,23.1,16.4,23.1,16.4,23.1C16.4,23.1,16.4,23.2,16.4,23.1L16.4,23.1C16.4,23.1,16.4,23.1,16.4,23.1z M16.9,29.7
	c0,0,0.2-0.2,0.2-0.2c-0.1-0.1-0.2-0.2-0.3-0.4c-0.1,0.2-0.2,0.3-0.2,0.3C16.7,29.5,16.8,29.7,16.9,29.7z M16.8,31.4
	C16.8,31.4,16.8,31.4,16.8,31.4C16.8,31.5,16.8,31.5,16.8,31.4C16.8,31.5,16.9,31.5,16.8,31.4C16.8,31.4,16.8,31.4,16.8,31.4z
	 M17.2,32.4c-0.1-0.2-0.1-0.4-0.2-0.5c-0.4,0-0.4,0.3-0.4,0.7C16.8,32.5,17,32.5,17.2,32.4z M17.3,31.7
	C17.3,31.7,17.2,31.6,17.3,31.7c-0.1-0.1-0.1,0-0.1,0C17.2,31.7,17.2,31.7,17.3,31.7C17.3,31.7,17.3,31.7,17.3,31.7z M17.6,29
	c-0.2-0.3-0.3-0.5-0.4-0.8C17.2,28.6,17.3,28.9,17.6,29z M18.3,26.3c-0.2-0.4-0.6-0.4-1.1-0.1C17.5,26.5,17.9,26.4,18.3,26.3z
	 M17.9,25.3c0.1-0.1,0.1-0.2,0.1-0.2c0-0.1-0.1-0.1-0.1-0.1c0,0.1-0.1,0.1-0.1,0.2C17.7,25.2,17.8,25.2,17.9,25.3z M17.9,32
	C17.9,32,17.8,32,17.9,32c-0.1-0.1-0.1,0-0.1,0C17.8,32.1,17.8,32.1,17.9,32C17.9,32.1,17.9,32.1,17.9,32z M17.9,26.9
	C17.9,26.9,17.9,26.9,17.9,26.9c-0.1,0-0.1,0-0.1,0L17.9,26.9C17.9,26.9,17.9,26.9,17.9,26.9z M19,27.9L19,27.9
	C19,27.8,19,27.8,19,27.9c-0.1-0.1-0.2-0.1-0.2,0c0,0,0,0.1,0,0.1C18.9,27.9,19,27.9,19,27.9z M19.2,24.8
	C19.2,24.7,19.2,24.7,19.2,24.8C19.2,24.7,19.1,24.7,19.2,24.8C19.1,24.7,19.1,24.8,19.2,24.8C19.2,24.8,19.2,24.8,19.2,24.8z
	 M18.8,23.5c0.1,0.4,0.2,0.5,0.4,0.3c0,0,0-0.1,0-0.1C19.1,23.7,19,23.6,18.8,23.5L18.8,23.5z M18.6,27.7c0-0.1-0.2-0.1-0.2-0.1
	c-0.1,0.1-0.1,0.2-0.2,0.3v0c0,0.1-0.1,0.1-0.1,0.1c0.1,0.2,0.3,0.1,0.4,0C18.6,27.9,18.6,27.8,18.6,27.7z M17.8,15.3
	c0.1,0.2,0.1,0.4,0.2,0.7c0.3-0.3,0.5-0.5,0.6-1C18.2,15.1,18,15.2,17.8,15.3z M17.2,23.3c-0.1,0-0.2,0-0.3,0.1
	c0-0.1-0.1-0.1-0.1-0.2c0,0,0,0.1-0.1,0.1c0.1,0,0.1,0.1,0.2,0.1h0c0.4,0.5,0.4,0.5,0.8,0.3C17.5,23.2,17.5,23.2,17.2,23.3z M17,22
	c-0.1,0.1-0.2,0.1-0.2,0.2c0,0.1,0,0.3,0.1,0.4c0,0,0.2,0,0.2,0c0-0.1,0-0.2,0-0.3C17.2,22.1,17.1,22.1,17,22z M15.3,19.8
	c0.1,0.1,0.3,0.2,0.3,0.2c0.1,0.3,0.2,0.6,0.2,0.6c0.4,0,0.5,0.3,0.7,0.5l0,0c0.2,0.1,0.4,0.2,0.6,0c-0.1-0.6-0.5-0.9-1.1-1
	c-0.1-0.3-0.2-0.5-0.5-0.4C15.4,19.7,15.3,19.7,15.3,19.8z M15.6,23.4c0.2-0.3,0.3-0.5,0.5-0.8c-0.3-0.1-0.4-0.1-0.7-0.2
	C15.5,22.8,15.4,23.1,15.6,23.4z M15.1,29.8c0.1,0.3,0.2,0.3,0.3,0c0.2,0.1,0.3,0.2,0.5,0.4h0c0.3-0.3,0.4-0.4,0.2-0.5
	c-0.1-0.1-0.3-0.2-0.4-0.2c-0.1,0-0.2,0.2-0.3,0.3C15.3,29.8,15.2,29.8,15.1,29.8z M14.6,28.7L14.6,28.7c0,0,0.1,0.1,0.2,0.2
	c0.1-0.1,0.2-0.2,0.2-0.3c0,0-0.1-0.2-0.2-0.2C14.7,28.5,14.6,28.6,14.6,28.7z M13.7,23.2L13.7,23.2L13.7,23.2c0.2,0,0.4,0,0.6-0.3
	C14.1,22.9,13.8,22.8,13.7,23.2C13.8,23.2,13.7,23.2,13.7,23.2z M13.1,28.4C13.1,28.4,13.2,28.4,13.1,28.4c0.1,0,0.1,0,0.1,0
	C13.2,28.3,13.2,28.3,13.1,28.4C13.1,28.3,13.1,28.3,13.1,28.4z M12.9,27.7C12.9,27.7,12.9,27.8,12.9,27.7
	C12.9,27.8,12.9,27.8,12.9,27.7C12.9,27.7,12.9,27.7,12.9,27.7C12.9,27.7,12.9,27.7,12.9,27.7z M12.2,20.2L12.2,20.2
	c0.1,0,0.3,0.1,0.4,0.1v-0.1c-0.1,0-0.2-0.1-0.4-0.1C12.2,20.1,12.2,20.2,12.2,20.2z M25.6,31.7c0,0.1-0.1,0.1-0.1,0.2
	c0,0-0.1,0-0.1,0.1c0.3-0.2,0.5-0.3,0.7-0.5c-0.1,0-0.2,0-0.4,0C25.6,31.5,25.6,31.6,25.6,31.7z M70.3,24c0-3.7,2.2-7,5.4-8.5
	c0,0.2,0.1,0.4,0.4,0.3c-0.1-0.1-0.1-0.3-0.2-0.4c0,0-0.1,0-0.1,0.1c0.5-0.2,1-0.4,1.6-0.6c0,0,0,0,0,0c0.1,0.1,0.2,0.2,0.2,0.2
	c0.2,0,0.4,0,0.7-0.1c-0.1-0.1-0.3-0.2-0.4-0.3c-0.2,0-0.4,0.1-0.6,0.1c0.5-0.1,1-0.2,1.5-0.3c-0.1,0.2,0,0.4,0.2,0.5
	c-0.1-0.2-0.1-0.3-0.2-0.5c0,0,0,0,0,0c0.2,0,0.4,0,0.7,0c-0.1,0.1-0.1,0.2-0.2,0.3c0.1,0.1,0.1,0.2,0.2,0.4
	c0.1-0.3,0.1-0.5,0.1-0.7c0,0-0.1,0-0.1,0c0.1,0,0.1,0,0.2,0c1,0,1.9,0.2,2.8,0.4c0,0,0,0.1,0,0.1c0,0,0.1,0,0.1-0.1
	c3.7,1.2,6.4,4.7,6.4,8.9c0,3.9-2.4,7.3-5.8,8.7c0,0,0.1,0,0.1-0.1c-0.1,0-0.1-0.1-0.1-0.1c0,0-0.1,0.1-0.1,0.1c0,0,0.1,0.1,0.1,0.1
	c0,0,0,0,0,0c-1.1,0.4-2.3,0.7-3.5,0.7C74.5,33.4,70.3,29.2,70.3,24z M88.8,25.6L88.8,25.6L88.8,25.6L88.8,25.6z M87.8,27.1
	L87.8,27.1L87.8,27.1L87.8,27.1z M87.5,27.6L87.5,27.6C87.5,27.6,87.6,27.5,87.5,27.6C87.6,27.5,87.5,27.5,87.5,27.6
	C87.5,27.5,87.5,27.6,87.5,27.6z M84.7,18.4C84.7,18.4,84.8,18.5,84.7,18.4c0.2,0,0.2,0,0.3-0.1c0,0-0.1-0.1-0.1-0.1
	C84.8,18.3,84.7,18.3,84.7,18.4z M73.2,26.8C73.2,26.8,73.1,26.7,73.2,26.8c-0.1,0-0.1,0-0.1,0C73.1,26.8,73.1,26.9,73.2,26.8
	C73.2,26.8,73.2,26.8,73.2,26.8z M73.4,20.1c0,0,0.1-0.1,0.2-0.1c-0.1-0.1-0.2-0.2-0.3-0.2c0,0-0.1,0.1-0.1,0.1
	C73.2,20,73.4,20.1,73.4,20.1L73.4,20.1z M73.3,21.2C73.3,21.2,73.3,21.2,73.3,21.2C73.3,21.2,73.3,21.2,73.3,21.2
	C73.3,21.2,73.4,21.2,73.3,21.2C73.4,21.2,73.3,21.2,73.3,21.2c0-0.1,0-0.1,0-0.2c0-0.1-0.1-0.2-0.2-0.3c0,0-0.2,0.1-0.2,0.1
	c0,0.1,0,0.3,0.1,0.4C73.1,21.2,73.2,21.2,73.3,21.2z M73,20.2c0-0.1,0-0.1-0.1-0.1c0,0-0.1,0-0.1,0c0,0.1,0,0.1,0.1,0.2
	C72.9,20.3,73,20.3,73,20.2z M72.9,27.3L72.9,27.3L72.9,27.3L72.9,27.3L72.9,27.3z M73.5,25c0.1,0.1,0.2,0.2,0.2,0.2
	c0.1,0,0.1-0.1,0.1-0.2c0,0-0.1-0.1-0.1-0.1C73.7,24.9,73.6,24.9,73.5,25z M73.4,22.5L73.4,22.5c0,0.1,0,0.1,0,0.1
	C73.5,22.6,73.5,22.5,73.4,22.5C73.5,22.5,73.5,22.5,73.4,22.5z M73.5,30.7L73.5,30.7L73.5,30.7L73.5,30.7L73.5,30.7z M73.8,27.6
	c-0.1,0-0.3-0.1-0.4,0.2C73.6,27.9,73.7,27.8,73.8,27.6z M73.8,25.7c0,0,0.1,0.1,0.1,0.1c0,0,0.1-0.1,0.1-0.1
	c-0.1,0-0.1-0.1-0.1-0.1C73.9,25.6,73.8,25.6,73.8,25.7z M74.1,27.5C74.1,27.5,74.1,27.5,74.1,27.5c-0.1,0-0.2,0-0.3,0.1
	C73.9,27.6,74,27.6,74.1,27.5z M74.3,27C74.2,27,74.2,26.9,74.3,27c-0.1,0-0.2,0.1-0.2,0.2c0,0,0,0,0,0l0,0c0,0,0,0,0,0
	C74.1,27.1,74.2,27,74.3,27z M76.4,26.3c0.1,0.2,0.2,0.2,0.4-0.1C76.6,26.2,76.5,26.3,76.4,26.3c0-0.1,0-0.1,0-0.2c0,0-0.1,0-0.1,0
	C76.3,26.2,76.3,26.2,76.4,26.3z M76.3,27L76.3,27L76.3,27L76.3,27C76.3,27,76.3,27,76.3,27z M76.6,19c0,0.2,0.1,0.4,0.1,0.7
	c0.2,0,0.3-0.1,0.5-0.1c0,0,0,0.1,0,0.1c0,0,0,0,0-0.1c0-0.1,0-0.3,0-0.4C77.2,18.8,77,18.7,76.6,19z M77.1,17.1
	C77.1,17.1,77.1,17,77.1,17.1C77.1,17,77,17,77.1,17.1C77,17,77,17.1,77.1,17.1C77,17.1,77,17.1,77.1,17.1z M77.3,22.4
	c0,0.1-0.1,0.1-0.1,0.1c0,0,0.1,0,0.1,0.1C77.4,22.6,77.4,22.5,77.3,22.4C77.4,22.5,77.3,22.4,77.3,22.4z M77.4,18.7
	C77.4,18.7,77.5,18.7,77.4,18.7c0.1-0.1,0.1-0.1,0.1-0.1C77.4,18.6,77.4,18.6,77.4,18.7C77.4,18.7,77.4,18.7,77.4,18.7z M76.7,21.5
	c0,0.1,0.1,0.2,0.1,0.2c0,0,0.1-0.1,0.2-0.1c0,0,0.1-0.1,0.1-0.1c-0.1,0-0.2-0.1-0.2-0.1v0C76.8,21.4,76.7,21.5,76.7,21.5z
	 M76.7,20.2L76.7,20.2L76.7,20.2L76.7,20.2z M77.1,24.1h-0.5c0.1,0.2,0.2,0.3,0.3,0.4c0.1-0.1,0.2-0.2,0.3-0.3
	C77.1,24.2,77.1,24.1,77.1,24.1z M76.6,22.8c-0.1,0-0.2,0.1-0.3,0.2c0.1,0.1,0.2,0.3,0.3,0.3c0.1,0,0.2-0.1,0.4-0.3
	C76.8,22.9,76.7,22.8,76.6,22.8z M76.5,24.8c-0.1,0-0.1,0-0.1,0.1c0,0,0,0.1,0,0.1c0,0,0.1-0.1,0.1-0.1h0
	C76.5,24.9,76.5,24.8,76.5,24.8z M76.5,17.9c-0.1-0.1-0.2-0.1-0.2-0.1c0,0-0.1,0.1-0.1,0.1c0,0.1,0.1,0.2,0.1,0.2
	C76.3,18.1,76.4,18,76.5,17.9z M76.7,31.6L76.7,31.6L76.7,31.6L76.7,31.6z M76.8,27.5c-0.2,0.2-0.3,0.3-0.2,0.5
	c0.1,0.1,0.2,0.1,0.3,0C77.1,27.8,77,27.6,76.8,27.5z M77.2,27c-0.1-0.3-0.3-0.4-0.4-0.3C76.9,26.8,77,26.9,77.2,27z M78.2,26.7
	c-0.3-0.3-0.4-0.6-0.7-0.8c-0.1-0.1-0.2-0.1-0.3,0c-0.1,0.1-0.2,0.2-0.1,0.3c0.1,0.1,0.2,0.2,0.3,0.2c0.1,0,0.2-0.1,0.2-0.1h0
	C77.7,26.6,77.9,26.8,78.2,26.7z M77.8,22.3C77.8,22.2,77.9,22.2,77.8,22.3c0.1-0.1,0-0.1,0-0.1C77.8,22.2,77.8,22.2,77.8,22.3
	C77.8,22.2,77.8,22.2,77.8,22.3z M77.8,23.3C77.8,23.3,77.8,23.3,77.8,23.3L77.8,23.3L77.8,23.3L77.8,23.3
	C77.8,23.3,77.8,23.3,77.8,23.3z M78.5,27.2c-0.3-0.2-0.4-0.2-0.6,0.1C78.2,27.3,78.3,27.2,78.5,27.2z M80.2,31.4L80.2,31.4
	c-0.1-0.1-0.2,0-0.3,0c0,0,0.1,0.1,0.1,0.1C80,31.5,80.2,31.4,80.2,31.4z M81.8,21.6c-0.1-0.3-0.2-0.6-0.5-0.5
	c-0.1,0-0.2,0.4-0.3,0.5c0,0.1,0,0.1,0,0.2c0.3,0,0.6-0.1,0.8-0.1C81.8,21.7,81.9,21.7,81.8,21.6z M82.3,21.7
	C82.3,21.7,82.3,21.6,82.3,21.7C82.2,21.6,82.2,21.6,82.3,21.7C82.2,21.6,82.2,21.7,82.3,21.7C82.3,21.7,82.3,21.7,82.3,21.7z
	 M82.9,17.4C82.9,17.4,83,17.4,82.9,17.4c0.1,0,0.1,0,0.1,0C83,17.4,83,17.4,82.9,17.4C83,17.4,83,17.4,82.9,17.4z M82.9,22.8
	c0.1-0.2,0.3-0.4,0.4-0.5C82.8,22.1,82.7,22.2,82.9,22.8z M82.6,18.6C82.7,18.6,82.7,18.6,82.6,18.6C82.7,18.6,82.7,18.6,82.6,18.6
	C82.7,18.6,82.6,18.6,82.6,18.6C82.6,18.6,82.6,18.6,82.6,18.6z M82,16.6L82,16.6c0.1,0.2,0.3,0.3,0.6,0.1c0.1-0.3-0.1-0.5-0.3-0.6
	C82.1,16.2,81.9,16.4,82,16.6z M82,17C82,17,82,17,82,17C82,17,82,17,82,17L82,17z M81.7,17.4c0.2,0.1,0.3,0.2,0.5,0.3
	C82.1,17.4,81.9,17.3,81.7,17.4z M81.1,15.4c0.2,0.3,0.3,0.5,0.6,0.4c0.1,0,0.2-0.2,0.3-0.3c-0.1-0.1-0.2-0.3-0.3-0.3l0,0
	C81.5,15.2,81.4,15.3,81.1,15.4z M80.8,15.7c0.1,0,0.1,0.1,0.2,0.1c0-0.1,0.1-0.2,0.1-0.3h0L81,15.4C80.9,15.5,80.8,15.6,80.8,15.7z
	 M80.7,27.3C80.7,27.3,80.8,27.4,80.7,27.3c0.2,0,0.2-0.1,0.2-0.1h0c0,0-0.1-0.1-0.1-0.1C80.8,27.2,80.7,27.2,80.7,27.3z M80.4,23.2
	c-0.1-0.2-0.2-0.4-0.4-0.3c-0.2,0.1-0.1,0.3,0,0.5C80.1,23.3,80.2,23.3,80.4,23.2z M80.2,20.7C80.2,20.7,80.2,20.7,80.2,20.7
	L80.2,20.7C80.2,20.7,80.2,20.6,80.2,20.7C80.2,20.6,80.2,20.6,80.2,20.7z M79.7,18.4c0.1,0.1,0.2,0.1,0.4,0.1
	c-0.1-0.4-0.2-0.4-0.4-0.3C79.7,18.2,79.7,18.4,79.7,18.4z M78.9,15.7c0.1,0,0.1-0.1,0.2-0.1c0,0-0.1-0.1-0.1-0.1
	C79,15.6,79,15.7,78.9,15.7z M78.5,25.5c0.4,0,0.7,0,1,0c0.1,0,0.3-0.2,0.3-0.3c0-0.2-0.2-0.3-0.4-0.2
	C79.1,25.1,78.7,25.1,78.5,25.5z M78.7,15.9c0,0.1,0.1,0.1,0.1,0.1c0,0,0.1-0.1,0.1-0.1C78.8,15.9,78.8,15.9,78.7,15.9
	C78.7,15.9,78.7,15.9,78.7,15.9z M78.6,22.7C78.6,22.8,78.7,22.8,78.6,22.7c0.1,0.1,0.1,0,0.2,0C78.8,22.7,78.7,22.7,78.6,22.7
	C78.7,22.7,78.6,22.7,78.6,22.7z M78.4,20.1L78.4,20.1c0,0,0.1,0.1,0.1,0.1c0,0,0.1-0.1,0.1-0.1C78.5,20.1,78.5,20.1,78.4,20.1
	C78.5,20.1,78.4,20.1,78.4,20.1z M78.5,22.4C78.5,22.4,78.5,22.4,78.5,22.4C78.5,22.4,78.5,22.4,78.5,22.4
	C78.5,22.4,78.5,22.4,78.5,22.4C78.5,22.4,78.5,22.4,78.5,22.4z M78.2,23c0,0,0.1,0.1,0.1,0.1c0,0,0.1-0.1,0.1-0.1
	c0-0.1-0.1-0.1-0.1-0.1C78.3,22.9,78.3,23,78.2,23z M78.2,23.9c-0.1,0.3,0,0.4,0.2,0.5c0.3,0.2,0.3,0.2,0.4-0.3
	c-0.1,0.1-0.3,0.2-0.4,0.3C78.4,24.2,78.4,24,78.2,23.9z M78.2,25.4c0,0,0,0.1,0,0.1c0,0,0.1,0,0.1,0C78.2,25.5,78.2,25.5,78.2,25.4
	C78.2,25.4,78.2,25.4,78.2,25.4z M78.1,21.2C78.1,21.2,78.1,21.2,78.1,21.2L78.1,21.2C78.1,21.2,78.1,21.2,78.1,21.2z M76.8,16.3
	c0.4,0.2,0.7-0.2,1.1-0.2c-0.1-0.5-0.3-0.7-0.6-0.6C76.8,15.6,76.7,15.8,76.8,16.3z M76.5,15.3c0.1,0,0.2,0,0.2,0.1
	c0-0.1,0-0.1,0.1-0.2C76.6,15.2,76.5,15.2,76.5,15.3z M75.7,16.5c0,0.1,0,0.2,0.1,0.3c0.1,0.1,0.2,0.2,0.4,0.3
	c0-0.2,0.1-0.4,0.1-0.5h0c0-0.1-0.2-0.2-0.3-0.2C75.9,16.3,75.8,16.4,75.7,16.5z M76.1,18.9L76.1,18.9L76.1,18.9L76.1,18.9z M76,22
	C75.9,22,75.9,22,76,22c0,0.1,0,0.1,0,0.1C76,22,76,22,76,22C76,22,76,22,76,22z M75.7,28c0,0.1,0,0.3,0,0.3c0.1,0,0.3,0,0.4,0
	c0.1,0,0.2-0.2,0.3-0.4c-0.2-0.1-0.2-0.1-0.3-0.1C75.9,27.7,75.7,27.8,75.7,28z M75.4,18.3C75.4,18.4,75.4,18.4,75.4,18.3
	C75.4,18.4,75.5,18.4,75.4,18.3C75.5,18.4,75.5,18.3,75.4,18.3L75.4,18.3z M75,19.2c0.1,0,0.2,0,0.4,0c0,0,0-0.2,0-0.2
	C75.2,18.9,75.1,18.9,75,19.2z M74.9,27.2c-0.1,0-0.2,0.1-0.2,0.1v0c0.1,0.1,0.1,0.1,0.2,0.2c0,0,0.1-0.1,0.2-0.2
	C75,27.2,74.9,27.2,74.9,27.2z M74.8,18.2C74.8,18.2,74.8,18.2,74.8,18.2L74.8,18.2c0-0.1,0-0.2,0-0.2c-0.1,0-0.1,0-0.2,0
	C74.7,18.1,74.7,18.2,74.8,18.2z M74.6,16.8c0,0,0.1,0.1,0.1,0.1c0,0,0.1-0.1,0.1-0.1c-0.1-0.1-0.1-0.1-0.1-0.1
	C74.7,16.8,74.6,16.8,74.6,16.8z M74.6,16.2L74.6,16.2L74.6,16.2C74.6,16.2,74.6,16.2,74.6,16.2z M73.6,17.7
	c-0.1,0.4,0.2,0.5,0.3,0.8l0,0c0.2-0.2,0.4-0.3,0.5-0.4C74.3,17.9,74,17.7,73.6,17.7z M72.6,17.9c0,0.1,0,0.2,0.1,0.3
	c0.2,0.5,0.3,0.7,0.8,0.5v-0.6c-0.1-0.1-0.2-0.2-0.4-0.3c0.2-0.2,0.4-0.4,0.5-0.6c0.1-0.2,0.3-0.4,0.4-0.6
	C73.5,17,73,17.4,72.6,17.9z M72,24.1C72,24.1,71.9,24,72,24.1c-0.1,0-0.1,0-0.1,0.1C71.9,24.2,71.9,24.2,72,24.1
	C72,24.2,72,24.1,72,24.1z M72.1,22.9c-0.2-0.3-0.4-0.4-0.5-0.2c0,0,0,0.2,0,0.2C71.8,22.9,71.9,22.9,72.1,22.9z M72.2,21
	C72.1,21,72.1,20.9,72.2,21C72,20.9,72,21,72,21C72.1,21,72.1,21.1,72.2,21C72.1,21.1,72.2,21,72.2,21z M72.9,29.7
	c-0.1-0.1-0.2-0.2-0.2-0.2c0,0.1-0.1,0.1-0.1,0.2c0,0.1,0.1,0.2,0.1,0.2C72.7,29.9,72.8,29.8,72.9,29.7z M73,26.1
	c0.4-0.3,0.5-0.7,0.3-1.2c-0.1,0.2-0.3,0.3-0.4,0.5C72.9,25.6,72.9,25.9,73,26.1z"/>
</svg>
