<?xml version="1.0" encoding="utf-8"?>
<!-- Generator: Adobe Illustrator 24.3.0, SVG Export Plug-In . SVG Version: 6.00 Build 0)  -->
<svg version="1.1" id="Layer_1" xmlns="http://www.w3.org/2000/svg" xmlns:xlink="http://www.w3.org/1999/xlink" x="0px" y="0px"
	 viewBox="0 0 100 100" style="enable-background:new 0 0 100 100;" xml:space="preserve">
<style type="text/css">
	.st0{fill:#CBC2AC;}
</style>
<g>
	<path class="st0" d="M47.5,46.2c-2.1,0-3.8,1.7-3.8,3.8v28.4c0,2.1,1.7,3.8,3.8,3.8h4.8c2.1,0,3.8-1.7,3.8-3.8V50
		c0-2.1-1.7-3.8-3.8-3.8H47.5z M51.9,52.2c0,0-0.1-0.1-0.1-0.1l0,0c0,0,0-0.1,0-0.2C51.9,51.9,52,52,52,52
		C52,52.1,52,52.1,51.9,52.2z M54.7,78.5c0,0-0.1-0.2-0.1-0.2c0,0,0.1,0,0.1,0C54.8,78.4,54.8,78.4,54.7,78.5
		C54.8,78.5,54.7,78.6,54.7,78.5z M56.1,78.9c0,0.2-0.1,0.4-0.4,0.4c0-0.3,0-0.5-0.1-0.8C55.9,78.5,56,78.6,56.1,78.9
		C56.1,78.8,56.1,78.8,56.1,78.9z M55.9,49.7C55.9,49.7,55.9,49.7,55.9,49.7c0.1,0,0.1,0.1,0.1,0.1C55.9,49.9,55.9,49.8,55.9,49.7
		C55.8,49.8,55.8,49.7,55.9,49.7z M55.6,48.2c0,0,0.1,0.1,0.1,0.1c0,0-0.1,0-0.1,0.1C55.6,48.3,55.5,48.3,55.6,48.2
		C55.5,48.3,55.6,48.2,55.6,48.2z M54.2,48.5c0.2-0.2,0.3-0.5,0.7-0.4c0.1,0,0.2,0.2,0.3,0.4C54.8,48.6,54.5,48.9,54.2,48.5
		L54.2,48.5z M53.8,57.2c0,0,0.1,0.1,0.1,0.1c-0.1,0-0.1,0.1-0.2,0.1c0,0,0-0.1-0.1-0.1C53.7,57.3,53.7,57.2,53.8,57.2z M53.5,78.8
		C53.5,78.8,53.5,78.8,53.5,78.8L53.5,78.8C53.4,78.8,53.4,78.8,53.5,78.8z M53,49.4C53,49.4,53,49.4,53,49.4L53,49.4
		c0.1,0,0,0.1,0,0.1C53,49.5,53,49.5,53,49.4C53,49.4,53,49.4,53,49.4z M52.9,50.4c-0.1,0.2-0.2,0.3-0.2,0.4
		C52.7,50.6,52.7,50.5,52.9,50.4z M52.7,79.8c-0.1-0.2-0.1-0.4-0.2-0.7C53,79.6,53,79.6,52.7,79.8z M52.4,47.3
		C52.4,47.4,52.5,47.4,52.4,47.3l0,0.1C52.4,47.4,52.4,47.4,52.4,47.3L52.4,47.3z M52.3,51.5C52.4,51.5,52.4,51.5,52.3,51.5
		c0.1,0,0.1,0.1,0.1,0.1C52.4,51.6,52.4,51.6,52.3,51.5C52.3,51.6,52.3,51.5,52.3,51.5z"/>
	<path class="st0" d="M74,82.2c2.1,0,3.8-1.7,3.8-3.8V38.1c0-2.1-1.7-3.8-3.8-3.8h-3.7c0.1,0.1,0.1,0.1,0.3,0.2
		c-0.2,0.1-0.3,0.2-0.4,0.2c0,0-0.2-0.2-0.2-0.2c0,0,0-0.1,0.1-0.1h-0.8c-2.1,0-3.8,1.7-3.8,3.8v40.3c0,2.1,1.7,3.8,3.8,3.8
		c-0.1,0-0.1,0-0.2,0c0.1-0.1,0.3-0.3,0.4-0.4c0.3,0.2,0.4,0.3,0.2,0.4H74z M70.1,78C70.1,78,70.1,78,70.1,78
		C70.1,77.9,70.1,77.9,70.1,78C70.1,77.9,70.2,77.9,70.1,78C70.1,78,70.1,78,70.1,78z M70.2,75.5c-0.1,0-0.2-0.1-0.2-0.1
		c0,0,0.1-0.1,0.1-0.1c0.1,0.1,0.2,0.1,0.3,0.2C70.2,75.4,70.2,75.5,70.2,75.5z M70.3,77.2L70.3,77.2C70.3,77.2,70.3,77.2,70.3,77.2
		C70.3,77.2,70.3,77.2,70.3,77.2C70.3,77.2,70.3,77.2,70.3,77.2z M70.5,77.8L70.5,77.8c0-0.1,0-0.1,0-0.1
		C70.6,77.7,70.6,77.7,70.5,77.8C70.6,77.8,70.6,77.8,70.5,77.8z M72.4,76.7C72.4,76.7,72.4,76.7,72.4,76.7
		C72.4,76.7,72.4,76.6,72.4,76.7C72.4,76.6,72.4,76.6,72.4,76.7L72.4,76.7C72.4,76.6,72.4,76.7,72.4,76.7z M72,76.6
		c0,0.2-0.1,0.4-0.4,0.4c-0.2,0-0.4-0.2-0.5-0.4c-0.1-0.2-0.3-0.4-0.4-0.5c-0.1-0.2-0.2-0.3-0.4-0.5c0.2-0.1,0.4-0.2,0.4-0.2
		c0.4,0.3,0.9,0,1.3,0c0.2,0,0.2,0,0.5,0.4C72.3,76,72.1,76.2,72,76.6z M70.5,63.5L70.5,63.5L70.5,63.5L70.5,63.5z M70.8,73.6
		c0.1-0.1,0.2-0.2,0.3-0.3C71.1,73.5,70.9,73.6,70.8,73.6z M71.4,49.1C71.4,49.1,71.5,49,71.4,49.1c0.1-0.1,0.1,0,0.1,0
		C71.5,49.1,71.5,49.1,71.4,49.1C71.4,49.1,71.4,49.1,71.4,49.1z M71.4,52.8C71.4,52.8,71.4,52.9,71.4,52.8
		C71.4,52.9,71.4,52.8,71.4,52.8L71.4,52.8z M71.5,53.9C71.5,53.9,71.5,53.9,71.5,53.9c0.1,0.1,0.1,0.1,0,0.1
		C71.5,54,71.5,54,71.5,53.9C71.5,54,71.5,53.9,71.5,53.9z M71.8,68c-0.1,0.3-0.1,0.4-0.2,0.5v0c0,0-0.2,0.1-0.3,0.1
		c0-0.1-0.1-0.4,0-0.4C71.4,68,71.6,68,71.8,68z M72.5,62.8c0.2-0.1,0.3-0.1,0.4,0.2c-0.5,0-0.5,0.7-1,0.8c-0.1-0.2-0.1-0.3-0.2-0.5
		C72,63.1,72.2,63,72.5,62.8z M72.4,57.8C72.4,57.8,72.4,57.7,72.4,57.8c0.1-0.1,0.2,0,0.3,0c0,0,0,0.1,0,0.1
		C72.5,57.9,72.4,57.8,72.4,57.8z M72.4,74.9C72.4,74.9,72.3,74.9,72.4,74.9c-0.1,0-0.1,0-0.1-0.1C72.3,74.8,72.3,74.8,72.4,74.9
		C72.3,74.8,72.4,74.9,72.4,74.9z M72.2,73.6c-0.2,0.1-0.3,0.2-0.5,0h0c0,0,0-0.2,0-0.2C71.9,73.2,72,73.3,72.2,73.6z M71.8,62.4
		c0,0,0-0.1-0.1-0.1c0.1-0.1,0.3-0.1,0.4-0.2l0,0c0,0,0,0.1,0,0.1C72.1,62.2,72,62.3,71.8,62.4z M71.9,55.7
		C71.9,55.7,71.8,55.7,71.9,55.7L71.9,55.7C71.8,55.6,71.8,55.6,71.9,55.7L71.9,55.7z M71.7,52.6C71.7,52.6,71.7,52.6,71.7,52.6
		c-0.1-0.1,0-0.1,0-0.1C71.8,52.5,71.8,52.6,71.7,52.6C71.8,52.6,71.8,52.6,71.7,52.6z M71.5,70.3c0.1-0.1,0.4,0.1,0.4,0.3
		c0,0.4-0.2,0.4-0.6,0.4l0,0c0-0.2-0.1-0.4,0-0.5C71.3,70.5,71.4,70.4,71.5,70.3z M71.4,72.6C71.4,72.6,71.4,72.6,71.4,72.6
		C71.3,72.6,71.3,72.6,71.4,72.6L71.4,72.6z M71.4,74.1c0.1-0.1,0.2-0.1,0.3-0.1c0.1,0.1,0.2,0.2,0.4,0.3c-0.1,0.1-0.2,0.3-0.4,0.4
		c-0.2,0.1-0.3,0-0.3-0.2c-0.1-0.1-0.1-0.2-0.2-0.2C71.2,74.3,71.3,74.1,71.4,74.1z M72.5,72.7C72.5,72.7,72.5,72.7,72.5,72.7
		C72.5,72.7,72.5,72.8,72.5,72.7C72.5,72.8,72.5,72.8,72.5,72.7C72.5,72.8,72.5,72.8,72.5,72.7z M72.5,74.6
		C72.5,74.6,72.5,74.6,72.5,74.6C72.6,74.6,72.6,74.6,72.5,74.6C72.6,74.6,72.6,74.7,72.5,74.6C72.6,74.7,72.6,74.6,72.5,74.6z
		 M72.4,64.9c0.1-0.3,0.2-0.4,0.4-0.4c0,0,0.1,0.1,0.1,0.1C72.7,64.7,72.5,64.8,72.4,64.9z M72.9,77L72.9,77L72.9,77L72.9,77
		C72.9,76.9,72.9,76.9,72.9,77L72.9,77z M73.1,62.5C73.1,62.5,73,62.5,73.1,62.5C73,62.5,73.1,62.5,73.1,62.5
		C73.1,62.5,73.1,62.5,73.1,62.5z M73,52.3c0,0-0.2,0.1-0.4,0.1c0-0.2,0-0.4,0.1-0.5c0.1-0.1,0.2-0.1,0.4-0.2c0,0,0.1,0.1,0.1,0.2
		C73.1,52.1,73,52.2,73,52.3z M73.2,77.2C73.2,77.2,73.2,77.1,73.2,77.2C73.2,77.1,73.3,77.1,73.2,77.2
		C73.3,77.1,73.3,77.1,73.2,77.2C73.3,77.1,73.3,77.1,73.2,77.2z M73.3,74.7C73.3,74.7,73.3,74.7,73.3,74.7L73.3,74.7
		C73.3,74.7,73.3,74.7,73.3,74.7L73.3,74.7z M73.2,59.9C73.2,59.9,73.2,59.9,73.2,59.9c0-0.1,0-0.1,0.1-0.1
		C73.3,59.8,73.3,59.9,73.2,59.9C73.3,59.9,73.3,59.9,73.2,59.9z M73.2,57.5L73.2,57.5C73.3,57.5,73.3,57.5,73.2,57.5
		C73.3,57.5,73.2,57.5,73.2,57.5C73.2,57.5,73.2,57.5,73.2,57.5z M73.7,71.8C73.7,71.8,73.6,71.8,73.7,71.8c-0.1-0.1,0-0.1,0-0.1
		C73.7,71.7,73.7,71.8,73.7,71.8C73.7,71.8,73.7,71.8,73.7,71.8z M74,58.3c0,0,0-0.1,0-0.1c0.1,0,0.2,0,0.2-0.1v0.1h0
		C74.2,58.2,74,58.3,74,58.3z M74.1,53.2C74.1,53.2,74.1,53.1,74.1,53.2c0-0.1,0-0.1,0.1-0.1C74.2,53.1,74.2,53.1,74.1,53.2
		C74.2,53.2,74.1,53.2,74.1,53.2z M74.2,50.8c0,0-0.1,0-0.1,0c0,0,0-0.1,0-0.1c0.1,0,0.1,0,0.1,0C74.2,50.7,74.2,50.8,74.2,50.8z
		 M74.2,47.1c0.1,0.1,0.3,0.1,0.5,0.2C74.4,47.5,74.2,47.5,74.2,47.1z M75,52.3L75,52.3L75,52.3L75,52.3z M75.2,64.5
		c-0.1,0-0.1-0.1-0.1-0.1c0,0,0.1-0.1,0.1-0.1c0.1,0.1,0.1,0.1,0.1,0.2C75.3,64.4,75.3,64.5,75.2,64.5z M75,57.7
		c0-0.2,0.1-0.3,0.4-0.2c-0.1,0.2-0.2,0.2-0.3,0.4C75.1,57.7,75,57.7,75,57.7z M75.5,78.8L75.5,78.8L75.5,78.8L75.5,78.8L75.5,78.8z
		 M76.3,56C76.3,56,76.4,55.9,76.3,56c0.1,0,0.1,0,0.1,0C76.4,56,76.4,56,76.3,56C76.4,56,76.4,56,76.3,56z M77.6,57.9
		c-0.1,0-0.1-0.1-0.2-0.1c0,0,0.1-0.1,0.1-0.1c0,0,0.1,0.1,0.1,0.2C77.6,57.9,77.6,57.9,77.6,57.9z M77.3,41.8c0.1,0,0.2,0,0.3,0
		c0,0,0,0.1,0,0.1c-0.1,0-0.2,0-0.3,0C77.3,41.9,77.3,41.8,77.3,41.8z M77.4,54.2L77.4,54.2L77.4,54.2L77.4,54.2
		C77.4,54.3,77.4,54.2,77.4,54.2C77.4,54.2,77.4,54.2,77.4,54.2z M77.6,59.8c-0.1,0-0.3,0-0.5,0C77.3,59.6,77.4,59.6,77.6,59.8z
		 M77.2,57.9c0,0,0.1,0.1,0.1,0.1c0,0-0.1,0.1-0.1,0.1C77.2,58,77.1,58,77.2,57.9C77.1,57.9,77.1,57.9,77.2,57.9z M76.8,78.6
		C76.8,78.6,76.8,78.7,76.8,78.6L76.8,78.6c-0.1,0-0.1,0-0.1,0C76.7,78.6,76.7,78.6,76.8,78.6C76.8,78.6,76.8,78.6,76.8,78.6z
		 M76.7,71.1l-0.1,0.1c0,0-0.1-0.1-0.1-0.1C76.6,71.2,76.6,71.1,76.7,71.1C76.7,71.1,76.7,71.1,76.7,71.1z M76.6,67.4
		c-0.2-0.3-0.2-0.5,0.1-0.7C76.7,66.9,76.7,67.1,76.6,67.4z M76.5,55C76.5,54.9,76.5,54.9,76.5,55C76.5,54.9,76.5,54.9,76.5,55
		C76.5,54.9,76.5,55,76.5,55z M76.6,41.6c0,0.1,0,0.1,0,0.1c-0.1,0-0.1,0-0.2,0c0,0,0-0.1,0-0.1C76.5,41.7,76.6,41.6,76.6,41.6z
		 M76.4,52.5c0,0,0.1,0.1,0.1,0.1c-0.1,0-0.2,0.1-0.2,0.1v0c0,0-0.1-0.1-0.1-0.1C76.2,52.5,76.3,52.5,76.4,52.5z M76,41.7
		C76,41.7,76,41.8,76,41.7c0,0.1,0,0.1,0,0.1C75.9,41.8,75.9,41.8,76,41.7C75.9,41.8,76,41.7,76,41.7z M75.8,70.9
		C75.8,70.9,75.9,70.9,75.8,70.9C75.9,70.9,75.9,70.9,75.8,70.9L75.8,70.9z M75.9,79.4c-0.1,0.1-0.1,0.1-0.2,0.1v0
		c0,0-0.1-0.1-0.1-0.1c0-0.1,0.1-0.1,0.1-0.2C75.8,79.2,75.8,79.3,75.9,79.4z M75.7,60.3c-0.1,0-0.2,0-0.2,0c0,0,0-0.1,0-0.1
		c0.1,0,0.2,0,0.2-0.1C75.7,60.2,75.7,60.2,75.7,60.3z M75.6,56.9c0,0-0.1,0.1-0.1,0.1c0-0.1-0.1-0.1-0.1-0.2
		C75.5,56.8,75.5,56.9,75.6,56.9z M75.1,41.6c-0.1,0.1-0.1,0.2-0.2,0.3C74.9,41.6,75,41.7,75.1,41.6z M74.8,40.2
		c0,0,0.1,0.1,0.1,0.1c-0.1,0-0.1,0.1-0.2,0C74.7,40.4,74.7,40.3,74.8,40.2C74.7,40.2,74.7,40.2,74.8,40.2z M74.2,39
		c0-0.1,0.2-0.1,0.2-0.1c0.1,0,0.1,0.1,0.1,0.2c0,0.1-0.1,0.2-0.1,0.2c-0.1,0.1-0.2,0.1-0.3,0.1C74.1,39.3,74.2,39.1,74.2,39z
		 M74.1,39.5c0.1,0.1,0.2,0.2,0.4,0.4c-0.3,0-0.5-0.1-0.7-0.1C73.8,39.6,73.9,39.4,74.1,39.5z M74.2,41.9c0.1,0.2,0.2,0.3,0.2,0.4
		c-0.1,0.2-0.2,0.4-0.5,0.3C73.9,42.4,74,42.2,74.2,41.9z M73.8,58.8C73.8,58.8,73.9,58.8,73.8,58.8C73.9,58.8,73.9,58.9,73.8,58.8
		C73.9,58.9,73.9,58.9,73.8,58.8C73.8,58.9,73.8,58.9,73.8,58.8z M73.3,34.4c0.1,0,0.1,0.2,0.2,0.4c-0.3,0.1-0.5,0-0.8-0.2
		C73,34.5,73.1,34.4,73.3,34.4z M73.1,37.1c-0.1,0.1-0.2,0.1-0.2,0.1c0-0.1-0.1-0.1-0.1-0.2c0,0,0.1-0.1,0.1-0.1
		C72.9,37,73,37,73.1,37.1z M72.5,41.4C72.5,41.4,72.6,41.4,72.5,41.4C72.6,41.4,72.5,41.4,72.5,41.4C72.5,41.4,72.5,41.4,72.5,41.4
		C72.5,41.4,72.5,41.4,72.5,41.4z M72.2,46.3C72.2,46.3,72.2,46.3,72.2,46.3l-0.1,0C72.1,46.3,72.2,46.3,72.2,46.3
		C72.2,46.3,72.2,46.3,72.2,46.3z M71.6,43.3c0.4-0.1,0.5-0.1,0.5,0.2c0,0.1-0.1,0.3-0.2,0.3C71.7,43.9,71.7,43.8,71.6,43.3
		L71.6,43.3z M71.8,44.7c-0.1-0.1-0.2-0.1-0.3-0.2C71.8,44.3,71.8,44.4,71.8,44.7z M71.6,45.9L71.6,45.9
		C71.6,45.9,71.6,45.9,71.6,45.9C71.5,45.9,71.5,45.9,71.6,45.9C71.5,45.9,71.6,45.9,71.6,45.9z M72.4,47.1c0.2-0.2,0.4-0.5,0.5-0.7
		c0.2-0.2,0.4-0.3,0.8-0.2c-0.3,0.4-0.5,0.7-0.8,1C72.8,47.2,72.6,47.2,72.4,47.1c-0.2,0.3-0.5,0.5-0.8,0.8
		c-0.2-0.2-0.3-0.3-0.4-0.4C71.2,47.2,71.8,47.1,72.4,47.1z M71.2,49.9c0,0,0.1,0.1,0.1,0.1c-0.1,0.1-0.1,0.1-0.2,0.1
		c0,0-0.1-0.1-0.1-0.1C71.1,50,71.2,49.9,71.2,49.9z M71.5,57.5c-0.1,0.3-0.2,0.3-0.5,0.2C71.2,57.5,71.3,57.5,71.5,57.5z M70.9,68
		c-0.1,0-0.1,0-0.2,0.1c0,0,0-0.1,0-0.1c0.1,0,0.1,0,0.2-0.1C70.9,67.9,70.9,67.9,70.9,68z M70.9,40.8c0,0.3-0.1,0.5-0.4,0.3
		C70.6,41,70.8,40.9,70.9,40.8z M70.8,46.6c-0.1,0-0.2,0.1-0.3,0.1c0,0,0-0.1-0.1-0.1c0.1-0.1,0.2-0.1,0.3-0.1
		C70.8,46.5,70.8,46.6,70.8,46.6z M70.6,49.9c0.1,0.1,0.2,0.2,0.2,0.3c0,0.1-0.1,0.2-0.2,0.4c-0.1-0.1-0.2-0.2-0.3-0.4
		C70.5,50.1,70.5,50.1,70.6,49.9z M70.2,49.5c-0.2,0.1-0.3,0.2-0.4,0.3c-0.2,0.1-0.3-0.1-0.3-0.3c0-0.1,0.2-0.4,0.2-0.3
		C69.9,49.2,70,49.3,70.2,49.5z M69.9,47.2c-0.1,0.2-0.2,0.3-0.2,0.3c-0.2,0.1-0.3-0.1-0.5-0.4C69.4,47.2,69.6,47.2,69.9,47.2z
		 M69.3,48.4c0,0.1,0,0.1,0.1,0.2c-0.1,0-0.2,0.1-0.3,0.1c0,0-0.1-0.1,0-0.1C69.1,48.5,69.2,48.5,69.3,48.4z M69.1,49.2
		C69.1,49.2,69.1,49.2,69.1,49.2C69.1,49.2,69.1,49.3,69.1,49.2C69.1,49.3,69.1,49.3,69.1,49.2C69.1,49.3,69.1,49.2,69.1,49.2z
		 M68.3,45.7c0,0,0-0.1,0-0.2c0.2-0.1,0.5-0.2,0.7-0.3c0.1,0.3,0,0.5-0.2,0.5C68.6,45.8,68.5,45.7,68.3,45.7z M68.4,49.3
		C68.4,49.3,68.3,49.3,68.4,49.3C68.3,49.2,68.3,49.2,68.4,49.3C68.3,49.2,68.3,49.2,68.4,49.3C68.3,49.2,68.4,49.2,68.4,49.3z
		 M68.6,38.4c0,0,0.1,0.1,0.2,0.1c0,0.1-0.1,0.1-0.1,0.2c-0.1-0.1-0.1-0.1-0.1-0.2C68.5,38.5,68.6,38.4,68.6,38.4z M68.3,36.2
		C68.3,36.2,68.3,36.3,68.3,36.2c0,0.1,0,0.1,0,0.1C68.2,36.3,68.2,36.3,68.3,36.2C68.2,36.3,68.2,36.3,68.3,36.2z M68,40
		c0.1,0,0.1,0.1,0.2,0.1c0,0-0.1,0.1-0.1,0.1C68.1,40.2,68,40.1,68,40C68,40,68,40,68,40z M68.2,43.3C68.1,43.3,68.1,43.3,68.2,43.3
		c-0.1,0.1-0.1,0-0.1-0.1C68.1,43.2,68.1,43.2,68.2,43.3C68.1,43.2,68.1,43.3,68.2,43.3z M68.2,49h-0.5C67.9,48.7,68,48.8,68.2,49z
		 M67.7,38.8c-0.1,0-0.2,0.1-0.3,0.1c0,0,0-0.1,0-0.1c0.1,0,0.2,0,0.2-0.1C67.7,38.7,67.7,38.8,67.7,38.8z M66.7,49.7
		c0,0,0-0.1,0-0.2c0.2,0,0.4,0,0.7,0.1C67.1,49.9,66.9,49.7,66.7,49.7z M67,52.8c0,0-0.1,0-0.2,0c0,0,0-0.1,0-0.1
		C66.9,52.7,66.9,52.8,67,52.8z M67.3,48.9c-0.1-0.2-0.1-0.3,0.2-0.4C67.6,48.8,67.5,48.8,67.3,48.9z M67.2,38.2
		c0.1-0.1,0.2-0.2,0.3-0.2c0,0,0.1,0.1,0.1,0.1c0,0.1-0.1,0.2-0.2,0.3c0,0.1-0.1,0.1-0.2,0.1C67.2,38.3,67.1,38.2,67.2,38.2z
		 M67.1,39.3C67.1,39.3,67.1,39.3,67.1,39.3C67.1,39.3,67.2,39.3,67.1,39.3C67.2,39.3,67.2,39.3,67.1,39.3c0,0.1-0.1,0.1-0.1,0.1
		c0,0,0,0,0,0C67,39.4,67.1,39.3,67.1,39.3z M66.5,41C66.5,41,66.5,41,66.5,41c0,0.1,0,0.1,0,0.1C66.4,41.1,66.4,41.1,66.5,41
		C66.4,41,66.4,41,66.5,41z M66.8,42c-0.1,0.2-0.3,0.3-0.5,0.2C66.4,42.1,66.6,42.1,66.8,42z M65.9,40L65.9,40L65.9,40L65.9,40z
		 M66.8,45.7h-1.1C66.1,45.6,66.4,45.4,66.8,45.7z M66.3,49.8C66.3,49.8,66.3,49.8,66.3,49.8C66.3,49.8,66.3,49.7,66.3,49.8
		C66.3,49.7,66.3,49.8,66.3,49.8C66.3,49.8,66.3,49.8,66.3,49.8z M66.5,54.2c0,0,0-0.1,0-0.1c0,0,0.2,0,0.2-0.1c0,0,0,0.1,0,0.1
		C66.6,54.1,66.5,54.2,66.5,54.2z M66.9,65.5c0,0.2-0.1,0.3-0.4,0.3C66.7,65.7,66.8,65.6,66.9,65.5z M67,71.2c0,0,0.1,0.1,0.1,0.1
		c-0.1,0.1-0.2,0.2-0.4,0.4C66.6,71.3,66.8,71.2,67,71.2z M67.1,72.4C67.1,72.4,67.1,72.4,67.1,72.4C67.1,72.3,67.2,72.3,67.1,72.4
		C67.2,72.4,67.2,72.4,67.1,72.4z M67.4,70.9L67.4,70.9L67.4,70.9L67.4,70.9L67.4,70.9z M67.2,50.7C67.2,50.7,67.2,50.6,67.2,50.7
		c0.1-0.1,0.2-0.1,0.2-0.1c0.1,0,0.1,0.1,0.2,0.1c0,0,0,0.1-0.1,0.1C67.4,50.8,67.3,50.7,67.2,50.7z M67.5,53.6
		C67.5,53.6,67.5,53.5,67.5,53.6C67.5,53.5,67.5,53.5,67.5,53.6C67.5,53.5,67.5,53.5,67.5,53.6C67.6,53.5,67.5,53.5,67.5,53.6z
		 M67.6,69.2C67.6,69.2,67.6,69.2,67.6,69.2c-0.1-0.1,0-0.1,0-0.1C67.6,69.1,67.7,69.1,67.6,69.2C67.7,69.2,67.6,69.2,67.6,69.2z
		 M68,50.9c0.4-0.1,0.8,0.1,1.2,0.2c0,0.1,0,0.1,0,0.2h0c-0.4,0-0.8,0.1-1.1,0.1c-0.1,0-0.2-0.2-0.2-0.3C67.8,51,67.9,50.9,68,50.9z
		 M68.5,70.2L68.5,70.2c0.1-0.1,0.3,0,0.4,0.1c0.1,0.1,0,0.3-0.1,0.4c-0.2,0.1-0.4,0.2-0.6-0.2C68.3,70.5,68.4,70.3,68.5,70.2z
		 M68.1,58.5C68.1,58.5,68.1,58.5,68.1,58.5C68.1,58.5,68.2,58.5,68.1,58.5C68.2,58.5,68.2,58.5,68.1,58.5
		C68.2,58.5,68.1,58.5,68.1,58.5z M68.9,68.1C68.9,68.1,68.9,68.1,68.9,68.1C68.8,68,68.8,68,68.9,68.1C68.9,68,68.9,68,68.9,68.1
		C69,68,68.9,68.1,68.9,68.1L68.9,68.1z M67.9,79.1C67.9,79.1,67.9,79.1,67.9,79.1L67.9,79.1C67.9,79.1,67.9,79.1,67.9,79.1
		C67.9,79,67.9,79.1,67.9,79.1z M68.2,81.9C68.2,81.9,68.1,81.9,68.2,81.9c-0.1-0.1,0-0.2,0-0.3c0.1,0.1,0.1,0.1,0.1,0.1
		C68.3,81.8,68.2,81.9,68.2,81.9z M67.9,78c0.1-0.2,0.1-0.3,0.2-0.5C68.3,77.7,68.3,77.9,67.9,78z M68.6,82.1
		C68.6,82.1,68.6,82,68.6,82.1l0-0.1C68.6,82,68.6,82,68.6,82.1C68.6,82,68.6,82.1,68.6,82.1z M68.7,78.7
		C68.7,78.7,68.7,78.7,68.7,78.7C68.7,78.7,68.7,78.7,68.7,78.7C68.7,78.6,68.7,78.6,68.7,78.7C68.7,78.6,68.7,78.6,68.7,78.7
		L68.7,78.7z M68,72c0,0,0-0.1-0.1-0.1c0.2-0.2,0.4-0.4,0.6-0.6c0.1-0.1,0.3-0.2,0.4,0c0.1,0.2,0,0.4-0.2,0.4
		C68.5,71.8,68.3,71.9,68,72z M69.5,78.4c0,0-0.1,0.1-0.1,0.2c0,0-0.1-0.1-0.1-0.1c0-0.1,0.1-0.1,0.1-0.2
		C69.4,78.3,69.5,78.3,69.5,78.4L69.5,78.4z M68.9,74.3c0.2-0.3,0.5-0.3,0.7-0.3C69.4,74.3,69.2,74.3,68.9,74.3z M69.8,70.8
		C69.8,70.8,69.7,70.8,69.8,70.8c-0.1,0-0.1-0.1-0.1-0.1C69.7,70.7,69.8,70.7,69.8,70.8L69.8,70.8z M69.3,54.8
		c0.1-0.2,0.1-0.4,0.2-0.5c0.4-0.1,0.9-0.2,1.3-0.2c0,0.5,0,0.6-0.7,0.5C69.8,54.8,69.5,54.9,69.3,54.8z"/>
	<path class="st0" d="M30.7,82.2c2,0,3.7-1.6,3.7-3.7V60.7c0-2-1.6-3.7-3.7-3.7h-5.1c-2,0-3.7,1.6-3.7,3.7v13.8c0,0,0.1,0.1,0.1,0.1
		L22,74.8v0.8c0,0,0,0,0.1,0c0.4-0.1,0.5,0.1,0.5,0.5c0,0.3-0.2,0.6,0.1,0.8c-0.3,0.1-0.5,0.3-0.7,0.4v1.2c0,1,0.4,2,1.1,2.6
		c0.1-0.1,0.1-0.2,0.1-0.3c0,0,0,0,0,0c0.1,0,0.3,0.1,0.2,0.2c0,0.1-0.1,0.1-0.3,0.1c0.7,0.6,1.5,1,2.5,1c0,0-0.1,0-0.1,0
		c0,0,0,0,0-0.1c0.1-0.1,0.2,0,0.4,0c0,0-0.1,0-0.1,0.1h2.3c-0.2-0.1-0.3-0.3-0.4-0.4c0.3-0.2,0.5-0.3,0.8-0.5
		c-0.1,0.3-0.1,0.6-0.2,0.9H30.7z M26.1,76.1C26.1,76.1,26.1,76.1,26.1,76.1c0.1,0.1,0.1,0.1,0.1,0.1C26.1,76.1,26.1,76.1,26.1,76.1
		C26.1,76.1,26.1,76.1,26.1,76.1z M25.5,76.4c0,0-0.1,0.1-0.1,0.1c-0.1,0-0.1-0.1-0.2-0.2c0,0,0.1-0.1,0.2-0.2
		C25.4,76.2,25.4,76.3,25.5,76.4z M25.2,74.2C25.2,74.2,25.2,74.3,25.2,74.2C25.2,74.3,25.2,74.3,25.2,74.2
		C25.1,74.3,25.1,74.3,25.2,74.2C25.1,74.3,25.2,74.3,25.2,74.2z M24.9,76.8c-0.5,0.1-0.9-0.4-1.4-0.3c0-0.4,0.2-0.5,0.4-0.4
		c0,0.1,0,0.2,0,0.3c0.2-0.1,0.5-0.2,0.7-0.2C24.8,76.1,24.9,76.4,24.9,76.8z M23.9,77.1c0,0-0.1,0.1-0.1,0.2c0,0-0.1-0.1-0.2-0.1
		c0.1-0.1,0.1-0.1,0.2-0.2C23.8,77,23.9,77.1,23.9,77.1z M24.6,75.4c-0.2-0.2-0.1-0.4-0.1-0.7v0c-0.1,0-0.1,0-0.2,0c0,0-0.1,0-0.1,0
		s0,0,0.1,0c0.1,0,0.2,0,0.2,0C24.8,74.9,24.6,75.2,24.6,75.4z M24.1,73.5c0.3-0.1,0.3,0.1,0.4,0.3c-0.2,0.2-0.4,0.3-0.5,0.1
		C23.9,73.8,24,73.6,24.1,73.5z M23.9,72.8C23.9,72.8,23.9,72.9,23.9,72.8c0,0.1-0.1,0.2-0.1,0.2c0,0,0-0.1-0.1-0.1
		C23.7,72.9,23.8,72.9,23.9,72.8z M23.1,74.9c0.1-0.1,0.2-0.2,0.4-0.2c0.1,0.3,0.2,0.5,0.3,0.8c-0.4,0-0.3,0.6-0.7,0.6
		c-0.1-0.3,0.2-0.4,0.2-0.7C23.3,75.3,23,75.2,23.1,74.9z M23.1,76.7C23.1,76.7,23.1,76.7,23.1,76.7C23,76.7,23,76.7,23.1,76.7
		C23,76.7,23.1,76.7,23.1,76.7z M23.1,79.5c0,0-0.1-0.1-0.1-0.1c0,0,0,0,0.1,0C23.1,79.3,23.1,79.4,23.1,79.5
		C23.1,79.4,23.1,79.4,23.1,79.5z M23.1,77.2C23.1,77.2,23.1,77.2,23.1,77.2c0.1-0.1,0.1,0,0.1,0C23.2,77.2,23.1,77.2,23.1,77.2
		L23.1,77.2z M23.2,80.9c0-0.1,0-0.1,0-0.2C23.2,80.8,23.2,80.8,23.2,80.9L23.2,80.9z M23.2,80.4L23.2,80.4L23.2,80.4L23.2,80.4z
		 M23.7,78.8c0,0-0.1,0-0.1,0c-0.1-0.1-0.2-0.3-0.4-0.5c0.2-0.1,0.3-0.2,0.6-0.3C23.8,78.4,23.7,78.6,23.7,78.8z M24.6,78.1
		c-0.2-0.2-0.4-0.3-0.6-0.1c0,0-0.1,0-0.2,0c0.1-0.4,0.3-0.7,0.9-0.7c0-0.1,0.1-0.2,0.1-0.3c0.3,0.1,0.3,0.3,0.2,0.5h0
		c-0.1,0.1-0.2,0.2-0.4,0.4c0.1,0.1,0.3,0.2,0.4,0.3c0,0,0,0,0,0.1c-0.1,0-0.2,0.1-0.3,0C24.8,78.3,24.7,78.2,24.6,78.1z M25.5,81.1
		c0-0.3,0.2-0.4,0.5-0.4C25.8,80.9,25.7,81.1,25.5,81.1z M26.5,81.9c0,0-0.1-0.1-0.1-0.1c0-0.1,0-0.1,0.1-0.3
		c0.1,0.1,0.1,0.2,0.1,0.2C26.6,81.7,26.5,81.8,26.5,81.9z M25.9,79.6c-0.3,0-0.6-0.2-0.9-0.3c0.4-0.7,0.7-0.8,1-0.7
		c0.2,0.1,0.4,0.2,0.5,0.5l0,0c0.1,0.2,0.2,0.3,0.3,0.5C26.5,79.5,26.2,79.6,25.9,79.6z M27.7,78.6c-0.1,0-0.2,0-0.3,0
		c0-0.1,0-0.1,0-0.2c0.1,0,0.2,0,0.3,0l0,0C27.7,78.5,27.7,78.6,27.7,78.6z M27.7,77.8L27.7,77.8L27.7,77.8
		C27.8,77.8,27.8,77.8,27.7,77.8C27.8,77.8,27.8,77.8,27.7,77.8C27.8,77.8,27.8,77.8,27.7,77.8z M28,79.2c-0.1,0-0.2,0-0.2,0
		c0,0,0-0.1,0-0.1L28,79.2C28,79.1,28,79.2,28,79.2z"/>
	<path class="st0" d="M89.5,88.4C89.5,88.5,89.5,88.5,89.5,88.4c-0.1,0.2-0.2,0.3-0.4,0.2C89.2,88.4,89.3,88.4,89.5,88.4
		c-0.3-0.8-0.7-1.4-1.3-1.9c-0.1,0.2-0.2,0.3-0.5,0.4c-0.1-0.1-0.2-0.2-0.4-0.3c-0.3-0.2-0.4-0.4-0.4-0.7c-0.3-0.1-0.7-0.2-1.1-0.2
		H14.1c-2.1,0-3.8,1.7-3.8,3.8v4.8c0,2.1,1.7,3.8,3.8,3.8h9.3c0.1-0.1,0.2-0.2,0.3-0.2c-0.1-0.3-0.1-0.5-0.1-0.7
		c0.1-0.2,0.2-0.4,0.4-0.6c0.3,0,0.4,0.2,0.4,0.5c-0.2,0-0.3,0.1-0.4,0.1c0,0.3,0.3,0.5,0,0.7c0,0,0.1,0.1,0.1,0.3h8.6
		c0-0.1-0.1-0.2-0.1-0.3c0.1-0.4,0.9-0.7,1.1-0.6c0.1,0,0.1,0.2,0.1,0.3c-0.2,0.2-0.3,0.4-0.4,0.6h1.8c0-0.1,0.1-0.2,0.1-0.3
		c0,0,0.1,0,0.1,0c0,0.1,0,0.2-0.1,0.3h50.4c0,0,0,0,0,0c0,0,0.1,0,0.1,0c0,0,0,0,0,0c2.1,0,3.8-1.7,3.8-3.8v-4.8
		C89.7,89.2,89.6,88.8,89.5,88.4z M23.6,89.3C23.6,89.3,23.6,89.3,23.6,89.3L23.6,89.3C23.7,89.3,23.6,89.3,23.6,89.3
		C23.6,89.3,23.6,89.3,23.6,89.3z M22.6,93.7c0,0-0.1-0.1-0.1-0.1c0,0,0.1-0.1,0.1-0.1C22.6,93.5,22.6,93.6,22.6,93.7
		C22.6,93.6,22.6,93.6,22.6,93.7z M23.5,94.1c0,0,0.1,0.1,0.1,0.1c-0.1,0.1-0.2,0.2-0.2,0.4c-0.1-0.1-0.1-0.1-0.1-0.1
		C23.4,94.3,23.5,94.2,23.5,94.1z M23.5,96.6c-0.1-0.1-0.1-0.2-0.1-0.2c0.1,0,0.1-0.1,0.2-0.1c0.1,0.1,0.1,0.2,0.1,0.3
		C23.7,96.5,23.6,96.6,23.5,96.6z M23.7,89.8c-0.1-0.3,0.1-0.4,0.4-0.6c0.1,0.3,0.1,0.5,0.2,0.8C23.9,90.1,23.7,90,23.7,89.8z
		 M27.2,86c0,0,0.1,0.1,0.1,0.1c0,0,0,0.1-0.1,0.2c-0.1-0.2-0.1-0.2-0.1-0.2S27.2,86,27.2,86z M27,87.9c0,0,0.1,0,0.1,0.1
		c0,0-0.1,0.1-0.1,0.1C27,88,26.9,88,27,87.9C26.9,87.9,27,87.8,27,87.9z M25,88.5c0.1,0.5,0.1,0.6-0.3,0.9
		C24.4,88.8,24.5,88.6,25,88.5z M25.2,97.8c0,0-0.1,0.1-0.2,0.1c0-0.1-0.1-0.1-0.1-0.2c0.1,0,0.1-0.1,0.2-0.1
		C25.1,97.7,25.2,97.8,25.2,97.8L25.2,97.8z M25.2,86.4L25.2,86.4L25.2,86.4L25.2,86.4z M25.7,91.6C25.7,91.6,25.6,91.6,25.7,91.6
		c-0.1,0-0.1-0.1-0.1-0.1C25.6,91.5,25.7,91.5,25.7,91.6C25.7,91.6,25.7,91.6,25.7,91.6z M25.5,87.3c-0.1-0.4,0.1-0.6,0.2-0.9
		c0.1,0.2,0.2,0.4,0.4,0.6C25.8,87.1,25.7,87.2,25.5,87.3z M26.1,91.9L26.1,91.9L26.1,91.9L26.1,91.9z M26.9,87.4
		C26.9,87.4,26.9,87.4,26.9,87.4C26.9,87.4,26.9,87.4,26.9,87.4C26.9,87.4,26.9,87.4,26.9,87.4L26.9,87.4z M27,90L27,90
		c0-0.1-0.1-0.2-0.1-0.3c0.1,0,0.1-0.1,0.2-0.1c0,0.1,0.1,0.2,0.1,0.3C27.1,89.9,27,89.9,27,90z M27.1,86.6
		C27.1,86.6,27.2,86.6,27.1,86.6c0.1,0,0.1,0.1,0.1,0.1c0,0-0.1,0-0.1,0C27.2,86.7,27.1,86.6,27.1,86.6z M27.4,90.1
		C27.4,90.1,27.4,90.1,27.4,90.1c0,0,0-0.1,0-0.1C27.4,90,27.4,90,27.4,90.1C27.4,90.1,27.4,90.1,27.4,90.1z M27.7,89.5L27.7,89.5
		L27.7,89.5L27.7,89.5L27.7,89.5z M27.7,88.7C27.7,88.7,27.6,88.7,27.7,88.7c0-0.1,0-0.1,0.1-0.1c0,0,0,0.1,0.1,0.1
		C27.7,88.7,27.7,88.7,27.7,88.7z M28.2,88.8L28.2,88.8C28.2,88.8,28.2,88.8,28.2,88.8C28.2,88.8,28.2,88.8,28.2,88.8
		C28.2,88.8,28.2,88.8,28.2,88.8z M28.2,87.5c-0.2,0.2-0.5,0.4-0.7,0.6c-0.1-0.4-0.2-0.8-0.2-1.2c0.2-0.1,0.3-0.1,0.5-0.2
		c0.1,0.2,0.2,0.5,0.5,0.5c0.2,0,0.4,0.2,0.6,0.3C28.6,87.8,28.4,87.6,28.2,87.5z M81.1,88C81.1,88,81.1,88.1,81.1,88
		C81.2,88.1,81.1,88.1,81.1,88C81.1,88.1,81.1,88.1,81.1,88z M78.2,87.4c0,0,0.1-0.1,0.1-0.1c0,0.1,0.1,0.1,0.1,0.2
		c0,0.1-0.1,0.2-0.1,0.2c0,0-0.1,0-0.1-0.1C78.1,87.6,78.1,87.5,78.2,87.4z M78.4,91.7L78.4,91.7L78.4,91.7L78.4,91.7z M77.5,86.4
		C77.5,86.4,77.5,86.4,77.5,86.4c0,0,0,0.1,0,0.1L77.5,86.4C77.4,86.4,77.5,86.4,77.5,86.4z M67.5,86.2
		C67.5,86.2,67.6,86.3,67.5,86.2c0,0.1,0,0.1-0.1,0.2c0,0,0-0.1-0.1-0.1C67.4,86.2,67.5,86.2,67.5,86.2z M35.2,91.6
		C35.2,91.6,35.2,91.6,35.2,91.6C35.2,91.7,35.2,91.7,35.2,91.6C35.2,91.7,35.2,91.7,35.2,91.6C35.2,91.7,35.2,91.7,35.2,91.6z
		 M33.6,86.9L33.6,86.9L33.6,86.9L33.6,86.9z M33.4,94.9c-0.3,0.1-0.4-0.2-0.5-0.5c0.3,0,0.6-0.1,0.8-0.1c0,0,0.1,0.1,0.1,0.1
		C33.7,94.6,33.6,94.8,33.4,94.9z M33.5,93.8C33.5,93.8,33.6,93.7,33.5,93.8c0.1,0,0.1,0,0.1,0.1C33.6,93.8,33.6,93.8,33.5,93.8
		C33.5,93.8,33.5,93.8,33.5,93.8z M33.3,92.7c0.5-0.1,0.7,0.1,0.8,0.4C33.4,93.1,33.3,93.1,33.3,92.7z M34.1,91.5
		c0.2-0.1,0.4-0.2,0.5-0.2c0,0,0,0.1,0.1,0.1c-0.1,0.1-0.1,0.2-0.2,0.3c0.1,0.1,0.2,0.2,0.4,0.3c-0.2,0.2-0.4,0.3-0.6,0.4
		C34.2,92.1,34.2,91.9,34.1,91.5z M34.8,94.6C34.8,94.5,34.8,94.5,34.8,94.6c0.1-0.1,0.1,0,0.1,0C34.9,94.6,34.9,94.6,34.8,94.6
		C34.8,94.6,34.8,94.6,34.8,94.6z M35,97.9c0,0-0.1,0-0.1,0c0-0.1-0.1-0.3-0.1-0.4c0,0,0.1-0.2,0.2-0.2c0.1,0.1,0.1,0.2,0.1,0.3
		C35.2,97.7,35.1,97.8,35,97.9z M35.3,95.6c-0.1,0-0.1,0-0.1,0c0-0.2,0-0.3-0.1-0.5l0,0c0,0,0.2,0,0.2,0
		C35.5,95.3,35.4,95.4,35.3,95.6z M35.5,96.5L35.5,96.5L35.5,96.5L35.5,96.5z M34.8,93.9c0.4,0.1,0.7-0.3,1,0.2
		C35.3,94.5,35.1,94.5,34.8,93.9z M36.6,96.3c0,0.1,0.1,0.1,0.1,0.2c0,0.1,0,0.2,0,0.3c-0.1,0-0.3,0-0.3,0c-0.1-0.2-0.1-0.4-0.1-0.5
		C36.4,96.2,36.5,96.3,36.6,96.3c0.2-0.1,0.2-0.5,0.6-0.4C37.2,96.4,37.1,96.5,36.6,96.3z M40.6,97.3c-0.1,0-0.1-0.1-0.1-0.1
		c0.1-0.1,0.2-0.2,0.2-0.3c0,0,0.1,0.1,0.1,0.1C40.7,97.1,40.7,97.2,40.6,97.3z M65.9,87.9L65.9,87.9c0,0-0.1-0.1-0.1-0.2
		c0,0,0.1-0.1,0.1-0.1c0.1,0,0.1,0.1,0.1,0.2C66.1,87.8,66.1,87.8,65.9,87.9z M66.6,86.4c0,0,0.1,0,0.2,0v0
		C66.7,86.4,66.6,86.5,66.6,86.4C66.6,86.5,66.6,86.4,66.6,86.4z M67.2,87.3c-0.1,0.3-0.2,0.5-0.6,0.4C66.7,87.3,67,87.3,67.2,87.3z
		 M66.7,90.7c0-0.2,0-0.5,0.3-0.6c0.2,0,0.3,0.2,0.3,0.4c0,0.3-0.2,0.5-0.4,0.5C66.8,91,66.7,90.9,66.7,90.7z M67.5,92.1
		c-0.3,0.1-0.3-0.2-0.4-0.3c0.1-0.1,0.1-0.2,0.3-0.3c0.1,0.1,0.2,0.3,0.3,0.4C67.7,91.9,67.6,92,67.5,92.1z M67.8,98L67.8,98
		L67.8,98L67.8,98L67.8,98z M67.9,93.7c-0.1-0.2-0.2-0.2-0.2-0.4c0,0,0.1-0.1,0.2-0.2c0.1,0.1,0.2,0.2,0.2,0.3
		C68.1,93.5,68,93.6,67.9,93.7z M68.5,90.5c0,0,0-0.1-0.1-0.1c0,0,0.1,0,0.1,0C68.6,90.3,68.6,90.4,68.5,90.5
		C68.6,90.4,68.5,90.4,68.5,90.5z M69,93C69,93,68.9,93,69,93c-0.1-0.1,0-0.2,0-0.2c0,0,0.1,0.1,0.2,0.1C69.1,93,69,93,69,93z
		 M72.9,92.2c0,0-0.1-0.1-0.1-0.1v0c0,0,0.1-0.1,0.1-0.1c0,0,0.1,0.1,0.1,0.1C72.9,92.1,72.9,92.2,72.9,92.2z M74.2,96.2
		c0,0-0.1-0.1-0.1-0.1c0,0,0-0.1,0.1-0.1c0,0,0.1,0,0.1,0.1C74.3,96,74.2,96.1,74.2,96.2z M75.3,90L75.3,90c0,0-0.1-0.1-0.1-0.1
		c0,0,0.1-0.1,0.1-0.1c0,0,0.1,0.1,0.1,0.1C75.4,90,75.3,90,75.3,90z M76.5,94.4C76.5,94.4,76.5,94.4,76.5,94.4
		C76.5,94.4,76.5,94.4,76.5,94.4C76.5,94.4,76.5,94.4,76.5,94.4z M77,87L77,87L77,87L77,87z M77.3,91.8L77.3,91.8
		c0-0.2,0-0.3,0.1-0.4c0.1-0.1,0.3-0.2,0.6,0.1c-0.2,0.2-0.4,0.3-0.5,0.4C77.4,91.9,77.3,91.8,77.3,91.8z M77.6,96.6L77.6,96.6
		c0,0-0.1,0-0.2,0c0.1-0.1,0.1-0.2,0.2-0.2C77.6,96.4,77.6,96.5,77.6,96.6z M77.6,92.5c-0.1-0.2-0.1-0.4,0.1-0.5
		C77.6,92.2,77.6,92.3,77.6,92.5z M78.1,94.7c0.1-0.3-0.1-0.4-0.3-0.4v0c0.2-0.3,0.4-0.5,0.6-0.9C78.6,94,78.5,94.3,78.1,94.7z
		 M78.7,87.2c-0.1,0.1-0.2,0.1-0.3,0.2c0-0.1-0.1-0.3-0.1-0.4c0-0.1,0.1-0.2,0.2-0.3c0.1,0,0.2,0.1,0.3,0.1
		C78.8,86.9,78.7,87.1,78.7,87.2z M78.9,93c0.1,0.1,0.2,0.2,0.3,0.3C79,93.4,78.9,93.3,78.9,93z M80.4,98C80.4,98,80.4,98,80.4,98
		C80.4,98,80.4,98,80.4,98L80.4,98L80.4,98C80.3,98,80.4,98,80.4,98C80.4,98,80.4,98,80.4,98C80.4,98,80.4,98,80.4,98z M80.6,86.2
		L80.6,86.2L80.6,86.2L80.6,86.2z M81.2,92.3C81.2,92.3,81.1,92.3,81.2,92.3c0-0.1,0-0.1,0-0.1C81.2,92.2,81.2,92.2,81.2,92.3
		C81.2,92.3,81.2,92.3,81.2,92.3z M81.7,94.9c0-0.2,0.1-0.3,0.3-0.4C82,94.7,82,94.9,81.7,94.9z M82,94.4C82,94.4,82,94.4,82,94.4
		c0-0.2-0.1-0.3-0.1-0.5c0,0,0.1,0,0.1,0C82,94.1,82,94.2,82,94.4z M82.1,87L82.1,87c0,0-0.1,0-0.1,0c0,0,0-0.1,0.1-0.1
		C82.1,86.9,82.1,86.9,82.1,87C82.1,87,82.1,87,82.1,87z M82.6,87.5c0-0.5,0.5-0.6,0.7-1C83.7,87.4,83.5,87.6,82.6,87.5z M84,91.2
		C84,91.2,84,91.2,84,91.2C83.9,91.2,83.9,91.2,84,91.2C84,91.1,84,91.1,84,91.2C84,91.1,84,91.2,84,91.2z M86.2,96.7
		c0-0.6,0-0.7,0.5-0.6C86.9,96.7,86.8,96.7,86.2,96.7z M87.7,87.1c0.2,0.3,0.3,0.5,0.4,0.7c-0.3,0.1-0.4-0.1-0.6-0.3
		C87.6,87.5,87.6,87.4,87.7,87.1z M87.9,90.1c-0.6,0-0.4-0.5-0.5-0.9C87.7,89.5,87.9,89.7,87.9,90.1z M87.4,93.3
		c0-0.4,0.2-0.5,0.4-0.5c0.2-0.1,0.4,0,0.4,0.4C88,93.2,87.7,93.3,87.4,93.3z M88.2,89.4L88.2,89.4C88.2,89.3,88.3,89.3,88.2,89.4
		C88.3,89.3,88.3,89.3,88.2,89.4C88.3,89.3,88.3,89.3,88.2,89.4z M88.4,88.5C88.4,88.5,88.4,88.5,88.4,88.5
		C88.4,88.5,88.4,88.5,88.4,88.5C88.4,88.5,88.4,88.5,88.4,88.5C88.3,88.5,88.3,88.5,88.4,88.5z M88.5,93.8
		C88.5,93.8,88.4,93.8,88.5,93.8C88.4,93.8,88.4,93.8,88.5,93.8C88.4,93.8,88.5,93.8,88.5,93.8C88.5,93.8,88.5,93.8,88.5,93.8z
		 M88.4,92.9c0.4-0.1,0.7-0.4,1.1,0C89,93.4,88.7,93.4,88.4,92.9z M89.7,93.6C89.7,93.6,89.7,93.6,89.7,93.6L89.7,93.6
		C89.7,93.6,89.7,93.6,89.7,93.6L89.7,93.6z M89.7,89.5c0,0.1,0,0.2,0,0.2c0,0-0.1,0-0.1,0C89.6,89.6,89.7,89.5,89.7,89.5
		C89.7,89.5,89.7,89.5,89.7,89.5C89.7,89.4,89.7,89.4,89.7,89.5C89.7,89.4,89.7,89.5,89.7,89.5L89.7,89.5z"/>
	<path class="st0" d="M87,85.9c0.2,0.1,0.4,0.1,0.6,0.2C87.4,86.1,87.2,86,87,85.9z"/>
	<path class="st0" d="M13.3,46.3c0.5,2.1,2.6,3.4,4.7,2.9c3.4-0.9,8.7-2.5,15.1-4.9c-0.2,0.1-0.4,0.1-0.6,0.2c0-0.1,0-0.1,0-0.2
		c0.3-0.1,0.5-0.2,0.8-0.3c0.1,0,0.2,0,0.3,0.1c0.3-0.1,0.7-0.2,1-0.4c-0.1,0-0.2,0.1-0.3,0.1c-0.2-0.1-0.3-0.2-0.3-0.3
		c0-0.1,0.1-0.1,0.1-0.1c0.2,0,0.5,0.2,0.5,0.3c4.3-1.7,9.1-3.7,14-6.1c-0.3-0.1-0.1-0.6-0.3-0.8h0c0.1-0.1,0.2-0.2,0.3-0.2
		c0.1,0,0.2-0.1,0.3,0c0.1,0.1,0.1,0.2,0.1,0.4c0,0.2-0.1,0.3-0.2,0.5c0,0-0.1,0-0.1,0c0.9-0.4,1.8-0.9,2.7-1.4
		c-0.1,0-0.1,0.1-0.2,0.1c-0.2-0.4-0.3-0.6,0-0.8c0.2-0.1,0.3-0.4,0.5-0.6c0.2,0.3,0.4,0.5,0.5,0.7c-0.1,0.3-0.4,0.1-0.5,0.2
		c-0.1,0.1-0.2,0.2-0.3,0.4c0.6-0.3,1.2-0.6,1.7-0.9c0,0,0,0,0,0c0.1,0,0.1-0.1,0.1-0.1c0,0,0.1,0,0.1,0c0,0-0.1,0-0.1,0.1
		c5.6-3.1,11.3-6.7,16.8-10.9c0,0,0,0,0-0.1v0c0,0,0,0,0,0c0,0,0,0,0,0c0.6-0.4,1.1-0.9,1.7-1.3c0.2-0.2,0.5-0.4,0.6-0.7l3.4,3.4
		c0.8,0.8,2,0.7,2.6,0c0,0-0.1-0.1-0.1-0.1c-0.1-0.2,0-0.2,0.4-0.4c0,0,0,0,0.1,0.1c-0.1,0.2-0.2,0.3-0.3,0.4
		c0.2-0.2,0.4-0.5,0.5-0.9l0.9-4l0,0c0,0,0,0,0,0c0,0,0,0,0,0c0,0,0,0,0,0l3.9-16.7c0.3-1.3-0.9-2.5-2.2-2.2L60.8,6.4
		c-1.4,0.3-2,2.1-0.9,3.1l3.9,4C54.6,20.8,44.1,26.3,35,30.2c0,0,0,0.1,0,0.1c0.1,0.2,0.1,0.3-0.1,0.4c-0.2,0.1-0.4,0-0.5-0.2
		c0,0,0-0.1,0-0.1C26.2,33.9,19.1,36,15,37.1c-2,0.5-3.2,2.5-2.7,4.5L13.3,46.3z M83,3.4C83,3.4,83,3.5,83,3.4C83,3.5,83,3.5,83,3.4
		L83,3.4C83,3.5,83,3.5,83,3.4C83,3.5,83,3.5,83,3.4z M82.1,1.9L82.1,1.9C82.1,1.9,82.1,1.9,82.1,1.9C82.1,1.9,82.1,1.9,82.1,1.9z
		 M82,2L82,2L82,2.1c0,0,0,0-0.1-0.1C82,2,82,2,82,2z M80.6,3.6C80.6,3.6,80.7,3.6,80.6,3.6c0,0.2,0,0.2-0.1,0.3
		c0,0-0.1-0.1-0.1-0.1C80.5,3.7,80.6,3.6,80.6,3.6z M78.8,24.8c-0.1-0.2,0-0.4,0.2-0.4C78.9,24.6,78.9,24.7,78.8,24.8z M78.9,18.6
		c0,0-0.1-0.1-0.1-0.1c0,0,0.1-0.1,0.1-0.1c0,0,0.1,0.1,0.1,0.1C78.9,18.6,78.9,18.6,78.9,18.6z M78.7,2.7
		C78.7,2.7,78.7,2.7,78.7,2.7C78.7,2.7,78.7,2.7,78.7,2.7C78.6,2.8,78.6,2.7,78.7,2.7C78.6,2.7,78.7,2.7,78.7,2.7z M79,7.7
		c-0.2,0.2-0.3,0.4-0.4,0.6C78.4,7.7,78.4,7.6,79,7.7z M78.3,4C78.3,4,78.4,4,78.3,4C78.4,4,78.4,4,78.3,4C78.4,4,78.3,4,78.3,4
		C78.3,4,78.3,4,78.3,4z M72.2,17.5L72.2,17.5L72.2,17.5L72.2,17.5L72.2,17.5z M72.4,13.7c-0.1,0.1-0.2,0-0.3,0
		c-0.1-0.2,0-0.4,0.2-0.5C72.5,13.3,72.5,13.5,72.4,13.7z M72.2,12.4c0.2-0.1,0.3-0.1,0.4,0.3C72.5,12.6,72.3,12.5,72.2,12.4z
		 M72.3,6.9L72.3,6.9c0,0,0.2,0.1,0.2,0.1c0,0.1-0.1,0.1-0.1,0.1c-0.1,0-0.1,0.1-0.2,0.1c-0.1,0-0.1-0.1-0.1-0.2
		C72.2,7,72.2,6.9,72.3,6.9z M72.1,5.6L72.1,5.6L72.1,5.6L72.1,5.6z M72.3,10.1c-0.1-0.2-0.2-0.3-0.3-0.4h0.5c0,0,0,0.1,0,0.1
		C72.5,9.9,72.4,10,72.3,10.1L72.3,10.1z M73.6,23c-0.1-0.1-0.2-0.2-0.2-0.3c0-0.1,0.1-0.2,0.2-0.3c0.1,0.1,0.2,0.2,0.2,0.2
		C73.8,22.7,73.7,22.8,73.6,23z M73.4,13c0.2-0.3,0.3-0.4,0.6-0.1C73.8,12.9,73.7,13,73.4,13z M73.8,21.5c0,0,0-0.1,0-0.2
		c0.1,0,0.3,0.1,0.4,0.2C74.1,21.6,73.9,21.7,73.8,21.5z M75.5,22.8L75.5,22.8c0,0-0.1-0.1-0.2-0.1c0.1-0.1,0.2-0.2,0.3-0.4
		C75.7,22.7,75.7,22.8,75.5,22.8z M75.5,17.3C75.5,17.3,75.5,17.3,75.5,17.3c0-0.1,0.1-0.2,0.2-0.2l0.1,0.1
		C75.8,17.2,75.6,17.3,75.5,17.3z M76.4,23c0.2-0.1,0.4-0.1,0.5,0.2c-0.1,0.1-0.2,0.2-0.4,0.2C76.4,23.2,76.4,23.1,76.4,23z
		 M76.8,25.3c-0.1-0.2-0.2-0.3-0.3-0.4c0-0.1,0-0.2,0-0.3c0-0.1,0.2-0.1,0.2-0.1c0.1,0.1,0.1,0.2,0.1,0.2
		C76.9,24.9,76.9,25.1,76.8,25.3z M77.4,26.1c-0.1-0.1-0.1-0.2-0.2-0.3h0c0.1-0.1,0.2-0.2,0.3-0.2c0,0,0.1,0.1,0.1,0.1
		C77.6,25.9,77.5,26,77.4,26.1z M77.9,7.1C77.9,7.1,77.9,7.1,77.9,7.1C77.9,7.1,77.9,7.2,77.9,7.1C77.9,7.1,77.9,7.1,77.9,7.1
		C77.9,7.1,77.9,7.1,77.9,7.1z M77.7,2.7c0.1,0.1,0.1,0.2,0.2,0.3c-0.2-0.1-0.3-0.2-0.5-0.3L77.7,2.7z M76.7,7.1
		c0.1-0.2,0.2-0.5,0.3-0.6c0.3-0.1,0.4,0.3,0.5,0.5c0,0.1,0,0.1,0,0.2c-0.3,0-0.6,0.1-0.8,0.1C76.6,7.2,76.6,7.2,76.7,7.1z
		 M76.4,12.8c0,0,0.1,0.1,0.1,0.1h0c0,0-0.1,0.1-0.2,0.2c0,0-0.1,0-0.1-0.1C76.4,12.9,76.4,12.9,76.4,12.8z M75.5,9
		c-0.1-0.2-0.2-0.4,0-0.5c0.2-0.1,0.3,0.1,0.4,0.3C75.8,8.8,75.7,8.9,75.5,9z M75.8,6C75.8,6.1,75.8,6.1,75.8,6L75.8,6
		C75.8,6.1,75.8,6.1,75.8,6C75.8,6.1,75.8,6.1,75.8,6z M75.3,3.6c0.2-0.1,0.3-0.1,0.4,0.3c-0.2-0.1-0.3-0.1-0.4-0.1
		C75.3,3.8,75.3,3.6,75.3,3.6z M75.3,10.9c0,0.1-0.2,0.3-0.3,0.3c-0.3,0-0.7,0-1.1,0c0.2-0.4,0.6-0.4,0.9-0.5
		C75.1,10.6,75.3,10.6,75.3,10.9z M74.2,8.2C74.3,8.2,74.3,8.2,74.2,8.2c0.1,0.1,0,0.1,0,0.1C74.2,8.3,74.2,8.3,74.2,8.2
		C74.2,8.3,74.2,8.2,74.2,8.2z M74,5.5C74.1,5.5,74.1,5.6,74,5.5c0,0.1,0,0.1,0,0.1C74,5.6,74,5.6,74,5.5L74,5.5
		C73.9,5.5,74,5.5,74,5.5z M74.1,7.9C74.1,7.9,74.1,7.9,74.1,7.9C74.1,7.9,74.1,7.9,74.1,7.9C74,7.9,74,7.9,74.1,7.9
		C74,7.9,74,7.9,74.1,7.9z M73.8,8.4c0,0,0.1,0.1,0.1,0.1c0,0,0,0.1-0.1,0.1c0,0-0.1,0-0.1-0.1C73.8,8.5,73.8,8.5,73.8,8.4z M74,10
		c0.1-0.1,0.2-0.2,0.4-0.3C74.3,10.1,74.2,10.2,74,10c-0.2-0.1-0.3-0.2-0.2-0.5C74,9.6,73.9,9.8,74,10z M73.8,11.1
		C73.8,11.1,73.7,11.1,73.8,11.1c-0.1,0.1-0.1,0.1-0.1,0.1C73.6,11.1,73.7,11,73.8,11.1C73.7,11,73.7,11,73.8,11.1z M73.6,6.6
		L73.6,6.6C73.6,6.6,73.6,6.6,73.6,6.6C73.6,6.6,73.6,6.6,73.6,6.6z M73.3,7.7C73.3,7.7,73.3,7.7,73.3,7.7
		C73.4,7.6,73.4,7.7,73.3,7.7C73.4,7.7,73.3,7.7,73.3,7.7C73.3,7.7,73.3,7.7,73.3,7.7L73.3,7.7z M73.3,8.8L73.3,8.8L73.3,8.8
		L73.3,8.8C73.3,8.8,73.3,8.8,73.3,8.8C73.3,8.8,73.3,8.8,73.3,8.8z M73.8,12.3c-0.3,0.1-0.5,0-0.6-0.4h0c0,0-0.2,0.1-0.2,0.1
		c-0.1,0-0.2-0.1-0.3-0.2c0-0.1,0.1-0.2,0.1-0.3c0.1-0.1,0.3-0.1,0.3,0C73.3,11.7,73.5,12,73.8,12.3z M73,4C73,4,73,4,73,4
		c0,0.1,0,0.1-0.1,0.1C72.9,4.1,72.9,4,73,4C72.9,4,72.9,4,73,4z M72.9,8c0,0.1,0,0.1-0.1,0.1c0,0-0.1-0.1-0.1-0.1
		C72.7,8,72.8,8,72.9,8C72.8,7.9,72.9,8,72.9,8z M72.8,4.6c0,0.1,0,0.3,0,0.4c0,0,0,0.1,0,0.1c0,0,0,0,0-0.1c-0.2,0-0.3,0-0.5,0
		c-0.1-0.2-0.1-0.5-0.1-0.7C72.5,4.1,72.7,4.1,72.8,4.6z M72.1,8.3c0.1,0,0.2,0.1,0.4,0.3c-0.2,0.1-0.4,0.3-0.4,0.3
		c-0.1,0-0.2-0.2-0.3-0.3C71.9,8.4,72,8.3,72.1,8.3z M71.9,10.4c0,0,0,0.1,0,0.1h0c0,0-0.1,0.1-0.1,0.1c0-0.1-0.1-0.1,0-0.1
		C71.8,10.4,71.9,10.4,71.9,10.4z M71.8,11.8c0,0.1,0,0.1,0,0.2c0.1,0,0.2,0,0.4-0.1c-0.2,0.3-0.3,0.3-0.4,0.1
		C71.8,11.9,71.7,11.8,71.8,11.8C71.7,11.8,71.8,11.8,71.8,11.8z M71.8,12.7L71.8,12.7L71.8,12.7L71.8,12.7
		C71.7,12.7,71.8,12.7,71.8,12.7z M71.6,4.3L71.6,4.3L71.6,4.3L71.6,4.3z M71.4,7.4C71.4,7.4,71.4,7.5,71.4,7.4c0,0,0,0.1,0,0.1
		C71.4,7.6,71.4,7.5,71.4,7.4C71.3,7.5,71.4,7.5,71.4,7.4z M71.5,13.5c0.1,0,0.2,0.1,0.3,0.1c-0.1,0.2-0.2,0.3-0.3,0.4
		c-0.1,0.1-0.3,0.1-0.4,0c0,0-0.1-0.2,0-0.3C71.2,13.5,71.3,13.4,71.5,13.5z M71.5,18.9c-0.2,0.2-0.3,0.3-0.5,0H71.5z M71.2,21.5
		c-0.3,0.1-0.5,0.1-0.7,0.2C70.8,21.1,70.8,21.1,71.2,21.5z M70.8,4.4c0,0,0,0.2,0,0.2c-0.1,0-0.2,0-0.4,0
		C70.5,4.3,70.6,4.2,70.8,4.4z M70.1,13c0,0,0.1-0.1,0.2-0.1c0.1,0,0.1,0.1,0.2,0.1c-0.1,0.1-0.2,0.2-0.2,0.2
		C70.2,13.1,70.1,13,70.1,13L70.1,13z M67.2,9.7C67.2,9.7,67.2,9.7,67.2,9.7c-0.1-0.1-0.1-0.1,0-0.2C67.2,9.6,67.3,9.6,67.2,9.7
		C67.3,9.6,67.3,9.7,67.2,9.7z M68.2,24.7L68.2,24.7L68.2,24.7L68.2,24.7z M68.5,12.5C68.5,12.5,68.4,12.5,68.5,12.5
		c-0.1-0.1-0.1-0.1-0.1-0.1v0C68.4,12.4,68.5,12.4,68.5,12.5C68.5,12.4,68.5,12.5,68.5,12.5z M68.6,22.1L68.6,22.1
		C68.6,22.1,68.6,22,68.6,22.1L68.6,22.1C68.7,22.1,68.6,22.1,68.6,22.1z M68.3,11.8c0-0.2-0.1-0.5-0.1-0.8c0.1-0.1,0.3-0.3,0.4-0.5
		C68.8,11,68.7,11.4,68.3,11.8z M68.8,16.5L68.8,16.5L68.8,16.5L68.8,16.5L68.8,16.5L68.8,16.5z M68.8,13.5c0.1-0.2,0.3-0.2,0.4-0.2
		C69.1,13.5,69,13.6,68.8,13.5z M68.8,8L68.8,8c0.1,0,0.1,0,0.1,0C68.9,8,68.8,8.1,68.8,8C68.8,8.1,68.8,8,68.8,8z M69.2,13.3
		c0.1,0,0.2-0.1,0.3-0.1c0,0,0,0.1,0,0.1C69.4,13.2,69.3,13.3,69.2,13.3z M69.4,20.1C69.5,20.1,69.5,20.1,69.4,20.1
		C69.5,20.1,69.5,20.1,69.4,20.1C69.5,20.1,69.5,20.1,69.4,20.1L69.4,20.1z M69.5,21.8L69.5,21.8c0,0,0-0.1,0-0.1
		c0,0,0.1,0.1,0.1,0.1C69.6,21.8,69.5,21.8,69.5,21.8z M70,19.5L70,19.5L70,19.5L70,19.5z M69.6,12.7c-0.1,0.1-0.2,0.1-0.2,0.2
		c0,0,0,0,0,0l0,0C69.4,12.7,69.5,12.7,69.6,12.7C69.6,12.6,69.6,12.6,69.6,12.7z M69.4,11.2c0,0.1-0.1,0.1-0.1,0.1
		c0,0-0.1,0-0.1-0.1c0-0.1,0.1-0.1,0.1-0.1C69.3,11.1,69.4,11.2,69.4,11.2z M69.2,10.5c0,0.1-0.1,0.1-0.1,0.2c0,0-0.1-0.1-0.2-0.2
		c0.1-0.1,0.2-0.1,0.2-0.1C69.2,10.4,69.2,10.5,69.2,10.5z M68.7,5.2c0.1,0.1,0.2,0.1,0.3,0.2c-0.1,0.1-0.2,0.1-0.2,0.1h0
		c0,0-0.1-0.2-0.2-0.2C68.6,5.2,68.6,5.2,68.7,5.2z M68.7,6.4c0,0.1,0,0.1,0,0.2c0,0,0,0,0,0c0,0,0,0,0,0.1c0,0,0,0,0,0c0,0,0,0,0,0
		c-0.1,0-0.2,0-0.3,0c-0.1-0.1-0.1-0.2-0.1-0.4c0-0.1,0.2-0.1,0.2-0.1C68.6,6.2,68.6,6.3,68.7,6.4z M68.3,5.5c0,0,0.1,0.1,0.1,0.1
		c0,0-0.1,0.1-0.1,0.1c0-0.1-0.1-0.2-0.1-0.2C68.2,5.5,68.2,5.5,68.3,5.5z M68.2,13L68.2,13L68.2,13L68.2,13L68.2,13z M68,15.3
		c0.1,0.1,0.1,0.1,0.2,0.2c-0.1,0.1-0.2,0.2-0.2,0.2v0c0,0-0.1-0.1-0.1-0.2C67.9,15.4,68,15.4,68,15.3z M67.9,20
		c0.1,0,0.1,0.1,0.2,0.1c0,0-0.1,0.1-0.1,0.1C67.9,20.2,67.9,20.1,67.9,20C67.8,20.1,67.9,20,67.9,20z M67.8,22.3L67.8,22.3
		L67.8,22.3L67.8,22.3z M67.8,19.6L67.8,19.6L67.8,19.6L67.8,19.6z M67.5,15.9C67.6,15.9,67.6,15.9,67.5,15.9c0.1,0.1,0,0.1,0,0.1
		S67.5,16,67.5,15.9C67.5,15.9,67.5,15.9,67.5,15.9z M67.4,6.4C67.4,6.4,67.4,6.4,67.4,6.4c0.1,0.1,0.1,0.1,0.1,0.1
		C67.4,6.5,67.4,6.5,67.4,6.4C67.3,6.4,67.3,6.4,67.4,6.4z M66.9,8.2C67,8,67.2,8,67.4,8.4c-0.2,0-0.4,0-0.5,0
		C66.9,8.4,66.9,8.2,66.9,8.2z M66,14.2C66.1,14.2,66.1,14.2,66,14.2c0,0.1,0,0.1,0,0.1v0L66,14.2C66,14.2,66,14.2,66,14.2z
		 M64.8,13C64.8,13,64.9,13,64.8,13c0,0.1,0,0.1,0,0.1L64.8,13C64.8,13,64.8,13,64.8,13z M64.2,11.5c0.1,0,0.1,0.1,0.1,0.1
		c0,0.1,0,0.1,0,0.1C64.3,11.7,64.2,11.6,64.2,11.5C64.2,11.6,64.2,11.5,64.2,11.5z M59.2,31.2L59.2,31.2L59.2,31.2L59.2,31.2z
		 M60.9,21.9C60.9,21.9,60.8,21.9,60.9,21.9L60.9,21.9C60.8,21.9,60.8,21.9,60.9,21.9L60.9,21.9z M62.4,16.4c-0.2,0-0.4,0-0.6,0.1
		C62,16.1,62.2,16.2,62.4,16.4z M61.1,17.2c-0.2,0.6-0.3,0.7-0.7,0.5C60.6,17.5,60.8,17.4,61.1,17.2z M60.2,23.9
		C60.3,23.9,60.3,23.9,60.2,23.9c0.1,0.1,0.1,0.1,0,0.1C60.2,24,60.2,24,60.2,23.9C60.2,24,60.2,23.9,60.2,23.9z M59.8,24.9
		C59.8,24.9,59.8,24.9,59.8,24.9C59.9,25,59.9,25,59.8,24.9C59.9,25,59.8,25,59.8,24.9C59.8,25,59.8,24.9,59.8,24.9z M59.3,25.2
		c0,0,0,0.1-0.1,0.1c-0.2,0.1-0.3,0-0.3-0.3C59.1,25.1,59.2,25.1,59.3,25.2z M58.2,21.5c0.5-0.2,0.6-0.1,0.6,0.3
		c0,0.2-0.1,0.4-0.1,0.6c-0.1-0.1-0.3-0.2-0.3-0.2C58.5,22,58.3,21.8,58.2,21.5L58.2,21.5z M56.3,33.3
		C56.3,33.3,56.3,33.3,56.3,33.3C56.3,33.3,56.3,33.4,56.3,33.3C56.3,33.4,56.3,33.4,56.3,33.3C56.2,33.4,56.2,33.3,56.3,33.3z
		 M55.8,22.2c0.1,0,0.1,0.1,0.2,0.1c-0.1,0.1-0.1,0.1-0.2,0.2c0-0.1-0.1-0.1-0.1-0.2C55.7,22.3,55.8,22.2,55.8,22.2z M55.5,19.4
		c0,0,0.1,0,0.1,0.1c-0.1,0.1-0.2,0.2-0.2,0.2s-0.1-0.1-0.1-0.1C55.4,19.5,55.4,19.4,55.5,19.4z M54.5,28c0,0.2-0.1,0.4-0.3,0.4
		c-0.2,0-0.3-0.2-0.4-0.5C54.1,27.9,54.3,27.9,54.5,28z M53.5,30.2h-0.6C53.1,30,53.3,30,53.5,30.2z M52.2,34.6
		c-0.1,0-0.1-0.1-0.2-0.1c0.1-0.1,0.1-0.1,0.1-0.1c0,0,0.1,0.1,0.2,0.1C52.3,34.5,52.2,34.6,52.2,34.6z M52.1,28.6
		c0,0,0.1,0.1,0.1,0.1c-0.1,0.1-0.1,0.1-0.1,0.1c0,0-0.1-0.1-0.1-0.1C52,28.7,52,28.6,52.1,28.6z M51.1,34C51.2,34,51.2,34,51.1,34
		c0.1,0.1,0,0.1,0,0.2C51.1,34.1,51.1,34.1,51.1,34C51.1,34,51.1,34,51.1,34z M50.6,31.3C50.6,31.3,50.7,31.3,50.6,31.3
		C50.7,31.3,50.7,31.3,50.6,31.3c0.1,0.1,0.1,0.1,0,0.1C50.7,31.3,50.6,31.3,50.6,31.3L50.6,31.3z M50.5,29.4
		C50.5,29.4,50.5,29.4,50.5,29.4C50.5,29.4,50.5,29.5,50.5,29.4C50.5,29.5,50.5,29.5,50.5,29.4C50.5,29.4,50.5,29.4,50.5,29.4z
		 M50.2,36.2C50.2,36.2,50.2,36.2,50.2,36.2L50.2,36.2C50.1,36.2,50.2,36.2,50.2,36.2z M49.7,36.8c0,0.1,0,0.1,0,0.1
		C49.7,36.9,49.7,36.9,49.7,36.8C49.7,36.8,49.7,36.8,49.7,36.8z M36.3,41.4C36.3,41.4,36.3,41.4,36.3,41.4L36.3,41.4
		C36.3,41.4,36.3,41.3,36.3,41.4L36.3,41.4z M37.5,37.1C37.5,37.1,37.5,37.1,37.5,37.1L37.5,37.1C37.5,37.1,37.5,37.1,37.5,37.1
		C37.5,37.1,37.5,37.1,37.5,37.1z M47.5,38C47.5,38,47.5,38,47.5,38c0.1,0.1,0,0.1,0,0.1C47.4,38.1,47.4,38,47.5,38
		C47.4,38,47.4,38,47.5,38z M40.1,35.5c0.1,0.1,0.1,0.1,0.1,0.1c0,0-0.1,0.1-0.1,0.1c0,0-0.1-0.1-0.1-0.1C40,35.7,40,35.6,40.1,35.5
		z M39.5,32.7c0.1,0,0.3,0.2,0.3,0.3c0,0.2-0.2,0.3-0.3,0.5c-0.2-0.2-0.4-0.4-0.5-0.5C39.1,32.8,39.3,32.6,39.5,32.7z M39,34.6
		C39,34.6,39,34.6,39,34.6c0.1,0,0.1,0.1,0.1,0.1c0,0,0,0-0.1,0C39,34.7,39,34.6,39,34.6z M38.7,33.6L38.7,33.6c0,0,0.1,0.1,0.2,0.1
		c-0.1,0.1-0.1,0.1-0.2,0.1c-0.1,0-0.1-0.1-0.1-0.1C38.7,33.6,38.7,33.6,38.7,33.6z M38.7,35.6L38.7,35.6c0.2,0,0.4,0.2,0.4,0.5
		c0,0.2,0,0.3-0.1,0.5c0,0.1-0.1,0.2-0.2,0.2c-0.1,0-0.2-0.1-0.2-0.2c-0.1-0.2-0.1-0.3-0.1-0.4C38.4,35.8,38.4,35.6,38.7,35.6z
		 M38.3,35.1c0,0.1,0,0.3-0.1,0.5c-0.1,0.2-0.2,0.1-0.5-0.3C38,35,38.3,34.9,38.3,35.1z M37.7,29.1c0.2,0.1,0.3,0.2,0.4,0.2
		c-0.1,0.6-0.1,0.7-0.6,0.7c-0.1-0.2-0.1-0.5-0.1-0.7C37.4,29.2,37.5,29.1,37.7,29.1z M37.5,34.4c-0.2,0.2-0.3,0.3-0.4,0.3
		c-0.1,0.1-0.3,0-0.3-0.2c0-0.2,0.2-0.5,0.4-0.4C37.2,34.1,37.3,34.2,37.5,34.4z M37,35.8C37,35.8,37,35.9,37,35.8
		c-0.1,0.1-0.1,0.1-0.1,0C36.9,35.8,36.9,35.8,37,35.8C37,35.8,37,35.8,37,35.8z M37.1,32.8c0,0.2-0.1,0.4-0.4,0.3
		c0-0.2,0-0.4,0-0.6C37,32.5,37.1,32.6,37.1,32.8z M36.5,33.8L36.5,33.8c0,0,0.1,0.1,0.2,0.1c0,0.1,0.1,0.1,0.1,0.2
		c-0.1,0-0.2,0.1-0.3,0.1c-0.1,0-0.2-0.1-0.2-0.2C36.3,33.9,36.4,33.8,36.5,33.8z M35.6,32.7c0.5,0.1,0.2,0.5,0.4,0.7
		c0,0-0.1,0.1-0.1,0.1c-0.1,0-0.2,0-0.4,0.1C35.5,33.2,35.5,33,35.6,32.7z M35.8,33.7C35.8,33.7,35.8,33.7,35.8,33.7
		C35.7,33.7,35.7,33.7,35.8,33.7C35.7,33.7,35.7,33.7,35.8,33.7C35.8,33.7,35.8,33.7,35.8,33.7z M37.1,36.4
		c-0.1,0.2-0.1,0.4-0.2,0.5c-0.3,0.1-0.6,0.2-0.9,0.2c-0.2,0.1-0.5,0.1-0.7-0.3C36,36.7,36.5,36.6,37.1,36.4z M34.8,37.2
		c0,0-0.1-0.1-0.1-0.1c0,0,0-0.1,0.1-0.2C34.8,37,34.9,37.1,34.8,37.2C34.9,37.2,34.8,37.2,34.8,37.2z M34.8,32.2
		c0.1,0.1,0.1,0.1,0.1,0.2c-0.1,0-0.1,0.1-0.2,0.1c0,0-0.1-0.1-0.1-0.1C34.7,32.4,34.7,32.3,34.8,32.2z M31.2,39.2
		C31.2,39.2,31.2,39.2,31.2,39.2C31.1,39.2,31.1,39.2,31.2,39.2C31.1,39.1,31.2,39.1,31.2,39.2C31.2,39.1,31.2,39.2,31.2,39.2z
		 M33,40.7l-0.2-0.2l0.1-0.1c0,0,0.2,0.1,0.2,0.1C33.1,40.6,33.1,40.7,33,40.7z M34.3,31.7C34.3,31.7,34.3,31.7,34.3,31.7
		C34.3,31.7,34.3,31.8,34.3,31.7C34.3,31.8,34.2,31.8,34.3,31.7C34.2,31.8,34.2,31.7,34.3,31.7z M33.9,40c0,0,0.2,0.1,0.3,0.2
		c-0.1,0.1-0.1,0.2-0.2,0.2c-0.1-0.1-0.2-0.1-0.2-0.2C33.8,40.1,33.9,40,33.9,40z M33.8,34.1c0,0.1,0,0.2,0,0.3h0c0,0-0.1,0.1-0.1,0
		c-0.1-0.1-0.1-0.2-0.1-0.3c0-0.1,0-0.2,0.1-0.4C33.7,34,33.8,34,33.8,34.1z M32.8,32.4c0-0.1,0.2-0.3,0.2-0.3
		c0.1,0,0.4,0.1,0.4,0.2c0.1,0.2,0.1,0.5,0.1,0.9c-0.3-0.1-0.5-0.2-0.8-0.2C32.8,32.7,32.8,32.6,32.8,32.4z M32.1,34.4
		c0,0,0.1,0.1,0.1,0.1c-0.1,0.1-0.1,0.1-0.1,0.1c0,0-0.1-0.1-0.1-0.1C32,34.5,32,34.4,32.1,34.4z M32,36.9c0.2-0.1,0.4-0.1,0.6-0.2
		c0,0,0.1,0.1,0.1,0.1c-0.1,0.2-0.1,0.4-0.1,0.5c-0.1,0.1-0.2,0.2-0.4,0.2c-0.1,0-0.2-0.2-0.2-0.3C31.9,37.1,32,37,32,36.9z
		 M30.7,32.6L30.7,32.6L30.7,32.6L30.7,32.6z M30.6,37.8c0.3,0.1,0.6,0.1,0.9,0.1c-0.1,0.3-0.1,0.5-0.1,0.8
		c-0.4-0.1-0.6-0.5-0.8-0.8C30.5,37.9,30.6,37.8,30.6,37.8z M29.8,44.5c0.2,0,0.2,0.2,0.2,0.4c-0.1,0-0.2,0-0.5-0.1
		C29.6,44.6,29.7,44.5,29.8,44.5z M20.8,45.6L20.8,45.6C20.8,45.6,20.9,45.7,20.8,45.6c0.1,0.1,0,0.1,0,0.1V45.6
		C20.8,45.7,20.8,45.7,20.8,45.6z M19.9,47.3C19.9,47.3,19.9,47.3,19.9,47.3C19.8,47.3,19.8,47.3,19.9,47.3
		C19.9,47.3,19.9,47.3,19.9,47.3z M19.6,47.7L19.6,47.7L19.6,47.7L19.6,47.7z M19,45.4c0.1,0.1,0.1,0.1,0.1,0.1c0,0-0.1,0.1-0.1,0.1
		c0,0-0.1-0.1-0.1-0.1C19,45.5,19,45.4,19,45.4z"/>
	<path class="st0" d="M87.6,86.2c0.2,0.1,0.4,0.2,0.6,0.3C88,86.4,87.8,86.3,87.6,86.2z"/>
</g>
</svg>
