<svg width="711" height="750" viewBox="0 0 711 750" fill="none" xmlns="http://www.w3.org/2000/svg">
<path d="M525.764 0.362231L528.612 2.61328L525.13 7.00724L517.793 1.30358L518.725 0.10312C425.638 -1.62653 335.432 18.4042 256.375 60.0718C256.574 60.3004 256.706 60.5265 256.869 60.7235C261.185 64.7532 267.015 68.1442 264.817 71.7043L260.586 67.6368C260.409 68.241 260.078 68.7893 259.627 69.2285C259.176 69.6677 258.619 69.9829 258.01 70.1437C258.014 70.2029 258.046 70.2305 258.051 70.2904C257.973 70.2652 257.891 70.2506 257.809 70.2471C254.888 71.1695 250.94 70.3079 251.757 68.3385L251.151 65.6919C252.756 67.2532 254.745 70.0431 257.808 70.2479C257.895 70.212 257.955 70.2078 258.042 70.1712C257.35 67.5597 257.517 65.6961 255.286 64.597C258.364 63.755 258.086 62.3403 256.897 60.7498C256.679 60.5712 256.476 60.3757 256.288 60.1651C204.026 87.5458 157.328 124.432 118.589 168.932C48.3383 249.785 10.2363 348.746 1.84229 452.867L5.0803 458.527L1.42829 457.587C-5.02271 547.206 10.4123 640.494 47.0513 729.376C250.104 781.441 460.299 731.923 592.04 580.301C598.396 572.986 604.439 565.453 610.266 557.845C607.919 555.072 605.756 552.149 603.791 549.093L611.252 550.665C612.254 551.313 613.203 552.08 614.18 552.761C635.759 523.817 653.979 492.513 668.488 459.453L666.402 457.416L668.013 455.69L669.521 457.169C683.235 425.351 693.572 392.182 700.362 358.206L698.789 356.673L700.487 354.912L700.969 355.386C714.12 288.164 714.068 217.62 701.25 147.427C687.993 135.741 675.968 117.814 662.926 107.876C675.787 116.931 688.056 128.595 700.137 141.827C698.95 135.605 697.655 129.401 696.252 123.214L694.979 124.558C694.984 124.704 694.96 124.849 694.908 124.985C694.855 125.121 694.776 125.246 694.675 125.35C694.573 125.455 694.452 125.538 694.317 125.595C694.183 125.652 694.039 125.681 693.893 125.68L694.979 124.558C694.907 123.562 694.687 122.581 694.328 121.648L695.878 121.601C687.953 86.8403 677.142 52.8014 663.558 19.8379C618.487 8.27656 572.274 1.74482 525.764 0.362231ZM141.215 267.461L148.583 273.192L144.96 277.748L137.62 271.984L141.215 267.461ZM92.7413 264.864L100.109 270.595L96.5773 275.117L89.2373 269.353L92.7413 264.864ZM63.2663 339.554L68.7083 343.837L65.1773 348.359L59.7023 344.049L63.2663 339.554ZM59.7023 355.102L56.9923 358.607L51.5213 354.357L54.3563 350.902L59.7023 355.102ZM146.374 535.521L141.916 534.606L144.668 531.697L146.374 535.521ZM137.151 498.872L134.925 501.177L131.234 497.58L133.435 495.305L137.151 498.872ZM139.716 492.448L138.635 493.629L136.804 491.814L137.89 490.692L139.716 492.448ZM22.4503 375.985L16.7613 371.6L19.5673 368.178L25.1043 372.543L22.4503 375.985ZM166.873 478.812L164.175 481.659C164.462 483.194 163.111 469.572 166.872 478.813L166.873 478.812ZM27.6733 350.554L22.1393 346.248L25.7543 341.63L31.3243 346.023L27.6733 350.554ZM30.4613 343.487L34.0483 338.9L41.4483 344.659L37.8533 349.183L30.4613 343.487ZM98.4703 389.126L94.8433 393.622L87.5073 387.918L90.1693 384.534L86.5963 381.765L89.3983 378.282L96.6743 383.991L94.8353 386.3L98.4703 389.126ZM104.989 388.761L99.3883 384.341L103.011 379.786L108.581 384.178L104.989 388.761ZM82.5453 356.534L75.2373 350.798L77.9523 347.351L85.2913 353.115L82.5453 356.534ZM72.3693 335.579L75.1433 332.129L82.5723 337.913L79.8263 341.332L72.3693 335.579ZM136.879 385.826L129.451 380.041L132.165 376.595L139.629 382.41L136.879 385.826ZM98.0893 351.955L92.7423 347.756L96.3653 343.2L101.708 347.34L98.0893 351.955ZM135.771 368.453L130.174 364.092L133.761 359.449L139.423 363.866L135.771 368.453ZM87.7313 312.426L80.3323 306.667L83.9313 302.204L91.3023 307.995L87.7313 312.426ZM431.471 594.51L429.891 596.264L426.234 592.696L427.818 591.001L431.471 594.51ZM121.309 314.747L120.085 316.028L116.4 312.491L117.399 311.406C116.047 310.277 114.508 309.393 112.852 308.795L112.712 308.956L112.388 308.676C111.191 308.323 109.927 308.257 108.699 308.484C106.339 311.458 106.604 307.166 110.058 306.149L111.586 304.518L113.286 306.162C116.816 307.051 121.915 310.7 128.867 320.704C126.147 318.986 123.613 316.989 121.307 314.745L121.309 314.747ZM156.61 339L154.415 341.333L151.592 338.601L153.819 336.296L156.61 339ZM144.594 330.903L137.289 325.227L140.912 320.672L148.188 326.38L144.594 330.903ZM140.018 318.164L134.449 313.772L138.044 309.248L143.641 313.609L140.018 318.164ZM131.492 302.384L124.091 296.567L127.69 292.103L135.153 297.918L131.492 302.384ZM102.966 267.049L95.5103 261.297L99.1653 256.769L106.504 262.532L102.966 267.049ZM151.678 299.661L154.42 296.183L161.788 301.914L159.01 305.305L151.678 299.661ZM181.061 322.623L173.661 316.864L176.468 313.442L183.775 319.179L181.061 322.623ZM166.24 303.606L158.932 297.87L162.52 293.228L169.919 298.986L166.24 303.606ZM380.214 479.364L376.418 476.401L375.533 470.218L380.214 479.364ZM188.285 302.219L182.688 297.858L186.247 293.247L191.909 297.664L188.285 302.219ZM478.245 513.406L472.899 509.207L476.486 504.62L481.865 508.847L478.245 513.406ZM525.568 484.47L513.423 474.978L516.46 475.662L525.568 484.47ZM546.357 492.374L544.691 494.164L541.034 490.596L542.732 488.834L546.357 492.374ZM541.4 486.505L528.141 478.165C529.227 477.043 529.873 474.37 533.803 475.828C532.911 480.586 538.18 482.372 541.398 486.508L541.4 486.505ZM600.248 487.902L598.075 490.145L595.289 487.5L597.49 485.225L600.248 487.902ZM540.716 442.537L534.296 430.763C538.881 429.666 538.514 439.284 542.969 434.671C542.136 437.303 537.212 436.988 540.712 442.541L540.716 442.537ZM633.958 426.148L628.396 421.874L631.058 418.489L636.619 422.764L633.958 426.148ZM618.094 389.814C621.395 382.355 630.061 389.612 637.037 395.276C628.813 389.758 626.603 403.299 618.09 389.818L618.094 389.814ZM615.321 287.936L607.921 282.245L611.576 277.717L618.884 283.453L615.321 287.936ZM566.121 234.023L567.787 232.234L570.545 234.91L568.876 236.64L566.121 234.023ZM651.151 306.565L643.788 300.893L646.502 297.447L653.874 303.238L651.151 306.565ZM690.639 328.315L683.298 322.552L685.928 319.139L693.355 324.867L690.639 328.315ZM669.839 234.385L661.342 233.362L665.813 227.757L669.839 234.385ZM643.692 199.275L636.447 193.594L640.006 189.04L647.346 194.803L643.692 199.275ZM639.326 179.35L640.384 178.26L642.208 179.955L641.122 181.077L639.326 179.35ZM661.542 193.071L659.315 195.376L655.598 191.81L657.793 189.478L661.542 193.071ZM685.61 203.049L683.409 205.324L679.725 201.787L681.919 199.454L685.61 203.049ZM668.757 185.727L668.256 186.24L667.356 185.347L665.713 184.923L672.345 200.119C662.005 198 663.112 185.736 662.054 181.354C663.179 181.348 664.299 181.512 665.375 181.84L666.295 180.909L668.251 182.775C672.037 184.334 675.977 186.809 680.018 188.589L668.757 185.727ZM665.961 147.406L664.295 149.196L660.61 145.659L662.308 143.897L665.961 147.406ZM606.519 91.0697L608.72 88.7948L612.404 92.3314L610.177 94.6366L606.519 91.0697ZM692.563 141.996L690.336 144.301L687.577 141.624L689.833 139.286L692.563 141.996ZM656.734 105.167L650.784 103.849C647.476 99.7471 646.833 95.2813 644.953 91.5259C644.065 90.8104 643.475 90.0755 643.655 89.2256C644.168 89.9442 644.603 90.7154 644.953 91.5259C648.596 94.4727 659.03 96.6743 656.732 105.17L656.734 105.167ZM685.515 114.102L683.844 115.831L681.117 113.182L682.76 111.484L685.515 114.102ZM685.084 112.668L680.562 108.292L687.74 106.268C689.347 110.01 686.808 110.874 685.083 112.667L685.084 112.668ZM645.927 68.0962L644.813 69.3108L640.195 64.8514L641.276 63.671L645.927 68.0962ZM610.13 31.2953L607.934 33.628L605.243 31.0667L607.437 28.7334L610.13 31.2953Z" fill="white"/>
</svg>
