<svg width="499" height="506" viewBox="0 0 499 506" fill="none" xmlns="http://www.w3.org/2000/svg">
<path d="M119.021 504.114L117.148 502.466L119.7 499.573L124.527 503.753L123.844 504.543C126.02 504.71 128.172 504.735 130.348 504.862L131.019 499.993L131.084 504.89C168.953 507.043 206.932 503.588 243.791 494.638L243.436 494.255L245.029 492.773L246.199 494.023C254.196 491.999 262.099 489.697 269.909 487.116L275.618 479.66L271.989 485.42L270.357 486.985C320.577 470.358 366.584 442.527 404.682 403.076C412.088 395.407 418.996 387.417 425.509 379.206L423.696 376.369L422.178 376.07L421.531 373.027L423.68 376.391L427.135 377.112C428.999 374.723 430.861 372.293 432.643 369.864L432.097 369.095C432.318 369.312 432.527 369.541 432.723 369.781C435.365 366.169 437.927 362.521 440.42 358.806L438.888 360.226L436.486 357.665L438.098 356.163L440.46 358.723C446.632 349.562 452.334 340.092 457.544 330.352L450.422 322.708L451.208 321.977L458.079 329.338C461.728 322.43 465.123 315.424 468.263 308.32L467.194 309.302L465.353 307.322L466.986 305.798L468.594 307.553C470.701 302.78 472.693 297.95 474.569 293.063L471.915 290.222L473.144 289.074L474.645 292.819C475.566 290.405 476.466 288.012 477.306 285.601L476.909 285.177L474.619 287.799L470.955 284.584L473.629 281.606L476.812 284.356L478.102 283.146L478.164 283.206C479.803 278.505 481.352 273.758 482.812 268.965L482.046 269.675L480.9 268.65L479.854 269.775L476.212 266.579L477.236 265.393L469.473 258.539L468.667 259.29C460.857 255.78 456.659 246.443 454.456 240.048C466.248 251.157 472.486 256.253 483.724 266.059C488.883 248.467 492.692 230.506 495.117 212.334L493.1 208.332L495.572 209.108C503.228 147.787 496.027 83.1943 474.113 20.8643C437.296 9.26381 399.086 2.66731 360.511 1.25219C360.833 1.92884 361.118 2.62216 361.366 3.32918L360.176 2.05859C359.945 1.75498 359.753 1.48889 359.565 1.1902C259.838 -2.00164 164.099 31.6867 94.6473 103.612C60.1698 139.377 34.2422 182.488 18.8108 229.708C19.5937 230.483 20.4653 231.162 21.4076 231.733C20.6212 232.464 18.8075 233.007 19.7957 235.613C21.8161 238.611 24.055 237.752 26.0102 238.231L25.6479 236.27L28.9994 243.897C25.4307 241.376 21.2967 238.189 17.2002 234.797C-7.43906 313.429 -4.35459 401.718 25.1998 485.799C55.6994 495.357 87.1658 501.499 119.021 504.114V504.114ZM411.042 10.4604L411.556 10.513C411.828 10.8569 412.058 11.1188 412.288 11.3814C414.098 12.9686 415.28 14.9161 412.288 11.3814C411.903 11.0352 411.487 10.7261 411.044 10.4583L409.177 10.3063C409.598 9.87035 410.317 10.0424 411.042 10.4604ZM403.324 9.69195L409.543 14.7248L405.548 13.6474C404.716 12.0042 404.917 10.5871 403.324 9.69195V9.69195ZM391.383 6.5382C395.137 11.3708 403.127 15.9463 401.941 21.9301C400.745 13.3641 391.791 13.4574 391.383 6.5375L391.383 6.5382ZM419.539 41.5853L421.111 40.0826L423.533 42.6641L421.941 44.1466L419.539 41.5853ZM424.587 47.7892L425.352 47.0382L426.564 48.3289L425.777 49.0597L424.587 47.7892ZM367.182 11.1575L367.787 14.2438L365.832 16.1011L367.182 11.1575ZM368.648 30.4173L370.623 28.5392L371.635 33.624L368.648 30.4173ZM358.665 30.2003L359.875 29.0732L361.671 31.0093L360.461 32.1364L358.665 30.2003ZM362.801 34.6783L364.011 33.5511L366.415 36.1513L365.227 37.2986L362.801 34.6783ZM363.855 39.8444L365.489 38.3202L367.285 40.2563L365.651 41.7805L363.855 39.8444ZM348.266 42.4303L349.877 40.9284L352.279 43.4897L350.667 45.034L348.266 42.4303ZM349.751 61.6685L351.364 60.1241L353.768 62.7242L352.175 64.2067L349.751 61.6685ZM465.233 244.414C462.184 241.147 459.198 237.94 458.025 234.19C463.636 236.265 463.012 240.415 465.233 244.414ZM392.217 171.677L390.605 173.178L388.203 170.617L389.836 169.093L392.217 171.677ZM325.775 72.1869L326.965 71.0806L329.387 73.662L328.198 74.7683L325.775 72.1869ZM323.759 74.0657L325.372 72.5213L327.794 75.1028L326.182 76.6471L323.759 74.0657ZM428.632 188.2L429.821 187.094L431.534 188.949L430.345 190.056L428.632 188.2ZM311.425 85.7962L312.613 84.6489L315.036 87.2303L313.827 88.3985L311.425 85.7962ZM425.027 198.817L423.436 200.339L421.014 197.757L422.605 196.235L425.027 198.817ZM274.253 53.1185L270.624 58.8783C269.433 55.1891 270.035 50.9778 274.252 53.1178L274.253 53.1185ZM299.243 86.3976L300.855 84.8957L302.651 86.8318L301.039 88.3337L299.243 86.3976ZM394.641 179.096L396.213 177.593L398.615 180.155L397.024 181.677L394.641 179.096ZM263.043 58.8464L264.232 57.7401L266.654 60.3216L265.486 61.448L263.043 58.8464ZM263.796 254.441L262.627 255.567L260.81 253.611L261.999 252.464L263.796 254.441ZM264.336 245.371L263.168 246.497L261.372 244.602L262.562 243.496L264.336 245.371ZM416.938 383.374L415.366 384.876L412.944 382.295L414.534 380.773L416.938 383.374ZM372.401 344.388L369.958 341.787L371.167 340.66L373.593 343.28L372.401 344.388ZM415.099 373.221C415.3 372.971 415.5 372.722 415.742 372.472C415.722 372.647 415.65 372.812 415.536 372.945C415.421 373.079 415.269 373.175 415.099 373.221C413.613 374.927 412.911 376.946 413.951 380.168L411.348 374.149C407.554 371.694 410.363 378.716 405.538 373.573C407.895 374.762 410.844 372.292 412.333 370.75C413.716 368.984 413.46 369.583 412.333 370.75C412.253 370.833 412.215 370.914 412.113 371.02L412.538 373.042C413.365 373.308 414.244 373.369 415.1 373.222L415.099 373.221ZM399.318 363.698L400.506 362.551L402.908 365.112L401.719 366.259L399.318 363.698ZM375.898 326.458L372.31 329.839L371.72 321.94L375.898 326.458ZM365.324 312.215L362.712 315.254L358.987 312.019L361.622 309.003L365.324 312.215ZM387.059 330.468L385.507 331.949L383.084 329.368L384.656 327.865L387.059 330.468ZM427.133 365.307C425.337 363.412 423.076 361.833 423.7 360.059C427.494 362.514 426.282 361.182 427.133 365.307ZM405.074 344.93L403.299 343.014L404.911 341.469L406.707 343.364L405.074 344.93ZM426.441 357.43L424.645 355.494C424.233 355.427 423.848 355.25 423.529 354.981C422.075 355.027 420.916 354.35 420.467 350.976L420.467 349.969C420.27 349.254 420.239 348.702 420.462 348.514L420.467 349.969C420.974 351.901 422.046 353.637 423.546 354.956C425.328 354.905 427.5 353.699 429.238 354.735L426.441 357.43ZM425.244 346.445L424.054 347.552L421.692 344.992L422.841 343.886L425.244 346.445ZM434.464 352.292L433.678 353.022L430.671 349.796L431.437 349.086L434.464 352.292ZM443.252 346.438L438.453 348.528L437.035 341.32L434.092 340.571C439.821 336.356 438.233 347.471 443.252 346.438ZM441.835 339.269L440.625 340.396L438.829 338.46L440.039 337.333L441.835 339.269ZM450.81 336.815L449.798 331.689C454.601 336.852 451.389 330.167 455.566 332.266L450.81 336.815ZM455.175 318.152L453.603 319.655L451.201 317.094L452.794 315.611L455.175 318.152ZM459.994 316.081L458.804 317.188L456.963 315.208L458.132 314.081L459.994 316.081ZM437.505 286.062L442.415 290.281L440.385 292.55L438.096 290.541L435.515 288.29L436.258 287.437L437.505 286.062ZM425.357 278.117L428.875 281.191L426.221 284.189L422.705 281.156L425.357 278.117ZM397.994 255.723L400.004 253.475L404.894 257.715L402.905 259.983L397.994 255.723ZM418.765 277.435L417.174 278.957L414.772 276.395L416.345 274.893L418.765 277.435ZM453.96 307.196C455.06 312.649 454.359 307.743 452.424 305.991C451.682 305.799 450.905 305.854 450.348 305.679C450.676 305.48 451.063 305.403 451.442 305.46C451.822 305.517 452.169 305.705 452.424 305.991C452.755 306.062 453.065 306.207 453.331 306.416C453.598 306.624 453.813 306.891 453.96 307.196L453.96 307.196ZM460.74 312.899L457.712 309.652L457.369 307.629L460.74 312.899ZM466.749 309.68L465.198 311.203L463.338 309.165L464.91 307.662L466.749 309.68ZM451.816 277.333L453.804 275.024L457.405 278.138L455.334 280.408L451.816 277.333ZM468.807 289.393L463.938 285.173L466.57 282.198L471.435 286.373L468.807 289.393ZM438.494 255.162L436.697 253.226L438.309 251.724L440.084 253.64L438.494 255.162ZM469.246 281.761L468.078 282.888L465.694 280.308L466.822 279.181L469.246 281.761ZM452.633 259.916L451.443 261.023L449.06 258.443L450.249 257.336L452.633 259.916ZM446.639 253.483L445.449 254.589L443.006 251.988L444.216 250.86L446.639 253.483ZM456.644 258.558L455.436 259.726L453.031 257.126L454.24 255.958L456.644 258.558ZM437.29 239.342L434.489 241.993C431.017 239.163 430.069 236.474 428.028 233.498L432.265 235.576C431.437 233.93 430.708 232.266 432.061 232.117L433.439 239.327L437.29 239.342ZM275.517 83.4239C275.558 83.4232 275.558 83.4232 275.579 83.4434C278.937 84.4718 281.739 86.4519 275.579 83.4434C275.556 83.4448 275.534 83.4379 275.517 83.4239C275.094 86.1979 271.886 84.3883 270.675 85.5593C270.076 82.475 272.927 82.6509 275.523 83.426L275.517 83.4239ZM296.712 118.679C296.807 117.038 294.936 115.554 293.306 113.779L301.112 112.497C299.649 113.219 297.743 116.611 296.716 118.677C296.698 118.821 296.782 118.984 296.723 119.128C295.653 121.195 295.884 120.371 296.712 118.679ZM271.962 103.759L273.534 102.256L275.351 104.212L273.758 105.695L271.962 103.759ZM428.836 254.656L426.443 252.587L429.096 249.631L433.923 253.811L431.975 256.037L434.326 258.065L432.276 260.355L427.49 256.175L428.836 254.656ZM421.958 252.601L425.644 255.838L422.99 258.836L419.327 255.621L421.958 252.601ZM451.419 284.921L448.826 287.894L445.246 284.759L447.839 281.786L451.419 284.921ZM436.193 275.532L441 279.733L439.011 282.001L434.187 277.784L436.193 275.532ZM456.272 299.92C455.165 297.521 455.891 294.557 454.454 292.082C453.459 291.464 452.6 290.649 451.932 289.687C452.968 290.25 453.838 291.076 454.454 292.082C458.39 294.473 461.238 289.772 460.869 292.114C461.678 296.199 466.522 298.943 469.104 302.485C465.337 309.682 463.357 301.928 457.057 299.268C456.814 299.507 456.55 299.724 456.27 299.917C456.27 299.958 456.312 299.999 456.313 300.04C456.253 300.022 456.19 300.017 456.128 300.022C454.388 301.323 452.41 301.828 449.315 300.652C449.042 300.016 448.812 299.363 448.625 298.697C447.989 298.129 447.481 297.432 447.134 296.653C447.51 296.873 447.836 297.168 448.092 297.52C448.349 297.872 448.53 298.272 448.625 298.697C450.874 300.748 453.741 299.49 456.128 300.022C456.173 299.985 456.221 299.951 456.271 299.921L456.272 299.92ZM286.595 142.007L287.764 140.881L289.56 142.817L288.391 143.944L286.595 142.007ZM389.138 244.87L390.727 243.391L393.132 245.991L391.56 247.493L389.138 244.87ZM283.014 155.103C285.191 154.225 285.029 150.805 288.76 153.241L287.812 148.177L293.2 153.945C292.237 160.95 291.209 160.721 284.007 160.211C281.56 157.609 287.613 159.226 283.011 155.104L283.014 155.103ZM403.772 268.638L401.141 271.696L397.417 268.461L400.089 265.443L403.772 268.638ZM281.602 164.907C281.461 161.507 289.547 164.564 287.411 165.483L286.425 170.091L281.602 164.907ZM406.383 286.709L407.974 285.187L410.379 287.787L408.807 289.29L406.383 286.709ZM413.589 294.433L415.179 292.911L417.581 295.473L415.99 296.995L413.589 294.433ZM278 180.36C280.984 178.73 279.246 172.016 284.772 173.93C279.206 174.355 286.412 182.079 281.049 183.586L278 180.36ZM397.813 283.944L399.609 285.88L398.019 287.402L396.222 285.466L397.813 283.944ZM355.505 253.79L357.886 256.331L356.274 257.833L353.932 255.293L355.505 253.79ZM352.054 253.358L349.629 250.737L351.241 249.235L353.663 251.817L352.054 253.358ZM361.032 260.539L362.202 259.412L363.998 261.348L362.808 262.454L361.032 260.539ZM403.011 298.503C408.48 301.934 411.362 308.461 416.451 307.617C419.824 303.832 415.429 318.519 403.009 298.508L403.011 298.503ZM326.02 229.463L327.611 227.941L330.013 230.502L328.422 232.024L326.02 229.463ZM392.672 290.895L397.479 295.055L394.825 298.053L390.039 293.872L392.672 290.895ZM395.35 299.804L399.013 303.02L396.381 305.996L392.698 302.8L395.35 299.804ZM397.228 307.539L398.861 306.015L401.245 308.595L399.633 310.097L397.228 307.539ZM400.628 310.943L405.498 315.204L402.865 318.139L397.954 313.879L400.628 310.943ZM385.647 306.303L386.836 305.197L389.259 307.778L388.09 308.905L385.647 306.303ZM413.255 331.114L420.844 336.067C421.161 336.024 421.451 335.867 421.662 335.626C421.872 335.385 421.988 335.076 421.988 334.756L421.031 333.912L421.694 333.143C421.664 333.056 421.642 332.967 421.627 332.877C416.687 331.569 411.856 321.547 407.867 325.308L408.873 320.802L411.839 323.989C413.634 323.506 412.018 320.175 411.655 318.172C416.594 317.062 414.609 304.432 424.174 312.299C423.32 308.01 425.88 306.737 429.133 306.455L430.363 305.307L430.846 305.814L430.985 305.67L431.796 306.373C436.47 306.456 441.197 307.276 439.56 303.882L441.921 304.028C441.76 303.027 441.94 301.63 440.343 300.697L442.361 301.236C443.171 307.738 449.545 308.94 451.788 312.959C450.982 316.088 446.827 314.007 444.768 313.47C446.624 313.007 445.775 311.341 445.572 310.259C443.617 309.781 440.813 307.557 439.784 309.744C438.415 312.248 439.849 319.398 438.779 316.668L437.992 317.398C438.197 318.482 438.016 319.877 439.653 320.81C441.327 321.581 443.411 322.425 444.78 322.177C445.205 321.612 445.675 321.083 446.186 320.595C446.179 320.983 446.033 321.355 445.775 321.645C445.517 321.935 445.164 322.124 444.78 322.177C443.138 324.336 442.304 327.076 444.864 330.475L442.462 330.291C442.888 332.354 444.845 335.25 442.646 336.066C440.244 333.505 437.038 334.114 433.829 332.263C434.661 333.993 434.457 335.326 436.052 336.303L431.049 334.934L433.003 333.077C429.811 323.993 426.491 333.271 421.06 329.884L422.636 332.091L423.6 330.967L428.424 335.184L426.475 337.37L428.807 340.628C427.883 339.957 426.831 339.481 425.717 339.229C424.603 338.977 423.449 338.954 422.326 339.163L423.824 340.448L421.15 343.426L418.343 340.994C417.964 341.281 417.6 341.589 417.253 341.914C417.507 341.478 417.692 341.004 417.802 340.511L416.282 339.205L417.668 337.603C416.86 335.058 415.326 332.804 413.254 331.119L413.255 331.114ZM412.654 337.743L410.879 335.827L412.471 334.345L414.268 336.281L412.654 337.743ZM404.074 325.314C405.167 329.23 404.325 326.926 402.781 325.193C401.815 325.026 400.993 324.876 400.906 325.839L400.419 323.84C400.888 323.878 401.343 324.018 401.751 324.252C402.158 324.486 402.51 324.807 402.779 325.193C403.203 325.294 403.638 325.335 404.074 325.314V325.314ZM386.669 312.091L385.482 313.446L385.648 313.607L384.48 314.734L382.726 312.838L382.806 312.755L379.832 310.161L381.862 307.933L386.669 312.091ZM367.337 295.273L372.206 299.492L370.155 301.741L365.348 297.541L367.337 295.273ZM267.132 206.469L268.704 204.966L271.085 207.507L269.492 208.99L267.132 206.469ZM376.818 308.859L381.626 313.06L378.995 316.118L374.126 311.898L376.818 308.859ZM382.67 320.029L388.077 323.4C386.462 317.731 392.835 318.891 395.638 318.699C395.236 321.452 392.068 319.641 389.689 319.478L390.9 327.737L395.291 331.575L392.656 334.591L387.811 330.395L389.999 327.921L382.67 320.029ZM236.349 180.525L238.843 182.692L239.226 186.969L236.349 180.525ZM291.337 247.777L292.546 246.65L294.909 249.21L293.72 250.357L291.337 247.777ZM348.956 304.795L347.363 306.278L345.546 304.322L347.139 302.839L348.956 304.795ZM325.836 283.514L324.939 281.439C325.446 282.02 325.76 282.746 325.836 283.514L329.363 291.794L322.542 286.092C323.43 285.25 325.786 285.068 325.841 283.51L325.836 283.514ZM320.367 291.806L321.556 290.699L324.564 293.926L323.375 295.032L320.367 291.806ZM261.199 238.769L262.789 237.247L264.586 239.184L262.993 240.666L261.199 238.769ZM393.349 366.875L394.538 365.769L396.334 367.705L395.145 368.812L393.349 366.875ZM170.302 153.633L173.82 156.707L171.185 159.723L167.647 156.629L170.302 153.633ZM306.574 291.488L308.167 290.005L310.572 292.605L308.981 294.127L306.574 291.488ZM258.997 261.367L260.186 260.261L262.023 262.196L260.814 263.323L258.997 261.367ZM320.618 453.919L319.046 455.422L317.214 453.487L318.826 451.985L320.618 453.919ZM272.443 278.984L271.234 280.111L268.829 277.511L270.018 276.364L272.443 278.984ZM259.946 270.983L260.171 267.495C262.459 271.759 260.65 270.254 259.946 270.983L259.833 272.768C259.631 271.725 259.724 271.212 259.945 270.982L259.946 270.983ZM259.838 282.359C257.256 278.858 261.047 278.854 261.588 277.041L262.239 284.919L259.838 282.359ZM259.038 292.824L260.671 291.3L263.055 293.88L261.464 295.402L259.038 292.824ZM262.492 298.134L264.083 296.612L266.485 299.173L264.894 300.695L262.492 298.134ZM75.8772 215.375L73.2331 211.814C74.2272 212.913 75.1127 214.106 75.8772 215.375L81.6494 223.165L79.6704 222.624C78.5894 220.451 77.3754 217.828 75.8772 215.375V215.375ZM69.2805 213.153L71.6642 215.733L70.0713 217.215L67.6876 214.635L69.2805 213.153ZM60.2549 207.94L63.9169 211.073L61.9685 213.3L58.3065 210.166L60.2549 207.94ZM75.6846 231.219L77.2574 229.757L79.0737 231.673L77.4808 233.155L75.6846 231.219ZM69.822 233.452C67.287 238.455 61.6028 233.161 57.0194 229.022C62.4597 233.108 64.4701 223.892 69.822 233.452V233.452ZM57.9688 249.273L70.5632 262.806C68.726 260.871 61.5226 255.565 57.9688 249.273V249.273ZM290.109 462.235L282.35 473.19L281.766 470.124L290.109 462.235ZM32.7049 231.882L33.5107 231.131L35.7554 235.106L32.7049 231.882ZM53.135 256.199L54.3243 255.093L57.3526 258.34L56.1633 259.446L53.135 256.199ZM133.346 442.055L132.137 443.183C130.521 442.227 130.724 440.933 130.339 438.829L133.346 442.055ZM43.309 352.769L41.5129 350.832L43.1246 349.331L44.9207 351.267L43.309 352.769ZM153.561 458.161L151.949 459.706L149.526 457.124L151.179 455.579L153.561 458.161ZM113.316 417.36L112.128 418.507L110.311 416.551L111.52 415.424L113.316 417.36ZM174.489 446.836L172.693 444.9L173.901 443.732L175.698 445.668L174.489 446.836ZM197.825 447.744L196.234 449.266L194.417 447.31L195.989 445.807L197.825 447.744ZM166.624 414.227L165.033 415.749L162.631 413.187L164.243 411.685L166.624 414.227ZM91.0288 316.123L89.7985 317.272L87.9815 315.315L89.2111 314.167L91.0288 316.123ZM76.9353 295.423L73.9696 292.236L73.3858 289.17L76.9353 295.423ZM45.5733 263.361L46.3792 262.61L48.6009 266.609L45.5733 263.361ZM64.1826 283.348L64.9481 282.597L66.7895 284.577L66.0045 285.348L64.1826 283.348ZM70.6272 299.077L72.1993 297.575L74.583 300.155L73.0109 301.657L70.6272 299.077ZM68.0203 303.487L72.8851 307.662L70.2108 310.64L65.4035 306.44L68.0203 303.487ZM250.395 488.849L247.409 485.643L247.045 483.6L250.395 488.849ZM44.1042 289.414L48.9517 293.573L46.9631 295.841L42.1141 291.6L44.1042 289.414ZM17.7927 273.066L22.6172 277.283L20.6897 279.53L15.8004 275.331L17.7927 273.066ZM183.649 450.204L182.037 451.748L179.593 449.147L181.206 447.602L183.649 450.204ZM132.834 403.745L134.65 405.66L133.482 406.786L131.707 404.87L132.834 403.745ZM89.6886 364.653L88.0978 366.175L85.6515 363.535L87.2236 362.032L89.6886 364.653ZM45.6954 326.314L47.2863 324.792L49.0824 326.728L47.4916 328.25L45.6954 326.314ZM189.271 474.002C189.655 473.844 189.969 473.55 190.151 473.176C190.332 472.802 190.37 472.374 190.257 471.974C189.76 470.596 189.485 469.148 189.443 467.684C189.448 469.098 190.131 470.684 190.257 471.974C191.022 474.768 191.408 476.872 186.664 472.774L189.271 474.002ZM97.8912 389.575L99.1006 388.447L101.463 391.007L100.295 392.134L97.8912 389.575ZM48.7766 351.281L47.1649 352.783L44.7631 350.222L46.3352 348.719L48.7766 351.281ZM28.6529 338.291L34.4477 339.3L31.1703 342.981L28.6529 338.291ZM110.501 424.872L112.113 423.327L113.909 425.263L112.298 426.765L110.501 424.872ZM151.593 464.88L153.185 463.397L155.002 465.312L153.409 466.795L151.593 464.88ZM175.252 486.561L179.117 489.651C173.689 486.26 180.577 501.573 176.402 494.674C175.799 492.044 178.068 489.443 175.251 486.562L175.252 486.561ZM45.322 363.331L50.0876 367.492L47.4744 370.485L42.6499 366.268L45.322 363.331ZM114.802 463.262L115.971 462.135L115.185 467.699L114.802 463.262ZM57.1082 477.868L58.7414 476.344L61.146 478.944L59.5128 480.468L57.1082 477.868ZM58.5276 489.832C59.2528 489.123 60.1881 488.697 60.5025 487.954L60.0978 485.911C60.6466 486.844 60.7164 487.482 60.5025 487.954L61.5149 493.08L58.5276 489.832Z" fill="white"/>
</svg>
