<svg width="457" height="396" viewBox="0 0 457 396" fill="none" xmlns="http://www.w3.org/2000/svg">
<path d="M455.055 269.404L453.964 271.201L451.198 269.512L453.953 264.904L454.707 265.353C449.162 211.847 431.332 161.526 401.885 119.126C401.769 119.254 401.647 119.348 401.543 119.454C399.535 122.214 398.001 125.796 395.805 124.785L397.84 122.072C397.481 122.013 397.144 121.863 396.86 121.635C396.576 121.408 396.356 121.111 396.221 120.773C396.187 120.78 396.173 120.8 396.139 120.806C396.148 120.76 396.151 120.712 396.147 120.664C395.414 119.053 395.63 116.729 396.816 117.059L398.291 116.526C397.509 117.556 396.049 118.893 396.147 120.664C396.174 120.712 396.18 120.746 396.207 120.793C397.656 120.212 398.737 120.177 399.211 118.821C399.91 120.527 400.702 120.267 401.53 119.473C401.617 119.336 401.715 119.205 401.822 119.083C382.45 91.0432 358.017 66.8629 329.777 47.7825C278.478 13.191 219.055 -1.68901 158.76 0.831258L155.741 3.08656L156.024 0.92554C104.183 3.53418 51.7753 18.9565 3.38335 46.2281C-12.2023 166.34 30.9639 283.39 127.164 348.258C131.807 351.389 136.55 354.323 141.322 357.129C142.747 355.587 144.272 354.141 145.886 352.799L145.509 357.189C145.21 357.81 144.833 358.408 144.512 359.015C162.626 369.352 181.856 377.596 201.833 383.588L202.856 382.249L203.959 383.052L203.217 384.022C222.425 389.645 242.171 393.236 262.129 394.736L262.898 393.726L264.028 394.576L263.79 394.886C303.26 397.693 343.706 392.698 383.056 380.401C388.825 371.976 398.261 363.817 403.042 355.637C398.293 364.129 392.643 372.084 386.19 379.366C389.677 378.249 393.144 377.07 396.591 375.828L395.73 375.188C395.647 375.201 395.562 375.198 395.481 375.177C395.399 375.157 395.322 375.12 395.255 375.069C395.188 375.018 395.132 374.955 395.09 374.882C395.048 374.809 395.022 374.728 395.012 374.645L395.73 375.188C396.297 375.076 396.844 374.881 397.354 374.608L397.491 375.494C416.867 368.5 435.625 359.903 453.572 349.792C457.034 323.133 457.531 296.173 455.055 269.404V269.404ZM274.872 67.6916L272.103 72.3199L269.237 70.5632L272.026 65.9476L274.872 67.6916ZM272.955 39.7115L270.185 44.3406L267.345 42.6315L270.134 38.0167L272.955 39.7115ZM228.052 28.0686L225.978 31.4936L223.137 29.7845L225.224 26.3413L228.052 28.0686ZM218.886 27.1196L216.686 25.8118L218.74 22.3734L220.92 23.7551L218.886 27.1196ZM121.524 89.5318L121.735 86.9114L123.596 88.2873L121.524 89.5318ZM141.89 81.6619L140.412 80.5448L142.216 78.1744L143.674 79.278L141.89 81.6619ZM145.754 82.68L145 82.143L145.914 80.9662L146.633 81.5099L145.754 82.68ZM204.294 7.2282L206.408 3.65781L208.568 5.0261L206.454 8.50913L204.294 7.2282ZM155.483 97.2892L153.662 95.9408C152.8 96.2194 160.515 94.4852 155.483 97.2892ZM219.247 8.42985L221.328 4.9533L224.229 6.7032L222.101 10.207L219.247 8.42985ZM223.495 9.531L226.375 11.2669L223.593 15.9159L220.746 14.1726L223.495 9.531ZM202.104 51.7463L199.271 49.9832L202.027 45.3748L204.153 46.6617L205.49 44.4181L207.685 45.7774L204.923 50.3524L203.473 49.4626L202.104 51.7463ZM202.772 55.4583L204.912 51.9347L207.779 53.6913L205.653 57.1948L202.772 55.4583ZM219.676 40.3153L222.451 35.7204L224.618 37.0347L221.829 41.6503L219.676 40.3153ZM230.977 33.0039L233.152 34.3498L230.355 39.0186L228.201 37.6861L230.977 33.0039ZM206.698 73.5373L209.494 68.8684L211.662 70.1827L208.851 74.8722L206.698 73.5373ZM223.395 48.907L225.426 45.545L228.293 47.3017L226.294 50.6572L223.395 48.907ZM216.582 71.6795L218.689 68.1623L221.604 69.8923L219.469 73.4493L216.582 71.6795ZM245.332 40.1877L248.113 35.5384L250.926 37.2881L248.123 41.9237L245.332 40.1877ZM107.736 257.174L106.619 256.393L108.409 254.043L109.491 254.832L107.736 257.174ZM246.356 59.6049L245.536 58.9929L247.306 56.6298L247.999 57.126C248.551 56.2712 248.95 55.3263 249.177 54.3341L249.076 54.2659L249.212 54.0636C249.33 53.3519 249.279 52.6224 249.062 51.9342C247.19 50.7923 249.671 50.6395 250.497 52.5496L251.539 53.3113L250.716 54.4021C250.453 56.4886 248.719 59.6695 243.472 64.3614C244.265 62.68 245.232 61.0858 246.356 59.6049V59.6049ZM234.93 81.5577L233.437 80.463L234.805 78.6518L236.283 79.7689L234.93 81.5577ZM238.73 74.0968L241.472 69.5084L244.339 71.265L241.577 75.8401L238.73 74.0968ZM245.71 70.5784L247.837 67.0747L250.683 68.8179L248.576 72.3351L245.71 70.5784ZM254.159 64.5786L256.975 59.9232L259.788 61.6729L256.978 66.3625L254.159 64.5786ZM272.415 45.732L275.191 41.0497L278.052 42.8232L275.263 47.4389L272.415 45.732ZM257.143 75.9604L259.33 77.288L256.561 81.9171L254.421 80.5622L257.143 75.9604ZM246.04 94.4282L248.823 89.7792L250.983 91.1475L248.208 95.7424L246.04 94.4282ZM255.904 84.5903L258.679 79.9954L261.596 81.7212L258.813 86.3702L255.904 84.5903ZM170.158 219.676L171.591 217.29L175.074 216.347L170.158 219.676ZM258.249 97.1348L260.356 93.6176L263.25 95.3336L261.116 98.8906L258.249 97.1348ZM157.525 278.29L159.557 274.928L162.437 276.664L160.392 280.046L157.525 278.29ZM177.443 303.39L182.034 295.753L181.855 297.542L177.443 303.39ZM174.373 315.868L173.229 315.038L175.019 312.688L176.149 313.538L174.373 315.868ZM177.39 312.612L181.24 304.421C181.959 304.965 183.539 305.149 182.978 307.503C180.188 307.327 179.535 310.472 177.39 312.609L177.39 312.612ZM180.725 346.457L179.289 345.368L180.612 343.585L182.07 344.688L180.725 346.457ZM202.554 309.122L208.853 304.61C209.803 307.161 204.263 307.629 207.221 309.859C205.655 309.568 205.49 306.723 202.551 309.121L202.554 309.122ZM218.503 361.435L220.563 357.945L222.689 359.232L220.629 362.722L218.503 361.435ZM238.223 349.778C242.73 351.142 239.182 356.627 236.426 361.028C239.012 355.927 231.09 355.612 238.221 349.781L238.223 349.778ZM296.448 341.012L299.197 336.369L302.05 338.146L299.275 342.741L296.448 341.012ZM323.906 308.998L325.05 309.828L323.709 311.599L322.599 310.762L323.906 308.998ZM288.285 362.869L291.021 358.247L293.188 359.562L290.385 364.197L288.285 362.869ZM278.588 387.045L281.377 382.43L283.517 383.697L280.754 388.359L278.588 387.045ZM330.984 368.506L330.973 363.56L334.499 365.731L330.984 368.506ZM349.276 351.036L352.024 346.482L354.884 348.204L352.095 352.82L349.276 351.036ZM360.395 347.129L361.094 347.659L360.249 348.824L359.53 348.28L360.395 347.129ZM354.088 360.835L352.61 359.718L354.394 357.334L355.887 358.428L354.088 360.835ZM350.059 375.342L348.601 374.239L350.371 371.876L351.863 372.97L350.059 375.342ZM358.807 364.458L358.477 364.207L358.926 363.628L359.053 362.656L350.806 367.529C351.294 361.451 358.407 361.22 360.842 360.307C360.925 360.952 360.91 361.606 360.797 362.246L361.396 362.709L360.463 363.961C359.836 366.242 358.693 368.676 357.957 371.118L358.807 364.458ZM380.585 360.155L379.441 359.325L381.211 356.962L382.341 357.812L380.585 360.155ZM408.712 322.1L410.17 323.204L408.4 325.567L406.922 324.45L408.712 322.1ZM385.556 375.03L384.078 373.913L385.419 372.143L386.917 373.273L385.556 375.03ZM404.155 351.889L404.495 348.38C406.616 346.193 409.131 345.511 411.151 344.169C411.499 343.61 411.879 343.22 412.379 343.263C412.003 343.607 411.591 343.911 411.151 344.169C409.722 346.472 409.193 352.612 404.16 351.893L404.155 351.889ZM401.056 369.023L399.947 368.186L401.274 366.436L402.363 367.258L401.056 369.023ZM401.848 368.675L404.04 365.773L405.703 369.745C403.677 370.937 403.004 369.542 401.854 368.677L401.848 368.675ZM424.654 343.08L423.881 342.53L426.111 339.571L426.864 340.108L424.654 343.08ZM443.239 319.959L441.746 318.864L443.028 317.142L444.521 318.236L443.239 319.959Z" fill="white"/>
</svg>
