<svg width="637" height="663" viewBox="0 0 637 663" fill="none" xmlns="http://www.w3.org/2000/svg">
<path d="M598.067 20.6111C596.883 20.3007 595.701 20.044 594.517 19.7343C594.119 19.7054 593.719 19.7173 593.324 19.7699L593.173 19.4323C554.907 9.26037 515.673 3.16183 476.125 1.2384L478.622 3.28486L475.453 7.13998L469.02 1.9534L469.867 0.900716C441.665 -0.0967709 413.428 1.21471 385.44 4.82196C308.598 14.6666 236.141 42.2299 174.504 87.6998C178.108 93.6173 177.913 97.4774 165.821 95.2136C165.573 95.0404 165.35 94.8397 165.102 94.6672C163.215 96.1454 161.387 97.7274 159.503 99.2593C159.709 99.8978 159.824 100.562 159.846 101.232C162.758 103.099 163.408 100.807 164.948 99.3209L170.637 104.998L160.179 123.674C155.241 117.612 152.778 112.166 149.097 107.845C141.86 114.089 134.796 120.589 127.961 127.397C131.099 131.03 133.086 134.987 130.717 137.394L134.109 138.783C141.87 145.52 129.957 144.627 135.394 152.096C130.029 153.065 121.866 154.34 111.282 144.91C109.025 147.416 106.877 149.971 104.703 152.553C108.357 157.406 113.223 162.091 113.273 168.088L109.405 167.228C118.542 177.371 103.716 169.626 104.756 176.714C101.047 173.828 96.4651 171.014 92.1591 167.894C78.9331 184.869 67.0371 202.84 56.5781 221.647C60.3751 229.201 60.0671 237.498 62.8101 245.213C73.9351 253.314 67.5121 259.888 68.9781 266.554C61.8961 256.092 54.7251 248.979 46.4951 240.914C44.1711 245.681 41.9281 250.47 39.7651 255.281L40.0171 255.508L39.3861 256.151L39.1021 256.803C49.3501 273.445 59.8381 291.161 69.4151 305.079C65.8421 304.283 66.6901 308.778 69.0591 313.433C71.0371 317.233 74.0301 321.139 76.5341 322.282C64.8321 326.422 59.5671 320.219 54.8151 311.148L53.6191 312.645L48.8281 308.776L51.4031 305.748L52.5961 306.721C48.1031 297.532 43.2111 286.823 32.8991 280.564C31.9241 280.19 30.8931 279.767 29.8641 279.395C27.7441 285.001 25.7851 290.65 23.9061 296.324C24.3611 296.884 24.8691 297.442 25.3761 297.999L26.0881 296.927L30.9711 300.919L29.5221 302.641C38.0621 312.045 47.2031 321.285 54.6251 331.144C56.5371 333.673 58.3991 336.257 60.0241 338.88C62.8001 337.647 69.6111 340.451 66.0211 332.78L68.6051 333.442C72.3301 336.141 71.0961 338.914 71.7681 341.586L75.6361 342.446C77.9321 340.231 79.5911 337.44 80.4391 334.364L79.4971 333.617L80.8711 331.979C81.0281 330.957 81.0981 329.923 81.0791 328.889L82.6791 330.532C87.6671 333.51 88.2551 328.037 91.0341 326.857C92.6311 328.446 94.6171 331.396 97.6471 331.45L96.2331 324.781C97.9971 321.477 101.758 327.333 105.376 326.958C113.149 330.376 119.715 338.608 124.206 346.232C124.392 346.249 124.526 346.269 124.713 346.285L126.168 349.713C125.578 348.576 124.906 347.417 124.206 346.232C121.165 345.966 117.328 344.174 116.194 346.836C117.063 350.746 113.923 355.635 120.252 358.862L102.171 373.954C102.254 368.985 96.0061 368.806 92.6431 367.443C92.7641 368.75 93.2941 369.985 94.1561 370.974C95.3771 371.973 96.3721 373.221 97.2671 374.078C96.3971 373.194 95.1491 372.171 94.1561 370.974C93.1771 370.096 91.9361 369.564 90.6251 369.459C90.3301 379.483 92.6291 383.318 97.3771 393.291L102.954 398.868L107.97 398.845L105.476 401.391L102.953 398.868L99.9541 398.892C99.0211 396.79 98.1811 394.975 97.3761 393.292L93.3961 389.305C95.0261 377.855 71.7051 375.675 82.4421 366.329L76.9991 363.799L80.3951 357.168C65.5421 354.386 76.3611 340.07 61.7031 340.488C62.2381 343.089 62.0961 344.928 64.1971 346.012L58.8401 354.716C59.5141 352.398 56.6521 350.476 54.2161 348.081C55.7051 346.596 57.9741 345.813 56.0961 342.911C57.6961 344.553 60.1031 346.923 63.1641 347.056C58.2101 344.067 53.6361 340.491 49.5411 336.404C39.4991 326.707 31.1051 314.508 21.6971 303.214C13.3511 330.1 7.49007 357.695 4.18807 385.651C3.80007 388.884 3.38807 392.144 3.02907 395.401L5.81805 400.486L2.58507 399.593C-4.55493 479.258 7.69106 562.457 38.8571 642.064C45.4041 643.873 51.9951 645.52 58.6081 647.087C58.5591 646.942 58.5241 646.793 58.5051 646.641C58.7221 646.736 58.8531 646.703 59.0431 646.773C59.4931 644.33 60.4871 642.019 61.9511 640.012C63.0161 642.08 62.8491 643.947 64.9521 645.085C63.5681 646.511 62.0711 647.837 59.0411 646.773C59.0221 646.907 58.9751 647.016 58.9561 647.15C77.6121 651.582 96.4831 655.054 115.495 657.554L113.976 648.873L120.483 650.445L121.911 653.848C115.029 650.225 115.579 654.099 115.844 657.615C136.325 660.329 156.945 661.869 177.603 662.229L178.509 661.28L179.462 662.239C212.703 662.734 245.911 659.945 278.604 653.913L278.495 653.865C278.582 648.949 267.843 645.182 272.355 640.619C277.583 645.125 288.025 646.251 292.291 651.207C381.592 631.953 463.121 587.645 525.87 517.955C642.916 387.962 665.383 202.205 602.473 31.6344C602.415 32.0354 602.328 32.4123 602.22 32.869C602.072 29.5588 590.272 25.2886 599.519 27.9655L601.392 28.744C600.406 26.1411 599.47 23.4817 598.43 20.8809C598.333 20.7624 598.209 20.6696 598.067 20.6111ZM33.5341 294.601L40.0221 299.838L36.7541 303.805L30.2691 298.621L33.5341 294.601ZM146.355 658.204L144.365 660.247L141.14 656.991L143.158 654.974L146.355 658.204ZM132.454 638.224L134.446 636.235L137.668 639.439L135.675 641.427L132.454 638.224ZM143.447 643.277L145.854 645.647L143.864 647.689L141.453 645.266L143.447 643.277ZM153.647 647.418L153.265 649.747C153.586 651.297 153.609 652.729 152.702 653.175L152.638 653.47L152.257 653.277C151.306 653.379 149.709 652.799 147.117 650.969L152.257 653.277C152.415 653.265 152.568 653.212 152.699 653.121L153.263 649.694C152.56 646.492 150.645 642.902 153.644 647.418H153.647ZM49.9381 470.366L48.4771 471.876L46.0101 469.403L47.4711 467.893L49.9381 470.366ZM215.128 429.822L217.119 427.78L220.316 431.011L218.324 432.998L215.128 429.822ZM145.222 383.874L147.214 381.886L150.436 385.09L148.444 387.078L145.222 383.874ZM126.39 372.114L128.381 370.072L131.634 373.354L129.643 375.395L126.39 372.114ZM142.197 394.97L144.187 392.928L147.467 396.235L145.475 398.223L142.197 394.97ZM147.83 400.596L153.521 406.326L156.043 403.805L162.434 410.215L156.545 411.318C153.321 408.062 147.802 405.615 147.83 400.596ZM113.943 376.692L115.432 375.207L116.327 379.089L113.943 376.692ZM137.344 416.222L138.833 414.737L141.214 417.082L139.729 418.619L137.344 416.222ZM73.5251 367.382L70.0471 370.908L68.5081 364.378C70.6111 365.517 72.3791 365.292 73.5251 367.382ZM33.8681 329.708L35.3571 328.223L38.5261 331.429L37.0651 332.939L33.8681 329.708ZM20.1561 320.388L25.0111 324.356L22.5691 327.405L17.5791 323.417L20.1561 320.388ZM281.363 605.617L279.953 607.071L277.458 604.573L278.893 603.092L281.363 605.617ZM299.129 610.266L278.582 598.673C285.422 601.502 289.462 600.601 293.585 599.667C302.018 604.087 293.02 605.114 299.132 610.263L299.129 610.266ZM250.586 547.544L248.621 549.557L246.21 547.135L248.202 545.146L250.586 547.544ZM180.023 480.019L178.534 481.504L175.312 478.301L176.802 476.816L180.023 480.019ZM76.5211 385.463L74.5031 387.48L72.0921 385.057L74.0821 383.016L76.5211 385.463ZM193.472 487.388C187.617 483.579 192.521 483.456 190.336 479.269L193.472 487.388ZM366.259 621.128L371.557 626.452L366.596 626.525L366.259 621.126L363.876 618.729L360.351 618.328L359.506 614.39L363.851 618.757L366.095 619.012L366.259 621.128ZM364.326 627.255L361.132 624.077L363.147 622.008L366.344 625.239L364.326 627.255ZM355.612 600.445L354.127 601.982L351.66 599.509L353.17 597.944L355.612 600.445ZM186.422 444.272C179.723 444.595 184.316 456.196 183.252 462.141L195.78 465.602L194.216 459.1C199.536 463.336 195.65 449.492 198.307 458.143L197.267 464.117C198.335 466.239 200.157 466.064 202.259 467.149L200.041 484.015L198.756 470.703C190.345 466.257 195.136 479.151 193.793 475.767L192.867 471.806C188.55 466.456 181.379 462.37 177.62 464.583C177.007 462.013 177.175 460.146 175.101 459.085L178.603 455.531C179.222 453.163 176.307 451.245 173.952 448.871L181.437 436.243C183.952 438.72 186.336 441.118 186.422 444.272ZM170.283 428.177C170.114 426.741 170.44 425.291 171.208 424.067L171.23 423.986L159.736 419.488L160.798 424.025C160.336 422.752 159.444 421.681 158.276 420.997L159.789 419.486L165.736 413.441L166.661 417.295L176.275 418.891C174.412 420.794 172.413 422.172 171.262 424.066L170.283 428.177ZM355.503 584.257L361.107 589.858L354.579 588.421C356.427 588.217 355.282 586.127 355.502 584.256L355.503 584.257ZM379.269 604.041L377.251 606.058L374.84 603.635L376.829 601.593L379.269 604.041ZM204.354 439.032L202.362 441.02L199.164 437.789L201.129 435.776L204.354 439.032ZM165.538 394.146L162.883 393.574C160.129 394.728 162.794 398.437 162.989 401.639C164.867 404.541 168.933 403.612 171.037 404.75L168.429 404.116C168.205 405.933 169.38 408.048 167.587 408.301C165.4 404.061 163.716 402.343 158.561 401.232L159.85 388.423L165.538 394.146ZM152.902 382.566L150.887 384.635L147.638 381.407L149.68 379.363L152.902 382.566ZM224.79 439.427L227.229 441.874L221.34 442.977L224.79 439.427ZM356.99 553.616L355.502 555.102L352.253 551.873L353.742 550.388L356.99 553.616ZM232.805 447.451L231.374 440.914L238.288 445.677C235.902 444.694 233.713 445.445 232.81 447.456L232.805 447.451ZM409.494 11.5038L410.984 10.0188L413.395 12.4416L411.932 13.8975L409.494 11.5038ZM435.08 47.201L436.591 45.6356L447.883 56.914L446.345 58.454L435.08 47.201ZM453.299 64.4629L455.711 66.8856L454.25 68.396L451.811 65.9486L453.299 64.4629ZM531.548 132.699L533.959 135.122L531.994 137.135L529.583 134.713L531.548 132.699ZM543.848 151.041L545.863 148.971L549.004 152.152L547.014 154.195L543.848 151.041ZM541.463 156.661L544.768 159.939L542.751 161.956L539.473 158.702L541.463 156.661ZM379.413 17.6127L380.926 16.101L384.12 19.2793L382.635 20.8164L379.413 17.6127ZM553.116 177.293L555.056 175.307L557.467 177.73L555.528 179.716L553.116 177.293ZM537.537 168.814L539.527 166.772L542.721 169.951L540.756 171.964L537.537 168.814ZM353.548 32.9011L349.596 28.9391L351.106 27.3737L355.114 31.3859L353.548 32.9011ZM363.179 66.5901L366.376 69.8213L365.342 70.8576L363.179 66.5901ZM342.809 48.2996L336.362 41.8399L337.396 40.8036L343.815 47.2385L342.809 48.2996ZM535.571 221.056L538.82 224.285L536.805 226.354L533.581 223.098L535.571 221.056ZM531.313 210.764L531.957 213.411L528.877 208.368L531.313 210.764ZM339.886 72.3977L336.637 69.1693L338.655 67.1524L341.904 70.3809L339.886 72.3977ZM504.964 232.633L506.982 230.616L510.12 233.744L508.077 235.788L504.964 232.633ZM532.349 260.116L534.367 258.099L537.589 261.303L535.546 263.347L532.349 260.116ZM435.31 206.079C432.787 208.6 429.79 211.65 430.66 215.56C421.775 214.722 404.843 223.887 397.051 230.186L393.016 226.149L410.616 219.604C421.825 219.711 421.52 205.365 435.31 206.079ZM370.067 169.974L366.789 166.721L368.754 164.707L372.003 167.936L370.067 169.974ZM372.309 153.081L373.15 148.896L373.741 151.546L372.309 153.081ZM403.309 180.136L406.475 183.289L404.511 185.303L401.345 182.15L403.309 180.136ZM357.401 142.23C360.486 142.335 362.754 138.527 367.492 143.242C365.497 145.288 360.732 148.563 357.398 142.233L357.401 142.23ZM379.85 161.694L383.044 164.872L381.53 166.384L378.364 163.231L379.85 161.694ZM479.902 246.687L483.182 249.993L481.192 252.034L477.883 248.703L479.902 246.687ZM480.683 273.616C479.745 273.596 478.83 273.32 478.036 272.819C477.243 272.318 476.601 271.611 476.179 270.772C475.991 270.709 475.809 270.63 475.636 270.534L475.22 268.698C474.621 266.973 474.215 265.186 474.01 263.372L473.561 261.404C473.765 259.216 473.686 260.76 474.01 263.372L475.221 268.693C475.486 269.42 475.817 270.123 476.207 270.792C478.053 271.599 479.65 271.676 480.684 273.611L480.683 273.616ZM490.795 295.734L488.384 293.311L490.324 291.325L492.707 293.722L490.795 295.734ZM483.541 288.546L480.316 285.29L482.256 283.304L485.478 286.508L483.541 288.546ZM507.644 304.597L510.197 305.181L510.141 310.175L507.644 304.597ZM451.34 251.278L448.174 248.125L450.192 246.108L453.358 249.262L451.34 251.278ZM472.278 256.161L470.314 258.175L467.903 255.752L469.895 253.764L472.278 256.161ZM469.862 295.948L471.323 294.437L474.548 297.693L473.059 299.179L469.862 295.948ZM456.322 285.371L453.07 282.09L455.087 280.073L458.312 283.329L456.322 285.371ZM375.44 211.485L372.19 208.257L374.183 206.268L377.376 209.446L375.44 211.485ZM336.716 169.755L327.962 163.996L334.518 165.458C334.804 166.878 334.576 168.589 336.708 169.752L336.716 169.755ZM313.371 133.302L311.378 135.291L308.967 132.868L310.959 130.879L313.371 133.302ZM319.254 137.137L322.478 140.393L320.94 141.933L317.743 138.701L319.254 137.137ZM296.556 119.525L295.067 121.01L292.687 118.665L294.2 117.153L296.556 119.525ZM353.336 172.315C356.082 176.048 362.417 179.381 361.968 182.962C356.685 183.603 353.469 175.462 353.329 172.31L353.336 172.315ZM360.457 168.386L358.467 170.428L355.189 167.174L357.204 165.105L360.457 168.386ZM282.068 69.8157L284.033 67.8023L287.227 70.9806L285.262 72.994L282.068 69.8157ZM249.933 138.574L253.104 139.311C252.304 139.751 251.139 139.307 249.933 138.574L249.18 138.401C248.756 137.918 248.391 137.539 248.079 137.158C245.688 135.106 244.358 133.051 248.079 137.158C248.659 137.673 249.277 138.144 249.926 138.568L249.933 138.574ZM214.907 92.057L216.897 90.0154L219.309 92.4381L217.318 94.4797L214.907 92.057ZM260.356 146.546L270.893 152.049L266.356 140.499C275.605 145.752 271.63 136.771 273.334 133.367C277.369 137.404 281.098 140.156 285.42 140.567C290.717 136.814 278.745 132.792 279.332 127.319C282.417 127.424 286.09 130.126 286.871 127.803C292.146 132.2 297.105 140.145 303.657 141.555C301.976 136.865 302.539 131.42 298.447 127.332L299.936 125.847L317.648 143.56L316.187 145.071C311.761 144.718 312.93 154.797 315.405 160.455C316.696 160.76 319.636 162.65 319.86 160.832C322.329 166.385 310.018 174.062 300.714 160.741L300.979 163.25C301.079 163.33 301.189 163.396 301.308 163.445L301.364 166.521L300.979 163.25C293.872 158.363 294.717 169.868 287.26 161.393C287.296 163.594 288.561 165.439 290.141 167.216C288.51 165.496 286.919 164.013 284.765 163.939C285.238 168.402 288.715 172.892 291.937 176.096C285.393 172.322 285.211 164.846 281.599 162.299L279.885 164.033L279.662 163.833L278.201 167.361L260.356 146.546ZM455.816 285.872L454.278 287.412L451.053 284.156L452.563 282.591L455.816 285.872ZM462.739 291.803L462.265 295.413L456.014 287.111L462.739 291.803ZM388.05 231.159L385.497 230.575L390.65 228.608L388.05 231.159ZM345.953 211.16C345.586 214.764 351.079 217.238 352.985 220.165C353.385 221.019 353.872 221.83 354.44 222.584L357.272 225.437L356.717 225.996C357.656 227.699 357.754 229.048 355.168 229.342L351.133 225.305L349.622 226.871C352.822 223.598 345.07 216.569 342.356 214.428C342.403 214.511 342.443 214.597 342.477 214.687C340.952 213.465 341.275 213.555 342.356 214.428C339.912 207.334 332.833 208.022 328.628 202.773C328.391 202.826 328.176 202.948 328.009 203.124C328.544 202.705 329.052 202.253 329.531 201.771C330.649 203.836 332.552 203.684 334.213 203.465C333.987 202.202 332.864 200.031 334.58 199.862L336.678 205.938C341.58 205.762 346.402 218.678 345.761 208.013L353.776 216.038C351.417 213.611 349.09 211.263 345.953 211.161V211.16ZM365.599 226.781L368.877 230.035L366.861 232.104L363.584 228.85L365.599 226.781ZM310.832 184.984L316.439 190.638L309.966 189.198L310.554 189.777L309.57 190.758L307.162 188.388L308.121 187.436L309.913 189.2C311.812 188.995 310.666 186.904 310.83 184.984H310.832ZM321.177 200.453L318.008 197.247L320.023 195.178L323.217 198.356L321.177 200.453ZM327.551 203.519C327.122 204.443 327.492 205.938 327.621 206.86C326.606 205.241 326.875 204.324 327.551 203.519ZM328.879 195.99L325.658 192.787L327.65 190.798L330.847 194.029L328.879 195.99ZM316.553 185.748L313.3 182.467L314.785 180.93L318.038 184.211L316.553 185.748ZM330.621 187.723L329.612 188.731L330.959 190.094L329.42 191.634L326.223 188.403L327.257 187.367L325.855 185.953L327.34 184.416L330.621 187.723ZM337.544 193.653L339.982 196.101L337.964 198.118L335.526 195.67L337.544 193.653ZM323.137 182.246L321.624 183.757L318.402 180.554L319.916 179.042L323.137 182.246ZM312.234 173.337L310.219 175.406L307.892 173.059L309.96 170.986L312.234 173.337ZM358.084 218.201L359.569 216.664L363.632 220.726L362.147 222.263L358.084 218.201ZM375.712 232.812L377.147 231.331L379.586 233.778L378.123 235.235L375.712 232.812ZM444.131 294.316L445.62 292.831L448.789 296.037L447.3 297.522L444.131 294.316ZM347.521 204.605L344.269 201.323L345.73 199.813L349.007 203.067L347.521 204.605ZM381.235 256.447L379.217 258.463L375.996 255.26L378.038 253.215L381.235 256.447ZM393.15 265.409L398.813 271.114L397.857 272.119L393.15 265.409ZM412.677 303.973C411.64 303.947 410.473 302.946 409.176 301.527C403.036 297.36 397.602 293.98 397.431 288.733L403.123 289.417L400.655 291.935C403.698 294.272 406.641 298.737 409.178 301.525C410.302 302.287 411.486 303.102 412.673 303.969L412.677 303.973ZM355.278 253.551L356.739 252.041L359.15 254.464L357.69 255.974L355.278 253.551ZM361.923 258.222L368.425 259.688L365.902 262.209C366.03 263.263 366.336 264.288 366.805 265.241C359.274 258.41 363.709 260.94 361.918 258.219L361.923 258.222ZM436.138 322.474L437.623 320.937L440.901 324.191L439.388 325.703L436.138 322.474ZM429.692 316.015L426.467 312.759L427.952 311.221L431.205 314.503L429.692 316.015ZM352.97 246.531C352.441 246.722 351.874 246.784 351.316 246.711C350.758 246.639 350.225 246.434 349.762 246.114C350.845 245.829 351.996 245.978 352.97 246.531C355.392 245.635 356.788 242.403 361.199 247.481C359.995 252.452 356.606 248.146 352.966 246.527L352.97 246.531ZM341.633 234.911L343.118 233.374L346.284 236.528L344.799 238.065L341.633 234.911ZM413.634 294.897L417.669 298.934L416.159 300.499L413.634 294.897ZM454.023 331.364L456.013 329.324L459.235 332.527L457.218 334.543L454.023 331.364ZM294.799 183.46C294.978 183.822 295.1 184.134 295.307 184.522L295.324 184.84C296.132 187.08 296.667 189.177 295.75 188.906L295.324 184.84C295.142 184.425 294.983 183.928 294.799 183.46L293.539 184.747L291.128 182.324L293.12 180.336L293.597 180.815C292.875 179.207 293.137 179.645 293.737 180.941L295.504 182.734L294.799 183.46ZM373.868 254.148L376.279 256.571L374.29 258.613L371.879 256.19L373.868 254.148ZM327.145 207.339L330.423 210.593L328.405 212.61L325.156 209.381L327.145 207.339ZM344.381 225.581L345.866 224.044L348.305 226.492L346.788 228.003L344.381 225.581ZM284.042 173.27L286.006 171.257L289.204 174.488L287.263 176.474L284.042 173.27ZM203.598 106.79L205.563 104.777L208.76 108.008L206.768 109.996L203.598 106.79ZM315.001 208.263L315.026 208.236L306.872 200.086L307.88 199.078L310.375 201.576L312.317 199.643L314.753 202.038L312.785 203.999L315.983 207.231L316.462 206.754L318.873 209.177L317.388 210.714L315.001 208.263ZM315.422 212.728L313.43 214.716L311.047 212.319L313.037 210.278L315.422 212.728ZM336.188 256.642L331.2 253.663L330.642 246.101L332.208 252.655C335.53 255.243 338.072 251.58 338.509 250.813C338.437 250.95 338.314 251.142 338.122 251.524L336.188 256.642ZM362.645 280.112L364.183 278.571L367.381 281.8L365.896 283.337L362.645 280.112ZM307.179 227.599L300.538 222.981L310.293 227.727C308.78 229.239 307.267 230.752 308.806 234.256C314.106 233.582 318.507 239.006 322.485 242.94L314.246 236.732C313.982 236.761 313.724 236.837 313.487 236.958L314.552 238.017L312.56 240.006L311.999 239.451C311.857 240.786 311.913 242.349 310.932 243.383C301.825 241.281 304.94 228.35 307.182 227.597L307.179 227.599ZM369.785 297.234L367.347 294.786L368.328 293.753L370.767 296.201L369.785 297.234ZM323.57 258.043L325.083 256.532L327.495 258.954L326.01 260.491L323.57 258.043ZM305.575 252.079L310.034 247.52C311.994 250.444 310.706 253.219 314.459 255.945L311.992 258.516L305.575 252.079ZM414.067 341.596C414.745 342.861 414.188 342.864 413.184 342.465C411.238 344.345 409.881 344.788 405.013 342.572C405.75 338.391 410.855 341.577 413.184 342.465C413.493 342.18 413.771 341.871 414.072 341.593L414.067 341.596ZM324.851 271.357C324.586 271.553 324.372 271.811 324.226 272.107C325.035 270.654 326.145 270.039 324.86 271.353L324.851 271.357ZM389.061 329.625L387.071 331.667L383.846 328.411L385.836 326.369L389.061 329.625ZM408.62 347.136L411.031 349.558L409.518 351.07L407.107 348.647L408.62 347.136ZM328.775 280.387C323.497 277.955 323.108 275.134 323.747 273.137C323.523 276.202 330.746 279.78 328.787 280.387H328.775ZM296.853 254.418L299.233 256.763L297.278 258.78L294.871 256.41L296.853 254.418ZM291.583 253.152L288.361 249.949L290.351 247.907L293.576 251.163L291.583 253.152ZM416.811 366.407L418.324 364.896L421.546 368.099L420.036 369.665L416.811 366.407ZM402.265 351.848L399.068 348.616L401.06 346.628L404.254 349.806L402.265 351.848ZM306.753 257.274L305.24 258.786L302.074 255.632L303.587 254.121L306.753 257.274ZM145.6 135.165C139.995 129.564 136.603 120.104 140.611 116.047C145.823 117.209 149.92 124.429 155.215 128.692L148.851 138.395L145.6 135.165ZM392.233 361.925L390.243 363.967L387.049 360.789L389.039 358.746L392.233 361.925ZM411.065 378.731L414.234 381.937L412.696 383.477L409.499 380.246L411.065 378.731ZM355.211 337.972C356.724 336.46 360.954 338.654 362.802 338.452C365.21 340.822 368.047 342.771 367.401 345.115C363.817 340.575 357.867 338.546 355.21 337.97L355.211 337.972ZM378.468 358.157L380.907 360.604L379.368 362.144L376.957 359.721L378.468 358.157ZM346.069 340.787C343.884 344.671 337.968 345.749 339.2 350.993L336.54 334.274L333.854 333.671L329.151 318.941L322.7 317.419C320.88 317.646 321.521 320.241 321.805 321.607L325.222 322.969C322.391 329.196 314.541 327.322 311.77 323.617C314.936 323.744 318.079 318.908 317.206 314.945C313.789 313.583 310.119 313.96 307.117 308.887C315.58 313.331 306.615 301.375 315.613 308.418C316.118 307.914 316.653 307.488 317.135 307.064C317.131 307.011 317.104 306.987 317.102 306.934C317.23 306.848 317.386 306.786 317.514 306.7C318.27 305.917 318.618 304.97 317.55 303.353C316.228 302.97 314.072 301.836 313.038 302.871L306.676 296.487C305.46 295.513 304.36 294.404 303.395 293.181L306.676 296.487C311.782 300.176 303.439 281.866 306.876 289.708C313.151 289.911 321.082 302.851 325.035 295.77C331.608 311.17 322.926 303.605 317.543 306.727C317.428 306.861 317.299 306.984 317.158 307.091C318.575 315.326 326.511 315.311 331.887 319.597L330.299 313.12L339.517 339.425L346.069 340.787ZM367.987 368.793L370.398 371.216L368.405 373.205L365.998 370.835L367.987 368.793ZM299.324 285.988L302.517 289.166L301.004 290.678L297.811 287.5L299.324 285.988ZM243.191 235.899L240.727 233.479L242.77 231.435L245.181 233.857L243.191 235.899ZM300.781 276.355L303.164 278.752L302.132 279.841L299.721 277.419L300.781 276.355ZM336.658 311.327L339.069 313.75L337.557 315.262L335.146 312.839L336.658 311.327ZM341.605 315.529C342.301 320.065 342.267 324.682 341.503 329.206C340.97 323.634 342.288 319.98 341.603 315.531L341.605 315.529ZM382.956 353.619L378.385 346.982L381.411 346.983L382.956 353.619ZM361.883 329.551L360.394 331.036L357.986 328.666L359.499 327.154L361.883 329.551ZM339.071 308.759C340.258 310.62 341.063 312.699 341.437 314.874C341.003 312.716 340.203 310.648 339.071 308.759C338.036 307.108 336.46 305.867 334.612 305.248L337.272 305.824C338.019 306.901 338.544 307.832 339.069 308.76L339.071 308.759ZM370.175 335.756L371.637 334.299L374.02 336.696L372.585 338.178L370.175 335.756ZM291.984 262.579L287.918 258.464L288.927 257.456L292.99 261.519L291.984 262.579ZM308.205 324.04L311.427 327.243L309.966 328.754L306.745 325.55L308.205 324.04ZM253.332 223.896L254.845 222.384L258.07 225.64L256.557 227.152L253.332 223.896ZM307.72 332.532L310.187 335.005L308.197 337.047L305.758 334.599L307.72 332.532ZM297.996 327.862L295.979 329.879L293.623 327.507L295.588 325.493L297.996 327.862ZM121.346 171.177L121.372 179.218C118.206 176.014 118.545 172.386 121.349 171.178L121.346 171.177ZM117.922 182.77L119.887 180.757L122.354 183.23L120.336 185.247L117.922 182.77ZM89.4071 226.545L92.7281 222.575L99.1631 227.815L95.9221 231.807L89.4071 226.545ZM183.648 242.555L186.898 245.783L184.429 248.301L183.648 242.555ZM111.053 192.926L113.018 190.912L116.327 194.244L114.309 196.261L111.053 192.926ZM85.7201 179.698L91.4091 185.375C92.5601 190.598 95.1381 196.197 93.4501 199.417L84.4031 192.483C79.2191 186.302 81.9381 181.992 85.7191 179.698H85.7201ZM129.932 232.771L136.392 237.982L133.099 241.976L126.664 236.736L129.932 232.771ZM76.4391 208.557L78.4571 206.54L81.6811 209.796L79.6911 211.838L76.4391 208.557ZM80.4741 212.594L82.6021 221.777C81.2301 218.425 74.5611 213.782 80.4711 212.597L80.4741 212.594ZM86.8701 229.701L93.3301 234.913L90.1131 238.879L83.6781 233.639L86.8701 229.701ZM110.886 270.849C113.637 273.593 116.084 276.626 118.186 279.893C114.707 277.871 111.948 274.883 109.3 272.499C106.458 269.939 103.782 268.035 100.393 268.715C96.9241 272.904 99.8971 260.249 110.886 270.849ZM311.545 456.919L314.794 460.147L312.829 462.161L309.632 458.929L311.545 456.919ZM222.865 399.315L225.217 401.635L223.278 403.621L220.898 401.276L222.865 399.315ZM276.14 442.491L277.6 440.981L277.737 444.079L276.14 442.491ZM126.802 318.468L123.483 322.491L118.576 318.525L121.839 314.453L126.802 318.468ZM93.5301 303.187L90.2651 307.206L85.5771 303.389L88.8711 299.395L93.5301 303.187ZM78.4701 262.745L84.9331 268.01L81.6871 271.896L75.1981 266.659L78.4701 262.745ZM70.1531 289.248L76.6691 294.509L74.1711 297.508L67.6301 292.274L70.1531 289.248ZM76.3451 311.064L73.5451 308.794L69.9391 305.85L72.4091 302.826L76.3181 305.994L78.8431 308.066L76.3451 311.064ZM90.6061 319.214L86.6791 315.224L89.2321 315.808L90.6061 319.214ZM83.7941 308.339L81.8011 310.328L78.5241 307.074L80.5421 305.057L83.7941 308.339ZM98.5111 316.094L96.5461 318.107L94.1071 315.66L96.0721 313.647L98.5111 316.094ZM124.166 337.933L117.65 332.671L120.12 329.647L126.663 334.933L124.166 337.933ZM198.318 394.864L196.883 396.345L193.689 393.167L195.15 391.657L198.318 394.864ZM190.471 385.026L191.984 383.514L195.206 386.718L193.718 388.203L190.471 385.026ZM380.178 552.761L378.639 554.301L375.47 551.095L376.955 549.558L380.178 552.761ZM241.777 422.194L243.745 420.233L246.967 423.436L245.026 425.422L241.777 422.194ZM364.232 526.697L362.268 528.711L359.046 525.507L361.011 523.494L364.232 526.697ZM348.12 510.626L346.181 512.612L343.801 510.267L345.766 508.254L348.12 510.626ZM290.134 457.607L288.673 459.117L285.393 455.811L286.882 454.326L290.134 457.607ZM269.814 439.26L267.825 441.302L264.575 438.074L266.566 436.032L269.814 439.26ZM312.215 475.623L313.679 474.167L316.872 477.345L315.384 478.831L312.215 475.623ZM335.315 492.788L333.35 494.802L330.939 492.379L332.931 490.39L335.315 492.788ZM247.283 411.709L245.265 413.726L242.124 410.545L244.088 408.531L247.283 411.709ZM357.5 505.701C356.351 505.575 355.366 505.493 355.242 506.694L354.305 503.531C353.323 502.728 352.604 501.648 352.241 500.431C351.879 499.215 351.89 497.918 352.273 496.707L354.305 503.531C355.275 504.385 356.348 505.114 357.499 505.7C358.097 505.807 358.704 505.846 359.31 505.818L359.706 506.78C362.128 507.902 364.572 508.943 366.002 510.381L365.414 507.783L367.04 509.398L362.528 513.96L359.735 506.805C358.939 506.456 358.231 506.067 357.495 505.707L357.5 505.701ZM424.357 557.78L422.393 559.794L420.066 557.447L422.083 555.43L424.357 557.78ZM378.814 515.209L377.301 516.721L374.104 513.49L375.617 511.977L378.814 515.209ZM394.653 525.082C390.98 522.38 388.736 518.09 390.726 516.049L394.653 525.082ZM131.926 289.239L125.521 284.077L128.815 280.083L135.194 285.273L131.926 289.239ZM311.156 439.472L309.163 441.461L306.696 438.988L308.689 436.999L311.156 439.472ZM128.058 277.84L123.176 273.848L126.445 269.881L131.352 273.846L128.058 277.84ZM114.237 258.385L117.51 254.469L120.144 256.592L124.054 259.76L120.781 263.676L114.237 258.385ZM430.41 532.678L428.417 534.667L426.006 532.244L427.97 530.23L430.41 532.678ZM138.727 261.568L141.221 258.518L147.682 263.729L145.156 266.703L138.727 261.568ZM164.515 282.417L158.026 277.18L160.576 274.18L166.983 279.394L164.515 282.417ZM151.585 265.278L145.178 260.063L148.441 255.991L154.929 261.227L151.585 265.278ZM439.164 512.363L437.146 514.38L433.977 511.174L435.967 509.132L439.164 512.363ZM339.085 424.93L335.757 422.237L335.069 416.725L339.085 424.93ZM415.534 487.71L414.838 485.065L420.634 485.745L415.534 487.71ZM171.234 264.412L166.327 260.447L169.565 256.403L174.528 260.419L171.234 264.412ZM342.951 404.047L340.986 406.061L337.709 402.807L339.727 400.79L342.951 404.047ZM471.396 515.513L469.432 517.527L466.154 514.274L468.118 512.26L471.396 515.513ZM462.739 499.851L460.771 501.812L458.36 499.389L460.299 497.402L462.739 499.851ZM304.611 353.588L302.593 355.605L299.424 352.399L301.442 350.382L304.611 353.588ZM298.866 344.835L297.91 345.84L296.257 344.201L297.241 343.221L298.866 344.835ZM425.739 456.701L421.051 452.883L424.316 448.864L429.033 452.707L425.739 456.701ZM328.855 364.72C328.208 362.019 324.214 360.29 320.19 358.482C323.498 359.852 328.921 357.976 328.855 364.72ZM317.591 353.468C317.541 356.55 318.592 357.849 320.111 358.46C318.383 357.737 316.7 356.911 315.069 355.989L321.066 349.889C321.734 349.344 322.231 348.617 322.495 347.797C321.43 346.161 320.734 344.313 320.458 342.381L320.795 342.231C316.488 336.588 306.885 331.169 312.3 331.152C315.326 336.197 318.941 335.771 322.812 336.683C324.607 336.484 323.539 334.362 322.395 332.27L328.924 333.761C329.064 336.913 331.979 338.832 333.52 340.371C331.75 340.543 329.652 339.511 329.485 341.378L328.813 338.705L320.742 342.231C322.197 344.147 322.989 346.069 322.418 347.825C324.026 350.298 325.432 352.897 326.624 355.597L317.591 353.468ZM447.298 455.126L450.436 458.254L448.446 460.297L445.278 457.091L447.298 455.126ZM457.725 467.591C453.466 465.371 453.971 469.91 450.103 464.006C453.241 464.108 455.35 460.253 458.653 463.534C458.955 464.821 459.488 467.368 457.72 467.593L457.725 467.591ZM429.423 434.289L431.415 432.3L434.637 435.504L432.644 437.493L429.423 434.289ZM452.763 451.522L451.253 453.088L448.758 450.59L450.271 449.078L452.763 451.522ZM439.656 433.517L437.691 435.531L435.28 433.108L437.273 431.12L439.656 433.517ZM379.252 376.96L371.633 376.455L374.127 373.91C376.279 374.991 378.048 374.875 379.251 376.966L379.252 376.96ZM353.196 352.994L351.847 345.526C350.451 343.209 350.411 340.45 350.428 337.742L348.967 329.668C350.47 331.979 350.461 334.847 350.428 337.742L351.847 345.526C352.982 347.336 354.69 348.715 356.7 349.441L353.358 347.996C353.077 349.868 355.089 352.79 353.192 352.992L353.196 352.994ZM401.337 382.079L406.97 387.705L405.936 388.741L400.303 383.115L401.337 382.079ZM443.123 426.916L441.156 428.877L437.959 425.646L439.899 423.66L443.123 426.916ZM418.014 400.828L415.547 398.355L417.086 396.815L419.525 399.262L418.014 400.828ZM440.037 415.714L439.031 416.775L437.461 415.211L438.495 414.174L440.037 415.714ZM387.388 370.171L384.167 366.967L385.705 365.426L388.926 368.63L387.388 370.171ZM501.058 465.813L499.066 467.801L495.844 464.597L497.808 462.583L501.058 465.813ZM499.238 457.97L497.75 459.456L495.311 457.009L496.799 455.523L499.238 457.97ZM457.453 396.037L455.968 397.574L453.529 395.126L455.018 393.641L457.453 396.037ZM465.554 399.145L463.536 401.162L461.181 398.789L463.199 396.772L465.554 399.145ZM496.328 419.894L494.337 421.935L491.14 418.704L493.158 416.687L496.328 419.894ZM465.363 379.858L463.851 381.371L461.722 379.252C461.384 378.898 461.022 378.572 460.659 378.245L459.196 379.701L455.947 376.473L457.031 375.381C456.035 374.757 454.905 374.379 453.734 374.278C449.751 378.309 458.301 377.836 457.739 383.281C451.967 382.573 447.593 390.233 441.678 383.295C438.039 383.75 436.576 385.206 436.691 388.386C436.297 386.973 435.738 384.4 433.634 383.262C429.76 382.8 429.33 384.231 430.161 386.39L431.925 384.599L435.122 387.831L433.157 389.844L430.523 387.221C432.633 391.491 438.377 397.723 434.698 398.444L428.107 393.77C427.352 396.066 430.047 399.854 427.242 401.065C424.607 392.389 427.778 387.578 417.91 379.65C430.409 388.132 420.128 367.827 431.083 377.743C422.226 368.86 417.66 357.284 417.745 352.369L421.081 353.708L419.652 347.225C424.244 344.199 429.041 349.577 434.229 356.314L434.48 356.035L436.863 358.432L436.308 358.992C438.785 362.398 441.475 365.645 444.36 368.714C446.286 370.799 448.592 372.498 451.154 373.721C452.135 372.688 454.407 371.959 452.979 368.556C455.518 370.606 457.672 373.091 459.339 375.896L461.134 377.714L460.804 378.023C461.004 378.304 461.209 378.639 461.409 378.921L462.844 377.439L465.363 379.858ZM433.135 347.61L431.65 349.147L428.453 345.916L429.966 344.404L433.135 347.61ZM518.11 414.54C513.79 417.208 507.824 410.272 502.355 407.769L503.366 401.769L507.457 405.856C505.609 406.059 506.226 408.681 507.343 410.747C511.27 411.763 514.828 408.205 518.108 414.538L518.11 414.54ZM448.886 351.302L447.451 352.783L444.202 349.555L445.635 348.02L448.886 351.302ZM360.545 270.902L356.373 271.837C353.681 268.102 348.943 266.358 349.364 262.752C353.478 261.765 356.789 268.177 360.543 270.9L360.545 270.902ZM295.412 208.725L297.377 206.712L299.844 209.185L297.851 211.173L295.412 208.725ZM434.003 332.353L434.984 331.32L437.367 333.717L436.41 334.723L434.003 332.353ZM440.591 336.974L442.076 335.437L451.688 345.05L450.175 346.562L440.591 336.974ZM481.395 371.748L479.91 373.285L477.472 370.837L478.985 369.325L481.395 371.748ZM465.133 352.313L466.456 357.792C460.724 354.799 463.722 353.262 465.133 352.313L464.862 351.212C466.151 351.515 465.797 351.853 465.131 352.312L465.133 352.313ZM464.525 349.849L462.535 351.892L460.18 349.519L462.17 347.477L464.525 349.849ZM450.513 339.856L449.56 335.87L453.007 337.31L450.513 339.856ZM449.76 334.134L446.535 330.878L448.553 328.861L451.75 332.092L449.76 334.134ZM480.224 353.49L478.234 355.532L475.77 353.112L477.788 351.095L480.224 353.49ZM475.573 346.83L474.088 348.367L470.866 345.164L472.379 343.652L475.573 346.83ZM463.72 341.05L461.114 340.47L460.609 332.903C461.641 334.947 460.88 339.154 463.714 341.051L463.72 341.05ZM450.686 321.9L449.173 323.412L445.951 320.208L447.436 318.671L450.686 321.9ZM444.997 316.224L443.485 317.736L440.318 314.583L441.831 313.07L444.997 316.224ZM419.722 292.003L419.044 286.198L424.649 291.799C424.452 293.746 422.346 292.554 419.715 292.002L419.722 292.003ZM480.308 340.453L479.249 341.518L473.616 335.891L474.675 334.826L480.308 340.453ZM399.68 266.845C395.56 259.706 386.706 250.876 387.043 247.196C393.208 252.343 403.885 260.999 403.833 269.071C407.698 266.853 416.109 271.298 417.586 274.646C413.711 281.905 405.002 271.239 399.672 266.844L399.68 266.845ZM450.047 306.244L448.082 308.258L445.643 305.81L447.611 303.849L450.047 306.244ZM454.248 308.469L456.687 310.916L455.225 312.373L452.786 309.926L454.248 308.469ZM448.081 310.33L449.566 308.793L452.843 312.047L451.305 313.588L448.081 310.33ZM466.628 326.779L468.596 324.818L471.845 328.046L469.881 330.06L466.628 326.779ZM483.927 335.142L481.912 337.212L478.715 333.98L480.73 331.911L483.927 335.142ZM441.553 295.778L440.093 297.288L436.924 294.082L438.359 292.601L441.553 295.778ZM382.338 242.61C373.67 234.806 383.193 253.317 372.86 242.095C373.248 247.438 367.609 243.723 365.55 242.423L365.656 242.922C364.452 241.737 364.697 241.857 365.55 242.423L364.73 238.962L358.202 237.524C363.16 237.398 358.09 226.327 366.638 233.873L368.151 240.431L381.347 238.492C381.204 239.936 381.551 241.386 382.334 242.608L382.338 242.61ZM483.369 327.578L481.429 329.564L478.232 326.333L480.172 324.347L483.369 327.578ZM474.704 316.801L473.194 318.366L469.972 315.163L471.482 313.597L474.704 316.801ZM460.327 310.462L455.761 298.887L458.336 299.39L460.327 310.462ZM451.667 293.738L450.104 295.306L446.827 292.052L448.362 290.46L451.667 293.738ZM446.039 283.174L444.075 285.188L441.664 282.765L443.653 280.723L446.039 283.174ZM469.724 300.867C469.777 300.865 469.777 300.865 469.802 300.836L471.372 302.4C470.888 301.824 470.335 301.309 469.725 300.867C463.062 301.981 465.974 298.299 469.72 300.864L469.724 300.867ZM505.593 332.659L503.575 334.676L500.351 331.42L502.34 329.377L505.593 332.659ZM474.007 303.059L475.998 301.017L479.222 304.273L477.232 306.315L474.007 303.059ZM485.055 311.191L486.568 309.679L489.765 312.91L488.304 314.421L485.055 311.191ZM490.18 314.242L491.588 312.736L495.595 316.748L494.161 318.23L490.18 314.242ZM565.566 381.566L560.689 377.678L563.107 374.712L567.985 378.599L565.566 381.566ZM492.624 311.753L491.053 305.091L494.532 306.608L492.624 311.753ZM478.271 292.274L477.009 291.994L477.294 296.386L474.376 291.388L477.037 292.018L476.847 288.922L478.271 292.274ZM460.532 274.536C460.816 267.832 466.73 277.797 469.026 274.013L467.095 279.184L467.992 275.05L460.532 274.536ZM552.038 349.009C555.089 342.426 562.684 349.012 568.795 354.161C561.57 349.118 559.388 361.125 552.033 349.005L552.038 349.009ZM497.727 288.658L495.712 290.728L493.301 288.305L495.319 286.289L497.727 288.658ZM513.593 298.556L512.104 300.041L510.478 298.427L511.968 296.942L513.593 298.556ZM491.224 279.122L486.18 276.093L488.624 273.602L491.224 279.122ZM496.271 277.16L497.732 275.649L499.413 277.314L497.924 278.799L496.271 277.16ZM519.392 294.245L517.829 295.813L515.473 293.44L517.012 291.9L519.392 294.245ZM514.74 284.56L513.201 286.1L509.977 282.844L511.516 281.304L514.74 284.56ZM486.549 259.428L483.412 259.327L485.906 256.781L486.549 259.428ZM498.263 267.101L500.228 265.088L503.45 268.292L501.486 270.306L498.263 267.101ZM519.676 279.471L517.689 281.566L514.464 278.31L516.451 276.215L519.676 279.471ZM514.133 272.008L512.67 273.465L510.263 271.095L511.723 269.585L514.133 272.008ZM324.84 100.611C329.433 104.141 331.596 108.408 332.63 115.443C325.708 117.583 320.946 107.797 313.769 108.648C313.067 110.941 308.137 111.092 310.428 115.273C315.559 121.457 317.353 129.327 325.731 130.616C317.156 136.159 305.551 123.491 296.247 110.171C306.452 106.347 311.549 109.373 311.663 99.4385C316.479 99.2357 318.498 89.2018 324.834 100.605L324.84 100.611ZM510.484 261.208L508.971 262.72L505.749 259.516L507.262 258.004L510.484 261.208ZM480.443 233.201L478.425 235.217L475.256 232.012L477.246 229.97L480.443 233.201ZM486.44 227.101L484.426 229.17L481.204 225.967L483.194 223.925L486.44 227.101ZM540.812 272.477L539.302 274.042L536.89 271.619L538.428 270.079L540.812 272.477ZM524.922 246.566L522.904 248.583L519.736 245.377L521.7 243.364L524.922 246.566ZM547.76 262.285L546.221 263.825L543.053 260.619L544.541 259.134L547.76 262.285ZM528.426 243.011L526.938 244.496L523.716 241.293L525.229 239.781L528.426 243.011ZM551.191 258.363L545.232 253.604L544.123 254.723L540.926 251.492L542.411 249.955L545.131 252.707L548.054 249.236L554.462 254.451L551.191 258.363ZM503.962 217.553L500.685 214.299L502.702 212.282L505.952 215.511L503.962 217.553ZM490.927 202.942C489.313 202.548 487.638 201.999 485.999 201.632C487.644 201.095 489.335 201.963 490.927 202.942C493.132 203.464 495.185 203.649 496.596 202.195C496.174 206.916 493.774 204.706 490.921 202.943L490.927 202.942ZM497.91 194.402L499.345 192.92L500.998 194.559L499.509 196.045L491.995 195.534L497.91 194.402ZM582.749 275.489L576.292 270.33L578.762 267.306L585.225 272.571L582.749 275.489ZM617.517 295.446L611.082 290.206L613.473 287.215L619.986 292.424L617.517 295.446ZM522.628 192.053L526.214 191.601L518.671 196.055L522.628 192.053ZM545.751 209.191L543.733 211.208L541.325 208.838L543.34 206.769L545.751 209.191ZM573.498 227.921L571.985 229.433L568.763 226.229L570.276 224.716L573.498 227.921ZM351.416 23.7207L353.434 21.7039L355.845 24.1266L353.827 26.1435L351.416 23.7207ZM508.423 157.777L506.459 159.791L503.181 156.537L505.171 154.495L508.423 157.777ZM530.956 172.266L532.946 170.224L535.382 172.619L533.339 174.664L530.956 172.266ZM558.196 188.42L556.683 189.933L554.245 187.485L555.757 185.973L558.196 188.42ZM543.176 174.443C542.7 174.924 542.266 175.444 541.878 175.998C542.143 177.497 542.558 179.334 542.112 180.445C540.838 178.441 541.115 177.125 541.878 175.998C541.457 173.551 541.535 172.007 546.65 175.854L543.176 174.443ZM575.52 196.756L574.031 198.242L570.023 194.23L571.512 192.744L575.52 196.756ZM600.513 211.591L592.972 210.551L597.04 205.639L600.513 211.591ZM551.87 159.067L553.913 157.023L556.407 159.521L554.389 161.537L551.87 159.067ZM579.222 178.349L580.036 179.183L578.575 180.693L577.845 179.935L571.493 174.77L574.734 170.778L581.169 176.018L579.222 178.349ZM514.621 115.741L512.657 117.755L510.221 115.36L512.213 113.372L514.621 115.741ZM545.03 132.076L543.54 133.561L541.157 131.164L542.647 129.679L545.03 132.076ZM487.464 78.4781L485.471 80.4667L482.249 77.263L484.242 75.2744L487.464 78.4781ZM447.33 41.3327L445.795 42.9256L442.542 39.6442L444.081 38.1043L447.33 41.3327ZM451.757 41.6849L463.222 46.1574C457.957 44.9549 457.172 49.19 451.759 41.694L451.757 41.6849ZM477.545 62.5338L479.058 61.022L482.227 64.2278L480.686 65.7148L477.545 62.5338ZM527.574 102.587L526.061 104.099L523.678 101.701L525.191 100.19L527.574 102.587ZM536.567 106.498L535.029 108.039L531.78 104.81L533.319 103.27L536.567 106.498ZM460.171 33.1208L439.346 15.2782L443.245 16.2168L460.171 33.1208ZM555.546 116.526L557.084 114.985L559.492 117.355L557.928 118.923L555.546 116.526ZM583.736 136.612L581.722 138.682L578.417 135.403L580.46 133.359L583.736 136.612ZM466.229 14.0216L464.214 16.0907L461.017 12.8595L463.032 10.7904L466.229 14.0216ZM494.4 29.1985L493.391 30.2066L491.206 26.0203L494.4 29.1985ZM555.388 41.9489L551.355 37.9649C547.351 37.0319 547.599 43.2578 549.391 48.0489L541.404 40.0498L552.227 33.8576C555.085 35.6728 554.75 39.4071 555.388 41.9489ZM565.346 39.9705L564.362 40.9511L561.951 38.5283L562.934 37.5478L565.346 39.9705ZM574.509 42.0677L573.475 43.104L569.44 39.067L570.474 38.0307L574.509 42.0677ZM580.202 34.6793L578.69 36.1918L575.412 32.9378L576.925 31.4261L580.202 34.6793ZM597.635 46.0884L595.644 48.13L592.62 43.1372C594.8 44.248 596.539 43.9983 597.631 46.0921L597.635 46.0884Z" fill="white"/>
</svg>
