<svg width="885" height="897" viewBox="0 0 885 897" fill="none" xmlns="http://www.w3.org/2000/svg">
<path d="M841.572 861.537C842.109 859.945 842.571 858.348 843.112 856.759C843.189 856.217 843.211 855.669 843.177 855.122L843.654 854.949C861.245 803.524 873.348 750.383 879.76 696.412L876.718 699.632L871.741 694.917L879.459 686.613L880.818 687.878C884.881 649.345 885.784 610.544 883.518 571.864C877.383 465.661 846.563 363.732 790.169 274.879C781.72 279.236 776.452 278.594 780.708 262.254C780.968 261.931 781.265 261.645 781.527 261.324C779.683 258.596 777.69 255.938 775.772 253.209C774.878 253.429 773.957 253.522 773.036 253.485C770.202 257.291 773.277 258.405 775.167 260.66L766.851 267.893L742.265 251.749C751.039 245.576 758.734 242.734 765.004 238.117C757.145 227.595 748.916 217.285 740.246 207.259C734.971 211.203 729.359 213.537 726.289 210.059L724.063 214.57C714.094 224.542 716.455 208.312 705.709 215.033C704.894 207.591 703.928 196.288 717.855 182.711C714.638 179.375 711.345 176.183 708.015 172.954C701.016 177.481 694.141 183.695 685.919 183.176L687.468 177.963C672.702 189.485 684.733 169.939 674.927 170.668C679.235 165.869 683.527 159.87 688.213 154.276C666.227 134.504 642.749 116.456 617.988 100.292C607.278 104.755 595.943 103.524 585.113 106.528C572.954 120.975 564.564 111.536 555.293 112.894C570.3 104.216 580.727 95.0887 592.562 84.604C586.255 80.9555 579.91 77.4158 573.527 73.9848L573.193 74.3064L572.372 73.3815L571.506 72.9293C547.733 85.3404 522.463 97.9792 502.487 109.733C503.92 104.918 497.681 105.639 491.081 108.429C485.689 110.766 480.052 114.486 478.246 117.802C473.694 101.371 482.693 94.7655 495.568 89.1394L493.633 87.3558L499.385 81.1643L503.286 84.9868L501.837 86.5232C514.854 81.2668 529.989 75.6121 539.55 62.1043C540.156 60.8046 540.836 59.4341 541.439 58.0587C533.968 54.6125 526.417 51.3787 518.826 48.2524C518.016 48.8201 517.204 49.4601 516.391 50.1007L517.792 51.1825L511.856 57.4804L509.639 55.3258C495.942 66.1038 482.413 77.722 468.198 86.9239C464.552 89.2952 460.835 91.5931 457.085 93.5634C458.507 97.4876 454.017 106.54 464.867 102.372L463.714 105.847C459.66 110.687 455.982 108.726 452.257 109.391L450.709 114.605C453.522 117.966 457.186 120.51 461.318 121.973L462.434 120.757L464.545 122.801C465.93 123.117 467.339 123.313 468.757 123.388L466.355 125.419C461.798 131.96 469.238 133.3 470.589 137.22C468.26 139.252 464.03 141.686 463.666 145.829L472.935 144.545C477.292 147.283 468.91 151.861 469.078 156.852C463.653 167.163 451.75 175.353 440.878 180.758C440.837 181.012 440.798 181.193 440.757 181.448L435.922 183.106C437.537 182.407 439.189 181.601 440.878 180.758C441.534 176.619 444.357 171.536 440.818 169.725C435.379 170.535 428.983 165.756 423.957 174.109L405.016 147.874C411.813 148.473 412.652 139.936 414.846 135.459C413.045 135.498 411.302 136.102 409.865 137.187C408.378 138.76 406.575 140.003 405.317 141.144C406.611 140.035 408.132 138.429 409.865 137.187C411.161 135.931 412.008 134.283 412.276 132.498C398.572 131.118 393.103 133.891 378.988 139.418L370.817 146.512L370.368 153.385L367.12 149.721L370.817 146.512L371.072 142.403C374.04 141.329 376.606 140.357 378.988 139.418L384.829 134.357C400.352 137.702 405.571 105.979 417.346 121.598L421.332 114.39L430.086 119.685C435.318 99.6135 453.892 115.828 454.719 95.7123C451.106 96.1913 448.601 95.8176 446.914 98.5902L435.518 90.4068C438.628 91.5564 441.533 87.8243 445.048 84.7209C446.939 86.9036 447.793 90.0865 451.947 87.798C449.545 89.8287 446.068 92.8952 445.598 97.0704C450.165 90.5778 455.502 84.662 461.491 79.4522C475.732 66.646 493.241 56.3359 509.615 44.5547C473.593 30.5029 436.358 19.7846 398.377 12.5345C393.982 11.6823 389.554 10.8012 385.125 9.99374L377.894 13.3186L379.426 8.9779C270.994 -8.57651 155.872 0.0698997 43.8548 34.9864C40.7507 43.7762 37.8646 52.642 35.0861 61.5459C35.289 61.4926 35.4968 61.4599 35.7064 61.4482C35.5533 61.7348 35.5889 61.9188 35.4753 62.1715C38.7797 63.0274 41.8497 64.6144 44.4588 66.8154C41.524 68.0723 38.9831 67.6605 37.2234 70.4311C35.4004 68.3969 33.7293 66.2161 35.476 62.1708C35.2971 62.1293 35.1505 62.0552 34.9693 62.0158C27.1141 87.1354 20.5525 112.641 15.3105 138.433L27.3461 137.2L24.571 145.959L19.7727 147.581C25.3934 138.511 20.0352 138.885 15.1923 138.905C9.5178 166.691 5.43695 194.779 2.96979 223.032L4.18342 224.364L2.78083 225.577C-1.07584 271.062 -0.431324 316.816 4.70497 362.173L4.78046 362.03C11.508 362.631 17.6924 348.289 23.5093 354.913C16.8377 361.635 14.2942 375.823 7.10016 381.186C24.9325 505.372 77.8228 621.357 167.276 714.102C334.132 887.098 586.404 936.003 826.048 866.492C825.504 866.373 824.997 866.218 824.381 866.023C828.93 866.144 835.906 850.4 831.356 862.803L830.11 865.292C833.77 864.195 837.499 863.169 841.161 862.001C841.334 861.882 841.475 861.723 841.572 861.537ZM520.264 61.6058L512.472 69.9811L507.351 65.1175L515.071 56.7416L520.264 61.6058ZM11.4706 180.632L8.86399 177.708L13.6327 173.609L16.2018 176.569L11.4706 180.632ZM40.1687 163.542L42.7017 166.465L38.0059 170.564L35.4729 167.641L40.1687 163.542ZM32.1928 178.104L28.7166 181.17L26.11 178.246L29.6584 175.18L32.1928 178.104ZM25.5462 191.67L22.3922 190.919C20.2393 191.207 18.2754 191.098 17.7522 189.814L17.3538 189.698L17.6545 189.194C17.6046 187.882 18.5524 185.752 21.3052 182.381L17.6545 189.194C17.6549 189.413 17.7138 189.628 17.8251 189.816L22.4651 190.921C26.9181 190.274 32.0162 187.999 25.5469 191.669L25.5462 191.67ZM277.963 66.9151L276.033 64.77L279.655 61.6332L281.585 63.7784L277.963 66.9151ZM317.705 297.121L320.312 300.046L315.581 304.109L313.048 301.186L317.705 297.121ZM387.317 205.862L389.85 208.785L385.155 212.885L382.622 209.962L387.317 205.862ZM405.228 181.219L407.834 184.144L403.029 188.278L400.422 185.354L405.228 181.219ZM372.412 200.636L375.019 203.561L370.177 207.731L367.644 204.808L372.412 200.636ZM364.169 207.801L355.777 215.036L358.988 218.735L349.597 226.862L348.65 218.69C353.415 214.592 357.294 207.273 364.164 207.8L364.169 207.801ZM400.15 163.723L402.041 165.906L396.638 166.752L400.15 163.723ZM343.764 191.911L345.655 194.094L342.215 197.125L340.249 194.942L343.764 191.911ZM416.759 109.273L412.262 104.165L421.353 102.695C419.595 105.468 419.734 107.91 416.759 109.273ZM472.151 58.6363L474.042 60.8189L469.348 64.8464L467.418 62.7012L472.151 58.6363ZM486.228 40.7666L480.329 47.029L476.388 43.3883L482.326 36.9447L486.228 40.7666ZM70.5929 370.676L68.7345 368.605L72.3945 365.432L74.289 367.541L70.5929 370.676ZM62.5265 394.555L80.3685 367.543C75.8415 376.637 76.6868 382.257 77.5676 387.99C70.7097 399.11 70.1635 386.688 62.5265 394.555V394.555ZM153.074 334.191L150.503 331.304L154.052 328.238L156.585 331.161L153.074 334.191ZM252.302 244.137L250.411 241.955L255.107 237.855L256.998 240.038L252.302 244.137ZM391.706 111.612L389.137 108.652L392.686 105.587L395.292 108.511L391.706 111.612ZM240.923 261.838C246.7 254.19 246.4 260.92 252.341 258.333L240.923 261.838ZM41.2273 485.429L33.4267 492.166L33.8015 485.365L41.2308 485.429L44.7425 482.399L45.628 477.609L51.1023 476.836L44.7071 482.361L44.1425 485.408L41.2273 485.429ZM33.0204 482.183L37.6795 478.119L40.3215 481.08L35.5902 485.143L33.0204 482.183ZM70.5733 472.866L68.6072 470.683L72.2298 467.547L74.2313 469.766L70.5733 472.866ZM300.652 256.391C300.851 247.184 284.524 252.344 276.477 250.301L270.538 267.12L279.594 265.615C273.284 272.488 292.613 268.513 280.513 271.311L272.43 269.305C269.423 270.559 269.488 273.073 267.801 275.845L244.911 271.163L263.265 270.699C270.159 259.613 252.045 264.92 256.804 263.408L262.317 262.526C270.058 257.136 276.34 247.714 273.667 242.349C277.246 241.76 279.786 242.171 281.437 239.435L285.97 244.579C289.154 245.657 292.062 241.852 295.536 238.858L312.117 250.342C308.493 253.554 304.983 256.582 300.655 256.393L300.652 256.391ZM324.244 235.861C326.227 235.77 328.182 236.358 329.785 237.529L329.891 237.566L337.151 222.264L330.835 223.276C332.622 222.768 334.174 221.65 335.223 220.117L337.15 222.337L344.86 231.071L339.493 231.955L336.387 244.968C333.96 242.23 332.261 239.356 329.782 237.601L324.244 235.861ZM92.7575 474.298L84.55 481.427L87.1447 472.628C87.2452 475.178 90.2179 473.814 92.7575 474.298ZM63.3861 504.917L60.817 501.956L64.3654 498.891L66.972 501.815L63.3861 504.917ZM306.113 281.471L303.58 278.548L308.311 274.485L310.881 277.372L306.113 281.471ZM371.302 232.691L372.348 229.106C371.033 225.223 365.696 228.51 361.292 228.465C357.137 230.755 358.02 236.414 356.26 239.184L357.378 235.673C354.911 235.19 351.901 236.591 351.726 234.112C357.742 231.53 360.255 229.392 362.271 222.439L379.693 225.456L371.302 232.691ZM388.37 216.515L385.728 213.554L390.461 209.418L393.066 212.416L388.37 216.515ZM303.618 309.422L300.032 312.523L299.084 304.351L303.618 309.422ZM134.575 479.334L132.684 477.151L137.417 473.016L139.308 475.198L134.575 479.334ZM291.856 319.615L300.947 318.29L293.762 327.295C295.347 324.12 294.527 321.047 291.856 319.615ZM872.067 604.162L873.958 606.344L870.404 609.413L868.549 607.267L872.067 604.162ZM820.724 635.723L822.726 637.943L806.197 652.311L804.234 650.054L820.724 635.723ZM795.341 658.989L791.792 662.055L789.862 659.91L793.448 656.809L795.341 658.989ZM694.4 759.497L690.851 762.563L688.28 759.676L691.829 756.611L694.4 759.497ZM668.104 774.557L670.746 777.518L666.089 781.509L663.483 778.585L668.104 774.557ZM660.634 770.742L655.827 774.949L653.258 771.988L658.028 767.817L660.634 770.742ZM866.578 562.375L868.506 564.596L863.847 568.66L861.88 566.477L866.578 562.375ZM631.265 784.687L633.8 787.537L630.251 790.603L627.716 787.756L631.265 784.687ZM644.37 764.178L646.975 767.102L642.316 771.166L639.746 768.279L644.37 764.178ZM848.115 525.445L853.92 520.419L855.921 522.639L850.043 527.736L848.115 525.445ZM801.054 535.349L796.323 539.412L795.001 537.897L801.054 535.349ZM828.054 509.235L837.522 501.034L838.844 502.549L829.417 510.711L828.054 509.235ZM573.007 756.376L568.274 760.512L565.632 757.551L570.401 753.452L573.007 756.376ZM587.509 751.548L583.821 752.171L591.023 748.445L587.509 751.548ZM795.328 502.879L800.062 498.743L802.631 501.703L797.898 505.839L795.328 502.879ZM560.073 713.325L562.642 716.285L558.057 720.278L555.453 717.28L560.073 713.325ZM519.813 748.149L522.383 751.11L517.687 755.209L515.082 752.212L519.813 748.149ZM603.103 620.52C599.892 616.82 596.001 612.416 590.562 613.225C592.559 601.139 581.624 577.054 573.742 565.768L579.657 560.636L586.939 585.381C585.722 600.721 605.4 601.704 603.102 620.519L603.103 620.52ZM658.788 534.685L663.558 530.514L666.128 533.401L661.395 537.536L658.788 534.685ZM681.713 539.404L687.365 540.965L683.678 541.516L681.713 539.404ZM641.693 579.221L637.071 583.249L634.501 580.362L639.122 576.334L641.693 579.221ZM698 520.046C697.562 524.262 702.562 527.741 695.647 533.764C693.04 530.84 689.012 523.995 698 520.046ZM669.204 548.893L664.545 552.957L662.618 550.737L667.24 546.709L669.204 548.893ZM543.229 677.627L538.387 681.797L535.781 678.873L540.66 674.667L543.229 677.627ZM506.265 676.067C506.464 673.234 508.242 671.37 510.593 670.176C510.697 669.925 510.823 669.684 510.97 669.455L513.525 669.066C515.945 668.414 518.431 668.033 520.935 667.929L523.676 667.509C526.653 668.001 524.546 667.744 520.935 667.929L513.525 669.066C512.503 669.359 511.51 669.743 510.556 670.213C509.276 672.664 509.019 674.844 506.265 676.067ZM475.002 687.76L478.551 684.694L481.086 687.544L477.575 690.574L475.002 687.76ZM485.541 678.525L490.309 674.426L492.844 677.277L488.149 681.376L485.541 678.525ZM461.25 709.968L460.206 713.407L453.372 712.843L461.25 709.968ZM539.661 638.059L544.283 634.031L546.851 636.991L542.229 641.019L539.661 638.059ZM530.973 666.259L528.403 663.372L531.952 660.306L534.485 663.229L530.973 666.259ZM476.71 659.066L478.64 661.211L473.871 665.31L471.98 663.128L476.71 659.066ZM492.491 641.556L497.296 637.421L499.865 640.382L495.096 644.481L492.491 641.556ZM601.425 537.99L606.158 533.854L608.691 536.778L604.032 540.842L601.425 537.99ZM662.285 489.022L671.005 477.605L668.374 486.44C666.405 486.696 664.084 486.216 662.286 489.021L662.285 489.022ZM714.446 460.606L711.913 457.683L715.461 454.618L717.994 457.541L714.446 460.606ZM708.632 468.29L703.863 472.389L701.9 470.132L706.632 466.069L708.632 468.29ZM734.925 438.923L733.034 436.741L736.473 433.71L738.4 435.93L734.925 438.923ZM657.191 511.534C651.816 514.93 646.645 523.28 641.783 522.317C641.405 515.03 652.863 511.42 657.194 511.537L657.191 511.534ZM661.891 521.67L659.285 518.745L664.055 514.574L666.697 517.535L661.891 521.67ZM804.396 423.937L806.966 426.824L802.307 430.888L799.737 428.001L804.396 423.937ZM713.292 373.212L711.98 377.484C711.453 376.346 712.173 374.795 713.292 373.212L713.602 372.198C714.3 371.663 714.857 371.202 715.41 370.811C718.452 367.738 721.39 366.116 715.41 370.811C714.646 371.558 713.939 372.36 713.294 373.211L713.292 373.212ZM780.353 329.782L782.96 332.706L779.412 335.772L776.805 332.847L780.353 329.782ZM701.368 386.716L692.823 400.611L709.076 395.524C700.999 407.68 713.676 403.109 718.179 405.777C712.264 410.91 708.138 415.749 707.16 421.629C711.796 429.252 718.447 413.244 725.887 414.585C725.449 418.8 721.396 423.567 724.504 424.862C717.977 431.658 706.622 437.674 704.064 446.51C710.649 444.665 718.053 445.968 724.042 440.763L725.933 442.945L699.98 465.476L698.05 463.33C698.957 457.303 685.039 457.92 677.052 460.758C676.512 462.495 673.641 466.338 676.108 466.821C668.265 469.659 658.93 452.049 678.062 440.607L674.606 440.714C674.485 440.842 674.384 440.987 674.305 441.144L670.086 440.92L674.606 440.714C681.977 431.464 666.138 431.503 678.466 422.116C675.447 421.951 672.798 423.503 670.215 425.495C672.727 423.429 674.911 421.395 675.214 418.448C669.058 418.662 662.574 422.984 657.878 427.083C663.672 418.489 673.93 418.97 677.764 414.272L675.551 411.756L675.847 411.471L671.156 409.126L701.368 386.716ZM491.85 640.817L489.887 638.56L494.656 634.461L496.658 636.68L491.85 640.817ZM483.062 649.722L478.165 648.722L490.134 640.97L483.062 649.722ZM573.269 553.344L574.313 549.904L576.513 557.152L573.269 553.344ZM604.687 497.641C599.787 496.785 595.871 504.068 591.681 506.392C590.473 506.856 589.316 507.444 588.23 508.147L584.054 511.745L583.34 510.931C580.917 512.052 579.06 512.054 578.905 508.483L584.82 503.35L582.819 501.131C586.996 505.831 597.365 495.903 600.557 492.394C600.439 492.449 600.317 492.496 600.191 492.533C602.01 490.564 601.856 490.998 600.557 492.394C610.507 489.737 610.242 479.976 617.834 474.728C617.785 474.399 617.638 474.092 617.413 473.847C617.937 474.619 618.507 475.359 619.121 476.063C616.185 477.392 616.211 480.013 616.353 482.31C618.103 482.124 621.185 480.798 621.253 483.165L612.73 485.446C612.502 492.178 594.349 497.523 609.02 497.684L597.262 507.878C600.812 504.884 604.247 501.928 604.687 497.641ZM581.413 523.022L576.643 527.193L574.001 524.232L578.771 520.06L581.413 523.022ZM643.897 452.093L635.618 459.22L638.211 450.494L637.361 451.243L636.113 449.805L639.589 446.738L640.804 448.142L638.216 450.424C638.31 453.046 641.283 451.681 643.897 452.094L643.897 452.093ZM621.721 464.752L626.415 460.725L629.057 463.686L624.398 467.75L621.721 464.752ZM616.912 473.183C615.686 472.505 613.604 472.867 612.329 472.953C614.642 471.719 615.875 472.181 616.913 473.184L616.912 473.183ZM627.094 475.735L631.79 471.635L634.323 474.558L629.592 478.621L627.094 475.735ZM642.301 459.851L647.106 455.717L649.072 457.9L644.267 462.034L642.301 459.851ZM638.251 478.926L636.964 477.448L634.968 479.159L633.006 476.902L637.737 472.84L639.059 474.354L641.129 472.572L643.095 474.755L638.251 478.926ZM629.463 487.832L625.877 490.933L623.309 487.973L626.895 484.872L629.463 487.832ZM646.462 469.212L644.535 466.992L649.231 462.892L651.158 465.112L646.462 469.212ZM659.707 455.149L657.065 452.188L660.503 449.23L663.144 452.265L659.707 455.149ZM593.883 513.567L595.849 515.75L589.896 520.919L587.93 518.736L593.883 513.567ZM572.185 536.284L574.08 538.393L570.494 541.494L568.638 539.348L572.185 536.284ZM481.407 623.98L483.298 626.163L478.603 630.19L476.712 628.008L481.407 623.98ZM613.518 500.421L618.323 496.287L620.253 498.432L615.483 502.603L613.518 500.421ZM539.289 541.535L536.721 538.575L541.417 534.475L544.021 537.473L539.289 541.535ZM525.874 556.976L517.523 564.173L516.24 562.769L525.874 556.976ZM471.187 579.956C471.322 578.539 472.804 577.037 474.872 575.4C481.165 567.398 486.315 560.285 493.518 560.564L492.035 568.291L488.823 564.664C485.331 568.604 478.933 572.199 474.872 575.4C473.721 576.877 472.492 578.42 471.191 579.961L471.187 579.956ZM545.734 506.266L547.664 508.411L544.115 511.477L542.185 509.332L545.734 506.266ZM538.701 514.909L536.078 523.673L532.867 519.974C531.662 520.206 530.024 520.139 528.629 520.912C538.697 511.274 534.808 517.099 538.705 514.914L538.701 514.909ZM443.602 610.282L445.569 612.465L440.798 616.636L438.871 614.416L443.602 610.282ZM453.07 602.081L457.838 597.982L459.805 600.165L454.999 604.299L453.07 602.081ZM555.574 503.788C555.363 503.045 555.333 502.262 555.485 501.505C555.638 500.748 555.969 500.038 556.452 499.435C556.739 500.945 556.424 502.507 555.574 503.788C556.57 507.192 560.865 509.417 553.484 514.962C546.784 512.84 553.015 508.626 555.575 503.795L555.574 503.788ZM572.575 489.394L574.541 491.576L569.919 495.604L567.953 493.422L572.575 489.394ZM483.531 582.146L477.616 587.279L475.614 585.059L483.531 582.146ZM429.723 633.906L432.329 636.83L427.634 640.93L425.065 637.969L429.723 633.906ZM647.519 430.277C647.005 430.486 646.565 430.624 646.015 430.868L645.578 430.86C642.431 431.749 639.51 432.277 639.969 431.048L645.578 430.86C646.164 430.652 646.859 430.483 647.518 430.277L645.873 428.428L649.422 425.362L651.955 428.286L651.252 428.891C653.524 428.06 652.899 428.376 651.067 429.07L648.442 431.315L647.519 430.277ZM543.14 531.668L539.591 534.734L536.985 531.81L540.534 528.744L543.14 531.668ZM611.72 472.247L606.95 476.418L604.381 473.458L609.114 469.322L611.72 472.247ZM585.086 494.072L587.053 496.255L583.467 499.356L581.54 497.136L585.086 494.072ZM662.505 416.539L665.075 419.426L660.344 423.489L657.809 420.639L662.505 416.539ZM761.248 312.862L763.819 315.75L759.088 319.812L756.555 316.889L761.248 312.862ZM611.617 455.537L611.653 455.574L623.595 445.2L624.881 446.678L621.221 449.851L623.683 452.7L620.169 455.803L617.671 452.916L612.94 456.979L613.547 457.682L609.998 460.748L608.031 458.565L611.617 455.537ZM605.462 455.678L602.929 452.755L606.441 449.725L609.047 452.649L605.462 455.678ZM543.329 479.831L547.886 473.289L558.299 473.264L549.17 474.769C545.309 479.067 550.083 482.905 551.09 483.579C550.91 483.466 550.66 483.278 550.154 482.979L543.329 479.831ZM508.654 513.775L510.617 516.032L505.886 520.095L503.92 517.912L508.654 513.775ZM585.884 442.935L592.841 434.293L585.402 447.192C583.475 444.972 581.549 442.751 576.602 444.517C577.02 451.842 569.168 457.34 563.4 462.403L572.69 451.726C572.676 451.361 572.596 451.002 572.454 450.666L570.903 452.023L568.37 449.1L569.183 448.386C567.369 448.062 565.222 447.985 563.901 446.541C567.65 434.264 585.064 439.792 585.881 442.938L585.884 442.935ZM484.519 521.885L488.105 518.783L489.427 520.228L485.841 523.329L484.519 521.885ZM542.616 462.416L544.543 464.636L540.995 467.701L539.029 465.519L542.616 462.416ZM552.506 438.352L558.325 444.904C554.132 447.303 550.453 445.267 546.364 450.144L543.079 446.516L552.506 438.352ZM419.525 578.205C417.728 579.009 417.777 578.246 418.417 576.911C416.027 574.064 415.554 572.165 419.051 565.71C424.705 567.125 419.855 573.806 418.417 576.911C418.779 577.356 419.169 577.761 419.526 578.204L419.525 578.205ZM524.259 462.877C524.016 462.495 523.684 462.177 523.293 461.949C525.201 463.186 525.937 464.765 524.259 462.877ZM438.311 545.131L435.705 542.207L440.473 538.108L443.08 541.032L438.311 545.131ZM412.453 570.211L408.904 573.277L406.977 571.057L410.526 567.991L412.453 570.211ZM511.509 467.372C515.346 460.38 519.245 460.124 521.92 461.193C517.747 460.572 512.154 470.117 511.511 467.374L511.509 467.372ZM550.133 426.182L546.694 429.213L544.124 426.326L547.6 423.26L550.133 426.182ZM552.371 419.088L557.066 414.988L559.673 417.913L554.904 422.012L552.371 419.088ZM385.279 579.534L387.206 581.754L382.51 585.854L380.509 583.634L385.279 579.534ZM406.611 561.033L411.342 556.97L413.875 559.893L409.216 563.957L406.611 561.033ZM545.276 439.453L543.349 437.233L547.971 433.205L549.898 435.425L545.276 439.453ZM727.93 230.659C736.137 223.53 749.417 219.805 754.594 225.692C752.502 232.713 742.224 237.622 735.878 244.459L723.197 234.795L727.93 230.659ZM393.766 546.309L391.159 543.384L395.818 539.32L398.425 542.244L393.766 546.309ZM368.948 570.46L364.253 574.488L362.29 572.231L367.022 568.168L368.948 570.46ZM430.114 497.942C432.041 500.162 428.63 505.742 428.731 508.292C425.254 511.358 422.313 515.054 419.165 513.941C425.724 509.475 429.069 501.526 430.115 497.942L430.114 497.942ZM400.244 527.825L396.659 530.926L394.696 528.669L398.245 525.603L400.244 527.825ZM427.136 485.144C422.026 481.773 421.113 473.566 413.813 474.739L436.966 472.729L438.049 469.108L458.671 464.101L461.372 455.413C461.238 452.901 457.62 453.523 455.719 453.776L453.527 458.323C445.269 453.838 448.586 443.268 453.926 439.836C453.449 444.159 459.771 448.935 465.284 448.128C467.476 443.582 467.31 438.518 474.546 434.902C467.651 446.059 484.881 434.952 474.376 446.586C475.018 447.325 475.547 448.097 476.084 448.802C476.156 448.803 476.191 448.769 476.264 448.767C476.371 448.951 476.439 449.171 476.545 449.355C477.545 450.466 478.809 451.035 481.125 449.731C481.778 447.957 483.537 445.115 482.216 443.599L491.57 435.507C493.02 433.937 494.645 432.538 496.412 431.337L491.57 435.507C486.028 442.14 511.901 432.498 500.835 436.442C499.956 445.017 481.474 454.614 490.796 460.721C469.075 468.219 480.267 457.068 476.506 449.39C476.332 449.222 476.177 449.036 476.042 448.835C464.628 449.973 463.89 460.843 457.505 467.788L466.524 466.244L429.613 476.301L427.136 485.144ZM386.681 512.428L383.133 515.493L380.6 512.57L384.076 509.503L386.681 512.428ZM506.661 426.472L502.002 430.536L500.075 428.316L504.734 424.252L506.661 426.472ZM580.633 354.482L584.183 351.344L586.788 354.341L583.239 357.406L580.633 354.482ZM519.716 429.407L516.203 432.439L514.809 430.921L518.358 427.855L519.716 429.407ZM468.379 475.131L464.829 478.197L462.902 475.977L466.451 472.911L468.379 475.131ZM462.147 481.498C455.867 482.009 449.546 481.511 443.424 480.023C451.115 479.834 455.988 482.003 462.151 481.496L462.147 481.498ZM406.025 534.413L415.553 528.801L415.261 532.946L406.025 534.413ZM441.006 507.903L439.115 505.72L442.592 502.654L444.519 504.874L441.006 507.903ZM471.665 478.689C469.002 480.134 466.078 481.033 463.063 481.334C466.06 480.95 468.97 480.055 471.665 478.689C474.026 477.433 475.876 475.395 476.9 472.925L475.854 476.51C474.309 477.425 472.987 478.057 471.666 478.687L471.665 478.689ZM431.715 518.652L433.571 520.798L430.059 523.828L428.165 521.719L431.715 518.652ZM539.418 418.707L545.443 413.54L546.73 415.018L540.777 420.187L539.418 418.707ZM453.688 434.922L448.992 439.021L447.062 436.876L451.758 432.777L453.688 434.922ZM596.095 369.549L598.023 371.769L593.254 375.868L591.327 373.648L596.095 369.549ZM442.1 433.433L438.478 436.57L435.872 433.646L439.458 430.545L442.1 433.433ZM449.426 420.572L446.857 417.611L450.332 414.617L452.902 417.504L449.426 420.572ZM680.922 193.93L669.908 193.177C674.598 189.152 679.536 189.971 680.922 193.93ZM665.37 188.108L667.941 190.995L664.318 194.132L661.749 191.172L665.37 188.108ZM608.136 144.784L613.253 149.719L605.462 158.02L600.305 153.192L608.136 144.784ZM577.201 272.29L572.467 276.425L569.255 272.798L577.201 272.29ZM652.122 177.703L654.692 180.59L649.813 184.796L647.243 181.836L652.122 177.703ZM672.661 144.298L664.345 151.532C657.082 152.599 649.166 155.584 644.916 152.956L655.274 141.248C664.235 134.751 669.881 138.894 672.659 144.3L672.661 144.298ZM595.739 199.674L587.983 208.013L582.829 203.114L590.62 194.813L595.739 199.674ZM634.015 128.767L636.584 131.727L631.815 135.826L629.209 132.902L634.015 128.767ZM628.099 133.899L615.322 135.92C620.045 134.37 627.043 125.689 628.1 133.9L628.099 133.899ZM604.059 140.988L596.303 149.327L591.182 144.536L598.973 136.234L604.059 140.988ZM545.409 169.866C541.388 173.365 537.001 176.421 532.325 178.98C535.428 174.413 539.784 170.926 543.302 167.533C547.08 163.889 549.944 160.411 549.336 155.704C543.928 150.546 560.978 155.852 545.406 169.869L545.409 169.866ZM271.372 426.522L266.639 430.657L264.068 427.77L268.8 423.708L271.372 426.522ZM358.748 310.689L355.346 313.684L352.81 310.834L356.25 307.803L358.748 310.689ZM294.516 379.438L296.446 381.584L292.187 381.468L294.516 379.438ZM478.664 187.02L473.472 182.082L479.372 175.747L484.637 180.614L478.664 187.02ZM502.78 142.943L497.589 138.08L503.266 132.032L508.42 136.931L502.78 142.943ZM559.612 126.265L551.783 134.603L546.772 129.777L554.564 121.402L559.612 126.265ZM524.109 112.283L516.279 120.694L512.412 116.982L520.206 108.534L524.109 112.283ZM493.633 118.637L497.011 115.022L501.388 110.37L505.292 114.047L500.579 119.093L497.5 122.35L493.633 118.637ZM481.108 137.373L486.947 132.384L485.904 135.824L481.108 137.373ZM496.653 129.105L494.12 126.182L498.89 122.011L501.459 124.972L496.653 129.105ZM484.624 148.506L482.054 145.619L485.64 142.518L488.21 145.405L484.624 148.506ZM452.26 181.511L460.09 173.1L463.993 176.777L456.127 185.224L452.26 181.511ZM367.199 277.506L365.304 275.397L369.963 271.333L371.893 273.478L367.199 277.506ZM381.424 267.721L383.351 269.941L378.655 274.041L376.764 271.858L381.424 267.721ZM133.541 511.172L131.578 508.916L136.273 504.888L138.239 507.071L133.541 511.172ZM325.604 334.368L328.101 337.255L323.405 341.354L320.87 338.504L325.604 334.368ZM170.759 491.874L168.189 488.987L172.885 484.887L175.455 487.774L170.759 491.874ZM194.314 471.379L191.779 468.529L195.219 465.498L197.789 468.385L194.314 471.379ZM272.475 397.136L270.545 394.991L275.388 390.821L277.279 393.004L272.475 397.136ZM299.539 371.085L296.933 368.161L301.666 364.025L304.273 366.95L299.539 371.085ZM245.681 425.609L247.536 427.755L242.877 431.819L240.986 429.636L245.681 425.609ZM219.96 455.569L217.389 452.682L220.938 449.616L223.471 452.539L219.96 455.569ZM339.428 342.917L336.859 339.956L341.516 335.965L344.086 338.852L339.428 342.917ZM200.152 484.692C200.435 483.132 200.64 481.789 199.006 481.504L203.429 480.53C204.625 479.262 206.174 478.383 207.876 478.006C209.577 477.629 211.353 477.772 212.972 478.416L203.429 480.53C202.166 481.774 201.066 483.173 200.153 484.692C199.95 485.501 199.837 486.329 199.818 487.162L198.462 487.61C196.693 490.82 195.036 494.064 192.928 495.881L196.542 495.329L194.176 497.397L188.359 490.773L198.426 487.647C198.992 486.603 199.59 485.667 200.154 484.695L200.152 484.692ZM122.431 571.179L119.861 568.292L123.298 565.334L125.867 568.294L122.431 571.179ZM185.096 512.963L183.169 510.743L187.9 506.68L189.827 508.9L185.096 512.963ZM170.057 533.693C174.109 528.926 180.2 526.273 182.806 529.196L170.057 533.693ZM518.212 196.891L525.894 188.623L531.049 193.522L523.331 201.753L518.212 196.891ZM295.307 427.693L292.774 424.77L296.396 421.633L298.929 424.556L295.307 427.693ZM534.194 192.704L540.13 186.406L545.25 191.27L539.35 197.604L534.194 192.704ZM562.163 175.673L567.211 180.536L564.056 183.936L559.343 188.983L554.296 184.12L562.163 175.673ZM156.247 581.92L153.714 578.997L157.263 575.931L159.833 578.818L156.247 581.92ZM555.46 208.896L559.396 212.607L551.641 220.946L547.812 217.198L555.46 208.896ZM524.438 242.18L532.231 233.805L536.093 237.587L528.338 245.853L524.438 242.18ZM549.149 226.145L556.904 217.878L562.17 222.745L554.377 231.121L549.149 226.145ZM183.233 595.89L180.664 592.929L185.359 588.901L187.965 591.826L183.233 595.89ZM312.555 467.365L316.562 463.07L324.178 462.665L312.555 467.365ZM219.256 565.939L222.946 565.242L221.46 573.115L219.256 565.939ZM548.456 253.148L554.357 246.814L559.585 251.642L553.61 258.048L548.456 253.148ZM340.784 474.7L338.214 471.813L342.984 467.641L345.552 470.601L340.784 474.7ZM175.832 639.737L173.262 636.85L178.032 632.678L180.602 635.565L175.832 639.737ZM198.113 629.409L195.615 626.522L199.164 623.457L201.699 626.307L198.113 629.409ZM413.561 427.116L410.993 424.156L415.687 420.129L418.256 423.089L413.561 427.116ZM426.099 420.103L424.816 418.699L427.219 416.596L428.467 418.033L426.099 420.103ZM260.749 582.948L266.426 576.9L271.617 581.763L265.903 587.847L260.749 582.948ZM395.994 459.229C399.755 458.607 402.505 453.306 405.363 447.967C403.177 452.373 405.227 459.982 395.993 459.23L395.994 459.229ZM412.481 444.901C408.264 444.532 406.385 445.844 405.402 447.865C406.557 445.57 407.848 443.346 409.266 441.205L417.048 450.013C417.73 450.981 418.678 451.732 419.776 452.175C422.119 450.872 424.719 450.098 427.393 449.906L427.567 450.383C435.706 445.035 444.047 432.412 443.553 439.83C436.353 443.482 436.596 448.472 434.972 453.688C435.074 456.166 438.081 454.911 441.054 453.545L438.387 462.343C434.057 462.226 431.151 466.032 428.895 467.992C428.83 465.552 430.444 462.778 427.902 462.367L431.627 461.708L427.569 450.31C424.806 452.116 422.096 453.012 419.747 452.058C416.185 453.777 412.543 455.93 408.701 457.06L412.481 444.901ZM260.842 612.622L256.257 616.615L253.651 613.691L258.345 609.663L260.842 612.622ZM242.773 625.685C246.222 620.069 239.957 620.315 248.412 615.596C247.972 619.883 253.05 623.143 248.241 627.352C246.454 627.645 242.914 628.126 242.775 625.684L242.773 625.685ZM291.091 590.172L293.624 593.095L288.928 597.195L286.395 594.271L291.091 590.172ZM265.252 620.46L263.25 618.241L266.91 615.068L268.837 617.288L265.252 620.46ZM291.167 604.266L288.597 601.379L292.146 598.313L294.679 601.236L291.167 604.266ZM374.405 527.059L375.826 516.672L379.074 520.337C377.393 523.177 377.384 525.618 374.411 527.056L374.405 527.059ZM409.724 493.709L420.083 492.59C423.39 490.904 427.172 491.119 430.88 491.405L442.084 490.192C438.775 492.024 434.847 491.733 430.88 491.405L420.083 492.59C417.496 493.967 415.444 496.172 414.257 498.853L416.553 494.414C414.022 493.858 409.828 496.329 409.729 493.705L409.724 493.709ZM365.288 556.816L357.045 563.98L355.723 562.465L363.966 555.301L365.288 556.816ZM299.882 609.67L297.384 606.783L302.115 602.72L304.65 605.571L299.882 609.67ZM338.013 577.828L341.636 574.691L343.599 576.948L340.013 580.049L338.013 577.828ZM315.517 606.538L314.16 605.057L316.452 603.06L317.774 604.575L315.517 606.538ZM382.936 538.871L387.631 534.771L389.594 537.028L384.898 541.128L382.936 538.871ZM241.067 685.221L238.534 682.297L243.23 678.198L245.8 681.085L241.067 685.221ZM251.983 683.494L250.092 681.311L253.678 678.21L255.569 680.392L251.983 683.494ZM340.804 632.311L338.838 630.129L342.424 627.027L344.315 629.21L340.804 632.311ZM335.773 643.104L333.204 640.143L336.678 637.149L339.248 640.109L335.773 643.104ZM304.41 683.224L301.804 680.299L306.535 676.236L309.104 679.197L304.41 683.224ZM362.207 644.716L360.28 642.496L363.386 639.787C363.903 639.359 364.385 638.895 364.866 638.431L363.01 636.285L367.743 632.149L369.137 633.738C370.087 632.436 370.714 630.926 370.965 629.333C365.826 623.486 365.655 635.242 358.252 633.94C359.773 626.104 349.699 619.365 359.768 611.943C359.492 606.913 357.637 604.768 353.271 604.614C355.246 604.212 358.821 603.697 360.58 600.927C361.583 595.667 359.669 594.937 356.629 595.866L358.913 598.456L354.182 602.519L351.611 599.632L355.457 596.281C349.406 598.754 340.322 606.012 339.684 600.904L346.712 592.336C343.64 591.077 338.194 594.399 336.807 590.442C348.942 587.68 355.228 592.494 367.03 579.751C354.22 596.043 383.01 583.941 368.384 597.98C381.397 586.716 397.689 581.593 404.413 582.191L402.26 586.63L411.272 585.307C414.98 591.89 407.154 597.936 397.428 604.382L397.786 604.753L394.274 607.783L393.56 606.969C388.658 610.03 383.954 613.396 379.475 617.048C376.434 619.483 373.885 622.475 371.965 625.865C373.288 627.309 374.066 630.493 378.866 628.868C376.003 632.273 372.176 634.605 368.204 636.863L365.54 639.146L365.147 638.665C364.744 638.915 364.265 639.159 363.86 639.406L365.755 641.514L362.207 644.716ZM409.456 603.723L407.49 601.541L412.222 597.478L414.149 599.698L409.456 603.723ZM309.658 713.575C306.417 707.399 316.486 699.899 320.438 692.659L328.558 694.629L322.569 699.834C322.473 697.284 318.818 697.871 315.878 699.197C314.126 704.478 318.657 709.694 309.669 713.57L309.658 713.575ZM402.89 624.939L400.995 622.831L405.728 618.695L407.694 620.806L402.89 624.939ZM521.456 511.798L520.575 505.993C525.949 502.67 528.792 496.351 533.689 497.28C534.656 503.007 525.558 506.916 521.468 511.792L521.456 511.798ZM612.842 428.66L615.412 431.547L611.79 434.683L609.257 431.76L612.842 428.66ZM430.276 606.402L431.598 607.846L428.087 610.876L426.804 609.472L430.276 606.402ZM423.317 614.974L425.283 617.156L411.197 629.383L409.27 627.163L423.317 614.974ZM371.788 667.465L369.822 665.282L373.408 662.181L375.335 664.401L371.788 667.465ZM399.959 647.09L392.328 648.368C396.976 640.808 398.794 645.065 399.959 647.09L401.494 646.826C400.956 648.563 400.528 648.044 399.96 647.085L399.959 647.09ZM403.392 646.498L400.786 643.573L404.261 640.579L406.867 643.503L403.392 646.498ZM418.427 628.277L423.977 627.36L421.676 631.942L418.427 628.277ZM426.335 627.804L431.104 623.705L433.673 626.666L428.942 630.729L426.335 627.804ZM396.909 667.635L394.303 664.711L397.854 661.573L400.423 664.533L396.909 667.635ZM406.475 661.914L404.509 659.731L409.205 655.632L411.132 657.852L406.475 661.914ZM415.526 646.245L416.571 642.734L426.982 642.781C424.082 644.003 418.391 642.55 415.523 646.246L415.526 646.245ZM443.002 630.261L441.074 628.041L445.77 623.941L447.736 626.124L443.002 630.261ZM451.317 623.028L449.39 620.807L454.012 616.779L455.939 618.999L451.317 623.028ZM486.909 590.775L494.924 590.412L486.716 597.541C484.068 597.092 485.901 594.323 486.909 590.774L486.909 590.775ZM414.757 669.024L413.399 667.472L421.642 660.308L423 661.86L414.757 669.024ZM523.282 565.781C533.454 560.836 546.394 549.571 551.404 550.392C543.768 558.33 530.889 572.111 519.834 571.249C522.506 576.758 515.609 587.845 510.883 589.541C501.308 583.54 516.754 572.65 523.283 565.78L523.282 565.781ZM464.503 630.916L461.933 628.029L465.519 624.928L468.016 627.814L464.503 630.916ZM461.06 636.462L457.474 639.564L455.618 637.418L459.204 634.316L461.06 636.462ZM459.1 627.834L461.066 630.016L456.289 634.183L454.327 631.926L459.1 627.834ZM434.798 651.631L437.295 654.517L432.562 658.653L429.992 655.766L434.798 651.631ZM421.689 674.506L419.047 671.545L423.778 667.482L426.42 670.444L421.689 674.506ZM479.656 620.314L477.726 618.169L482.42 614.141L484.315 616.25L479.656 620.314ZM558.137 544.402C569.655 533.293 543.388 544.533 559.749 531.472C552.389 531.48 558.022 524.122 559.999 521.428L559.305 521.525C561.041 519.989 560.855 520.316 559.999 521.428L564.818 520.643L567.413 511.845C567.111 518.648 582.759 512.784 571.608 523.754L562.482 525.188L563.87 543.451C561.906 543.113 559.886 543.447 558.136 544.399L558.137 544.402ZM432.099 674.476L429.564 671.626L434.295 667.563L436.83 670.413L432.099 674.476ZM447.689 663.661L445.688 661.441L450.384 657.342L452.385 659.561L447.689 663.661ZM457.749 644.592L474.04 639.468L473.106 642.946L457.749 644.592ZM481.485 634.364L479.486 632.069L484.256 627.898L486.294 630.155L481.485 634.364ZM496.492 627.688L493.922 624.801L497.471 621.735L500.077 624.659L496.492 627.688ZM469.994 658.398C469.993 658.47 469.993 658.47 470.027 658.505L467.735 660.502C468.571 659.895 469.329 659.188 469.992 658.396C469.097 649.167 473.864 653.517 469.99 658.394L469.994 658.398ZM423.02 704.421L420.451 701.46L425.219 697.361L427.826 700.286L423.02 704.421ZM466.581 664.051L469.188 666.976L464.419 671.075L461.813 668.15L466.581 664.051ZM454.388 678.389L456.315 680.609L451.583 684.671L449.653 682.526L454.388 678.389ZM449.721 685.113L451.651 687.188L445.773 692.285L443.878 690.177L449.721 685.113ZM350.304 781.79L356.094 775.489L359.926 779.092L354.136 785.392L350.304 781.79ZM452.898 688.703L462.171 687.201L459.76 691.817L452.898 688.703ZM480.953 670.946L481.456 669.244L475.413 669.206L482.538 665.697L481.418 669.279L485.677 669.322L480.953 670.946ZM506.943 648.38C516.097 649.422 501.884 656.551 506.847 660.065L499.949 656.916L505.527 658.548L506.943 648.38ZM396.19 766.436C404.915 771.258 395.169 781.016 387.532 788.882C395.117 779.481 378.88 775.321 396.184 766.431L396.19 766.436ZM484.037 697.937L481.395 694.976L484.944 691.91L487.513 694.87L484.037 697.937ZM468.963 718.701L467.072 716.519L469.438 714.451L471.329 716.633L468.963 718.701ZM497.72 689.963L502.351 683.35L505.527 686.94L497.72 689.963ZM499.925 697.066L501.854 699.211L499.414 701.351L497.523 699.169L499.925 697.066ZM474.312 727.065L472.313 724.771L475.788 721.776L477.751 724.033L474.312 727.065ZM488.023 721.639L486.061 719.383L490.83 715.284L492.792 717.54L488.023 721.639ZM525.14 685.483L525.58 681.195L528.827 684.86L525.14 685.483ZM513.513 700.773L516.084 703.66L511.388 707.76L508.818 704.873L513.513 700.773ZM494.523 728.892L491.842 725.968L496.611 721.869L499.292 724.793L494.523 728.892ZM505.278 722.025L503.422 719.879L506.898 716.812L508.828 718.957L505.278 722.025ZM758.133 479.503C752.858 485.449 746.807 487.994 737.073 488.724C734.804 479.034 748.664 473.466 748.181 463.552C745.108 462.367 745.374 455.598 739.427 458.33C730.465 464.75 719.515 466.444 716.946 477.789C710.172 465.504 728.634 450.846 747.766 439.404C752.027 453.755 747.395 460.44 760.991 461.565C760.804 468.201 774.354 471.946 758.129 479.51L758.133 479.503ZM520.42 718.081L518.493 715.861L523.189 711.762L525.116 713.982L520.42 718.081ZM561.654 679.671L559.085 676.711L563.78 672.684L566.386 675.608L561.654 679.671ZM569.435 688.48L566.793 685.519L571.489 681.419L574.095 684.343L569.435 688.48ZM502.087 758.517L500.086 756.298L503.635 753.232L505.598 755.489L502.087 758.517ZM539.088 739.288L536.518 736.327L541.213 732.3L543.783 735.187L539.088 739.288ZM515.373 769.03L513.402 766.776L518.097 762.749L519.988 764.932L515.373 769.03ZM543.618 744.428L541.727 742.246L546.423 738.146L548.35 740.366L543.618 744.428ZM520.414 774.108L527.503 766.411L526.073 764.785L530.804 760.722L532.77 762.904L528.739 766.363L533.213 770.706L525.459 778.972L520.414 774.108ZM580.825 713.407L585.596 709.236L588.165 712.197L583.431 716.332L580.825 713.407ZM602.085 696.981C602.779 694.809 603.692 692.568 604.35 690.36C604.928 692.665 603.58 694.895 602.085 696.981C601.159 699.948 600.71 702.744 602.566 704.817C596.138 703.798 599.395 700.727 602.082 696.99L602.085 696.981ZM613.115 707.379L615.01 709.487L612.607 711.591L610.716 709.408L612.134 699.168L613.115 707.379ZM493.938 815.678L501.621 807.334L505.524 811.011L497.696 819.349L493.938 815.678ZM463.28 861.347L471.072 853.045L474.942 856.611L467.185 865.023L463.28 861.347ZM613.966 741.482L614.242 746.439L608.862 735.672L613.966 741.482ZM588.28 771.479L585.712 768.519L589.188 765.453L591.83 768.414L588.28 771.479ZM559.974 807.653L558.047 805.433L562.743 801.333L564.67 803.554L559.974 807.653ZM860.891 523.425L863.46 526.386L859.912 529.451L857.343 526.491L860.891 523.425ZM662.269 725.374L659.699 722.487L664.469 718.316L667.074 721.239L662.269 725.374ZM640.271 754.82L642.877 757.745L639.364 760.846L636.76 757.849L640.271 754.82ZM615.538 790.552L613.61 788.332L617.196 785.231L619.124 787.451L615.538 790.552ZM636.117 771.346C635.506 770.646 634.836 770 634.115 769.414C632.036 769.631 629.481 770.02 628.001 769.302C630.868 767.753 632.642 768.259 634.115 769.414C637.507 769.076 639.614 769.334 633.854 775.962L636.117 771.346ZM602.464 813.464L600.573 811.282L606.452 806.184L608.343 808.367L602.464 813.464ZM579.752 846.246L581.898 836.02L588.235 842.071L579.752 846.246ZM656.339 784.75L658.943 787.748L655.283 790.92L652.714 787.96L656.339 784.75ZM627.315 820.329L626.098 821.364L624.168 819.219L625.274 818.291L632.955 810.096L638.112 814.924L630.321 823.226L627.315 820.329ZM719.236 737.967L716.665 735.08L720.179 731.977L722.712 734.9L719.236 737.967ZM693.955 778.019L692.064 775.836L695.576 772.807L697.467 774.989L693.955 778.019ZM772.87 704.408L770.337 701.485L775.032 697.385L777.565 700.309L772.87 704.408ZM827.582 653.067L825.545 650.811L830.35 646.676L832.313 648.933L827.582 653.067ZM826.675 659.095L819.452 674.361C821.624 667.267 815.898 665.778 826.683 659.097L826.675 659.095ZM795.654 692.378L797.581 694.598L792.886 698.626L790.997 696.37L795.654 692.378ZM736.014 756.991L734.087 754.771L737.599 751.741L739.526 753.962L736.014 756.991ZM729.797 768.927L727.834 766.67L732.567 762.534L734.53 764.791L729.797 768.927ZM837.602 671.46L864.032 644.681L862.373 649.929L837.602 671.46ZM714.247 793.942L716.21 796.199L712.734 799.266L710.735 796.971L714.247 793.942ZM684.037 830.588L681.395 827.627L686.202 823.42L688.806 826.417L684.037 830.588ZM863.195 681.615L860.553 678.654L865.284 674.591L867.926 677.552L863.195 681.615ZM839.717 718.718L838.43 717.24L844.374 714.656L839.717 718.718ZM816.423 801.002L822.265 795.867C823.926 790.473 815.375 790.206 808.638 792.19L820.357 782.031L827.81 797.457C825.051 801.198 819.969 800.375 816.427 801.002L816.423 801.002ZM818.181 814.833L816.933 813.395L820.482 810.329L821.73 811.767L818.181 814.833ZM814.431 827.178L813.109 825.663L819.025 820.531L820.347 822.046L814.431 827.178ZM824.002 835.692L822.074 833.472L826.844 829.301L828.772 831.521L824.002 835.692ZM806.708 858.454L804.102 855.53L811.23 851.876C809.509 854.755 809.685 857.161 806.713 858.453L806.708 858.454Z" fill="white"/>
</svg>
