<svg width="696" height="653" viewBox="0 0 696 653" fill="none" xmlns="http://www.w3.org/2000/svg">
<g opacity="0.3">
<path d="M419.154 141.543C419.156 141.557 419.17 141.555 419.178 141.561L419.154 141.543Z" fill="white"/>
<path d="M586.048 410.764L584.814 412.632L581.933 410.731L585.045 405.921L585.831 406.427C585.711 404.476 585.468 402.563 585.312 400.617L580.911 400.633L585.246 399.959C582.494 366.094 574.752 332.821 562.27 301.22L561.974 301.583L560.46 300.359L561.425 299.164C558.645 292.322 555.629 285.597 552.379 278.989L545.063 274.861L550.618 277.356L552.208 278.607C531.275 236.133 500.924 198.802 461.238 169.958C453.524 164.351 445.587 159.225 437.503 154.474L435.209 156.44L435.129 157.828L432.511 158.786L435.23 156.455L435.442 153.298C433.09 151.942 430.708 150.599 428.336 149.322L427.721 149.904C427.887 149.681 428.064 149.467 428.253 149.262C424.724 147.372 421.174 145.563 417.571 143.813L419.022 144.991L417.047 147.445L415.512 146.206L417.493 143.788C408.607 139.464 399.506 135.596 390.225 132.199L384.324 139.482L383.578 138.876L389.26 131.851C382.684 129.482 376.052 127.351 369.364 125.459L370.37 126.286L368.843 128.166L367.284 126.909L368.643 125.261C364.152 123.99 359.623 122.83 355.055 121.782L352.862 124.493L351.695 123.548L354.83 121.747C352.576 121.233 350.343 120.735 348.097 120.293L347.771 120.698L350.378 122.401L347.977 126.056L345.008 124.059L347.057 120.887L345.824 119.894L345.87 119.831C341.499 118.968 337.098 118.191 332.666 117.499L333.391 118.09L332.622 119.235L333.749 120.022L331.363 123.656L330.184 122.896L325.062 130.649L325.829 131.27C323.675 138.641 315.916 143.547 310.512 146.306C318.912 134.44 322.664 128.263 329.977 117.056C313.734 114.692 297.335 113.574 280.922 113.71L277.618 116.007L278.002 113.714C222.674 114.637 166.27 129.159 113.686 156.456C107.932 190.579 106.788 225.32 110.284 259.747C110.843 259.376 111.421 259.034 112.017 258.724L111.036 259.94C110.795 260.183 110.588 260.386 110.34 260.591C119.799 349.5 161.47 430.231 233.819 482.816C269.797 508.916 311.234 526.503 355.002 534.247C355.593 533.455 356.088 532.596 356.478 531.688C357.223 532.294 357.929 533.835 360.12 532.631C362.53 530.461 361.492 528.582 361.676 526.786L359.981 527.355L366.333 523.421C364.54 526.908 362.22 530.975 359.715 535.038C432.491 547.01 510.421 533.153 581.362 496.339C586.082 468.075 587.653 439.374 586.048 410.764ZM112.227 213.742L112.211 213.28C112.482 212.995 112.686 212.76 112.888 212.519C114.076 210.714 115.654 209.418 112.888 212.519C112.629 212.904 112.407 213.313 112.224 213.74L112.319 215.416C111.882 215.099 111.946 214.438 112.227 213.742ZM112.496 220.688L116.197 214.538L115.732 218.218C114.376 219.161 113.094 219.162 112.496 220.688L112.496 220.688ZM111.169 231.682C114.993 227.743 118.067 220.075 123.521 220.374C116.069 222.513 117.26 230.446 111.169 231.683L111.169 231.682ZM138.786 202.28L137.259 201.074L139.25 198.599L140.764 199.823L138.786 202.28ZM143.667 197.019L142.906 196.435L143.902 195.197L144.647 195.803L143.667 197.019ZM118.246 252.578L120.906 251.651L122.797 253.149L118.246 252.578ZM135.147 248.852L133.235 247.339L137.621 245.801L135.147 248.852ZM136.185 257.74L135.036 256.808L136.532 254.971L137.681 255.902L136.185 257.74ZM139.647 253.505L138.498 252.574L140.51 250.114L141.674 251.025L139.647 253.505ZM144.099 251.92L142.54 250.663L144.037 248.825L145.596 250.082L144.099 251.92ZM148.313 265.43L146.779 264.191L148.754 261.737L150.326 262.976L148.313 265.43ZM165.193 261.689L163.621 260.45L165.633 257.99L167.147 259.214L165.193 261.689ZM313.055 136.189C310.536 139.303 308.057 142.36 304.874 143.872C306.027 138.637 309.785 138.669 313.059 136.192L313.055 136.189ZM257.536 210.151L259.07 211.39L257.095 213.844L255.536 212.587L257.536 210.151ZM177.479 281.646L176.351 280.73L178.341 278.255L179.469 279.171L177.479 281.646ZM179.394 283.199L177.822 281.96L179.812 279.485L181.384 280.724L179.394 283.199ZM267.708 175.755L266.58 174.839L268.015 173.085L269.143 174.001L267.708 175.755ZM191.318 292.67L190.154 291.759L192.144 289.284L193.327 290.208L191.318 292.67ZM277.568 177.617L279.115 178.838L277.125 181.313L275.579 180.089L277.568 177.617ZM166.913 329.774L172.468 332.269C169.343 333.791 165.536 333.782 166.913 329.774ZM193.352 303.406L191.818 302.167L193.314 300.329L194.848 301.568L193.352 303.406ZM263.82 207.069L262.293 205.863L264.269 203.409L265.816 204.63L263.82 207.069ZM173.374 339.003L172.246 338.087L174.236 335.612L175.38 336.507L173.374 339.003ZM346.762 313.709L347.905 314.605L346.393 316.463L345.229 315.553L346.762 313.709ZM338.655 314.37L339.799 315.266L338.342 317.1L337.214 316.184L338.655 314.37ZM442.262 161.563L443.788 162.769L441.798 165.244L440.251 164.023L442.262 161.563ZM413.169 205.997L411.162 208.495L410.013 207.564L412.041 205.081L413.169 205.997ZM433.482 164.472C433.236 164.325 432.99 164.179 432.739 163.996C432.896 163.991 433.051 164.035 433.184 164.119C433.316 164.204 433.42 164.327 433.482 164.472C435.176 165.579 437.057 165.945 439.785 164.617L434.765 167.687C433.055 171.362 438.937 167.986 434.97 172.915C435.734 170.673 433.181 168.368 431.629 167.24C429.889 166.232 430.456 166.387 431.629 167.24C431.71 167.299 431.791 167.325 431.896 167.402L433.637 166.771C433.772 166.003 433.718 165.213 433.48 164.471L433.482 164.472ZM426.98 179.678L425.816 178.767L427.791 176.313L428.955 177.224L426.98 179.678ZM396.832 205.151L400.274 207.909L393.342 209.424L396.832 205.151ZM385.505 216.329L388.52 218.263L386.109 221.976L383.109 220.02L385.505 216.329ZM399.014 194.744L400.52 195.935L398.53 198.41L397.003 197.204L399.014 194.744ZM424.98 154.787C423.523 156.621 422.397 158.825 420.748 158.494C422.457 154.819 421.425 156.062 424.978 154.787L424.98 154.787ZM409.626 176.932L408.145 178.749L406.573 177.51L408.03 175.675L409.626 176.932ZM418.076 156.394L416.58 158.232C416.571 158.606 416.461 158.97 416.262 159.287C416.482 160.571 416.024 161.685 413.087 162.508L412.196 162.632C411.587 162.896 411.101 162.993 410.906 162.819L412.196 162.632C413.85 161.939 415.26 160.768 416.247 159.27C415.982 157.696 414.645 155.92 415.349 154.246L418.076 156.394ZM408.482 158.839L409.61 159.755L407.629 162.173L406.506 161.293L408.482 158.839ZM412.53 149.92L413.275 150.526L410.784 153.601L410.06 153.011L412.53 149.92ZM406.259 142.855L408.706 146.851L402.486 149.016L402.185 151.723C397.737 147.172 407.79 147.182 406.259 142.853L406.259 142.855ZM400.076 145.015L401.225 145.946L399.728 147.784L398.579 146.852L400.076 145.015ZM396.798 137.359L392.376 138.903C396.364 133.99 390.829 137.682 392.177 133.711L396.798 137.359ZM379.708 135.835L381.235 137.041L379.26 139.495L377.746 138.271L379.708 135.835ZM377.277 131.818L378.405 132.734L376.878 134.614L375.735 133.719L377.277 131.818ZM353.418 155.559L356.556 150.668L358.816 152.187L357.316 154.472L355.637 157.046L354.789 156.493L353.418 155.559ZM347.866 167.341L350.16 163.832L353.145 165.809L350.887 169.311L347.866 167.341ZM331.372 194.442L329.129 192.936L332.287 188.061L334.548 189.543L331.372 194.442ZM348.068 173.276L349.615 174.497L347.64 176.951L346.113 175.744L348.068 173.276ZM370.13 138.293C374.831 136.631 370.563 137.867 369.252 139.809C369.172 140.493 369.317 141.174 369.23 141.69C369.014 141.423 368.897 141.089 368.901 140.745C368.905 140.402 369.029 140.071 369.252 139.809C369.274 139.506 369.365 139.213 369.517 138.95C369.669 138.688 369.879 138.464 370.131 138.294L370.13 138.293ZM374.352 131.558L371.846 134.655L370.094 135.214L374.352 131.558ZM370.761 126.633L372.303 127.818L370.725 129.725L369.199 128.519L370.761 126.633ZM343.909 143.956L341.616 142.483L343.934 138.896L346.202 140.448L343.909 143.956ZM352.514 127.354L349.371 132.206L346.408 130.245L349.514 125.399L352.514 127.354ZM325.886 158.568L324.39 160.406L322.856 159.167L324.337 157.351L325.886 158.568ZM345.688 127.922L346.831 128.817L344.835 131.256L343.697 130.397L345.688 127.922ZM328.359 145.416L329.487 146.332L327.49 148.771L326.362 147.855L328.359 145.416ZM323.391 151.545L324.519 152.462L322.512 154.959L321.371 154.026L323.391 151.545ZM326.657 142.026L327.84 142.95L325.829 145.41L324.646 144.486L326.657 142.026ZM311.998 161.621L314.695 163.775C312.616 167.209 310.348 168.394 307.956 170.578L309.274 166.553C307.917 167.495 306.527 168.349 306.23 167.169L312.455 165.04L311.998 161.621ZM193.633 324.826C193.627 324.79 193.627 324.79 193.642 324.769C194.141 321.659 195.552 318.924 193.642 324.769C193.647 324.789 193.643 324.809 193.633 324.826C196.145 324.852 194.935 327.927 196.122 328.853C193.466 329.785 193.267 327.232 193.638 324.831L193.633 324.826ZM222.293 301.584C220.827 301.708 219.74 303.554 218.366 305.224L216.267 298.458C217.088 299.665 220.333 300.931 222.293 301.584C222.42 301.58 222.556 301.486 222.692 301.521C224.658 302.21 223.898 302.108 222.293 301.584ZM212.108 325.428L210.581 324.222L212.093 322.364L213.607 323.587L212.108 325.428ZM326.626 167.207L325.085 169.591L322.137 167.608L325.249 162.798L327.463 164.247L328.974 161.905L331.255 163.44L328.137 168.214L326.626 167.207ZM325.653 173.571L328.069 169.895L331.054 171.871L328.653 175.527L325.653 173.571ZM350.69 143.355L353.648 145.28L351.309 148.852L348.351 146.927L350.69 143.355ZM344.239 158.051L347.372 153.256L349.632 154.739L346.484 159.555L344.239 158.051ZM363.396 137.16C361.404 138.445 358.687 138.173 356.668 139.76C356.242 140.721 355.625 141.585 354.854 142.299C355.227 141.309 355.852 140.433 356.668 139.76C358.304 135.966 353.784 134.031 355.906 134.063C359.429 132.831 361.264 128.19 364.09 125.449C370.937 127.886 364.304 130.62 362.723 136.542C362.965 136.728 363.191 136.933 363.398 137.157C363.434 137.151 363.465 137.109 363.499 137.106C363.49 137.161 363.492 137.216 363.503 137.27C364.871 138.65 365.563 140.342 364.904 143.234C364.374 143.556 363.823 143.843 363.255 144.093C362.83 144.728 362.274 145.267 361.626 145.673C361.775 145.312 361.996 144.985 362.276 144.714C362.557 144.442 362.89 144.23 363.255 144.093C364.797 141.838 363.33 139.449 363.506 137.268C363.466 137.235 363.429 137.198 363.395 137.159L363.396 137.16ZM244.234 307.63L243.091 306.735L244.587 304.897L245.73 305.793L244.234 307.63ZM322.837 203.673L321.323 202.449L323.334 199.989L324.861 201.195L322.837 203.673ZM256.29 309.161C255.243 307.339 252.23 307.913 253.931 304.296L249.555 305.776L254.007 300.268C260.339 300.241 260.265 301.184 260.698 307.638C258.691 310.134 259.377 304.562 256.291 309.161L256.29 309.161ZM342.108 187.686L345.143 189.635L342.732 193.348L339.728 191.357L342.108 187.686ZM265.152 309.172C262.153 309.725 263.869 302.164 264.947 303.944L269.155 304.238L265.152 309.172ZM357.814 183.093L356.267 181.872L358.278 179.412L359.805 180.619L357.814 183.093ZM363.777 175.726L362.23 174.505L364.205 172.051L365.753 173.273L363.777 175.726ZM279.306 310.425C277.495 307.984 271.753 310.369 272.77 305.225C273.832 310.111 279.795 302.744 281.792 307.314L279.306 310.425ZM356.426 191.052L357.922 189.214L359.469 190.435L357.973 192.273L356.426 191.052ZM334.895 232.4L336.855 229.967L338.39 231.205L336.424 233.602L334.895 232.4ZM334.935 235.519L332.907 238.002L331.373 236.763L333.363 234.288L334.935 235.519ZM340.198 226.647L339.055 225.752L340.551 223.914L341.679 224.83L340.198 226.647ZM368.699 184.612C371.068 179.325 376.505 175.943 375.126 171.537C371.352 169.014 384.921 171.065 368.702 184.608L368.699 184.612ZM316.947 261.634L315.4 260.412L317.375 257.958L318.922 259.179L316.947 261.634ZM363.227 194.741L366.324 189.952L369.308 191.928L366.191 196.702L363.227 194.741ZM370.8 191.244L373.2 187.589L376.164 189.55L373.784 193.221L370.8 191.244ZM377.428 188.604L375.869 187.347L377.865 184.909L379.399 186.147L377.428 188.604ZM380.029 185.158L383.209 180.299L386.136 182.266L382.963 187.16L380.029 185.158ZM377.759 199.037L376.631 198.12L378.625 195.64L379.769 196.536L377.759 199.037ZM396.364 171.411L399.821 164.055C399.744 163.779 399.569 163.541 399.329 163.384C399.089 163.227 398.8 163.163 398.517 163.204L397.886 164.16L397.122 163.668C397.049 163.705 396.973 163.736 396.894 163.76C396.346 168.307 388.05 173.856 391.875 176.926L387.755 176.6L390.216 173.567C389.567 172.035 386.81 173.888 385.079 174.462C383.489 170.216 372.528 173.569 378.328 164.091C374.629 165.388 373.183 163.277 372.533 160.426L371.366 159.481L371.754 158.991L371.607 158.885L372.131 158.076C371.628 153.917 371.773 149.619 368.965 151.499L368.802 149.388C367.934 149.657 366.672 149.672 366.039 151.205L366.269 149.347C371.936 147.809 372.216 142.001 375.505 139.504C378.38 139.825 377.047 143.775 376.822 145.669C376.184 144.079 374.807 145.04 373.875 145.359C373.692 147.154 372.063 149.924 374.132 150.56C376.521 151.461 382.684 149.286 380.396 150.581L381.141 151.187C382.076 150.87 383.338 150.854 383.966 149.283C384.443 147.702 384.933 145.743 384.547 144.562C383.994 144.256 383.466 143.905 382.97 143.513C383.315 143.47 383.664 143.553 383.953 143.746C384.242 143.938 384.453 144.228 384.547 144.562C386.665 145.748 389.197 146.142 391.896 143.442L392.028 145.596C393.806 144.959 396.133 142.857 397.127 144.705C395.152 147.159 396.087 149.928 394.841 153.008C396.274 152.057 397.48 152.066 398.15 150.527L397.553 155.14L395.662 153.642C387.998 157.619 396.637 159.398 394.298 164.644L396.061 162.968L394.946 162.254L398.094 157.437L400.27 158.895L402.873 156.416C402.391 157.32 402.097 158.313 402.011 159.334C401.924 160.355 402.046 161.383 402.369 162.355L403.328 160.866L406.297 162.863L404.487 165.662C404.789 165.963 405.106 166.247 405.438 166.514C405.019 166.343 404.577 166.238 404.126 166.203L403.152 167.713L401.562 166.682C399.408 167.72 397.602 169.363 396.365 171.41L396.364 171.411ZM402.319 171.11L400.838 172.927L399.324 171.703L400.82 169.865L402.319 171.11ZM392.347 180.29C395.685 178.827 393.747 179.861 392.399 181.453C392.369 182.331 392.338 183.08 393.204 183.035L391.49 183.718C391.465 183.296 391.533 182.875 391.69 182.483C391.846 182.091 392.087 181.739 392.396 181.451C392.434 181.063 392.418 180.671 392.347 180.288L392.347 180.29ZM382.761 197.401L384.107 198.283L384.233 198.109L385.377 199.004L383.911 200.8L383.83 200.741L381.897 203.708L379.667 202.184L382.761 197.401ZM370.225 216.676L373.368 211.823L375.615 213.36L372.482 218.155L370.225 216.676ZM303.804 316.79L302.277 315.584L304.237 313.151L305.751 314.375L303.804 316.79ZM381.109 206.551L384.242 201.756L387.277 203.705L384.134 208.557L381.109 206.551ZM390.295 199.952L392.617 194.729C387.789 196.876 388.032 191.074 387.517 188.61C390.008 188.621 388.793 191.66 388.943 193.793L396.118 191.68L398.982 187.299L401.984 189.251L398.857 194.082L396.391 192.45L390.295 199.952ZM284.585 347.373L286.202 344.884L289.948 344.007L284.585 347.373ZM337.461 290.104L336.312 289.172L338.293 286.754L339.457 287.665L337.461 290.104ZM380.936 231.787L382.45 233.011L380.938 234.87L379.424 233.646L380.936 231.787ZM364.908 254.985L363.179 256.043C363.632 255.519 364.236 255.15 364.908 254.985L371.818 250.813L367.601 257.585C366.748 256.901 366.295 254.836 364.906 254.983L364.908 254.985ZM372.936 258.795L371.808 257.879L374.299 254.803L375.427 255.719L372.936 258.795ZM333.184 317.985L331.637 316.764L333.133 314.926L334.647 316.15L333.184 317.985ZM430.533 184.575L429.405 183.659L430.902 181.821L432.03 182.737L430.533 184.575ZM268.873 409.377L271.167 405.869L274.167 407.824L271.858 411.353L268.873 409.377ZM374.358 271.079L372.844 269.855L374.855 267.395L376.402 268.616L374.358 271.079ZM353.502 317.096L352.374 316.18L353.862 314.304L355.011 315.235L353.502 317.096ZM516.694 238.166L518.221 239.372L516.734 241.248L515.2 240.01L516.694 238.166ZM367.468 302.945L368.617 303.877L366.606 306.337L365.441 305.426L367.468 302.945ZM361.91 315.044L358.789 315.283C362.289 312.716 361.177 314.511 361.91 315.044L363.507 314.919C362.609 315.229 362.143 315.21 361.912 315.043L361.91 315.044ZM372.013 313.708C369.226 316.44 368.758 313.073 367.081 312.823L373.989 311.254L372.013 313.708ZM381.394 313.1L379.835 311.843L381.831 309.404L383.378 310.625L381.394 313.1ZM385.678 309.367L384.131 308.146L386.106 305.692L387.653 306.913L385.678 309.367ZM335.264 485.408L332.431 488.203C333.283 487.182 334.232 486.246 335.264 485.408L341.461 479.304L341.226 481.126C339.432 482.36 337.255 483.769 335.264 485.408ZM334.102 491.537L336.099 489.098L337.613 490.322L335.616 492.761L334.102 491.537ZM330.591 500.204L332.92 496.56L335.134 498.009L332.806 501.653L330.591 500.204ZM349.338 483.579L347.845 482.37L349.318 480.515L350.831 481.739L349.338 483.579ZM352.041 488.501C356.791 490.121 352.798 495.834 349.689 500.421C352.645 495.083 344.22 494.457 352.044 488.505L352.041 488.501ZM367.533 497.029L377.985 484.147C376.497 486.027 372.679 493.088 367.536 497.033L367.533 497.029ZM527.826 264.191L538.498 269.698L535.851 270.606L527.826 264.191ZM355.219 521.641L354.453 521.02L357.705 518.529L355.219 521.641ZM374.274 500.45L373.146 499.534L375.652 496.437L376.78 497.354L374.274 500.45ZM529.238 405.866L530.387 406.798C529.739 408.351 528.565 408.334 526.747 408.941L529.238 405.866ZM461.137 497.012L459.64 498.849L458.106 497.611L459.602 495.773L461.137 497.012ZM541.035 385.893L542.607 387.132L540.615 389.607L539.039 388.338L541.035 385.893ZM509.805 426.745L510.969 427.655L509.458 429.514L508.314 428.588L509.805 426.745ZM528.413 368.743L526.917 370.58L525.734 369.656L527.23 367.819L528.413 368.743ZM526.344 347.918L527.891 349.139L526.378 351.002L524.851 349.796L526.344 347.918ZM500.457 379.831L502.004 381.052L500.028 383.506L498.494 382.267L500.457 379.831ZM422.756 459.277L423.924 460.222L422.412 462.081L421.244 461.136L422.756 459.277ZM406.13 474.393L403.669 477.426L401.024 478.332L406.13 474.393ZM381.556 506.264L380.79 505.643L384.063 503.167L381.556 506.264ZM396.994 487.235L396.234 486.65L397.761 484.77L398.542 485.37L396.994 487.235ZM410.153 479.535L408.627 478.32L410.623 475.882L412.15 477.088L410.153 479.535ZM414.385 481.293L417.491 476.446L420.461 478.444L417.328 483.239L414.385 481.293ZM556.325 296.099L553.849 299.154L552.082 299.734L556.325 296.099ZM404.847 504.289L407.938 499.464L410.198 500.946L407.035 505.783L404.847 504.289ZM393.588 529.699L396.736 524.883L398.966 526.311L395.844 531.179L393.588 529.699ZM530.273 360.2L531.845 361.439L529.838 363.936L528.266 362.697L530.273 360.2ZM495.324 411.148L496.796 409.293L497.94 410.188L496.458 412.005L495.324 411.148ZM465.967 454.361L467.514 455.582L465.472 458.084L463.945 456.878L465.967 454.361ZM437.381 498.232L435.834 497.011L437.33 495.173L438.877 496.394L437.381 498.232ZM550.684 352.21C550.496 351.888 550.197 351.647 549.843 351.532C549.489 351.417 549.105 351.437 548.765 351.587C547.605 352.202 546.354 352.629 545.06 352.851C546.313 352.669 547.634 351.861 548.765 351.587C551.149 350.556 552.97 349.945 549.917 354.675L550.684 352.21ZM487.055 443.942L485.913 443.002L487.894 440.585L489.037 441.48L487.055 443.942ZM459.142 492.353L460.676 493.591L458.701 496.045L457.174 494.839L459.142 492.353ZM450.097 511.85L450.276 506.579L453.946 509.022L450.097 511.85ZM516.808 428.309L515.236 427.07L516.732 425.233L518.266 426.471L516.808 428.309ZM547.231 386.803L545.717 385.579L547.19 383.724L548.703 384.948L547.231 386.803ZM563.547 363.076L565.811 359.256C563.473 364.5 576.205 356.46 570.604 361.036C568.348 361.895 565.761 360.208 563.553 363.071L563.547 363.076ZM470.253 493.904L473.355 489.151L476.334 491.091L473.186 495.907L470.253 493.904ZM550.328 419.659L549.184 418.764L554.219 418.758L550.328 419.659ZM570.389 469.023L568.83 467.766L570.842 465.306L572.401 466.563L570.389 469.023ZM580.826 466.258C580.108 465.704 579.615 464.927 578.914 464.745L577.153 465.361C577.913 464.756 578.467 464.612 578.914 464.745L583.336 463.201L580.826 466.258Z" fill="white"/>
</g>
</svg>
