<svg width="903" height="943" viewBox="0 0 903 943" fill="none" xmlns="http://www.w3.org/2000/svg">
<path d="M230.778 942.015L227.215 939.129L231.683 933.628L240.86 940.94L239.666 942.442C243.672 942.587 247.625 942.471 251.626 942.541L252.497 933.554L252.983 942.539C323.822 943.45 393.324 934.408 459.145 915.321L458.464 914.643L461.277 911.803L463.518 914.012C478.052 909.701 492.393 904.886 506.54 899.568L516.464 885.455L510.234 896.299L507.354 899.294C598.308 865.024 680.698 810.507 747.69 735.242C760.714 720.61 772.801 705.429 784.149 689.876L780.609 684.802L777.79 684.359L776.373 678.822L780.573 684.836L786.97 685.898C790.213 681.374 793.452 676.774 796.541 672.183L795.483 670.815C795.904 671.196 796.304 671.6 796.682 672.024C801.262 665.197 805.684 658.301 809.992 651.304L807.284 654.026L802.683 649.503L805.532 646.622L810.057 651.149C820.703 633.87 830.464 616.061 839.3 597.79L825.652 584.289L827.042 582.889L840.208 595.89C846.391 582.937 852.099 569.822 857.333 556.547L855.445 558.428L851.922 554.936L854.807 552.015L857.892 555.118C861.407 546.203 864.702 537.187 867.776 528.07L862.693 523.047L864.865 520.847L867.9 527.61C869.41 523.11 870.883 518.651 872.242 514.158L871.482 513.411L867.473 518.394L860.507 512.764L865.192 507.1L871.243 511.916L873.522 509.597L873.641 509.703C876.298 500.951 878.787 492.121 881.108 483.213L879.754 484.573L877.576 482.776L875.74 484.918L868.814 479.324L870.605 477.071L855.838 465.067L854.413 466.507C839.819 460.644 831.405 443.819 826.882 432.24C849.366 451.754 861.2 460.645 882.565 477.812C890.72 445.13 896.368 411.874 899.46 378.333L895.457 371.136L900.055 372.378C909.517 259.238 891.464 141.194 846.564 28.4019C778.102 9.84998 707.457 0.587743 636.526 0.864247C637.168 2.08149 637.745 3.33204 638.254 4.61058L635.97 2.36351C635.523 1.82424 635.157 1.35472 634.786 0.810355C451.448 2.38302 278.191 71.3628 156.058 208.577C93.9835 278.318 50.9956 359.132 26.2575 445.715C27.7532 447.08 29.4047 448.262 31.1776 449.239C29.7886 450.639 26.5005 451.77 28.5079 456.483C32.443 461.839 36.4872 460.094 40.1124 460.827L39.3005 457.254L46.0251 471.004C39.2841 466.642 31.4559 461.101 23.6814 455.178C-15.6785 601.361 -3.39895 763.217 57.1457 915.38C113.859 930.655 172.093 939.588 230.778 942.015V942.015ZM729.986 14.0007L730.933 14.0589C731.46 14.67 731.9 15.1345 732.342 15.599C735.786 18.3785 738.101 21.8647 732.342 15.599C731.609 14.9934 730.82 14.4584 729.986 14.0013L726.547 13.8607C727.289 13.0249 728.625 13.2872 729.986 14.0007ZM715.759 13.1643L727.548 21.9465L720.13 20.2679C718.489 17.3063 718.75 14.6888 715.759 13.1643ZM693.6 8.26375C700.85 16.8588 715.864 24.6602 714.133 35.7318C711.298 20.0987 694.864 20.9397 693.598 8.2646L693.6 8.26375ZM747.919 70.5065L750.693 67.631L755.336 72.1909L752.523 75.0312L747.919 70.5065ZM757.65 81.5199L758.998 80.0844L761.318 82.3634L759.929 83.7644L757.65 81.5199ZM649.51 18.5498L650.857 24.1662L647.407 27.7221L649.51 18.5498ZM653.642 53.7961L657.125 50.2029L659.363 59.4627L653.642 53.7961ZM635.296 54.1427L637.433 51.9828L640.876 55.4034L638.739 57.5633L635.296 54.1427ZM643.225 62.0551L645.362 59.8952L649.969 64.4955L647.873 66.6913L643.225 62.0551ZM645.546 71.4616L648.431 68.5407L651.874 71.9613L648.989 74.8823L645.546 71.4616ZM617.117 77.3705L619.966 74.4906L624.567 79.0133L621.722 81.9694L617.117 77.3705ZM621.284 112.577L624.129 109.621L628.737 114.221L625.924 117.062L621.284 112.577ZM846.993 439.46C841.151 433.69 835.427 428.025 832.994 421.228C843.446 424.617 842.611 432.283 846.993 439.46ZM707.487 311.37L704.638 314.25L700.037 309.727L702.922 306.806L707.487 311.37ZM578.051 133.668L580.153 131.548L584.796 136.108L582.694 138.228L578.051 133.668ZM574.49 137.269L577.336 134.312L581.979 138.872L579.133 141.829L574.49 137.269ZM775.585 338.983L777.686 336.863L780.97 340.142L778.869 342.262L775.585 338.983ZM552.727 159.722L554.824 157.527L559.468 162.086L557.335 164.321L552.727 159.722ZM769.762 358.74L766.953 361.655L762.309 357.096L765.118 354.18L769.762 358.74ZM482.031 102.504L475.8 113.348C473.337 106.666 474.127 98.8897 482.031 102.505L482.031 102.504ZM530.403 161.735L533.252 158.854L536.695 162.275L533.847 165.155L530.403 161.735ZM712.491 324.804L715.265 321.928L719.866 326.451L717.057 329.367L712.491 324.804ZM461.876 113.853L463.978 111.733L468.621 116.293L466.559 118.448L461.876 113.853ZM477.895 472.872L475.833 475.028L472.35 471.571L474.446 469.375L477.895 472.872ZM478.203 456.186L476.142 458.342L472.704 454.996L474.805 452.876L478.203 456.186ZM768.718 698.161L765.944 701.037L761.301 696.477L764.11 693.562L768.718 698.161ZM684.03 629.909L679.349 625.316L681.484 623.153L686.128 627.786L684.03 629.909ZM764.586 679.655C764.936 679.182 765.286 678.71 765.71 678.232C765.686 678.555 765.567 678.863 765.367 679.116C765.166 679.37 764.894 679.558 764.586 679.655C761.985 682.898 760.847 686.66 762.998 692.494L757.762 681.635C750.612 677.413 756.295 690.091 747.053 681.012C751.469 683.018 756.698 678.265 759.315 675.325C761.723 671.98 761.297 673.099 759.315 675.325C759.174 675.485 759.107 675.639 758.93 675.838L759.862 679.517C761.081 679.749 763.255 680.187 764.584 679.658L764.586 679.655ZM734.898 663.35L736.995 661.155L741.596 665.678L739.499 667.873L734.898 663.35ZM689.107 596.726L682.773 603.202L681.099 588.742L689.107 596.726ZM668.623 571.369L664.057 577.139L656.976 571.478L661.581 565.743L668.623 571.369ZM709.893 603.256L707.154 606.092L702.511 601.532L705.285 598.657L709.893 603.256ZM786.085 664.231C782.646 660.886 778.375 658.153 779.391 654.852C786.537 659.079 784.213 656.725 786.084 664.234L786.085 664.231ZM744.06 628.466L740.657 625.081L743.502 622.124L746.941 625.47L744.06 628.466ZM784.226 649.821L780.783 646.4C780.022 646.308 779.301 646.011 778.696 645.54C776.03 645.732 773.852 644.576 772.774 638.416L772.704 636.573C772.289 635.276 772.193 634.264 772.586 633.902L772.704 636.573C773.59 639.502 776.07 643.772 778.732 645.5C782 645.273 785.896 642.898 789.167 644.669L784.226 649.821ZM781.208 629.747L779.107 631.868L774.581 627.341L776.607 625.225L781.208 629.747ZM798.576 639.79L797.186 641.19L791.424 635.49L792.777 634.13L798.576 639.79ZM814.278 628.396L805.617 632.593L802.475 619.463L797.017 618.311C807.212 610.14 805.13 630.662 814.275 628.397L814.278 628.396ZM811.134 615.347L808.997 617.507L805.554 614.086L807.691 611.926L811.134 615.347ZM827.43 610.172L825.189 600.837C834.395 609.958 827.998 597.922 835.822 601.466L827.43 610.172ZM834.045 575.588L831.271 578.464L826.67 573.941L829.483 571.101L834.045 575.588ZM842.739 571.427L840.638 573.547L837.115 570.056L839.177 567.9L842.739 571.427ZM799.189 517.985L808.52 525.363L804.963 529.679L800.609 526.16L795.703 522.221L797.003 520.599L799.189 517.985ZM776.295 504.3L782.982 509.683L778.336 515.382L771.653 510.074L776.295 504.3ZM724.385 465.223L727.906 460.946L737.202 468.364L733.72 472.676L724.385 465.223ZM764.144 503.533L761.335 506.448L756.734 501.925L759.508 499.05L764.144 503.533ZM830.989 555.547C833.417 565.474 831.762 556.521 828.075 553.454C826.7 553.156 825.277 553.315 824.242 553.035C824.829 552.646 825.534 552.475 826.234 552.552C826.935 552.628 827.586 552.947 828.075 553.454C828.689 553.558 829.271 553.802 829.776 554.166C830.281 554.53 830.696 555.004 830.989 555.553L830.989 555.547ZM843.864 565.511L838.061 559.776L837.281 556.087L843.864 565.511ZM854.655 559.154L851.921 562.065L848.354 558.463L851.128 555.587L854.655 559.154ZM824.82 500.891L828.297 496.504L835.14 501.953L831.508 506.274L824.82 500.891ZM856.924 521.77L847.669 514.388L852.28 508.724L861.531 516.032L856.924 521.77ZM798.706 461.187L795.263 457.766L798.111 454.886L801.515 458.271L798.706 461.187ZM857.162 507.728L855.1 509.883L850.534 505.321L852.52 503.169L857.162 507.728ZM825.025 468.862L822.924 470.983L818.358 466.42L820.46 464.299L825.025 468.862ZM813.539 457.498L811.437 459.618L806.757 455.025L808.893 452.865L813.539 457.498ZM832.288 466.063L830.156 468.298L825.549 463.698L827.68 461.462L832.288 466.063ZM795.317 432.229L790.371 437.305C783.786 432.37 781.842 427.504 777.873 422.191L785.809 425.69C784.162 422.727 782.711 419.719 785.175 419.354L788.242 432.488L795.317 432.229ZM486.63 158.046C486.705 158.042 486.705 158.042 486.745 158.078C492.987 159.714 498.279 163.141 486.745 158.078C486.704 158.082 486.663 158.07 486.63 158.046C486.061 163.17 480.036 160.088 477.902 162.326C476.56 156.71 481.806 156.819 486.631 158.05L486.63 158.046ZM528.178 221.179C528.228 218.16 524.683 215.575 521.558 212.437L535.792 209.501C533.161 210.935 529.913 217.309 528.177 221.18C528.155 221.446 528.323 221.737 528.225 222.008C526.417 225.886 526.781 224.36 528.178 221.185L528.178 221.179ZM481.621 195.631L484.395 192.756L487.878 196.212L485.065 199.053L481.621 195.631ZM780.929 460.968L776.385 457.35L781.034 451.726L790.21 459.039L786.799 463.271L791.269 466.822L787.677 471.178L778.576 463.862L780.929 460.968ZM768.143 457.711L775.149 463.377L770.503 469.076L763.537 463.446L768.143 457.711ZM824.653 514.85L820.118 520.505L813.311 515.017L817.845 509.361L824.653 514.85ZM795.994 498.749L805.135 506.101L801.653 510.413L792.472 503.026L795.994 498.749ZM834.686 542.023C832.472 537.701 833.584 532.207 830.761 527.77C828.888 526.71 827.252 525.277 825.953 523.561C827.897 524.518 829.555 525.97 830.761 527.77C838.166 531.866 843.043 523.023 842.541 527.352C844.333 534.79 853.43 539.467 858.437 545.777C852.06 559.27 847.843 545.183 836.084 540.774C835.654 541.229 835.187 541.648 834.686 542.024C834.691 542.099 834.771 542.17 834.775 542.245C834.664 542.218 834.548 542.212 834.435 542.227C831.339 544.745 827.743 545.821 821.975 543.892C821.426 542.746 820.953 541.565 820.559 540.357C819.349 539.361 818.365 538.119 817.67 536.714C818.376 537.09 818.997 537.608 819.494 538.235C819.991 538.861 820.354 539.584 820.559 540.357C824.843 543.955 830.013 541.43 834.434 542.23C834.512 542.155 834.597 542.087 834.687 542.026L834.686 542.023ZM511.339 264.768L513.4 262.612L516.843 266.032L514.781 268.188L511.339 264.768ZM707.307 445.964L710.12 443.124L714.727 447.724L711.954 450.6L707.307 445.964ZM505.743 289.077C509.674 287.302 509.121 281.037 516.153 285.231L514.03 276.001L524.357 286.194C523.113 299.124 521.206 298.785 507.947 298.382C503.266 293.786 514.503 296.3 505.744 289.079L505.743 289.077ZM735.962 488.501L731.36 494.311L724.279 488.65L728.961 482.911L735.962 488.501ZM503.898 307.175C503.384 300.944 518.46 305.954 514.607 307.799L513.144 316.331L503.898 307.175ZM742.115 521.482L744.924 518.567L749.531 523.168L746.758 526.043L742.115 521.482ZM755.922 535.125L758.732 532.209L763.333 536.732L760.524 539.648L755.922 535.125ZM498.444 335.81C503.8 332.596 500.109 320.402 510.397 323.503C500.209 324.697 514.016 338.339 504.281 341.504L498.444 335.81ZM726.166 517.049L729.609 520.469L726.8 523.385L723.358 519.964L726.166 517.049ZM646.225 464.851L650.786 469.338L647.937 472.218L643.452 467.726L646.225 464.851ZM639.858 464.315L635.213 459.682L638.062 456.802L642.705 461.362L639.858 464.315ZM656.88 476.829L658.942 474.674L662.385 478.094L660.284 480.215L656.88 476.829ZM736.793 543.397C747.092 549.286 752.872 561.055 762.151 559.127C768.063 551.921 761.096 579.212 736.793 543.399L736.793 543.397ZM590.271 422.389L593.081 419.473L597.682 423.995L594.874 426.91L590.271 422.389ZM717.243 530.2L726.379 537.476L721.733 543.175L712.633 535.859L717.243 530.2ZM722.825 546.356L729.791 551.986L725.181 557.646L718.179 552.055L722.825 546.356ZM726.851 560.415L729.736 557.494L734.302 562.057L731.452 564.938L726.851 560.415ZM733.348 566.412L742.608 573.87L737.994 579.454L728.658 572L733.348 566.412ZM705.502 559.018L707.603 556.898L712.246 561.458L710.184 563.613L705.502 559.018ZM758.046 602.509L772.347 611.032C772.926 610.929 773.448 610.62 773.816 610.162C774.184 609.704 774.374 609.127 774.351 608.54L772.53 607.061L773.69 605.599C773.629 605.443 773.582 605.282 773.548 605.117C764.379 603.085 754.764 585.051 747.719 592.247L749.23 583.901L754.914 589.53C758.173 588.511 754.957 582.513 754.14 578.865C763.126 576.459 758.538 553.419 776.687 567.151C774.801 559.343 779.402 556.811 785.355 556.052L787.526 553.852L788.446 554.741L788.694 554.463L790.236 555.693C798.823 555.497 807.565 556.65 804.303 550.542L808.644 550.629C808.274 548.802 808.501 546.225 805.506 544.623L809.251 545.462C811.226 557.34 823.018 559.069 827.436 566.28C826.191 572.084 818.406 568.575 814.586 567.741C817.96 566.754 816.277 563.758 815.823 561.787C812.194 561.051 806.881 557.175 805.158 561.273C802.83 565.972 806.003 578.986 803.83 574.059L802.441 575.459C802.895 577.432 802.672 580.012 805.737 581.607C808.871 582.899 812.758 584.292 815.252 583.734C815.99 582.666 816.814 581.659 817.716 580.725C817.731 581.437 817.491 582.132 817.039 582.684C816.587 583.235 815.954 583.608 815.252 583.734C812.398 587.821 811.074 592.913 816.025 598.959L811.601 598.797C812.541 602.554 816.346 607.723 812.369 609.387C807.768 604.865 801.927 606.222 795.897 603.063C797.548 606.172 797.279 608.64 800.281 610.312L790.992 608.173L794.442 604.617C787.901 588.177 782.498 605.46 772.278 599.641L775.34 603.571L777.025 601.437L786.205 608.829L782.79 612.987L787.314 618.796C785.567 617.633 783.602 616.837 781.537 616.457C779.473 616.077 777.353 616.122 775.306 616.587L778.153 618.836L773.467 624.5L768.128 620.247C767.453 620.803 766.808 621.394 766.195 622.018C766.63 621.198 766.935 620.315 767.098 619.401L764.212 617.118L766.637 614.074C765.471 610.18 762.434 606.056 758.043 602.505L758.046 602.509ZM757.439 614.724L754.036 611.338L756.849 608.498L760.292 611.919L757.439 614.724ZM740.758 592.536C743.059 599.643 741.347 595.484 738.375 592.41C736.589 592.174 735.068 591.96 734.983 593.737L733.938 590.099C735.512 589.932 737.085 591.048 738.371 592.406C739.156 592.56 739.958 592.603 740.754 592.533L740.758 592.536ZM707.814 569.556L705.739 572.127L706.057 572.411L703.996 574.566L700.632 571.216L700.773 571.057L695.116 566.521L698.677 562.279L707.814 569.556ZM671.061 540.121L680.316 547.504L676.72 551.785L667.579 544.434L671.061 540.121ZM480.435 384.561L483.209 381.686L487.77 386.172L484.957 389.013L480.435 384.561ZM689.484 564.358L698.625 571.709L694.023 577.52L684.768 570.138L689.484 564.358ZM701.064 584.428L711.245 590.21C707.853 579.923 719.641 581.579 724.775 581.016C724.242 586.101 718.293 583.012 713.91 582.89L716.751 597.96L725.098 604.677L720.492 610.412L711.276 603.065L715.112 598.355L701.064 584.428ZM421.974 339.228L426.721 343.026L427.743 350.848L421.974 339.228ZM527.973 458.587L530.11 456.427L534.635 460.954L532.538 463.15L527.973 458.587ZM638.03 558.969L635.217 561.809L631.734 558.352L634.547 555.512L638.03 558.969ZM593.99 521.622L592.19 517.878C593.454 519.502 593.982 520.678 593.99 521.622L601.084 536.559L588.13 526.597C589.698 524.997 594.005 524.483 593.988 521.618L593.99 521.622ZM584.569 537.253L586.671 535.132L592.433 540.832L590.332 542.952L584.569 537.253ZM471.966 444.296L474.775 441.381L478.218 444.802L475.404 447.642L471.966 444.296ZM724.175 669.635L726.276 667.515L729.719 670.935L727.618 673.056L724.175 669.635ZM298.701 294.781L305.389 300.163L300.783 305.898L294.056 300.481L298.701 294.781ZM559.212 537.699L562.025 534.859L566.632 539.459L563.823 542.375L559.212 537.699ZM469.604 485.948L471.706 483.828L475.224 487.245L473.088 489.405L469.604 485.948ZM597.152 834.846L594.378 837.722L590.86 834.305L593.708 831.425L597.152 834.846ZM495.613 517.283L493.476 519.443L488.869 514.843L490.965 512.647L495.613 517.283ZM472.07 503.525L472.225 497.103C476.744 504.761 473.311 502.132 472.07 503.525L471.999 506.809C471.544 504.917 471.678 503.966 472.067 503.529L472.07 503.525ZM472.724 524.416C467.721 518.182 474.681 517.892 475.541 514.524L477.325 528.939L472.724 524.416ZM472.038 543.687L474.923 540.766L479.488 545.329L476.679 548.244L472.038 543.687ZM478.777 553.177L481.586 550.261L486.188 554.784L483.379 557.699L478.777 553.177ZM129.953 415.158L124.831 408.818C126.739 410.762 128.454 412.885 129.953 415.158L141.134 429.029L137.466 428.187C135.313 424.272 132.888 419.551 129.953 415.158ZM117.676 411.571L122.241 416.134L119.428 418.974L114.862 414.411L117.676 411.571ZM100.717 402.676L107.674 408.156L104.263 412.389L97.3064 406.909L100.717 402.676ZM130.788 444.263L133.566 441.462L137.044 444.843L134.231 447.684L130.788 444.263ZM120.191 448.798C115.911 458.171 105.074 448.883 96.3536 441.619C106.645 448.713 109.646 431.645 120.189 448.796L120.191 448.798ZM99.6123 478.726L123.748 502.631C120.228 499.213 106.605 490.009 99.6101 478.724L99.6123 478.726ZM541.758 852.385L528.334 873.074L527.028 867.494L541.758 852.385ZM51.9224 448.679L53.3473 447.239L57.758 454.378L51.9224 448.679ZM91.2465 491.804L93.3479 489.683L99.151 495.419L97.0495 497.539L91.2465 491.804ZM252.423 827.026L250.287 829.186C247.249 827.553 247.525 825.16 246.66 821.326L252.423 827.026ZM80.4451 669.819L77.0021 666.398L79.8513 663.518L83.2942 666.938L80.4451 669.819ZM290.756 855.086L287.91 858.042L283.268 853.482L286.187 850.522L290.756 855.086ZM213.814 783.18L211.717 785.375L208.234 781.919L210.371 779.759L213.814 783.18ZM328.332 832.734L324.889 829.313L327.021 827.079L330.464 830.499L328.332 832.734ZM371.244 832.661L368.435 835.576L364.951 832.119L367.725 829.244L371.244 832.661ZM311.445 773.45L308.636 776.366L304.035 771.843L306.887 768.963L311.445 773.45ZM165.31 598.985L163.138 601.186L159.654 597.729L161.826 595.53L165.31 598.985ZM137.886 562.034L132.203 556.405L130.896 550.825L137.886 562.034ZM77.906 505.512L79.3309 504.072L83.709 511.247L77.906 505.512ZM113.568 540.816L114.917 539.381L118.44 542.873L117.055 544.348L113.568 540.816ZM126.579 569.215L129.353 566.339L133.918 570.902L131.145 573.778L126.579 569.215ZM122.122 577.505L131.374 584.813L126.688 590.477L117.547 583.126L122.122 577.505ZM470.827 904.195L465.104 898.531L464.283 894.807L470.827 904.195ZM77.1556 553.444L86.3671 560.717L82.8851 565.029L73.6649 557.607L77.1556 553.444ZM27.6238 525.391L36.8045 532.778L33.4332 537.046L24.1425 529.703L27.6238 525.391ZM345.394 838.229L342.548 841.185L337.868 836.592L340.713 833.636L345.394 838.229ZM248.621 756.729L252.099 760.11L250.038 762.265L246.634 758.88L248.621 756.729ZM166.481 688.179L163.672 691.095L158.99 686.428L161.763 683.552L166.481 688.179ZM82.8417 621.073L85.6506 618.158L89.0935 621.579L86.2846 624.494L82.8417 621.073ZM357.502 881.5C359.156 880.764 359.413 879.354 359.166 877.708C358.29 874.933 357.162 871.79 357.352 869.894C357.467 872.49 358.841 875.352 359.166 877.708C360.782 882.782 361.649 886.613 352.63 879.444L357.502 881.5ZM183.411 733.317L185.548 731.157L190.073 735.685L188.011 737.84L183.411 733.317ZM90.3723 666.683L87.5238 669.562L82.9224 665.04L85.6961 662.164L90.3723 666.683ZM52.4496 644.33L63.164 645.742L57.4263 652.75L52.4496 644.33ZM209.202 797.177L212.048 794.221L215.491 797.642L212.642 800.522L209.202 797.177ZM287.641 867.563L290.454 864.723L293.933 868.104L291.119 870.944L287.641 867.563ZM332.701 905.599L340.03 910.982C329.812 905.165 343.601 932.76 335.413 920.413C334.114 915.627 338.087 910.682 332.701 905.599ZM84.9267 689.054L93.9879 696.334L89.4183 702.029L80.2376 694.642L84.9267 689.054ZM219.969 867.328L222.031 865.173L221.01 875.452L219.969 867.328ZM115.137 898.442L118.022 895.521L122.629 900.122L119.744 903.042L115.137 898.442ZM118.637 920.3C119.915 918.944 121.6 918.093 122.12 916.707L121.224 912.988C122.302 914.66 122.483 915.818 122.12 916.707L124.362 926.042L118.637 920.3Z" fill="white"/>
</svg>
