<svg width="898" height="948" viewBox="0 0 898 948" fill="none" xmlns="http://www.w3.org/2000/svg">
<path d="M663.012 0.591976L666.617 3.42504L662.23 8.99162L652.947 1.81566L654.119 0.295859C650.111 0.209736 646.16 0.384629 642.158 0.37326L641.42 9.37239L640.801 0.395655C569.957 0.529684 500.595 10.5969 435.063 30.6529L435.754 31.32L432.983 34.2015L430.71 32.0263C416.242 36.5515 401.973 41.5772 387.906 47.1035L378.191 61.3612L384.261 50.4259L387.096 47.3887C296.658 82.9976 215.081 138.724 149.207 214.969C136.4 229.792 124.539 245.149 113.421 260.869L117.036 265.89L119.861 266.291L121.36 271.807L117.072 265.855L110.659 264.887C107.483 269.46 104.313 274.107 101.292 278.743L102.37 280.095C101.944 279.72 101.537 279.322 101.153 278.904C96.6744 285.797 92.3549 292.758 88.1504 299.818L90.8174 297.057L95.485 301.511L92.6787 304.433L88.0873 299.973C77.6973 317.408 68.2009 335.359 59.635 353.758L73.4807 367.057L72.1118 368.477L58.7551 355.672C52.7641 368.715 47.2499 381.912 42.2124 395.263L44.0732 393.354L47.6472 396.794L44.8056 399.757L41.675 396.701C38.2918 405.666 35.1306 414.73 32.1914 423.891L37.3473 428.839L35.2081 431.07L32.0741 424.353C30.6309 428.874 29.2229 433.355 27.9308 437.867L28.702 438.603L32.6369 433.561L39.6855 439.088L35.0843 444.821L28.9625 440.095L26.7187 442.447L26.5976 442.342C24.0699 451.132 21.7115 459.998 19.5225 468.94L20.856 467.56L23.0607 469.325L24.8649 467.156L31.8727 472.647L30.1149 474.927L45.0574 486.711L46.461 485.25C61.1401 490.898 69.8016 507.596 74.495 519.107C51.725 499.927 39.7608 491.212 18.1457 474.362C10.4735 507.16 5.31665 540.496 2.72017 574.079L6.82852 581.217L2.21312 580.042C-5.5789 693.31 14.2143 811.074 60.7737 923.192C129.502 940.732 200.276 948.95 271.195 947.627C270.535 946.42 269.94 945.178 269.413 943.907L271.729 946.12C272.184 946.652 272.557 947.117 272.936 947.655C456.231 943.378 628.451 871.849 748.546 732.847C809.585 662.198 851.375 580.758 874.833 493.819C873.318 492.478 871.649 491.319 869.862 490.369C871.23 488.949 874.501 487.769 872.424 483.086C868.41 477.789 864.392 479.593 860.757 478.914L861.621 482.475L854.695 468.826C861.499 473.087 869.408 478.513 877.269 484.32C914.468 337.572 899.801 175.915 837.018 24.6617C780.085 10.225 721.726 2.15234 663.012 0.591976V0.591976ZM177.552 935.871L176.604 935.827C176.068 935.224 175.621 934.766 175.172 934.308C171.688 931.579 169.322 928.128 175.172 934.308C175.914 934.903 176.71 935.426 177.551 935.871L180.993 935.96C180.262 936.807 178.923 936.565 177.552 935.871ZM191.789 936.498L179.872 927.89L187.314 929.459C188.999 932.396 188.776 935.017 191.789 936.498ZM214.018 941.071C206.642 932.584 191.514 925.005 193.082 913.909C196.148 929.498 212.567 928.415 214.02 941.07L214.018 941.071ZM158.787 879.636L156.056 882.552L151.346 878.061L154.117 875.18L158.787 879.636ZM148.895 868.768L147.567 870.223L145.214 867.978L146.582 866.557L148.895 868.768ZM257.951 930.135L256.522 924.539L259.919 920.933L257.951 930.135ZM253.3 894.954L249.87 898.598L247.496 889.372L253.3 894.954ZM271.639 894.336L269.534 896.528L266.041 893.158L268.145 890.967L271.639 894.336ZM263.594 886.542L261.49 888.733L256.815 884.201L258.879 881.975L263.594 886.542ZM261.134 877.171L258.293 880.134L254.8 876.764L257.641 873.801L261.134 877.171ZM289.473 870.843L286.667 873.764L282 869.31L284.801 866.312L289.473 870.843ZM284.787 835.701L281.986 838.699L277.311 834.168L280.082 831.286L284.787 835.701ZM54.2792 512.184C60.2057 517.868 66.0125 523.448 68.5456 530.209C58.0448 526.974 58.7664 519.296 54.2792 512.184ZM195.661 638.202L198.466 635.281L203.134 639.735L200.292 642.698L195.661 638.202ZM327.704 813.975L325.634 816.126L320.924 811.635L322.994 809.484L327.704 813.975ZM331.211 810.322L328.41 813.32L323.7 808.829L326.501 805.831L331.211 810.322ZM127.162 611.597L125.092 613.748L121.76 610.518L123.83 608.367L127.162 611.597ZM352.641 787.55L350.576 789.776L345.866 785.285L347.965 783.02L352.641 787.55ZM132.693 591.756L135.459 588.8L140.169 593.291L137.403 596.247L132.693 591.756ZM424.174 843.719L430.243 832.784C432.806 839.429 432.13 847.216 424.173 843.718L424.174 843.719ZM374.933 785.208L372.126 788.131L368.633 784.761L371.439 781.84L374.933 785.208ZM190.458 624.844L187.727 627.76L183.06 623.306L185.826 620.349L190.458 624.844ZM444.159 832.073L442.089 834.225L437.379 829.734L439.409 827.548L444.159 832.073ZM422.844 473.33L424.874 471.144L428.408 474.549L426.344 476.776L422.844 473.33ZM422.782 490.019L424.811 487.833L428.299 491.128L426.229 493.279L422.782 490.019ZM128.728 252.357L131.459 249.441L136.169 253.932L133.404 256.888L128.728 252.357ZM214.414 319.351L219.162 323.875L217.06 326.07L212.347 321.505L214.414 319.351ZM133.133 270.8C132.79 271.278 132.448 271.755 132.031 272.239C132.049 271.916 132.164 271.607 132.361 271.35C132.557 271.093 132.826 270.902 133.133 270.8C135.686 267.518 136.768 263.741 134.532 257.939L139.927 268.719C147.139 272.835 141.269 260.242 150.644 269.185C146.199 267.243 141.04 272.073 138.467 275.051C136.109 278.432 136.518 277.307 138.467 275.051C138.606 274.89 138.671 274.734 138.845 274.533L137.859 270.868C136.636 270.655 134.456 270.249 133.135 270.797L133.133 270.8ZM163.059 286.665L160.994 288.891L156.326 284.437L158.391 282.211L163.059 286.665ZM209.827 352.607L216.065 346.038L217.952 360.471L209.827 352.607ZM230.684 377.658L235.164 371.821L242.328 377.377L237.807 383.18L230.684 377.658ZM188.948 346.383L191.644 343.507L196.354 347.998L193.623 350.914L188.948 346.383ZM111.864 286.539C115.352 289.834 119.663 292.503 118.696 295.818C111.488 291.698 113.847 294.017 111.865 286.536L111.864 286.539ZM154.412 321.681L157.865 325.015L155.063 328.013L151.576 324.718L154.412 321.681ZM113.936 300.921L117.429 304.29C118.191 304.371 118.916 304.658 119.528 305.119C122.191 304.888 124.386 306.012 125.554 312.155L125.651 313.997C126.086 315.287 126.197 316.298 125.809 316.666L125.651 313.997C124.723 311.081 122.18 306.849 119.492 305.16C116.229 305.435 112.368 307.868 109.071 306.145L113.936 300.921ZM117.249 320.948L119.319 318.796L123.911 323.256L121.916 325.401L117.249 320.948ZM99.735 311.163L101.104 309.742L106.95 315.356L105.617 316.736L99.735 311.163ZM84.2029 322.786L92.8007 318.462L96.1368 331.544L101.611 332.616C91.5375 340.936 93.3168 320.386 84.2063 322.785L84.2029 322.786ZM87.5395 335.788L89.6441 333.597L93.1372 336.966L91.0326 339.158L87.5395 335.788ZM71.3209 341.202L73.6999 350.504C64.3599 341.519 70.9343 353.46 63.0583 350.032L71.3209 341.202ZM65.2176 375.88L67.9485 372.964L72.6161 377.418L69.8451 380.3L65.2176 375.88ZM56.5853 380.169L58.6553 378.018L62.2293 381.458L60.1994 383.643L56.5853 380.169ZM100.919 432.963L91.4809 425.723L94.9736 421.355L99.3789 424.809L104.343 428.676L103.066 430.317L100.919 432.963ZM124.013 446.308L117.247 441.025L121.808 435.258L128.569 440.466L124.013 446.308ZM176.494 484.616L173.036 488.944L163.632 481.663L167.05 477.301L176.494 484.616ZM136.174 446.896L138.939 443.94L143.607 448.394L140.876 451.311L136.174 446.896ZM68.5689 395.874C65.9939 385.984 67.7812 394.912 71.5127 397.924C72.892 398.201 74.3132 398.022 75.352 398.286C74.7705 398.684 74.0682 398.865 73.3669 398.799C72.6656 398.733 72.0096 398.423 71.5127 397.924C70.8976 397.829 70.3126 397.594 69.8023 397.237C69.292 396.881 68.87 396.413 68.5685 395.868L68.5689 395.874ZM55.5478 386.101L61.4348 391.751L62.2696 395.427L55.5478 386.101ZM44.8517 392.617L47.5425 389.666L51.1621 393.215L48.4312 396.131L44.8517 392.617ZM75.5438 450.433L72.1313 454.871L65.2092 449.523L68.7767 445.15L75.5438 450.433ZM43.1345 430.03L52.4979 437.275L47.971 443.006L38.613 435.835L43.1345 430.03ZM102.241 489.748L105.734 493.118L102.928 496.039L99.475 492.704L102.241 489.748ZM43.1045 444.074L45.1343 441.889L49.7672 446.383L47.8129 448.564L43.1045 444.074ZM75.8109 482.461L77.8808 480.31L82.5131 484.805L80.4432 486.957L75.8109 482.461ZM87.4639 493.655L89.5339 491.504L94.2817 496.028L92.1771 498.219L87.4639 493.655ZM68.5899 485.368L70.6891 483.102L75.3638 487.633L73.2654 489.9L68.5899 485.368ZM106.056 518.652L110.927 513.504C117.584 518.341 119.6 523.178 123.646 528.432L115.66 525.05C117.351 527.989 118.846 530.975 116.387 531.377L113.127 518.289L106.056 518.652ZM418.756 788.251C418.681 788.256 418.681 788.256 418.64 788.221C412.374 786.677 407.033 783.328 418.64 788.221C418.681 788.216 418.722 788.227 418.756 788.251C419.248 783.119 425.319 786.112 427.42 783.842C428.844 789.438 423.597 789.406 418.754 788.247L418.756 788.251ZM376.281 725.737C376.275 728.757 379.858 731.29 383.029 734.381L368.84 737.527C371.45 736.054 374.603 729.633 376.281 725.736C376.3 725.471 376.127 725.182 376.221 724.91C377.972 721.005 377.63 722.537 376.28 725.732L376.281 725.737ZM423.209 750.595L420.478 753.512L416.944 750.107L419.715 747.225L423.209 750.595ZM120.019 489.704L124.616 493.255L120.05 498.946L110.767 491.77L114.115 487.488L109.593 484.003L113.121 479.595L122.328 486.776L120.019 489.704ZM132.851 492.772L125.762 487.211L130.324 481.443L137.372 486.97L132.851 492.772ZM75.5049 436.473L79.9553 430.752L86.8428 436.139L82.3924 441.861L75.5049 436.473ZM104.398 452.15L95.1494 444.934L98.5674 440.571L107.856 447.821L104.398 452.15ZM65.0719 409.451C67.3488 413.74 66.3179 419.25 69.206 423.645C71.0945 424.678 72.7519 426.086 74.0759 427.783C72.1181 426.854 70.4386 425.427 69.206 423.645C61.7422 419.659 56.9959 428.572 57.4339 424.237C55.5325 416.826 46.367 412.283 41.2675 406.049C47.4453 392.463 51.869 406.486 63.692 410.721C64.115 410.259 64.5764 409.834 65.0711 409.45C65.0656 409.375 64.9847 409.306 64.9792 409.231C65.091 409.256 65.2064 409.26 65.3198 409.243C68.3785 406.681 71.9573 405.552 77.7537 407.395C78.3195 408.533 78.8097 409.707 79.2212 410.909C80.4457 411.887 81.4487 413.114 82.1638 414.509C81.4524 414.143 80.824 413.634 80.3177 413.015C79.8114 412.396 79.4382 411.679 79.2212 410.909C74.8851 407.374 69.7533 409.975 65.321 409.241C65.2435 409.317 65.1596 409.386 65.0702 409.448L65.0719 409.451ZM392.475 681.905L390.446 684.091L386.953 680.722L388.983 678.536L392.475 681.905ZM193.854 503.62L191.083 506.502L186.409 501.97L189.14 499.054L193.854 503.62ZM397.711 657.516C393.807 659.348 394.452 665.605 387.359 661.516L389.618 670.713L379.142 660.674C380.195 647.726 382.107 648.037 395.37 648.245C400.118 652.771 388.845 650.423 397.71 657.514L397.711 657.516ZM164.575 461.511L169.091 455.633L176.254 461.189L171.658 466.997L164.575 461.511ZM399.288 639.393C399.895 645.616 384.747 640.829 388.571 638.927L389.908 630.374L399.288 639.393ZM157.935 428.624L155.17 431.58L150.495 427.048L153.226 424.132L157.935 428.624ZM143.928 415.186L141.162 418.143L136.495 413.689L139.261 410.732L143.928 415.186ZM404.32 610.681C399.012 613.973 402.882 626.111 392.55 623.163C402.719 621.819 388.712 608.381 398.4 605.073L404.32 610.681ZM173.948 432.821L170.455 429.452L173.22 426.496L176.713 429.865L173.948 432.821ZM254.651 483.834L250.024 479.415L252.83 476.493L257.381 480.919L254.651 483.834ZM261.025 484.276L265.738 488.84L262.932 491.762L258.222 487.271L261.025 484.276ZM243.82 472.014L241.79 474.2L238.297 470.831L240.367 468.679L243.82 472.014ZM162.934 406.633C152.548 400.897 146.596 389.214 137.346 391.279C131.542 398.572 138.105 371.18 162.934 406.631L162.934 406.633ZM311.225 525.466L308.459 528.423L303.791 523.969L306.557 521.013L311.225 525.466ZM182.676 419.54L173.434 412.4L177.995 406.632L187.203 413.813L182.676 419.54ZM176.857 403.468L169.808 397.942L174.334 392.214L181.418 397.701L176.857 403.468ZM172.623 389.47L169.782 392.433L165.149 387.938L167.956 385.016L172.623 389.47ZM166.039 383.57L156.67 376.25L161.201 370.598L170.646 377.913L166.039 383.57ZM193.991 390.552L191.921 392.703L187.211 388.212L189.241 386.026L193.991 390.552ZM140.81 347.841L126.386 339.53C125.808 339.641 125.291 339.958 124.929 340.422C124.568 340.885 124.386 341.464 124.419 342.051L126.261 343.503L125.123 344.982C125.186 345.137 125.236 345.298 125.272 345.462C134.469 347.358 144.35 365.248 151.288 357.95L149.9 366.317L144.134 360.773C140.89 361.84 144.195 367.789 145.065 371.425C136.115 373.964 141.043 396.932 122.693 383.471C124.695 391.25 120.131 393.849 114.191 394.696L112.051 396.928L111.119 396.052L110.875 396.334L109.315 395.127C100.732 395.449 91.974 394.426 95.3251 400.485L90.9838 400.462C91.3811 402.283 91.1922 404.863 94.2099 406.421L90.4532 405.638C88.3025 393.79 76.4865 392.235 71.9629 385.09C73.1219 379.268 80.9578 382.662 84.7899 383.439C81.4305 384.476 83.1575 387.447 83.6411 389.411C87.2805 390.093 92.6496 393.89 94.3126 389.767C96.5707 385.035 93.2061 372.069 95.4513 376.964L96.8202 375.543C96.3364 373.578 96.5215 370.994 93.4329 369.445C90.2805 368.199 86.3737 366.864 83.8882 367.458C83.1655 368.537 82.3563 369.556 81.4687 370.504C81.4433 369.791 81.6731 369.093 82.1166 368.535C82.5602 367.976 83.1883 367.595 83.8882 367.458C86.6809 363.33 87.9301 358.219 82.8907 352.246L87.3162 352.343C86.3213 348.6 82.4402 343.488 86.3918 341.765C91.0594 346.219 96.8798 344.776 102.956 347.845C101.259 344.762 101.492 342.289 98.4655 340.662L107.785 342.664L104.388 346.27C111.171 362.612 116.317 345.252 126.623 350.919L123.503 347.034L121.849 349.193L112.562 341.937L115.915 337.73L111.305 331.988C113.069 333.125 115.046 333.892 117.116 334.241C119.186 334.59 121.305 334.515 123.345 334.019L120.465 331.813L125.067 326.08L130.468 330.254C131.135 329.688 131.771 329.087 132.375 328.454C131.952 329.281 131.66 330.168 131.51 331.084L134.429 333.325L132.05 336.405C133.274 340.281 136.371 344.359 140.814 347.845L140.81 347.841ZM141.237 335.619L144.69 338.953L141.919 341.835L138.426 338.465L141.237 335.619ZM158.244 357.558C155.838 350.485 157.611 354.619 160.628 357.649C162.418 357.859 163.942 358.049 164.001 356.271L165.099 359.894C163.528 360.084 161.938 358.992 160.632 357.652C159.846 357.51 159.043 357.479 158.248 357.561L158.244 357.558ZM191.524 380.049L193.56 377.448L193.238 377.169L195.268 374.983L198.68 378.284L198.541 378.445L204.265 382.897L200.767 387.191L191.524 380.049ZM228.707 408.938L219.344 401.693L222.876 397.359L232.125 404.575L228.707 408.938ZM421.607 561.669L418.876 564.585L414.25 560.166L417.021 557.284L421.607 561.669ZM209.928 384.977L200.68 377.76L205.195 371.882L214.559 379.128L209.928 384.977ZM198.053 365.08L187.788 359.448C191.332 369.684 179.52 368.203 174.395 368.84C174.853 363.749 180.847 366.749 185.231 366.807L182.168 351.78L173.724 345.187L178.244 339.385L187.567 346.595L183.801 351.361L198.053 365.08ZM480.731 606.135L475.929 602.407L474.791 594.601L480.731 606.135ZM372.982 488.352L370.878 490.544L366.286 486.084L368.35 483.857L372.982 488.352ZM261.456 389.606L264.227 386.724L267.761 390.129L264.99 393.01L261.456 389.606ZM306.043 426.298L307.898 430.016C306.61 428.41 306.065 427.243 306.043 426.298L298.729 411.468L311.829 421.238C310.284 422.861 305.985 423.438 306.044 426.302L306.043 426.298ZM315.232 410.531L313.162 412.682L307.316 407.068L309.385 404.917L315.232 410.531ZM429.194 501.815L426.429 504.772L422.936 501.402L425.707 498.521L429.194 501.815ZM173.688 280.222L171.618 282.374L168.125 279.004L170.195 276.853L173.688 280.222ZM604.647 648.758L597.88 643.475L602.4 637.672L609.207 642.99L604.647 648.758ZM340.58 409.71L337.809 412.591L333.134 408.059L335.9 405.103L340.58 409.71ZM430.941 460.133L428.871 462.284L425.302 458.919L427.407 456.728L430.941 460.133ZM298.259 113.155L300.99 110.239L304.559 113.604L301.753 116.525L298.259 113.155ZM404.473 429.185L406.577 426.994L411.252 431.526L409.188 433.752L404.473 429.185ZM428.216 442.594L428.156 449.018C423.524 441.428 426.996 444.006 428.216 442.594L428.239 439.31C428.722 441.195 428.602 442.148 428.219 442.59L428.216 442.594ZM427.254 421.715C432.348 427.875 425.393 428.268 424.583 431.648L422.586 417.261L427.254 421.715ZM427.656 402.436L424.814 405.399L420.182 400.904L422.947 397.948L427.656 402.436ZM420.777 393.047L418.011 396.004L413.344 391.55L416.109 388.594L420.777 393.047ZM771.6 525.903L776.814 532.167C774.878 530.252 773.132 528.154 771.6 525.903L760.215 512.199L763.896 512.987C766.106 516.87 768.6 521.554 771.6 525.903ZM783.929 529.309L779.297 524.814L782.068 521.933L786.7 526.428L783.929 529.309ZM801.017 537.953L793.98 532.576L797.328 528.294L804.365 533.671L801.017 537.953ZM770.336 496.814L767.599 499.656L764.072 496.326L766.843 493.445L770.336 496.814ZM780.864 492.123C785.005 482.688 795.979 491.816 804.805 498.95C794.41 492.008 791.661 509.119 780.867 492.125L780.864 492.123ZM800.999 461.895L776.514 438.348C780.084 441.714 793.841 450.716 801.001 461.897L800.999 461.895ZM353.388 94.8006L366.505 73.9158L367.893 79.4765L353.388 94.8006ZM849.127 491.235L847.724 492.696L843.208 485.623L849.127 491.235ZM809.171 448.695L807.101 450.846L801.214 445.197L803.284 443.046L809.171 448.695ZM643.065 115.888L645.17 113.696C648.232 115.284 647.991 117.681 648.912 121.502L643.065 115.888ZM817.345 270.54L820.838 273.909L818.031 276.832L814.538 273.462L817.345 270.54ZM604.323 88.3963L607.124 85.3985L611.834 89.8901L608.958 92.8927L604.323 88.3963ZM682.318 159.16L684.381 156.933L687.915 160.338L685.811 162.529L682.318 159.16ZM567.081 111.3L570.574 114.67L568.475 116.936L564.982 113.566L567.081 111.3ZM524.175 112.007L526.941 109.051L530.474 112.455L527.744 115.371L524.175 112.007ZM584.84 170.329L587.606 167.372L592.274 171.826L589.465 174.748L584.84 170.329ZM733.534 342.618L735.674 340.386L739.208 343.791L737.069 346.022L733.534 342.618ZM761.5 379.16L767.266 384.705L768.655 390.266L761.5 379.16ZM822.308 434.792L820.904 436.253L816.421 429.142L822.308 434.792ZM786.129 400.017L784.801 401.473L781.227 398.033L782.59 396.537L786.129 400.017ZM772.7 371.814L769.969 374.73L765.337 370.235L768.068 367.319L772.7 371.814ZM777.034 363.458L767.676 356.288L772.277 350.555L781.526 357.771L777.034 363.458ZM423.547 41.9495L429.353 47.5288L430.229 51.2402L423.547 41.9495ZM822.351 386.853L813.033 379.717L816.451 375.354L825.78 382.64L822.351 386.853ZM872.291 414.172L863.003 406.922L866.311 402.605L875.709 409.81L872.291 414.172ZM549.94 106.058L552.742 103.06L557.489 107.583L554.688 110.581L549.94 106.058ZM647.904 186.121L644.377 182.792L646.406 180.606L649.859 183.941L647.904 186.121ZM731.047 253.452L733.813 250.495L738.563 255.092L735.832 258.008L731.047 253.452ZM815.668 319.316L812.902 322.272L809.409 318.903L812.175 315.946L815.668 319.316ZM537.195 62.9697C535.551 63.7305 535.316 65.1444 535.586 66.7858C536.503 69.5484 537.678 72.6737 537.515 74.5722C537.363 71.9785 535.947 69.1374 535.586 66.7858C533.896 61.7371 532.972 57.9193 542.096 64.9538L537.195 62.9697ZM713.453 208.568L711.348 210.759L706.757 206.299L708.786 204.113L713.453 208.568ZM807.465 273.822L810.27 270.901L814.938 275.355L812.207 278.271L807.465 273.822ZM845.713 295.613L834.979 294.359L840.613 287.268L845.713 295.613ZM686.722 145.095L683.921 148.093L680.428 144.724L683.234 141.801L686.722 145.095ZM607.253 75.8745L604.482 78.756L600.955 75.4266L603.726 72.5452L607.253 75.8745ZM561.637 38.5076L554.23 33.2337C564.533 38.8989 550.337 11.5108 558.706 23.7356C560.077 28.5021 556.177 33.5049 561.637 38.5076ZM812.58 251.373L803.412 244.227L807.897 238.466L817.186 245.716L812.58 251.373ZM674.921 75.1108L672.892 77.2966L673.761 67.0039L674.921 75.1108ZM779.283 42.4535L776.442 45.4166L771.767 40.8849L774.609 37.9217L779.283 42.4535ZM775.461 20.6496C774.203 22.0247 772.53 22.9004 772.031 24.2938L772.982 27.9991C771.879 26.3432 771.681 25.1878 772.031 24.2938L769.651 14.9932L775.461 20.6496Z" fill="white"/>
</svg>
