<?xml version="1.0" encoding="utf-8"?>
<!-- Generator: Adobe Illustrator 24.3.0, SVG Export Plug-In . SVG Version: 6.00 Build 0)  -->
<svg version="1.1" id="Layer_1" xmlns="http://www.w3.org/2000/svg" xmlns:xlink="http://www.w3.org/1999/xlink" x="0px" y="0px"
	 viewBox="0 0 100 100" style="enable-background:new 0 0 100 100;" xml:space="preserve">
<style type="text/css">
	.st0{fill:#CBC2AC;}
</style>
<g>
	<path class="st0" d="M19.8,80.1C19.8,80.1,19.8,80.1,19.8,80.1C19.8,80.1,19.8,80.1,19.8,80.1C19.8,80.1,19.8,80.1,19.8,80.1
		L19.8,80.1z"/>
	<path class="st0" d="M78.8,90.6c-0.7,0-1.2,0.6-1.2,1.2c0,0.7,0.6,1.2,1.2,1.2c0.7,0,1.2-0.6,1.2-1.2C80,91.1,79.5,90.6,78.8,90.6z
		"/>
	<path class="st0" d="M15.4,74c0,0-0.1-0.1-0.1-0.1C15.3,74,15.4,74,15.4,74C15.4,74.1,15.4,74,15.4,74z"/>
	<path class="st0" d="M19.9,80C19.9,80,19.9,80,19.9,80C19.9,80,19.8,80.1,19.9,80C19.8,80.1,19.9,80.1,19.9,80L19.9,80z"/>
	<polygon class="st0" points="19.9,80.4 19.9,80.4 19.9,80.4 	"/>
	<path class="st0" d="M66.2,90c-0.1-0.3-0.3-0.5-0.8-0.6c0.2-0.2,0.4-0.4,0.6-0.6c0,0,0.1,0.1,0.2,0.2c-0.2-0.5-0.6-0.9-1.2-0.9
		c-0.7,0-1.2,0.6-1.2,1.2c0-0.1,0-0.2,0.1-0.3c0,0,0.1,0,0.1,0c0,0.1-0.1,0.2-0.1,0.4l0,0c0,0,0,0,0-0.1c0,0.3,0.1,0.6,0.3,0.8
		c0,0,0,0,0,0c0,0,0,0,0,0c0,0,0,0,0,0c0.1,0.2,0.3,0.3,0.6,0.4c0,0,0,0,0,0c0,0,0,0,0,0c0.1,0,0.2,0.1,0.4,0.1c0.6,0,1-0.4,1.2-0.9
		C66.2,89.8,66.2,89.9,66.2,90z M64.3,89.7C64.3,89.7,64.3,89.6,64.3,89.7C64.3,89.6,64.3,89.6,64.3,89.7
		C64.3,89.6,64.3,89.6,64.3,89.7C64.3,89.6,64.3,89.7,64.3,89.7z M64.5,89.4C64.5,89.3,64.5,89.3,64.5,89.4c0-0.1,0-0.1,0-0.1
		C64.5,89.3,64.6,89.3,64.5,89.4C64.5,89.3,64.5,89.4,64.5,89.4z M64.9,88.9C64.8,88.9,64.8,88.8,64.9,88.9c0-0.1,0-0.1,0-0.1
		C64.9,88.8,64.9,88.8,64.9,88.9C64.9,88.8,64.9,88.9,64.9,88.9z M65,88.6C65,88.6,65,88.6,65,88.6L65,88.6C65,88.6,65,88.6,65,88.6
		z"/>
	<path class="st0" d="M34,44.9c1,0,2-0.2,2.9-0.4C38.7,46,41,47,43.6,47c0.5,0,1,0,1.5-0.1c0.7,1.2,1.9,3.4,2.5,5.9
		c0.9,3.6-1,11.5-6.1,15.3c0,0,0,0,0,0c0,0,0.1,0,0.1,0.1c0,0.1,0.1,0.2,0,0.2c-0.1,0.1-0.2,0.1-0.3-0.1c0,0,0,0,0,0
		c-0.1,0.1-0.1,0.3-0.1,0.4c0,0.5,0.4,0.8,0.8,0.8h17.7c0.5,0,0.8-0.4,0.8-0.8c0-0.3-0.1-0.5-0.3-0.7c-5.1-3.8-7-11.7-6.1-15.3
		c0.6-2.5,1.8-4.8,2.5-5.9c0.5,0.1,1,0.1,1.5,0.1c2.6,0,4.9-1,6.7-2.6c0.9,0.3,1.9,0.4,2.9,0.4c5.5,0,10-4.5,10-10
		c0-3.6-1.9-6.7-4.7-8.4c0-0.4,0.1-0.8,0.1-1.1c0-5.5-4.5-10-10-10c-0.4,0-0.9,0-1.3,0.1c0,0,0,0,0,0l0,0c0,0,0,0-0.1,0c0,0,0,0,0,0
		c0,0,0,0,0,0c-0.7,0.1-1.4,0.2-2,0.5c-1.6-3.3-5-5.6-9-5.6s-7.3,2.3-9,5.6c-1-0.4-2.1-0.6-3.3-0.6c-5.5,0-10,4.5-10,10
		c0,0.4,0,0.8,0.1,1.1c-2.8,1.8-4.7,4.9-4.7,8.4C24,40.4,28.5,44.9,34,44.9z M41.4,69.1c0.1,0.1,0.1,0.2,0.2,0.4
		C41.4,69.4,41.3,69.3,41.4,69.1z M42,68.7c-0.1,0-0.2,0-0.2,0c0,0,0,0,0-0.1C41.8,68.7,41.9,68.7,42,68.7C42,68.7,42,68.7,42,68.7z
		 M42.6,68.8c-0.2,0-0.3,0-0.4-0.2c0,0,0.1-0.1,0.1-0.1c0.1,0,0.2,0.1,0.3,0.1C42.6,68.7,42.6,68.8,42.6,68.8z M46.6,62.4L46.6,62.4
		L46.6,62.4L46.6,62.4z M43.9,66.6c0.2-0.1,0.4-0.1,0.5,0.1C44.2,66.7,44,66.7,43.9,66.6z M45.8,64c-0.1-0.1-0.1-0.2-0.2-0.4
		C45.8,63.7,45.9,63.8,45.8,64C45.9,63.9,45.8,64,45.8,64z M46.1,65.8c0,0-0.1-0.1-0.1-0.1c0,0,0.1-0.1,0.1-0.1c0,0,0,0,0.1,0.1
		C46.2,65.7,46.1,65.8,46.1,65.8z M46.9,64c0-0.4-0.5-0.4-0.6-0.7c0.1,0,0.2-0.1,0.4-0.1c0.1,0.2,0.3,0.4,0.4,0.5
		C47.2,63.8,47.1,63.9,46.9,64z M47.3,64.1C47.3,64.1,47.3,64.1,47.3,64.1C47.3,64.1,47.3,64.1,47.3,64.1
		C47.3,64.1,47.3,64.1,47.3,64.1z M47.7,63.6C47.7,63.6,47.6,63.6,47.7,63.6c-0.1-0.1-0.2-0.2-0.2-0.3c0,0,0.1,0,0.1,0
		C47.6,63.4,47.6,63.5,47.7,63.6L47.7,63.6z M59.5,69.3C59.5,69.3,59.6,69.3,59.5,69.3C59.5,69.4,59.5,69.4,59.5,69.3
		C59.5,69.4,59.5,69.4,59.5,69.3C59.5,69.4,59.5,69.3,59.5,69.3z M76.9,32.7c0,0,0.1,0,0.1,0.1c-0.1,0-0.1,0.1-0.2,0.1
		C76.8,32.9,76.8,32.8,76.9,32.7C76.8,32.8,76.8,32.7,76.9,32.7z M74.9,38.5C74.9,38.5,75,38.6,74.9,38.5c0.1,0.1,0,0.1,0,0.1
		C74.9,38.6,74.8,38.6,74.9,38.5C74.9,38.5,74.9,38.5,74.9,38.5z M57.4,18.8C57.4,18.8,57.4,18.8,57.4,18.8
		C57.4,18.8,57.4,18.8,57.4,18.8C57.4,18.8,57.4,18.8,57.4,18.8C57.4,18.8,57.4,18.8,57.4,18.8z M57.6,17.7c0-0.1,0-0.1,0-0.1
		c0,0,0.1,0,0.1,0c0,0,0,0.1,0,0.1h0C57.7,17.6,57.6,17.6,57.6,17.7z M57.8,26.2L57.8,26.2L57.8,26.2L57.8,26.2z M58,26.4
		C58,26.4,58,26.4,58,26.4C58,26.4,58,26.5,58,26.4C58,26.5,58,26.5,58,26.4z M58.3,31.5C58.3,31.5,58.2,31.5,58.3,31.5
		C58.2,31.5,58.2,31.5,58.3,31.5L58.3,31.5L58.3,31.5L58.3,31.5z M57.8,17.6c0.2,0.1,0.3,0.2,0.5,0.3C58,18,57.9,17.9,57.8,17.6z
		 M57.8,17.3L57.8,17.3L57.8,17.3L57.8,17.3z M58.2,17.1L58.2,17.1L58.2,17.1L58.2,17.1z M58.3,16.3c-0.1,0-0.2-0.1-0.3-0.2
		c0.1-0.1,0.2-0.2,0.3-0.2c0,0,0.1,0.1,0.1,0.2C58.4,16.1,58.3,16.3,58.3,16.3z M59.2,27.1C59.2,27.1,59.2,27.2,59.2,27.1
		C59.2,27.2,59.1,27.1,59.2,27.1L59.2,27.1C59.2,27.1,59.2,27.1,59.2,27.1L59.2,27.1z M59.3,25.9C59.3,25.9,59.3,25.9,59.3,25.9
		c-0.1-0.1,0-0.1,0-0.1c0,0,0.1,0,0.1,0.1C59.4,25.9,59.3,25.9,59.3,25.9z M60,36.1c-0.2-0.1-0.3-0.2-0.3-0.4c0-0.3,0.3-0.2,0.5-0.3
		c0.1,0.2,0.2,0.4,0.2,0.5c0,0.1-0.1,0.2-0.2,0.2C60.2,36.2,60.1,36.2,60,36.1z M59.8,33.6c0-0.1,0-0.2,0.1-0.3
		c0.1,0.1,0.2,0.2,0.2,0.2C60,33.6,59.9,33.6,59.8,33.6z M60.5,36.9c0,0-0.1-0.1-0.1-0.1c0-0.2,0.1-0.4,0.3-0.4c0,0,0.1,0.1,0.1,0.1
		C60.8,36.7,60.6,36.9,60.5,36.9z M61.1,18.6c-0.1-0.1-0.2-0.2-0.2-0.2l0,0c0,0,0-0.2,0-0.2c0,0,0.1-0.1,0.2,0
		c0.1,0,0.1,0.1,0.1,0.2S61.1,18.4,61.1,18.6z M62.2,38L62.2,38C62.2,38,62.2,38,62.2,38L62.2,38C62.2,38,62.2,38,62.2,38z
		 M65.2,38.9C65.2,38.9,65.2,38.9,65.2,38.9C65.2,38.9,65.2,38.9,65.2,38.9L65.2,38.9C65.2,38.9,65.2,38.9,65.2,38.9z M66.3,40.8
		C66.3,40.8,66.2,40.7,66.3,40.8c-0.1-0.1,0-0.1,0-0.1c0,0,0.1,0,0.1,0.1C66.3,40.8,66.3,40.8,66.3,40.8z M68.4,38.6
		c-0.1,0-0.3-0.1-0.2-0.3c0.1,0,0.3,0,0.4,0C68.6,38.6,68.5,38.6,68.4,38.6z M68.6,37.1c0,0-0.1-0.1-0.1-0.1c0,0,0.1-0.1,0.1-0.1
		c0,0,0.1,0.1,0.1,0.1C68.6,37,68.6,37,68.6,37.1z M72,35.9L72,35.9L72,35.9L72,35.9z M73.2,34.6c0,0-0.1,0-0.1,0h0
		c0,0-0.1-0.1-0.1-0.2c0,0,0-0.1,0.1-0.2c0.1,0.1,0.1,0.1,0.1,0.2C73.2,34.5,73.2,34.5,73.2,34.6z M73.1,27.1
		C73.1,27.1,73.1,27.1,73.1,27.1C73.1,27.1,73.1,27.1,73.1,27.1C73.1,27.1,73.1,27.1,73.1,27.1L73.1,27.1
		C73.1,27.1,73.1,27.1,73.1,27.1z M73.1,27.4c0,0,0.2,0.1,0.2,0.1c0,0.2-0.1,0.2-0.3,0.2C72.9,27.6,72.9,27.5,73.1,27.4z M73.1,33.1
		c0,0,0.1,0.1,0.1,0.1c0,0,0,0.1-0.1,0.1c0,0-0.1,0-0.2-0.1C73,33.2,73,33.1,73.1,33.1z M72.8,31c0,0,0.1,0,0.1,0.1
		c-0.1,0.1-0.1,0.1-0.2,0.1C72.8,31.2,72.7,31.2,72.8,31C72.7,31.1,72.8,31,72.8,31z M72.5,33c0.1,0,0.2,0.1,0.2,0.1
		c0,0-0.1,0.2-0.1,0.2c-0.1,0-0.2-0.1-0.3-0.1C72.4,33.1,72.4,33,72.5,33z M72,35.3c0,0,0.1,0.1,0.1,0.1c-0.1,0-0.1,0.1-0.2,0.1
		c0,0-0.1-0.1-0.1-0.1C71.9,35.3,72,35.3,72,35.3z M71.9,37.2c0,0,0,0.1,0.1,0.1c-0.1,0-0.1,0.1-0.1,0
		C71.8,37.4,71.8,37.3,71.9,37.2C71.8,37.3,71.8,37.3,71.9,37.2z M71.8,39C71.8,39,71.8,39,71.8,39C71.8,39,71.8,39,71.8,39
		C71.8,39,71.8,39,71.8,39L71.8,39z M71.7,35.7L71.7,35.7L71.7,35.7C71.7,35.7,71.6,35.7,71.7,35.7C71.6,35.7,71.7,35.7,71.7,35.7z
		 M71.5,25.2L71.5,25.2C71.5,25.2,71.5,25.2,71.5,25.2C71.5,25.2,71.4,25.2,71.5,25.2C71.4,25.2,71.4,25.2,71.5,25.2z M71.2,33.8
		c0,0,0.1,0.1,0.1,0.1c0,0-0.1,0.1-0.1,0.1C71.2,33.9,71.1,33.9,71.2,33.8C71.1,33.8,71.2,33.8,71.2,33.8z M70.9,39.1
		c0,0.1-0.1,0.2-0.2,0.3c-0.4,0-0.5-0.1-0.5-0.4c0.2,0,0.3-0.1,0.5-0.1C70.8,38.8,70.9,38.9,70.9,39.1z M69.9,30.9c0,0,0.1,0,0.1,0
		c0,0.1,0,0.2,0,0.3c0,0-0.1,0-0.1,0V30.9z M70,36.7c0.3-0.1,0.5,0,0.6,0.3c-0.1,0-0.3,0.1-0.4,0.1c-0.1,0-0.2,0.1-0.3-0.1
		C69.8,36.9,69.9,36.8,70,36.7z M69,36.6C69,36.6,69,36.6,69,36.6C69,36.6,69,36.7,69,36.6C69,36.7,69,36.7,69,36.6
		C69,36.6,69,36.6,69,36.6z M68.6,34.1L68.6,34.1L68.6,34.1L68.6,34.1L68.6,34.1z M68.1,35.6c0.2,0,0.3,0,0.5,0
		c0.1,0,0.2,0.1,0.2,0.1c0,0.1-0.1,0.3-0.2,0.3c-0.2,0.1-0.4,0.1-0.7,0.1C68,35.9,68.1,35.7,68.1,35.6z M68.4,37.6
		c-0.1,0.4-0.4,0.2-0.5,0.3c0,0-0.1,0-0.1-0.1c0-0.1,0-0.2-0.1-0.3C68,37.6,68.2,37.6,68.4,37.6z M68.1,39.9
		c0.2,0.1,0.3,0.2,0.2,0.4c0,0.1-0.2,0.2-0.2,0.2c-0.1,0-0.2-0.1-0.3-0.2C67.9,40.1,68,40,68.1,39.9z M67.7,39.8
		c0,0-0.1,0.1-0.1,0.1c0-0.1-0.1-0.1-0.1-0.1C67.6,39.7,67.6,39.7,67.7,39.8C67.7,39.7,67.7,39.7,67.7,39.8L67.7,39.8z M67.6,38.4
		c0,0-0.1,0.1-0.1,0.1c0-0.1-0.1-0.1-0.1-0.2c0,0,0.1-0.1,0.1-0.1c0.1,0,0.1,0.1,0.2,0.1C67.6,38.2,67.6,38.3,67.6,38.4z M67.7,37.7
		C67.7,37.7,67.7,37.7,67.7,37.7C67.7,37.7,67.6,37.7,67.7,37.7C67.6,37.7,67.7,37.7,67.7,37.7C67.7,37.7,67.7,37.7,67.7,37.7z
		 M67.6,36.2c-0.1,0.1-0.2,0.2-0.2,0.2c-0.1,0-0.2,0-0.2,0v0c0,0,0-0.1,0-0.1c0.1,0,0.1-0.1,0.2-0.1C67.4,36.1,67.5,36.2,67.6,36.2z
		 M67.2,35L67.2,35C67.2,35,67.3,35,67.2,35c0.1,0.1,0.1,0.1,0,0.2C67.2,35.1,67.1,35.1,67.2,35C67.1,35,67.2,35,67.2,35z
		 M67.2,38.4c0.2,0,0.4,0.1,0.3,0.3c0,0.1-0.1,0.1-0.3,0.3c-0.1-0.1-0.2-0.2-0.2-0.3C67,38.5,67.1,38.4,67.2,38.4z M66.9,39.9
		C67,39.9,67,39.9,66.9,39.9C67,39.9,67,40,66.9,39.9C67,40,67,40,66.9,39.9C66.9,40,66.9,39.9,66.9,39.9z M66.8,17
		C66.8,17,66.9,17,66.8,17c0,0.1,0,0.1,0,0.1C66.8,17.1,66.8,17.1,66.8,17C66.8,17.1,66.8,17,66.8,17z M66.5,39
		c0.2,0.2,0.3,0.4,0.1,0.5c-0.1,0-0.2,0-0.3-0.1C66.2,39.3,66.2,39.2,66.5,39z M66.3,38.5C66.3,38.5,66.3,38.5,66.3,38.5
		C66.3,38.5,66.3,38.5,66.3,38.5C66.3,38.5,66.2,38.5,66.3,38.5C66.2,38.5,66.2,38.5,66.3,38.5z M66.3,39.7L66.3,39.7
		c0,0.1-0.2,0.3-0.3,0.3c-0.1,0-0.2,0-0.3-0.1c-0.1,0-0.2-0.1-0.2-0.2c0-0.1,0.1-0.1,0.1-0.2c0.1-0.1,0.2-0.1,0.3-0.1
		C66.2,39.5,66.3,39.6,66.3,39.7z M65.4,38.5c-0.1-0.2-0.1-0.5-0.2-0.7c0-0.2-0.1-0.3,0.2-0.5c0.1,0.4,0.2,0.8,0.3,1.2
		C65.6,38.6,65.4,38.6,65.4,38.5z M65.1,37C65.2,37,65.2,36.9,65.1,37c0.1-0.1,0.1-0.1,0.2,0C65.3,37,65.3,37,65.1,37
		C65.2,37,65.2,37,65.1,37z M65.3,35c0.1,0,0.1,0,0.3,0c0.1,0.1,0.1,0.3,0.2,0.4c0,0-0.1,0.1-0.1,0.1c-0.1,0-0.3,0-0.4-0.1
		c-0.1-0.1-0.1-0.2-0.1-0.3C65.1,35.1,65.2,35,65.3,35z M64.8,34C64.8,34,64.9,34,64.8,34c0.1,0.2,0,0.4,0,0.7
		c-0.2,0-0.4-0.1-0.6-0.1C64.3,34.2,64.6,34.1,64.8,34z M63.9,34.4C63.9,34.4,63.9,34.4,63.9,34.4C63.9,34.4,63.9,34.4,63.9,34.4
		C63.9,34.4,63.9,34.4,63.9,34.4C63.9,34.4,63.9,34.4,63.9,34.4z M63.1,36.4c0,0,0.1,0.1,0.1,0.1c0,0-0.1,0.1-0.1,0.2
		c-0.1-0.1-0.1-0.1-0.2-0.1C63,36.5,63.1,36.4,63.1,36.4z M63,35.6c0,0-0.1,0.1-0.1,0.2c0,0-0.1,0-0.1-0.1L63,35.6L63,35.6z
		 M62.8,16c0,0,0.1,0.1,0.1,0.1c0,0,0,0.1-0.1,0.1c-0.1-0.1-0.1-0.1-0.1-0.1C62.8,16.1,62.8,16,62.8,16z M62.7,18
		C62.7,18,62.7,18.1,62.7,18c0,0.1-0.1,0-0.1,0C62.6,18,62.6,18,62.7,18C62.7,18,62.7,18,62.7,18z M62.1,15.5
		C62.1,15.5,62.1,15.5,62.1,15.5L62.1,15.5L62.1,15.5C62.1,15.5,62.1,15.5,62.1,15.5z M61.7,16c0,0.1,0.1,0.3,0.1,0.4
		c0.1,0,0.2-0.1,0.2-0.1c0.3-0.1,0.5,0,0.6,0.3c0.1,0.2-0.1,0.3-0.2,0.2c-0.2-0.1-0.3-0.2-0.5-0.2c-0.1,0.1-0.3,0.2-0.5,0.3v0.3
		c-0.3,0-0.5-0.4-0.5-0.8C61.2,16.3,61.5,16.1,61.7,16z M61,17.3c-0.2,0.3-0.4,0.2-0.7,0.2c-0.1-0.2,0-0.4,0.3-0.5
		C60.8,17.1,60.9,17.2,61,17.3z M59.7,15.9c0.1,0.1,0.2,0.3,0.4,0.2c0.1,0,0.2,0.1,0.3,0.1c0,0.1,0,0.2-0.1,0.3
		c-0.1,0.1-0.2,0.1-0.3,0.1c0,0-0.1,0-0.1-0.1c0,0.1-0.1,0.2-0.1,0.2c-0.3,0.1-0.5,0.2-0.7,0.2c-0.2-0.2,0.1-0.2,0.2-0.3
		C59.2,16.3,59.2,16.2,59.7,15.9z M59.1,16.1C59.1,16.1,59.1,16.1,59.1,16.1L59.1,16.1C59.1,16.2,59.1,16.2,59.1,16.1
		C59.1,16.1,59.1,16.1,59.1,16.1z M59.3,20.8c-0.1,0.1-0.1,0.2-0.1,0.3c0,0-0.1,0-0.1,0c0-0.1-0.1-0.1-0.1-0.2
		C59.1,20.8,59.2,20.8,59.3,20.8z M59,33C59,33,59,33,59,33c0.1,0.1,0.1,0.1,0,0.1C59,33.1,59,33.1,59,33C59,33,59,33,59,33z
		 M58.7,16.2L58.7,16.2c0,0,0.1,0.1,0.2,0.1c-0.1,0.1-0.1,0.1-0.1,0.1c0,0-0.1-0.1-0.1-0.1C58.6,16.3,58.6,16.2,58.7,16.2z
		 M58.5,13.9c0.1,0.1,0.1,0.3-0.2,0.5c-0.3-0.1-0.4-0.2-0.4-0.5C58.2,13.7,58.3,13.7,58.5,13.9z M57.9,17c-0.4,0-0.4,0-0.2-0.3
		C57.8,16.8,57.9,16.9,57.9,17z M57.6,15.1c0,0,0,0.1,0.1,0.1c-0.1,0-0.2,0.1-0.3,0.1c0,0,0-0.1,0-0.1
		C57.4,15.2,57.5,15.1,57.6,15.1z M57.1,16.4c-0.1-0.1-0.2-0.2-0.3-0.3C57.1,16.1,57.2,16.1,57.1,16.4z M56.5,22.2
		c0,0.1-0.1,0.1-0.1,0.1c-0.2,0-0.2-0.1-0.2-0.3C56.4,22.1,56.6,22,56.5,22.2z M56.3,17.8L56.3,17.8C56.3,17.8,56.4,17.9,56.3,17.8
		c0.1,0.1,0,0.1,0,0.1c0,0,0,0-0.1,0C56.3,17.9,56.3,17.9,56.3,17.8z M56.2,18.3C56.2,18.3,56.3,18.3,56.2,18.3c0,0.1,0,0.1,0,0.1
		c0,0-0.1,0-0.1-0.1C56.2,18.3,56.2,18.3,56.2,18.3z M56.3,25.4C56.3,25.5,56.3,25.5,56.3,25.4c-0.1,0.1-0.1,0.2-0.2,0.2
		c-0.1-0.1-0.1-0.2-0.2-0.3l0.1-0.1C56.1,25.4,56.2,25.4,56.3,25.4z M55.9,17.9C56,17.9,56,17.9,55.9,17.9
		C56,17.9,56,17.9,55.9,17.9C55.9,18,55.9,17.9,55.9,17.9C55.9,17.9,55.9,17.9,55.9,17.9z M55.2,49.4C55.2,49.4,55.2,49.4,55.2,49.4
		C55.2,49.5,55.2,49.5,55.2,49.4C55.2,49.5,55.1,49.5,55.2,49.4C55.1,49.5,55.1,49.5,55.2,49.4z M54.7,49c0,0,0.1,0,0.2,0
		c-0.1,0.1-0.1,0.1-0.1,0.1C54.8,49.1,54.7,49.1,54.7,49C54.7,49.1,54.7,49,54.7,49L54.7,49z M54.7,26.4
		C54.7,26.4,54.7,26.4,54.7,26.4C54.7,26.4,54.6,26.4,54.7,26.4C54.6,26.4,54.7,26.4,54.7,26.4z M48.9,66c0-0.1,0-0.1,0-0.2
		c0,0,0.1,0,0.1,0c0,0.1,0,0.1,0,0.2C48.9,66,48.9,66,48.9,66z M49.1,64.3C49.1,64.3,49.1,64.2,49.1,64.3
		C49.1,64.2,49.2,64.2,49.1,64.3C49.2,64.2,49.2,64.2,49.1,64.3C49.2,64.3,49.1,64.3,49.1,64.3z M49.5,67.8
		C49.5,67.8,49.5,67.9,49.5,67.8c-0.1,0.1-0.2,0-0.2,0C49.4,67.8,49.4,67.8,49.5,67.8C49.5,67.8,49.5,67.8,49.5,67.8L49.5,67.8z
		 M49.3,67.3c0-0.1,0-0.2,0-0.3C49.5,67.1,49.5,67.2,49.3,67.3z M50,64.7C50,64.7,50,64.7,50,64.7C50,64.7,50,64.7,50,64.7
		C50,64.7,50,64.7,50,64.7C50,64.7,50,64.7,50,64.7z M50,54.9C50,54.9,50,54.9,50,54.9c-0.1-0.1,0-0.1,0-0.1
		C50,54.8,50.1,54.8,50,54.9C50.1,54.9,50,54.9,50,54.9z M50.2,60.8C50.2,60.7,50.2,60.7,50.2,60.8C50.2,60.7,50.2,60.7,50.2,60.8
		C50.2,60.7,50.2,60.7,50.2,60.8C50.2,60.8,50.2,60.8,50.2,60.8z M50.3,64.9L50.3,64.9c0,0,0-0.1-0.1-0.2c0,0,0.1,0,0.1,0
		C50.3,64.8,50.4,64.8,50.3,64.9L50.3,64.9z M50.5,58.1L50.5,58.1C50.5,58.1,50.5,58.1,50.5,58.1C50.5,58.1,50.5,58.1,50.5,58.1
		C50.5,58.1,50.5,58.1,50.5,58.1z M50.6,67C50.6,67,50.6,66.9,50.6,67c0.1-0.1,0.1,0,0.1,0C50.7,67,50.7,67,50.6,67
		C50.6,67,50.6,67,50.6,67z M50.8,62.7c0.1,0.1,0.1,0.2,0.1,0.3C50.7,63,50.7,62.9,50.8,62.7z M50.8,64.2L50.8,64.2
		C50.8,64.2,50.8,64.2,50.8,64.2C50.8,64.2,50.8,64.2,50.8,64.2C50.8,64.2,50.8,64.2,50.8,64.2L50.8,64.2z M50.8,56.8
		c0-0.1-0.1-0.1-0.1-0.2h0c0,0,0.1,0,0.1,0C50.8,56.7,50.9,56.7,50.8,56.8C50.9,56.8,50.9,56.8,50.8,56.8z M50.7,63.7
		c0,0.1,0,0.1-0.1,0.2c0,0-0.1,0-0.1,0C50.6,63.8,50.7,63.8,50.7,63.7C50.7,63.7,50.7,63.7,50.7,63.7z M50.7,67.3
		C50.7,67.3,50.7,67.3,50.7,67.3c-0.1-0.1,0-0.2,0-0.2c0,0,0.1,0.1,0.1,0.1C50.8,67.2,50.8,67.3,50.7,67.3z M50.7,65.7
		C50.7,65.6,50.7,65.6,50.7,65.7c0.2-0.1,0.3,0,0.3,0.2C50.8,65.8,50.8,65.7,50.7,65.7z M51,69.4L51,69.4C51,69.4,51,69.4,51,69.4
		L51,69.4L51,69.4z M51.1,50.5c0,0-0.1-0.1-0.1-0.1c0,0,0,0,0.1-0.1C51.1,50.4,51.1,50.4,51.1,50.5C51.1,50.5,51.1,50.5,51.1,50.5z
		 M51.3,66C51.3,66,51.3,66,51.3,66c-0.1-0.1,0-0.1,0-0.2C51.4,65.9,51.3,65.9,51.3,66z M51.9,66.5C51.9,66.5,51.9,66.5,51.9,66.5
		C51.9,66.5,51.9,66.4,51.9,66.5C51.9,66.4,51.9,66.5,51.9,66.5C51.9,66.5,51.9,66.5,51.9,66.5z M52.1,68.2C52,68,52,68,52.2,67.9
		C52.2,68,52.1,68.1,52.1,68.2z M52.2,63.3C52.2,63.3,52.2,63.3,52.2,63.3L52.2,63.3C52.2,63.3,52.2,63.3,52.2,63.3L52.2,63.3z
		 M52.7,66.6C52.7,66.6,52.6,66.6,52.7,66.6C52.7,66.5,52.7,66.5,52.7,66.6C52.7,66.5,52.7,66.6,52.7,66.6z M53.1,67.2L53.1,67.2
		L53.1,67.2L53.1,67.2C53.1,67.2,53.1,67.2,53.1,67.2C53.2,67.2,53.2,67.2,53.1,67.2z M53,62c-0.2-0.2-0.3-0.4-0.2-0.6
		c0.1,0,0.3,0.1,0.4,0.1c0.1,0.3,0.1,0.6,0.2,0.9C52.9,62.5,52.9,62.5,53,62z M54.7,65.5L54.7,65.5L54.7,65.5L54.7,65.5z M55.6,64.8
		C55.6,64.8,55.7,64.8,55.6,64.8c0.1,0.1,0.1,0.1,0.1,0.1C55.6,64.9,55.6,64.9,55.6,64.8C55.6,64.9,55.6,64.8,55.6,64.8z M55.7,68.6
		C55.7,68.7,55.8,68.7,55.7,68.6C55.8,68.7,55.8,68.7,55.7,68.6C55.7,68.7,55.7,68.7,55.7,68.6L55.7,68.6L55.7,68.6
		c-0.2-0.1-0.3-0.3-0.5-0.5C55.6,68.2,55.6,68.3,55.7,68.6z M54.9,64c0,0-0.1,0.1-0.2,0.1c-0.1,0-0.2,0-0.3-0.1c0,0,0-0.2-0.1-0.3
		c0.2,0,0.3,0,0.4,0C54.8,63.8,54.9,63.9,54.9,64z M54.4,63.2C54.4,63.2,54.4,63.3,54.4,63.2C54.4,63.3,54.4,63.3,54.4,63.2
		C54.4,63.3,54.3,63.3,54.4,63.2C54.3,63.3,54.4,63.2,54.4,63.2z M54.4,66.5c0,0,0,0.1-0.1,0.1c0-0.1-0.1-0.1-0.1-0.2h0
		c0,0,0.1-0.1,0.1-0.1C54.3,66.4,54.4,66.4,54.4,66.5z M54.3,59.8C54.3,59.8,54.2,59.8,54.3,59.8C54.2,59.9,54.2,59.8,54.3,59.8
		C54.2,59.8,54.2,59.8,54.3,59.8z M54.2,63L54.2,63C54.2,63,54.2,63,54.2,63C54.2,63,54.2,63,54.2,63z M53.9,64.8
		C53.9,64.8,54,64.9,53.9,64.8C53.9,64.9,53.9,64.9,53.9,64.8C53.9,64.9,53.9,64.9,53.9,64.8C53.9,64.8,53.9,64.8,53.9,64.8z
		 M53.7,60.2C53.7,60.2,53.7,60.2,53.7,60.2C53.7,60.3,53.7,60.3,53.7,60.2C53.7,60.3,53.7,60.3,53.7,60.2
		C53.7,60.3,53.7,60.2,53.7,60.2z M53.4,63.1C53.4,63.1,53.4,63.1,53.4,63.1C53.4,63.1,53.4,63.1,53.4,63.1
		C53.4,63.1,53.4,63.1,53.4,63.1C53.4,63.1,53.4,63.1,53.4,63.1z M53.3,59.4c0,0,0,0.1,0,0.2c0,0-0.1,0-0.1,0
		C53.3,59.5,53.3,59.4,53.3,59.4C53.3,59.4,53.3,59.4,53.3,59.4z M48.6,10.6c0,0.1,0.1,0.1,0.1,0.1c0,0-0.1,0.1-0.1,0.1
		c0,0-0.1-0.1,0-0.1C48.5,10.7,48.5,10.6,48.6,10.6z M50.8,43.9c0.7,0.7,1.5,1.4,2.4,1.9c-0.4,0.6-0.7,1.1-0.9,1.7
		c-0.9,2.1-1.6,2.2-1.6,2.2s-0.7-0.1-1.6-2.2c-0.2-0.5-0.5-1.1-0.9-1.7C49.3,45.3,50.1,44.7,50.8,43.9z M43.4,23.1
		c-0.1,0.1-0.1,0.1-0.2,0.2C43.2,23.1,43.3,23.1,43.4,23.1z M32.8,30.2c0.1,0,0.2,0,0.4-0.1c0,0.1,0,0.2,0,0.2l0,0
		c0.1,0,0.2,0.1,0.3,0.1c0,0,0,0.1,0,0.3c-0.1-0.2-0.2-0.3-0.3-0.4C32.9,30.4,32.9,30.4,32.8,30.2z M32.9,29.6L32.9,29.6
		c0.1-0.1,0.2-0.1,0.3-0.1c0,0.1,0,0.1,0,0.1C33.1,29.8,33,29.8,32.9,29.6z M33.1,31.6C33.1,31.6,33.2,31.6,33.1,31.6
		c0.1,0,0.1,0,0.2,0.1c-0.1,0-0.1,0-0.1,0C33.2,31.7,33.1,31.7,33.1,31.6z M33.2,32.5c0.2-0.2,0.3-0.3,0.4-0.5
		c0.1,0.2,0.2,0.4,0.4,0.6C33.7,32.6,33.5,32.6,33.2,32.5z M34.2,30.4c0.2,0,0.3,0.2,0.3,0.4C34.3,30.7,34.1,30.6,34.2,30.4z
		 M35.5,32.2C35.5,32.2,35.5,32.2,35.5,32.2c-0.1-0.1-0.1-0.1-0.1-0.2h0c0,0,0,0,0.1,0V32.2z M36,32c0,0-0.1,0-0.1,0
		c0-0.1,0-0.1,0-0.2c0,0,0.1,0,0.1,0C36,31.8,36,31.9,36,32L36,32z M36.5,32L36.5,32C36.5,32,36.5,32,36.5,32
		C36.5,32.1,36.5,32,36.5,32C36.5,32,36.5,32,36.5,32L36.5,32z M37.4,30.3c0-0.1,0.1-0.1,0.1-0.1c0,0,0.1,0.1,0.1,0.1
		c-0.1,0.1-0.1,0.1-0.2,0.1C37.5,30.4,37.4,30.3,37.4,30.3z M37.7,30.9C37.7,30.9,37.6,30.9,37.7,30.9
		C37.6,30.9,37.7,30.8,37.7,30.9C37.7,30.8,37.7,30.8,37.7,30.9C37.7,30.8,37.7,30.9,37.7,30.9z M37.7,29.3c-0.1,0-0.2,0-0.2,0
		c0.1,0.2,0.2,0.3,0.2,0.5c0,0.1-0.2,0.2-0.5,0.2c-0.1-0.4,0.3-0.6,0.2-1C37.7,29,37.8,29.1,37.7,29.3z M37.2,28.7
		C37.2,28.7,37.3,28.7,37.2,28.7C37.3,28.7,37.3,28.7,37.2,28.7C37.3,28.7,37.2,28.7,37.2,28.7z M38.6,29.7
		c-0.1,0.2-0.3,0.1-0.5,0.1C38.3,29.6,38.5,29.7,38.6,29.7L38.6,29.7c0-0.1,0-0.1,0-0.2c0,0,0,0,0,0s0,0,0,0
		C38.6,29.6,38.6,29.6,38.6,29.7z M39.9,29.1c0,0.1,0.1,0.1,0.1,0.1c0,0,0,0-0.1,0C39.9,29.2,39.9,29.2,39.9,29.1
		C39.8,29.1,39.9,29.1,39.9,29.1z M39.5,25.9C39.5,25.9,39.5,25.9,39.5,25.9L39.5,25.9C39.5,25.9,39.5,25.9,39.5,25.9L39.5,25.9
		C39.5,25.9,39.5,25.9,39.5,25.9z M39.2,29.4c0.1-0.1,0.2-0.1,0.3,0.1c0.1,0.2-0.1,0.2-0.2,0.3C39.1,29.6,39.1,29.5,39.2,29.4z
		 M39,30.1C39,30.1,39,30.2,39,30.1C39,30.2,39,30.2,39,30.1C39,30.2,38.9,30.2,39,30.1C38.9,30.2,39,30.1,39,30.1z M38.7,27.9
		C38.7,27.9,38.7,27.9,38.7,27.9c0.1,0.1,0,0.1,0,0.2L38.7,27.9C38.6,27.9,38.6,27.9,38.7,27.9z M38.4,27.5
		C38.4,27.5,38.5,27.5,38.4,27.5c0,0.1,0,0.1,0,0.2c0,0-0.1,0-0.1-0.1C38.3,27.6,38.4,27.6,38.4,27.5z M38.5,28.8
		c0.1,0.1,0.1,0.2,0.2,0.3c-0.2,0.1-0.4,0.2-0.5,0.2c0-0.3-0.4-0.2-0.4-0.5c0.2-0.1,0.3,0.1,0.5,0.2C38.2,28.8,38.3,28.6,38.5,28.8z
		 M37.9,26.2c0,0.1-0.2,0.2-0.4,0.2c-0.1,0-0.2-0.1-0.2-0.2h0c0-0.2,0.1-0.3,0.3-0.3C37.7,26,37.9,26,37.9,26.2z M37.2,24
		c0,0-0.1-0.1-0.2-0.1c0,0,0.1-0.1,0.2-0.2c0,0,0.1,0.1,0.2,0.1C37.4,23.9,37.3,23.9,37.2,24z M37,23.1c0.1,0.1,0.3,0.2,0.4,0.3
		c0,0.2-0.2,0.2-0.3,0.1C36.9,23.5,36.9,23.4,37,23.1z M36.8,23.8c0,0,0.1,0.1,0.1,0.1c-0.1,0-0.1,0.1-0.1,0.1
		C36.7,23.9,36.7,23.8,36.8,23.8C36.7,23.8,36.7,23.8,36.8,23.8z M36.8,27c0.3,0.2,0.5,0.3,0.8,0.2c0,0,0.1,0,0.1,0.1
		c0.1,0.3,0.3,0.5,0.3,0.8c0.1,0.3,0,0.4-0.4,0.4c-0.2,0-0.4-0.1-0.6,0.1c-0.2-0.3-0.3-0.5-0.5-0.8C36.7,27.5,36.7,27.3,36.8,27z
		 M36.9,29.1c0.1,0.1,0.1,0.1,0.1,0.1c0,0-0.1,0.1-0.1,0.1h0c0,0-0.1-0.1-0.1-0.1C36.8,29.2,36.9,29.1,36.9,29.1z M36.9,28.7
		L36.9,28.7C36.9,28.7,36.9,28.7,36.9,28.7C36.9,28.8,36.9,28.8,36.9,28.7C36.9,28.8,36.9,28.8,36.9,28.7z M36.3,29.4
		c0,0,0-0.1,0-0.1c0.3,0,0.5,0.2,0.5,0.7c0.1,0,0.1,0,0.2,0.1c0,0.2-0.2,0.2-0.4,0.2v0c-0.1-0.1-0.2-0.2-0.3-0.3
		c-0.1,0.1-0.1,0.2-0.2,0.3c0,0,0,0-0.1,0c0-0.1-0.1-0.2,0-0.2c0-0.1,0.1-0.1,0.2-0.2C36.4,29.7,36.5,29.5,36.3,29.4z M36,28.8
		c0.1,0.1,0.1,0.2,0.2,0.4l0,0c-0.2,0-0.4-0.1-0.5-0.1c0,0,0-0.1,0-0.1C35.8,29,35.9,28.9,36,28.8z M35.5,25.7L35.5,25.7L35.5,25.7
		L35.5,25.7z M35.4,28.6C35.4,28.7,35.4,28.7,35.4,28.6c0,0.1,0,0.1,0,0.1C35.3,28.7,35.3,28.7,35.4,28.6
		C35.3,28.7,35.4,28.7,35.4,28.6z M35.2,30.7c0-0.2,0.1-0.4,0.2-0.7c0.5,0.3,0.6,0.5,0.5,0.7c-0.1,0.2-0.1,0.3-0.3,0.3l0,0
		c-0.1,0-0.2,0.1-0.4,0.2C35.3,31.1,35.2,30.9,35.2,30.7z M34.7,27.8c0,0,0,0.1,0.1,0.1c0,0,0,0.1,0,0.1c0,0,0,0-0.1,0
		C34.7,28,34.7,27.9,34.7,27.8C34.7,27.8,34.7,27.8,34.7,27.8z M34.4,28.8c0,0-0.1,0-0.1,0l0,0C34.3,28.8,34.4,28.8,34.4,28.8z
		 M34.3,28.8C34.3,28.8,34.3,28.8,34.3,28.8c0,0.1,0,0.2-0.2,0.2c-0.1,0-0.1-0.1-0.1-0.3C34.2,28.8,34.2,28.8,34.3,28.8z M33.9,27.9
		L33.9,27.9C34,28,34,28,33.9,27.9L33.9,27.9C33.9,28,33.9,28,33.9,27.9z M33.9,31.1c-0.1,0.1-0.1,0.1-0.2,0.1c0,0-0.1-0.1-0.1-0.1
		c0,0,0.1-0.1,0.1-0.1C33.7,31,33.8,31.1,33.9,31.1z M32.8,28.3c0.1-0.1,0.2-0.2,0.3-0.1c0.1,0.1,0.3,0.1,0.5,0.2
		c-0.1,0.2-0.2,0.3-0.3,0.5c-0.2-0.1-0.3-0.2-0.4-0.3C32.8,28.5,32.8,28.4,32.8,28.3z M32.8,29.3c0,0,0,0.1,0,0.1c0,0,0,0.1,0,0.1
		c0,0-0.1,0-0.1-0.1l0,0c0,0,0-0.1,0-0.1C32.7,29.3,32.8,29.3,32.8,29.3z M32.7,31.4L32.7,31.4C32.7,31.4,32.7,31.5,32.7,31.4
		C32.7,31.5,32.7,31.4,32.7,31.4C32.7,31.4,32.7,31.4,32.7,31.4z M31.9,30.4L31.9,30.4L31.9,30.4C31.9,30.5,31.8,30.5,31.9,30.4
		C31.8,30.4,31.9,30.4,31.9,30.4z M27.9,31.6c0,0,0-0.1-0.1-0.1L27.9,31.6c0-0.1,0.1-0.2,0.2-0.2c0,0,0.1,0.1,0.1,0.1
		C28.1,31.5,28,31.6,27.9,31.6z M28.2,32L28.2,32L28.2,32L28.2,32z M28.7,32.3C28.7,32.3,28.7,32.3,28.7,32.3
		C28.7,32.4,28.7,32.3,28.7,32.3L28.7,32.3C28.7,32.3,28.7,32.3,28.7,32.3z M28.8,32C28.8,32,28.8,32,28.8,32c0-0.1,0-0.1,0-0.1
		C28.8,31.9,28.8,32,28.8,32C28.8,32,28.8,32,28.8,32z M30.2,36.1L30.2,36.1L30.2,36.1L30.2,36.1z M30.3,31.6
		C30.3,31.6,30.2,31.6,30.3,31.6C30.2,31.6,30.2,31.6,30.3,31.6C30.2,31.6,30.2,31.6,30.3,31.6C30.3,31.6,30.3,31.6,30.3,31.6z
		 M30.9,31.1L30.9,31.1L30.9,31.1L30.9,31.1z M30.6,31.6C30.7,31.6,30.7,31.6,30.6,31.6c0.1,0.1,0,0.2,0,0.2c0,0-0.1,0-0.2-0.1
		C30.6,31.6,30.6,31.6,30.6,31.6z M30.4,30.2L30.4,30.2L30.4,30.2L30.4,30.2z M30.4,30.5c-0.1,0.1-0.3,0.2-0.5,0.3
		c-0.1-0.1-0.1-0.2-0.2-0.4C30,30.3,30.2,30.4,30.4,30.5z M29.7,31.4L29.7,31.4C29.7,31.4,29.7,31.4,29.7,31.4
		C29.7,31.4,29.7,31.4,29.7,31.4C29.7,31.4,29.7,31.4,29.7,31.4z M29.3,31.4C29.3,31.4,29.4,31.5,29.3,31.4c0,0.1,0,0.1,0,0.1
		C29.3,31.6,29.3,31.5,29.3,31.4C29.3,31.5,29.3,31.4,29.3,31.4z M30,31.6c0.1,0.1,0.1,0.2,0.2,0.3c-0.2,0.1-0.3,0.2-0.4,0.4
		c0,0.1-0.2,0.3-0.2,0.4c-0.2-0.2,0-0.3,0-0.4c-0.1-0.2-0.3-0.3-0.4-0.5C29.5,31.8,29.7,31.7,30,31.6z M28.9,30.1
		c-0.4,0.1-0.4,0.1-0.7-0.2C28.7,29.6,28.9,29.7,28.9,30.1z M28.4,29.1C28.4,29.1,28.4,29.1,28.4,29.1L28.4,29.1
		C28.4,29.1,28.4,29.1,28.4,29.1C28.3,29.1,28.4,29.1,28.4,29.1z M28,29.1c0.2-0.1,0.3,0.1,0.4,0.3c-0.2,0.1-0.4,0.1-0.6,0.1
		C27.8,29.3,27.9,29.2,28,29.1z M27.8,31.7C27.8,31.7,27.8,31.7,27.8,31.7C27.8,31.8,27.8,31.8,27.8,31.7
		C27.8,31.8,27.8,31.8,27.8,31.7C27.8,31.7,27.8,31.7,27.8,31.7z M26.7,30.5C26.7,30.5,26.8,30.5,26.7,30.5
		C26.8,30.5,26.8,30.5,26.7,30.5C26.7,30.6,26.7,30.6,26.7,30.5C26.7,30.5,26.7,30.5,26.7,30.5z M26.5,30.9L26.5,30.9L26.5,30.9
		L26.5,30.9z M24.6,37.1C24.6,37.1,24.6,37,24.6,37.1C24.6,37,24.6,37,24.6,37.1C24.6,37,24.6,37,24.6,37.1
		C24.7,37,24.6,37.1,24.6,37.1z M24.5,36c0-0.2,0.2-0.3,0.3-0.3c0,0.2,0.1,0.4,0.1,0.6l0,0c0,0-0.1,0-0.1,0.1
		C24.8,36.2,24.6,36.1,24.5,36z M25.1,37.7c-0.3-0.4-0.3-0.6,0.1-0.7C25.2,37.3,25.4,37.5,25.1,37.7z M25.3,36.1
		C25.3,36.1,25.3,36.1,25.3,36.1C25.3,36.1,25.3,36.1,25.3,36.1C25.3,36.1,25.3,36.1,25.3,36.1C25.3,36.1,25.3,36.1,25.3,36.1z
		 M25.7,36.5c0-0.5,0-0.5,0.3-0.5C26.1,36.3,26,36.4,25.7,36.5z M26.8,37.3C26.8,37.3,26.8,37.3,26.8,37.3
		C26.8,37.3,26.8,37.3,26.8,37.3C26.8,37.2,26.8,37.2,26.8,37.3C26.8,37.3,26.8,37.3,26.8,37.3z M26.8,36.9L26.8,36.9
		c-0.1-0.1-0.2-0.1-0.2-0.2c-0.1,0.1-0.1,0.2-0.2,0.3c-0.1-0.2-0.2-0.3-0.3-0.4c0.2-0.1,0.4-0.1,0.7-0.1
		C26.8,36.6,26.9,36.8,26.8,36.9C26.9,36.9,26.9,36.9,26.8,36.9z"/>
	<path class="st0" d="M59.9,6.2L59.9,6.2c2.5-1.2,4.9-1.4,7.6,0.3c0.7,0.5,1.1,0.8,1.7,1.3c0.1,0.1,0.2,0.1,0.2,0.1
		c0.1,0,0.2,0,0.3,0c0.7-0.3,1.2-0.5,2-0.7c2-0.6,3.6-0.4,5.1,0.3c0.1,0,0.2-0.1,0.4-0.2c0,0.2,0.1,0.3,0.1,0.4
		C77.8,8,78.5,8.5,79.1,9c0.2,0.2,0.6,0,0.5-0.3c-2-4.1-6.2-5.6-9.8-2.9c-2.7-3.7-7.1-3.4-10.2,0C59.3,6,59.6,6.3,59.9,6.2z
		 M74.8,4.8L74.8,4.8c0.2-0.1,0.5,0,0.6,0.2c0.1,0.2-0.1,0.4-0.4,0.5c-0.1-0.1-0.2-0.2-0.3-0.4C74.5,5,74.6,4.9,74.8,4.8z M74.1,5.7
		C74.1,5.7,74.1,5.7,74.1,5.7L74.1,5.7L74.1,5.7C74.1,5.7,74.1,5.7,74.1,5.7z M73.7,5.9L73.7,5.9C73.7,5.9,73.7,6,73.7,5.9
		C73.7,6,73.6,6,73.7,5.9C73.6,6,73.6,5.9,73.7,5.9C73.7,5.9,73.7,5.9,73.7,5.9z M73.5,5.4C73.6,5.4,73.6,5.5,73.5,5.4l0.1,0.1
		c0,0-0.1,0.1-0.1,0.1c0,0-0.1-0.1-0.1-0.1C73.5,5.5,73.5,5.5,73.5,5.4z M71.3,6.7C71.3,6.7,71.3,6.7,71.3,6.7L71.3,6.7
		C71.3,6.7,71.3,6.7,71.3,6.7C71.3,6.7,71.3,6.7,71.3,6.7z M69.7,6c0,0,0.2,0,0.2,0c0.1,0.1,0.1,0.2,0.1,0.3c0,0-0.1,0-0.1,0.1
		c-0.1-0.1-0.2-0.1-0.2-0.2l0,0C69.6,6.2,69.6,6,69.7,6z M63.2,4.9c0,0,0,0.1-0.1,0.1c0,0-0.1-0.1-0.1-0.1
		C63.1,4.9,63.1,4.8,63.2,4.9C63.2,4.8,63.2,4.9,63.2,4.9z M62.8,3.9c0-0.1,0.2-0.2,0.2-0.2l0.1,0.1c0,0.1,0,0.2-0.1,0.3
		c0,0-0.2,0.1-0.2,0.1C62.8,4.1,62.8,4,62.8,3.9L62.8,3.9z"/>
	<path class="st0" d="M21.4,79.7c0,0-0.1,0.1-0.1,0.1c0.1,0,0.1,0.1,0.1,0.1c0.1,0,0.1-0.1,0.1-0.1v0C21.5,79.8,21.4,79.7,21.4,79.7
		z"/>
	<path class="st0" d="M37.4,90.3c0.1-0.1,0.1-0.1,0.2-0.2C37.5,90.1,37.5,90.2,37.4,90.3z"/>
	<polygon class="st0" points="27.7,58.8 27.7,58.8 27.7,58.8 27.7,58.8 	"/>
	<path class="st0" d="M23,90.6c-0.7,0-1.2,0.6-1.2,1.2c0,0.2,0.1,0.4,0.2,0.6c0,0,0,0,0,0c0,0,0,0,0,0c0,0,0,0,0,0
		c0.2,0.4,0.6,0.6,1.1,0.6c0.5,0,1-0.3,1.1-0.8c0,0,0,0,0,0c0-0.1,0-0.2,0.1-0.2c0-0.1,0-0.1,0-0.2C24.2,91.1,23.6,90.6,23,90.6z
		 M22.5,91.8c-0.3-0.4-0.3-0.5,0.2-0.7c0.3,0.2,0.1,0.5,0.3,0.7H22.5z M23.6,92.5c-0.1,0.1-0.1,0.1-0.2,0.3c0-0.2-0.1-0.3-0.1-0.4
		h0.4C23.7,92.5,23.7,92.5,23.6,92.5z"/>
	<path class="st0" d="M11.7,27.3L11.7,27.3c0.1,0,0.2-0.1,0.2-0.1c0.5-0.5,0.8-0.9,1.4-1.4c2.3-2,4.6-2.2,7.1-1.4
		c0.3,0.1,0.5-0.3,0.3-0.5c-3.4-2.7-7.6-2.3-9.6,1.5c-3.8-2.1-7.5,0-8.8,4.1c-0.1,0.3,0.3,0.5,0.5,0.2c1.6-2.1,3.6-3.2,6.7-2.9
		c0.8,0.1,1.3,0.3,1.9,0.4C11.6,27.3,11.7,27.3,11.7,27.3z M5.2,27.4L5.2,27.4C5.2,27.4,5.2,27.4,5.2,27.4L5.2,27.4
		C5.2,27.3,5.2,27.3,5.2,27.4C5.2,27.4,5.2,27.4,5.2,27.4z M5.9,25.8C5.9,25.8,5.9,25.8,5.9,25.8C5.9,25.7,5.9,25.7,5.9,25.8
		L5.9,25.8z M7.7,25.6c0.1,0.1,0.2,0.2,0.3,0.3C7.7,25.9,7.6,25.8,7.7,25.6z M8.9,26.4C8.8,26.4,8.8,26.4,8.9,26.4
		c0-0.1,0-0.1,0-0.1C8.9,26.3,8.9,26.4,8.9,26.4C8.9,26.4,8.9,26.4,8.9,26.4z M12,25c0.4-0.1,0.5,0,0.4,0.5h0
		c-0.2,0-0.3-0.1-0.5-0.1c-0.1,0-0.1-0.1-0.1-0.2C11.8,25.1,11.9,25,12,25z M10.8,27L10.8,27L10.8,27L10.8,27z M11.2,26.3
		C11.2,26.3,11.2,26.3,11.2,26.3C11.2,26.3,11.2,26.3,11.2,26.3C11.2,26.3,11.2,26.3,11.2,26.3C11.2,26.3,11.2,26.3,11.2,26.3z
		 M11.3,27C11.3,26.9,11.2,26.9,11.3,27c0-0.1,0-0.1,0-0.1C11.3,26.8,11.3,26.9,11.3,27C11.3,26.9,11.3,26.9,11.3,27z M11.6,26
		c0.3,0.2,0.3,0.4,0.1,0.6c-0.2,0-0.3-0.1-0.3-0.2C11.4,26.3,11.5,26.1,11.6,26z"/>
	<path class="st0" d="M21.4,62c1.6,1.6,4.1,2,6.4,1.3v5.8c0,0.3,0.2,0.5,0.5,0.5h0.6c0.3,0,0.5-0.2,0.5-0.5V55.9
		c1.9,0.3,3.9-0.2,5.2-1.6c0.6-0.6,1.1-1.4,1.3-2.2c0,0,0,0-0.1,0c-0.2,0-0.3-0.1-0.3-0.3c0.2,0,0.3,0,0.5,0c0,0.1,0,0.1-0.1,0.2
		c0.1-0.3,0.2-0.6,0.2-0.9c0,0,0,0,0,0c0,0,0,0,0,0c0,0,0-0.1,0-0.1c0,0,0,0,0,0c0.2-1,0.1-2.1-0.3-3.2c-0.5-0.2-1.1-0.3-1.6-0.3
		l0,0l-0.1,0.1l-0.1-0.1c-1.8-0.2-3.5,0.4-4.8,1.6c-0.6,0.6-1,1.2-1.2,1.9l0,0l0.1,0.1l-0.1,0.1l-0.1-0.1c-0.1,0.4-0.3,0.8-0.3,1.2
		l0,0.1h0c-0.1,0.4-0.1,0.8-0.1,1.2h0v5.2l0,0h0v0l-0.1,0.1l-0.1-0.1l0.1-0.1l0,0c-0.3-0.7-0.7-1.4-1.2-1.9c-1.3-1.3-3-1.8-4.8-1.6
		l-0.1,0.1l-0.1-0.1l0,0c-0.5,0.1-1,0.2-1.5,0.3C19.3,57.9,19.7,60.4,21.4,62z M20,59.2L20,59.2l0-0.1L20,59.2L20,59.2z M35,53.2
		L35,53.2C35,53.2,35,53.1,35,53.2L35,53.2L35,53.2z M35,52.1c0.1-0.1,0.2,0,0.2,0.1C35.1,52.1,35.1,52.3,35,52.1z M35.1,52.4
		L35.1,52.4L35.1,52.4L35.1,52.4L35.1,52.4z M35.1,53.1c0,0-0.1-0.1-0.1-0.1c0,0,0.1-0.1,0.1-0.1c0,0,0.1,0,0.1,0.1
		C35.2,52.9,35.2,53,35.1,53.1z M35.2,52.2C35.2,52.2,35.2,52.1,35.2,52.2c0-0.1,0-0.1,0-0.1c0,0,0,0,0.1,0.1
		C35.3,52.1,35.3,52.2,35.2,52.2z M35.4,51.2L35.4,51.2l0-0.1L35.4,51.2L35.4,51.2z M35.6,50.3L35.6,50.3L35.6,50.3L35.6,50.3z
		 M35.9,50.2C35.9,50.2,35.9,50.2,35.9,50.2C35.9,50.2,35.9,50.2,35.9,50.2L35.9,50.2z M35.8,51.3L35.8,51.3l0,0.1L35.8,51.3
		L35.8,51.3z M35.7,49.6c-0.2,0.1-0.2,0.2-0.3,0.2l0.1,0.1l-0.1,0.1l-0.1-0.1l0,0c-0.1,0-0.1,0-0.2-0.1
		C35.3,49.7,35.5,49.6,35.7,49.6z M35,50.8L35,50.8l0,0.1L35,50.8L35,50.8z M34.9,53.5C34.8,53.5,34.8,53.5,34.9,53.5
		C34.8,53.5,34.8,53.4,34.9,53.5C34.9,53.4,34.9,53.5,34.9,53.5C34.9,53.5,34.9,53.5,34.9,53.5z M34.4,52c0.2,0.1,0.3,0.1,0.5,0.2
		c0,0,0,0.1,0,0.1c-0.2,0-0.3,0.1-0.5,0.2C34.4,52.3,34.4,52.2,34.4,52z M33.9,52.1c0.1,0.1,0.1,0.3-0.1,0.4
		C33.8,52.3,33.9,52.2,33.9,52.1z M33.9,52.8L33.9,52.8c0.2,0.1,0.5,0.1,0.7,0.1c-0.2,0.2-0.4,0.2-0.6,0.2c-0.2,0-0.4-0.1-0.6-0.2
		C33.6,52.7,33.6,52.7,33.9,52.8z M33.3,53.5c0,0-0.1,0-0.1,0c0,0,0,0,0-0.1C33.2,53.4,33.2,53.4,33.3,53.5l-0.1-0.1l0.1-0.1
		l0.1,0.1L33.3,53.5C33.3,53.4,33.3,53.4,33.3,53.5z M33.3,49.1C33.3,49.1,33.2,49,33.3,49.1C33.2,49,33.2,49,33.3,49.1z M33,55
		c0,0.1,0.1,0.1,0.1,0.2C33.1,55.2,33.1,55.1,33,55L33,55z M32.8,54.2C32.8,54.2,32.8,54.2,32.8,54.2c0.1,0.1,0.1,0.1,0.1,0.2
		c0,0-0.1,0-0.1,0V54.2z M32.9,54.4c0,0.2,0,0.4,0.1,0.5c-0.1-0.1-0.1-0.1-0.2-0.2C32.7,54.6,32.7,54.5,32.9,54.4z M32.6,53.4
		C32.6,53.4,32.6,53.4,32.6,53.4C32.6,53.5,32.6,53.5,32.6,53.4C32.6,53.5,32.6,53.5,32.6,53.4C32.6,53.4,32.6,53.4,32.6,53.4z
		 M32.1,52.8l0.1,0.1L32.1,52.8L32.1,52.8z M31.8,53.3C31.8,53.3,31.8,53.4,31.8,53.3C31.8,53.4,31.8,53.4,31.8,53.3
		C31.8,53.4,31.8,53.4,31.8,53.3C31.8,53.4,31.8,53.3,31.8,53.3z M28.8,51.3L28.8,51.3l0-0.1L28.8,51.3L28.8,51.3z M28.9,51.7
		L28.9,51.7l0-0.1l0,0l0,0l0.1,0.1L28.9,51.7L28.9,51.7L28.9,51.7z M28.9,51.2L28.9,51.2h0.1H28.9L28.9,51.2z M29.1,51.7L29.1,51.7
		l0-0.1L29.1,51.7L29.1,51.7z M29.4,51.6L29.4,51.6l0-0.1L29.4,51.6L29.4,51.6z M29.4,51.4L29.4,51.4l0-0.1L29.4,51.4L29.4,51.4z
		 M29.5,51L29.5,51l0-0.1L29.5,51L29.5,51z M30.1,50.6L30.1,50.6l0,0.1L30.1,50.6L30.1,50.6z M29.9,50.8L29.9,50.8l0,0.1L29.9,50.8
		L29.9,50.8z M29.8,50.6L29.8,50.6l0,0.1L29.8,50.6L29.8,50.6z M29.7,50.6L29.7,50.6l0,0.1L29.7,50.6L29.7,50.6z M29.6,50.3
		L29.6,50.3l0,0.1L29.6,50.3L29.6,50.3z M29.6,50.8L29.6,50.8h-0.1H29.6L29.6,50.8z M29.4,50.6L29.4,50.6l0,0.1L29.4,50.6L29.4,50.6
		z M29.4,50.9c-0.1-0.1-0.1-0.2-0.2-0.2C29.1,50.8,29.2,50.6,29.4,50.9z M29.1,50.1L29.1,50.1l0,0.1L29.1,50.1L29.1,50.1z M29,50.2
		L29,50.2l0,0.1L29,50.2L29,50.2z M28.9,50.6L28.9,50.6l0,0.1L28.9,50.6L28.9,50.6z M28.8,51L28.8,51l0,0.1L28.8,51L28.8,51z
		 M28.6,51.1L28.6,51.1l0,0.1L28.6,51.1L28.6,51.1z M28.5,51.2L28.5,51.2L28.5,51.2L28.5,51.2L28.5,51.2z M28.3,51L28.3,51l0,0.1
		L28.3,51L28.3,51z M28.1,51.3L28.1,51.3L28.1,51.3L28.1,51.3L28.1,51.3z M28,65.7C28,65.7,28,65.7,28,65.7c0.1,0,0.1,0,0.1,0
		c0,0-0.1,0.1-0.1,0.1C28,65.8,27.9,65.7,28,65.7L28,65.7z M25.9,61.3c0-0.1-0.1-0.1-0.1-0.1c0,0,0.1-0.1,0.1-0.1c0,0,0.1,0,0.1,0.1
		C25.9,61.2,25.9,61.2,25.9,61.3z M26.3,58.7L26.3,58.7l0.1,0L26.3,58.7L26.3,58.7z M26.5,59.1L26.5,59.1l0-0.1L26.5,59.1L26.5,59.1
		z M26.5,59.3L26.5,59.3l-0.1,0L26.5,59.3L26.5,59.3z M26.6,60.3c0,0-0.2-0.1-0.2-0.1c-0.1-0.2,0.1-0.2,0.2-0.3
		c0.1,0.1,0.1,0.1,0.2,0.2C26.8,60.2,26.7,60.3,26.6,60.3z M26.8,59.3L26.8,59.3l0-0.1L26.8,59.3L26.8,59.3z M26.8,58.9L26.8,58.9
		H27H26.8L26.8,58.9z M27,59.3L27,59.3l-0.1,0L27,59.3l-0.1,0l0.1-0.1L27,59.3L27,59.3L27,59.3z M27.1,59L27.1,59l0-0.1L27.1,59
		L27.1,59z M27.6,61C27.6,61,27.6,61,27.6,61C27.6,61,27.6,61,27.6,61C27.7,61,27.7,61,27.6,61C27.7,61,27.6,61,27.6,61z M27.6,58.7
		L27.6,58.7l0,0.1L27.6,58.7L27.6,58.7z M27.9,59.8c0,0.1-0.1,0.2-0.3,0.2c-0.2,0-0.4-0.1-0.4-0.3c0-0.1,0.1-0.2,0.2-0.2
		C27.6,59.6,27.8,59.6,27.9,59.8z M27.4,58.9L27.4,58.9l-0.1,0L27.4,58.9L27.4,58.9z M27.3,58.8L27.3,58.8l0,0.1L27.3,58.8
		L27.3,58.8z M27.2,58.7L27.2,58.7l-0.1,0L27.2,58.7L27.2,58.7z M27.1,58.4L27.1,58.4l-0.1,0L27.1,58.4L27.1,58.4z M26.9,58L26.9,58
		l-0.1,0L26.9,58L26.9,58z M26.8,57.8L26.8,57.8l0,0.1L26.8,57.8L26.8,57.8z M26.7,58.4c-0.1,0-0.1,0.1-0.2,0.2
		C26.7,58.2,26.8,58.5,26.7,58.4z M26.5,58.2L26.5,58.2l0,0.1L26.5,58.2L26.5,58.2z M26.5,58.5L26.5,58.5h-0.1H26.5L26.5,58.5z
		 M26.3,58L26.3,58l0,0.1L26.3,58L26.3,58z M26.2,58.4L26.2,58.4l-0.1,0L26.2,58.4L26.2,58.4z M26.1,58.3L26.1,58.3l0,0.1L26.1,58.3
		L26.1,58.3z M26,58.6L26,58.6l-0.1,0L26,58.6L26,58.6z M25.8,58.3L25.8,58.3l0,0.1L25.8,58.3L25.8,58.3z M25.6,60.4
		c0,0,0.1,0.1,0.1,0.1c-0.1,0.1-0.1,0.1-0.2,0.2c0,0-0.1-0.1-0.2-0.1C25.4,60.5,25.5,60.4,25.6,60.4z M23.8,60.5L23.8,60.5l0,0.1
		L23.8,60.5z M22.6,61L22.6,61l0,0.1L22.6,61L22.6,61z M22.2,60.5L22.2,60.5L22.2,60.5L22.2,60.5L22.2,60.5z M21.9,60.6L21.9,60.6
		C21.9,60.6,21.9,60.6,21.9,60.6c0.1,0.1,0,0.2,0,0.1C21.8,60.7,21.8,60.7,21.9,60.6C21.8,60.6,21.8,60.6,21.9,60.6z M20.4,58.9
		L20.4,58.9l0-0.1L20.4,58.9L20.4,58.9z M20.7,60.2L20.7,60.2L20.7,60.2L20.7,60.2L20.7,60.2z M20.6,59.9c0.1-0.1,0.2-0.2,0.2-0.1
		C20.8,60,20.7,59.8,20.6,59.9z M21.5,61.1C21.5,61.1,21.5,61.1,21.5,61.1C21.5,61.2,21.5,61.2,21.5,61.1
		C21.5,61.2,21.5,61.1,21.5,61.1L21.5,61.1C21.5,61.1,21.5,61.1,21.5,61.1z M21.4,56.2C21.4,56.2,21.4,56.2,21.4,56.2
		C21.4,56.3,21.4,56.3,21.4,56.2C21.4,56.3,21.4,56.3,21.4,56.2L21.4,56.2C21.3,56.3,21.4,56.2,21.4,56.2z M20.9,58.5L20.9,58.5
		l-0.1,0L20.9,58.5L20.9,58.5z M20.4,57.5L20.4,57.5C20.4,57.5,20.4,57.5,20.4,57.5c0.2,0.1,0.4,0.3,0.4,0.6
		C20.6,58,20.5,57.8,20.4,57.5l0,0.1L20.4,57.5L20.4,57.5z M20.2,58L20.2,58L20.2,58L20.2,58L20.2,58z"/>
	<path class="st0" d="M37.5,89c-0.1-0.1-0.2-0.2-0.3-0.3c0.1-0.2,0.3-0.1,0.4-0.1c-0.2-0.3-0.6-0.5-1-0.5c-0.7,0-1.2,0.6-1.2,1.2
		c0,0.7,0.6,1.2,1.2,1.2c0.3,0,0.6-0.1,0.8-0.3c-0.1-0.1-0.3-0.2-0.5,0c0-0.3,0.1-0.4,0.1-0.6c0.3-0.1,0.2,0.2,0.3,0.3
		c0-0.1,0-0.2,0.1-0.3l0,0h0c0,0,0,0,0,0c0.1,0,0.1,0.1,0.2,0.1c0.1,0,0.1,0,0.2,0c0,0.1-0.1,0.2-0.1,0.2c0.1-0.2,0.2-0.4,0.2-0.6
		c0-0.2-0.1-0.4-0.1-0.5C37.7,88.9,37.6,89,37.5,89z M35.6,88.9c0.1-0.1,0.2-0.1,0.2-0.2c0-0.1-0.1-0.2-0.1-0.3c0,0,0.1,0,0.1,0
		c0.1,0.1,0.3,0.2,0.2,0.4C36,88.9,35.8,89,35.6,88.9z M36.2,89.7c-0.2,0-0.4-0.1-0.3-0.3c0-0.1,0.1-0.2,0.2-0.2c0.1,0,0.1,0,0.2,0
		c0.3,0,0.3,0.1,0.3,0.3C36.6,89.7,36.4,89.8,36.2,89.7z M36.9,89.3c-0.1,0-0.1,0-0.2,0c0-0.1,0-0.2,0-0.2c0.1-0.1,0.1-0.1,0.2-0.2
		c0,0,0.1,0.1,0.1,0.1C37,89.2,37,89.2,36.9,89.3z"/>
	<path class="st0" d="M21.7,55.2L21.7,55.2L21.7,55.2C21.6,55.3,21.7,55.2,21.7,55.2z"/>
	<path class="st0" d="M76,53.7c0.1,0,0.2-0.1,0.3-0.2v0c0.2,0.3,0.1,0.5-0.2,0.4c-0.1,0-0.2,0-0.3-0.1c-0.4,0.3-0.7,0.7-1.1,1.1
		c0,0,0,0,0,0c0,0,0,0,0,0c0,0,0,0,0,0.1c0,0,0,0,0,0c-0.6,0.6-1.1,1.4-1.7,2.3c-0.6,1-1.1,2.2-1.4,3.5c-1.6-3.4-3.8-4.2-3.9-4.2
		c-0.3-0.1-0.7,0-0.8,0.3c-0.2,0.3-0.1,0.6,0.1,0.9c0.1,0.1,1.2,1.3,1.6,3.7c0,0,0,0,0,0c0,0,0.1,0.1,0.1,0.1c0,0,0,0-0.1,0.1
		c0,0,0,0,0,0c0,0,0,0,0,0c0.1,0.7,0.2,1.6,0.1,2.5c-0.2-0.4-0.4-0.9-0.7-1.3c0,0,0,0-0.1,0c-0.1,0-0.2-0.1-0.2-0.2
		c0,0,0-0.1,0.1-0.1c-0.7-1-1.5-2.1-2.6-3c-0.3-0.3-0.7-0.2-1,0c-0.3,0.3-0.3,0.7-0.1,1c0,0,0.7,0.9,1.1,2.4l0.1,0.3
		c0.6,2.2,0.9,3.6,0.6,5.5c0,0.2,0,0.4,0.2,0.6c0.1,0.2,0.3,0.3,0.6,0.3h1.1c0,0,0,0,0,0c0,0,0,0,0,0H82c0.4,0,0.7-0.3,0.7-0.7
		c0-4.3,1.4-6,3.7-8.9c0.2-0.2,0.2-0.5,0.1-0.8c-0.1-0.3-0.4-0.4-0.7-0.4c-0.5,0-3.3,1.8-5.4,5.8c0.1-4.5,2.3-6.9,2.4-7
		c0.2-0.2,0.2-0.4,0.2-0.6c0-0.2-0.2-0.4-0.4-0.5c-0.8-0.4-4.3,1.9-5.8,4.9c-0.2,0.3-0.3,0.7-0.5,1.1c0.3,0.2,0.3,0.2,0,0.5
		c0-0.1-0.1-0.2-0.1-0.3c0,0,0,0,0,0c-0.1,0.3-0.2,0.7-0.3,1c-0.1-0.5-0.1-1-0.1-1.5c0.5-4.5,3.1-7.7,4.2-8.9h0c0,0,0.1-0.1,0.1-0.2
		c0,0,0,0-0.1-0.1c0,0,0.1,0,0.1-0.1c0,0,0,0,0,0c0.1-0.2,0.1-0.3,0-0.5c-0.1-0.3-0.3-0.4-0.6-0.5c-0.4,0-1.9,0.3-3.7,1.9
		C75.9,53.8,75.9,53.8,76,53.7z M67.9,59.1L67.9,59.1c-0.1,0,0-0.1,0-0.1C68,59,68,59,67.9,59.1C68,59,68,59.1,67.9,59.1z
		 M64.1,60.4c0-0.1,0-0.1-0.1-0.2c0,0,0.1,0,0.1,0C64.1,60.3,64.1,60.3,64.1,60.4C64.2,60.4,64.1,60.4,64.1,60.4z M64.4,61.1
		C64.4,61,64.4,61,64.4,61.1C64.4,61,64.4,61,64.4,61.1C64.4,61,64.4,61,64.4,61.1z M64.7,60.3c-0.1,0-0.2-0.1-0.2-0.1
		c0,0-0.1-0.1-0.1-0.2c0.1,0,0.2,0,0.2,0C64.6,60.1,64.7,60.1,64.7,60.3C64.7,60.2,64.7,60.3,64.7,60.3z M65.9,60.8
		C65.9,60.8,65.9,60.8,65.9,60.8C65.8,60.8,65.9,60.7,65.9,60.8C65.9,60.7,65.9,60.8,65.9,60.8C65.9,60.8,65.9,60.8,65.9,60.8z
		 M67.2,62c0.1,0,0.2,0.1,0.1,0.2c0,0.1-0.1,0.1-0.2,0.2c-0.1-0.1-0.1-0.2-0.1-0.3C67,62.1,67.1,62,67.2,62z M67,64.5
		c0-0.2,0-0.4,0.2-0.5c0.1,0.2,0.1,0.3,0.1,0.4C67.2,64.4,67.1,64.4,67,64.5z M67.3,63.8C67.3,63.8,67.3,63.8,67.3,63.8
		C67.3,63.8,67.4,63.7,67.3,63.8C67.4,63.7,67.4,63.8,67.3,63.8C67.4,63.8,67.3,63.8,67.3,63.8z M67.5,65.7L67.5,65.7L67.5,65.7
		L67.5,65.7L67.5,65.7z M68.8,64.3c0,0-0.1-0.1-0.1-0.1c0,0,0-0.1,0.1-0.1C68.9,64.1,68.9,64.2,68.8,64.3
		C68.9,64.2,68.9,64.3,68.8,64.3z M70,63.6c-0.2,0-0.2-0.1-0.2-0.3c0.2,0,0.3,0,0.3,0.2C70.1,63.6,70,63.7,70,63.6z M70.1,67
		C70.1,67,70.1,66.9,70.1,67L70.1,67C70.1,66.9,70.1,66.9,70.1,67C70.1,66.9,70.1,66.9,70.1,67z M70.2,61.1h0.3c0,0,0,0.1,0,0.1
		C70.4,61.2,70.3,61.2,70.2,61.1C70.2,61.2,70.2,61.2,70.2,61.1z M70.4,62.6C70.4,62.6,70.4,62.6,70.4,62.6
		C70.4,62.5,70.4,62.5,70.4,62.6L70.4,62.6C70.5,62.5,70.5,62.6,70.4,62.6C70.5,62.6,70.5,62.6,70.4,62.6z M70.7,59.6L70.7,59.6
		L70.7,59.6L70.7,59.6z M71.2,61.4c-0.1-0.1-0.1-0.1-0.1-0.1h0c0,0,0-0.1,0-0.1c0,0,0.1,0,0.1,0C71.2,61.3,71.2,61.3,71.2,61.4z
		 M71.4,64.3L71.4,64.3l0.3,0c0,0.2-0.1,0.3-0.1,0.4c0,0,0,0,0,0c0,0,0.1,0.1,0.1,0.1c0,0,0,0-0.1,0c0,0,0-0.1-0.1-0.1
		C71.4,64.7,71.4,64.7,71.4,64.3z M71.6,66.6C71.6,66.5,71.6,66.5,71.6,66.6c-0.1-0.1,0-0.2,0.1-0.2c0,0,0.1,0.1,0.1,0.1
		C71.7,66.5,71.7,66.5,71.6,66.6z M71.9,63C71.9,63,71.8,63,71.9,63c0-0.1,0-0.1,0-0.1l0,0C71.9,62.9,71.9,62.9,71.9,63
		C71.9,63,71.9,63,71.9,63z M72.2,66c0,0-0.1,0-0.1,0c0-0.1,0-0.2,0-0.3C72.3,65.8,72.3,65.9,72.2,66z M72.1,63.8c0,0,0-0.1,0-0.2
		c0,0,0.1,0.1,0.1,0.1c0,0,0,0.1,0,0.1v0h0c0,0,0,0,0,0C72.2,63.8,72.1,63.8,72.1,63.8z M72.3,64.8c0-0.1-0.1-0.1-0.1-0.2
		c0,0,0,0,0.1,0C72.3,64.6,72.4,64.7,72.3,64.8C72.4,64.7,72.3,64.7,72.3,64.8z M72.7,64.6L72.7,64.6C72.7,64.7,72.6,64.6,72.7,64.6
		C72.6,64.6,72.7,64.6,72.7,64.6L72.7,64.6z M72.4,61.3c0.1-0.2,0.2-0.3,0.3-0.2c0.2,0.1,0,0.3-0.1,0.5
		C72.6,61.5,72.5,61.4,72.4,61.3z M72.8,65.3C72.8,65.3,72.7,65.2,72.8,65.3c0-0.1,0-0.1,0-0.1C72.8,65.2,72.8,65.2,72.8,65.3
		C72.8,65.3,72.8,65.3,72.8,65.3z M74.1,60.7L74.1,60.7L74.1,60.7L74.1,60.7z M74,66.6c0.1,0,0.1,0,0.2,0c0,0,0.1,0.1,0,0.1
		c0,0.1-0.1,0.1-0.2,0.1c-0.1,0-0.2,0-0.3-0.1C73.9,66.7,73.9,66.7,74,66.6z M73.5,63.7c0.1,0,0.2,0.1,0.2,0.2
		c0,0.1-0.1,0.1-0.2,0.3c-0.1-0.1-0.1-0.2-0.1-0.3h0C73.4,63.8,73.4,63.7,73.5,63.7z M73.3,67L73.3,67c0.1,0.1,0.1,0.1,0.2,0.2
		c0,0-0.1,0.1-0.1,0.1c-0.1,0-0.1-0.1-0.3-0.2C73.2,67.1,73.3,67,73.3,67z M73.7,68.2c-0.2,0-0.3,0-0.3-0.2c0,0,0.1-0.1,0.1-0.1
		C73.6,67.9,73.6,67.9,73.7,68.2L73.7,68.2C73.8,68.2,73.7,68.2,73.7,68.2z M74,68.2c0.2,0,0.3,0,0.3,0.2
		C74.2,68.3,74.1,68.3,74,68.2z M74.4,62.1c0,0,0,0-0.1,0.1c0,0,0-0.1,0-0.1C74.3,62.1,74.3,62,74.4,62.1
		C74.4,62,74.4,62.1,74.4,62.1L74.4,62.1z M82.5,66.5L82.5,66.5c0,0-0.1-0.1-0.1-0.1c0,0,0,0,0-0.1C82.5,66.4,82.5,66.4,82.5,66.5
		C82.6,66.5,82.6,66.5,82.5,66.5z M82.3,64.5c0.2,0.1,0.3,0.2,0.1,0.4C82.4,64.7,82.4,64.6,82.3,64.5z M82.5,63.3L82.5,63.3
		C82.6,63.3,82.6,63.3,82.5,63.3L82.5,63.3L82.5,63.3z M83.6,61.6C83.6,61.6,83.5,61.6,83.6,61.6L83.6,61.6c-0.1-0.1-0.1-0.1,0-0.2
		C83.6,61.5,83.6,61.5,83.6,61.6C83.7,61.5,83.6,61.6,83.6,61.6z M85.6,59.8c0,0,0.1,0,0.2,0c0.1,0.1,0.1,0.2-0.2,0.4
		C85.6,60,85.6,59.9,85.6,59.8z M84.7,60C84.7,60,84.8,60,84.7,60C84.8,60,84.7,60.1,84.7,60C84.7,60.1,84.7,60.1,84.7,60
		C84.7,60,84.7,60,84.7,60z M84.1,61.5c-0.1,0-0.1-0.1-0.1-0.1c0,0,0.1-0.1,0.1-0.1C84.1,61.3,84.2,61.4,84.1,61.5
		C84.2,61.4,84.1,61.5,84.1,61.5z M83.8,60.8c0.1,0.1,0.2,0.2,0.3,0.3c-0.3,0.2-0.7,0.1-0.9-0.2C83.4,60.8,83.6,60.8,83.8,60.8z
		 M83.1,63.3C83.1,63.3,83.2,63.3,83.1,63.3c0.1-0.1,0.1,0,0.1,0C83.2,63.3,83.2,63.3,83.1,63.3c0,0.1,0,0.2,0.1,0.3
		C83,63.5,83,63.4,83.1,63.3z M83.1,64.2c0,0-0.1-0.1,0-0.2c0-0.1,0.1-0.2,0.2-0.2c0.1,0,0.2,0,0.2,0.1c0,0.1,0.1,0.2,0,0.2
		c-0.2,0.2-0.4,0.3-0.6,0.5C82.8,64.4,82.9,64.3,83.1,64.2z M82.6,63.9c0.1-0.2,0.1-0.2,0.2-0.3C82.9,63.7,82.8,63.8,82.6,63.9z
		 M82.5,61.6c0.1,0.1,0.1,0.1,0.2,0.1c0,0,0,0-0.1,0.1C82.6,61.7,82.5,61.7,82.5,61.6C82.5,61.6,82.5,61.6,82.5,61.6L82.5,61.6z
		 M82.4,62.1L82.4,62.1c0,0,0.1,0.1,0.1,0.1c0,0-0.1,0.1-0.1,0.2c-0.1-0.1-0.1-0.1-0.1-0.1C82.3,62.2,82.3,62.1,82.4,62.1z
		 M82.2,63.6c-0.1,0.2-0.3,0.2-0.4,0.1c0,0,0-0.2,0-0.2C82,63.4,82.1,63.5,82.2,63.6z M81.6,62.8c0,0,0.2-0.1,0.2,0
		c0.2,0,0.2,0.1,0.2,0.3c0,0.1-0.1,0.1-0.1,0.2c-0.1-0.1-0.2-0.1-0.3-0.2C81.6,63.1,81.6,62.9,81.6,62.8z M81.4,59.1L81.4,59.1
		C81.4,59.1,81.4,59.1,81.4,59.1C81.4,59.2,81.4,59.2,81.4,59.1C81.4,59.2,81.4,59.2,81.4,59.1L81.4,59.1z M80.6,60.5
		c0.1,0,0.1,0.1,0.2,0.1c-0.1,0.1-0.1,0.1-0.2,0.2c-0.1-0.1-0.1-0.1-0.1-0.2h0C80.4,60.6,80.5,60.5,80.6,60.5z M80.3,60.2
		C80.3,60.2,80.3,60.3,80.3,60.2c0,0.1,0,0.1,0,0.1C80.3,60.3,80.2,60.3,80.3,60.2C80.2,60.3,80.3,60.2,80.3,60.2z M79.9,61.2
		L79.9,61.2L79.9,61.2L79.9,61.2L79.9,61.2L79.9,61.2z M79.4,65.9c0,0.1,0.1,0.1,0.1,0.2l-0.1,0C79.4,66.1,79.3,66,79.4,65.9
		C79.3,66,79.4,65.9,79.4,65.9z M79.2,63.5L79.2,63.5L79.2,63.5L79.2,63.5L79.2,63.5z M77.4,61.7C77.4,61.7,77.3,61.7,77.4,61.7
		C77.3,61.7,77.3,61.7,77.4,61.7L77.4,61.7C77.4,61.7,77.4,61.7,77.4,61.7z M78.5,68.2C78.5,68.2,78.6,68.3,78.5,68.2
		c0.1,0.1,0,0.1,0,0.1C78.5,68.3,78.4,68.3,78.5,68.2C78.4,68.3,78.5,68.3,78.5,68.2z M78.2,62.7v0.4C78,62.9,78,62.8,78.2,62.7z
		 M77.7,62L77.7,62L77.7,62L77.7,62z M77.3,60.5C77.3,60.5,77.4,60.5,77.3,60.5c0.1,0.1,0,0.1,0,0.2c0,0-0.1-0.1-0.1-0.1
		C77.3,60.6,77.3,60.5,77.3,60.5z M76.8,68.9C76.8,68.9,76.8,68.9,76.8,68.9C76.8,68.9,76.8,68.9,76.8,68.9
		C76.8,68.9,76.8,68.9,76.8,68.9C76.8,68.9,76.8,68.9,76.8,68.9z M76.8,69.1C76.8,69.1,76.8,69.1,76.8,69.1c0,0,0,0.1,0,0.1
		c0,0-0.1,0-0.1,0C76.7,69.2,76.8,69.1,76.8,69.1z M76.4,64.7c0,0,0.1,0,0.1,0c0,0.1-0.1,0.2-0.1,0.3C76.2,64.9,76.2,64.8,76.4,64.7
		z M75.5,64.4c0.1,0,0.2,0.1,0.2,0.1c-0.1,0.1-0.1,0.2-0.2,0.1c-0.1,0-0.1-0.1-0.3-0.2C75.4,64.5,75.5,64.4,75.5,64.4z M75.2,66.7
		c-0.1-0.1-0.1-0.2-0.2-0.3c0.1,0,0.2,0,0.3,0C75.5,66.6,75.4,66.7,75.2,66.7z M75.4,65.9L75.4,65.9c0,0,0.1-0.1,0.1-0.1
		c0.1,0.1,0.1,0.1,0.3,0.2C75.5,66.1,75.4,66.1,75.4,65.9z M75.8,60.5L75.8,60.5L75.8,60.5L75.8,60.5L75.8,60.5z M75.9,61.1
		C75.9,61.1,75.9,61.1,75.9,61.1L75.9,61.1C75.9,61,76,61.1,75.9,61.1L75.9,61.1z M76.1,55.6L76.1,55.6
		C76.1,55.6,76.1,55.6,76.1,55.6L76.1,55.6C76.1,55.5,76.1,55.6,76.1,55.6z"/>
	<path class="st0" d="M50.9,94.4c-0.7,0-1.2,0.6-1.2,1.2s0.6,1.2,1.2,1.2c0.7,0,1.2-0.6,1.2-1.2S51.5,94.4,50.9,94.4z M50.4,96.6
		c0,0-0.1-0.1-0.1-0.1v0c0,0,0.1-0.1,0.1-0.1c0.1,0,0.1,0.1,0.1,0.1C50.5,96.5,50.5,96.6,50.4,96.6z M50.9,95.8
		c-0.2,0.1-0.3,0.2-0.4,0.3c-0.2-0.2,0-0.3,0.1-0.4C50.7,95.7,50.8,95.7,50.9,95.8L50.9,95.8z M51.3,96.3c0-0.1-0.1-0.2-0.1-0.2
		c0.1,0,0.1,0.1,0.2,0.1C51.4,96.2,51.3,96.3,51.3,96.3z M51.6,95.1c0,0-0.1-0.1-0.1-0.1c0,0,0.1-0.1,0.1-0.1c0,0,0.1,0,0.1,0
		C51.7,95,51.6,95,51.6,95.1z M51.9,95.5c0,0.1,0,0.1,0,0.1c0,0,0,0-0.1,0C51.8,95.6,51.8,95.6,51.9,95.5
		C51.8,95.5,51.9,95.5,51.9,95.5z"/>
	<path class="st0" d="M28.1,51.1L28.1,51.1L28.1,51.1C28.1,51.1,28.1,51.1,28.1,51.1z"/>
	<path class="st0" d="M20.6,79.9c-0.2,0.1-0.2,0.2-0.1,0.3c0.1,0.1,0.2,0.2,0.3,0.3c0-0.3,0-0.3,0.3-0.3
		C21,79.9,20.8,79.8,20.6,79.9z"/>
	<path class="st0" d="M92,75.4C92,75.3,92,75.3,92,75.4C92,75.3,92,75.3,92,75.4c-0.1-1.4-1.2-2.5-2.6-2.5h-4.9c0,0,0,0,0,0
		c0,0,0,0,0,0h-2.7c0,0,0,0,0,0.1c0,0-0.1,0.1-0.1,0.1c0,0-0.1-0.1-0.1-0.1c0,0,0,0,0,0h-16v0h0l0,0H63c0,0.1,0,0.2,0,0.3
		c-0.1-0.1-0.1-0.2-0.2-0.3h-7.5c0,0.1,0,0.1,0,0.2c-0.1-0.1-0.2-0.1-0.2-0.2h-20c0.1,0.1,0.1,0.2,0.2,0.3c-0.2,0.1-0.4,0.1-0.4-0.1
		c0-0.1,0-0.2-0.1-0.2H21.9c0,0.1,0,0.2,0,0.3c0.1,0,0.3,0,0.4,0c0,0,0,0.1,0,0.1c-0.3,0.1-0.5,0.3-0.8,0.1
		c-0.1,0.1-0.1,0.2-0.2,0.3c-0.1-0.1-0.3-0.1-0.3-0.2c-0.1-0.1,0-0.2,0-0.4h0c0,0-0.1-0.1-0.1-0.1h-8.5c-1.5,0-2.7,1.2-2.7,2.7V79
		c0,0.4,0.1,0.8,0.3,1.2c0-0.1,0-0.2,0.2-0.2h0c0,0,0.1,0.1,0.1,0.1c0,0.1-0.1,0.2-0.3,0.2c0,0,0,0,0,0c0.4,0.9,1.3,1.5,2.4,1.5h0.2
		c-0.1,0-0.1-0.1-0.1-0.1c0,0,0.1-0.1,0.1-0.1c0,0,0.1,0,0.1,0c0,0,0,0.1-0.1,0.1h14c0-0.1-0.1-0.1-0.1-0.2c0.2,0,0.3,0,0.4,0.2h0.8
		c0,0,0,0,0,0c0,0,0.1,0,0.1,0h5.1c-0.3,0-0.4-0.2-0.6-0.3c-0.1-0.2-0.2-0.3-0.4-0.5c-0.2-0.3-0.2-0.3,0.1-0.5c0,0,0.1-0.1,0.2-0.1
		c-0.1,0-0.2,0-0.2,0c-0.1,0-0.1-0.1-0.1-0.1c0-0.1,0.1-0.1,0.1-0.2c0.2-0.1,0.3-0.1,0.5-0.2c0.1,0,0.2,0,0.2,0.1c0,0.1,0,0.2,0,0.2
		c-0.1,0.1-0.2,0.2-0.2,0.3c0.4,0.2,0.8,0.3,1.2,0.5c0,0,0.1,0.1,0.1,0.2c0,0-0.1,0-0.1,0c-0.1,0.1-0.1,0.2-0.2,0.3
		c-0.1,0.1-0.3,0.1-0.3-0.1c-0.1,0.1-0.2,0.2-0.3,0.3c0,0.1,0.1,0.1,0.1,0.2h0.5c0-0.1-0.1-0.1-0.1-0.2c0.1-0.1,0.2-0.1,0.3-0.1
		c0,0.1,0,0.2,0,0.3c0,0,0.1,0,0.1,0h14.1c0-0.1,0.1-0.2,0.1-0.3c0.1,0.1,0.2,0.2,0.2,0.3h0.4c0,0,0,0,0,0c0,0,0,0,0,0H50
		c0,0,0-0.1,0-0.1c0.1,0,0.2,0,0.3,0.1c0,0,0,0.1,0,0.1h15.1c0,0,0,0,0-0.1c0.1,0,0.2,0,0.3,0.1h2.1c0,0,0-0.1,0-0.1
		c0,0,0.1,0.1,0.1,0.1h7.4c0,0,0,0,0,0c0.1,0,0.1-0.1,0.1-0.1c0,0,0,0.1,0,0.1h3.5c0-0.2-0.1-0.4-0.1-0.7c0.2,0,0.5,0,0.7,0
		c0,0.2,0.2,0.3-0.1,0.4c0,0-0.1,0.1-0.1,0.2c0,0.1,0,0.2-0.1,0.2H85c0-0.1,0.1-0.1,0.1-0.1c0.1,0,0.2,0,0.2,0.1h2
		c0,0,0.1-0.1,0.1-0.1c0,0,0.1,0.1,0.1,0.1h1.8c1.5,0,2.7-1.2,2.7-2.7v-3.4C92.1,75.5,92.1,75.5,92,75.4C92,75.4,92,75.4,92,75.4z
		 M9.9,78.8C9.9,78.8,9.9,78.8,9.9,78.8C9.9,78.8,9.9,78.8,9.9,78.8C9.9,78.8,9.9,78.8,9.9,78.8C9.9,78.8,9.9,78.8,9.9,78.8z
		 M10.3,79.6L10.3,79.6L10.3,79.6L10.3,79.6L10.3,79.6z M35,73.8c0.2,0,0.3,0,0.3,0.1c0,0,0,0,0,0c0,0,0.1,0,0.1,0.1
		c0.3,0.2,0.6,0.2,0.9-0.1c0,0.2-0.1,0.4-0.1,0.5c-0.3-0.1-0.5-0.2-0.8-0.3c0,0,0-0.1,0-0.1c0,0,0-0.1-0.1-0.1c0,0,0,0,0,0
		C35.2,73.9,35.1,73.9,35,73.8L35,73.8z M35.4,74.8C35.4,74.8,35.4,74.8,35.4,74.8C35.4,74.8,35.3,74.8,35.4,74.8
		C35.3,74.8,35.4,74.8,35.4,74.8L35.4,74.8z M35.2,76c0,0,0.1,0.1,0.1,0.2c-0.2,0.1-0.3,0.1-0.5,0.2c-0.2-0.2-0.6-0.2-0.5-0.7
		C34.7,75.8,35,75.9,35.2,76z M35.3,77.5C35.3,77.5,35.2,77.5,35.3,77.5C35.2,77.5,35.2,77.5,35.3,77.5L35.3,77.5
		C35.2,77.4,35.2,77.4,35.3,77.5z M35.1,78c0,0.2,0.1,0.2,0.1,0.3c0,0-0.1,0-0.1,0C34.9,78.3,34.9,78.2,35.1,78z M35.1,76.6
		C35.1,76.6,35.1,76.6,35.1,76.6C35.1,76.6,35.1,76.6,35.1,76.6C35.1,76.6,35.1,76.6,35.1,76.6L35.1,76.6z M34.4,74.8
		c0,0,0.1,0,0.1,0L34.4,74.8c0.1,0.1,0.1,0.1,0.1,0.2C34.4,74.9,34.4,74.9,34.4,74.8C34.4,74.8,34.4,74.8,34.4,74.8z M34.3,74.5
		C34.3,74.5,34.3,74.5,34.3,74.5C34.3,74.6,34.2,74.6,34.3,74.5C34.2,74.6,34.2,74.5,34.3,74.5C34.2,74.5,34.2,74.5,34.3,74.5z
		 M34.1,75.1C34.1,75.1,34.1,75.1,34.1,75.1l0.1,0.2c0,0-0.1,0-0.1,0C34,75.3,34.1,75.2,34.1,75.1z M34.3,76.9c0,0-0.1,0.1-0.1,0.1
		c-0.1-0.2-0.3-0.4-0.4-0.6C34.1,76.4,34.2,76.7,34.3,76.9z M34,77.7C34,77.7,34,77.7,34,77.7L34,77.7C34,77.7,34,77.7,34,77.7
		C34,77.7,34,77.7,34,77.7z M32.7,74.2c0.1,0,0.1,0.1,0.1,0.1c0,0,0,0.1-0.1,0.2c-0.1-0.1-0.1-0.1-0.1-0.2
		C32.6,74.2,32.6,74.2,32.7,74.2z M32.4,76.1c0,0.1-0.1,0.2-0.3,0.2C32.3,76.2,32.4,76.1,32.4,76.1z M32,73.8
		C32,73.8,32,73.8,32,73.8C32,73.8,32,73.8,32,73.8L32,73.8C32,73.8,31.9,73.8,32,73.8C32,73.8,32,73.8,32,73.8z M31.7,74.9
		c0.1,0,0.2,0.1,0.2,0.1c0,0,0,0,0,0.1C31.9,75,31.8,75,31.7,74.9C31.7,74.9,31.7,74.9,31.7,74.9z M31.8,76.1L31.8,76.1L31.8,76.1
		L31.8,76.1z M32.9,76.5c-0.3,0.3-0.6,0.3-1.2,0C32.1,76.6,32.5,76.3,32.9,76.5z M31.6,75.3c0,0.1,0,0.2,0,0.3l-0.1,0
		c0-0.1-0.1-0.2-0.1-0.3C31.4,75.4,31.5,75.3,31.6,75.3z M31.7,77c-0.2,0.1-0.3,0.1-0.4,0.2c-0.2-0.2-0.2-0.4,0-0.6
		C31.5,76.7,31.6,76.8,31.7,77z M31.8,78.3C31.8,78.3,31.7,78.4,31.8,78.3c-0.1,0.1-0.2,0-0.2,0c0,0,0.1-0.1,0.1-0.1
		C31.7,78.3,31.7,78.3,31.8,78.3z M29.7,74.3c0,0,0.1,0,0.3,0.1c-0.2,0.1-0.4,0.2-0.5,0.3C29.5,74.5,29.6,74.4,29.7,74.3z
		 M29.5,78.4c0,0.1,0.1,0.1,0.1,0.1c0,0-0.1,0.1-0.1,0.1c0,0-0.1-0.1-0.1-0.1C29.5,78.5,29.5,78.5,29.5,78.4z M29,74.9
		C29,74.9,29.1,74.9,29,74.9C29.1,74.9,29.1,74.9,29,74.9C29.1,74.9,29,74.9,29,74.9C29,74.9,29,74.9,29,74.9z M29,75.4
		c0.2,0.1,0.2,0.2,0.1,0.3C28.9,75.7,28.9,75.6,29,75.4z M28.7,80.3c0,0-0.2,0-0.2,0c-0.1-0.2,0-0.2,0.2-0.3
		C28.8,80.1,28.8,80.2,28.7,80.3z M28.5,79.4L28.5,79.4c0,0,0-0.1,0.1-0.1c0,0,0.1,0.1,0.1,0.1C28.6,79.4,28.6,79.4,28.5,79.4
		C28.5,79.4,28.4,79.4,28.5,79.4z M28.2,77.7c0.2,0.1,0.4,0.1,0.5,0.3C28.4,78,28.2,78,28.2,77.7z M28.2,75.9
		C28.2,75.9,28.2,75.8,28.2,75.9c0.1,0,0.1,0,0.2,0C28.3,75.9,28.2,75.9,28.2,75.9z M28.4,74.8L28.4,74.8
		C28.5,74.8,28.5,74.8,28.4,74.8C28.5,74.8,28.5,74.8,28.4,74.8C28.5,74.8,28.5,74.8,28.4,74.8z M26.8,77.3
		C26.8,77.3,26.8,77.3,26.8,77.3C26.8,77.3,26.8,77.3,26.8,77.3C26.8,77.3,26.8,77.3,26.8,77.3L26.8,77.3z M26.5,77.5
		c-0.2,0-0.3-0.1-0.3-0.3C26.3,77.3,26.4,77.4,26.5,77.5z M26.1,76c0,0-0.1,0.1-0.1,0.1c0,0-0.1,0-0.1-0.1C26,76,26,76,26.1,76
		C26.1,76,26.1,76,26.1,76z M26,75.7c-0.4-0.3-0.4-0.5,0-0.8C26,75.2,26.2,75.4,26,75.7z M26,74.5c0.1,0.1,0,0.3-0.3,0.3
		c0-0.2-0.1-0.4-0.1-0.6C25.9,74.2,26,74.3,26,74.5z M25.3,74.9C25.3,74.9,25.3,74.9,25.3,74.9C25.3,74.9,25.3,75,25.3,74.9
		C25.3,75,25.3,75,25.3,74.9C25.3,75,25.3,74.9,25.3,74.9z M24.9,76.2c0,0,0.1,0,0.1,0c0.1,0.1,0.2,0.2,0.3,0.3
		c-0.2,0.3-0.3,0.3-0.4,0.2C24.7,76.5,24.9,76.4,24.9,76.2z M25,76.9C25,77,25,77,25,76.9C25,77,25,77,25,76.9
		C25,77,25,76.9,25,76.9C25,76.9,25,76.9,25,76.9z M24.7,79.7C24.7,79.8,24.7,79.8,24.7,79.7C24.7,79.8,24.7,79.8,24.7,79.7
		C24.7,79.8,24.7,79.8,24.7,79.7C24.7,79.8,24.7,79.8,24.7,79.7z M24.2,76.7c0,0,0,0.1,0,0.1c-0.2,0.1-0.3,0-0.3-0.2
		C24,76.5,24.1,76.5,24.2,76.7z M24,79.7C24,79.7,24,79.7,24,79.7C23.9,79.7,23.9,79.7,24,79.7C24,79.7,24,79.7,24,79.7z M23.7,73.7
		c-0.4,0.1-0.4,0.1-0.5-0.4C23.6,73.3,23.7,73.4,23.7,73.7z M23.2,77.6C23.2,77.6,23.3,77.6,23.2,77.6
		C23.3,77.6,23.2,77.6,23.2,77.6C23.2,77.6,23.2,77.6,23.2,77.6C23.2,77.6,23.2,77.6,23.2,77.6z M22.6,76.5
		C22.6,76.5,22.7,76.5,22.6,76.5L22.6,76.5L22.6,76.5L22.6,76.5C22.6,76.5,22.6,76.5,22.6,76.5z M22.5,76.2
		C22.5,76.2,22.5,76.1,22.5,76.2c0-0.1,0-0.1,0-0.1C22.5,76.1,22.5,76.1,22.5,76.2C22.5,76.1,22.5,76.1,22.5,76.2
		C22.5,76.2,22.5,76.2,22.5,76.2C22.5,76.2,22.5,76.2,22.5,76.2C22.5,76.2,22.5,76.2,22.5,76.2L22.5,76.2z M22.5,78.1
		C22.5,78.1,22.5,78.1,22.5,78.1L22.5,78.1C22.5,78.1,22.5,78.1,22.5,78.1C22.5,78.1,22.5,78.1,22.5,78.1z M22.2,74.4L22.2,74.4
		L22.2,74.4L22.2,74.4z M21.6,74.3C21.6,74.3,21.6,74.3,21.6,74.3C21.6,74.3,21.6,74.3,21.6,74.3C21.6,74.3,21.6,74.3,21.6,74.3
		C21.6,74.3,21.6,74.3,21.6,74.3z M21.5,76.6c0,0,0.1,0,0.1,0c0,0,0,0.1,0,0.1h0C21.6,76.7,21.5,76.7,21.5,76.6
		C21.5,76.7,21.5,76.6,21.5,76.6z M21.2,78.5c0.1,0,0.1,0.1,0.2,0.1c0,0,0,0,0,0.1C21.3,78.6,21.3,78.6,21.2,78.5L21.2,78.5z
		 M20.3,74.3c0.1-0.1,0.2-0.2,0.4-0.1c0.1,0.1,0.2,0.1,0.3,0.2v0.7c-0.3-0.1-0.5-0.2-0.6-0.3l0,0C20.2,74.6,20.2,74.4,20.3,74.3z
		 M20.8,77.4c0,0.1,0,0.1,0,0.2c-0.2,0.2-0.3,0-0.4-0.1C20.6,77.4,20.7,77.4,20.8,77.4z M20.4,76.1L20.4,76.1
		C20.4,76.1,20.4,76.1,20.4,76.1L20.4,76.1C20.4,76.1,20.4,76.1,20.4,76.1z M19.7,74.4C19.7,74.4,19.7,74.4,19.7,74.4
		C19.7,74.5,19.7,74.5,19.7,74.4C19.7,74.5,19.7,74.5,19.7,74.4C19.7,74.4,19.7,74.4,19.7,74.4z M20.1,77.6
		c-0.4,0.2-0.5-0.1-0.7-0.2C19.6,77.3,19.8,77.5,20.1,77.6z M19.2,74.6C19.2,74.6,19.3,74.6,19.2,74.6
		C19.3,74.7,19.2,74.7,19.2,74.6L19.2,74.6C19.2,74.7,19.2,74.7,19.2,74.6C19.2,74.6,19.2,74.6,19.2,74.6z M18,73.4
		c0.1,0,0.1,0.1,0.2,0.1c0,0,0,0.1,0,0.1S18,73.5,18,73.4C18,73.5,18,73.4,18,73.4z M16.7,75C16.7,75,16.7,75,16.7,75
		c0,0.1,0,0.2-0.1,0.2c0,0-0.1,0-0.1-0.1l0,0C16.5,75.1,16.6,75,16.7,75z M16.4,75.9C16.4,75.9,16.4,75.9,16.4,75.9
		C16.5,75.9,16.4,75.9,16.4,75.9L16.4,75.9L16.4,75.9z M16.4,75.7C16.4,75.7,16.3,75.7,16.4,75.7C16.3,75.7,16.3,75.6,16.4,75.7
		C16.3,75.6,16.3,75.7,16.4,75.7z M16,77.2c0,0,0.1,0.1,0.1,0.1c-0.1,0.1-0.1,0.2-0.2,0.2c0,0-0.1,0-0.1-0.1
		C15.9,77.4,15.9,77.3,16,77.2z M16,78.3L16,78.3L16,78.3L16,78.3z M14.7,74.5L14.7,74.5C14.7,74.5,14.8,74.5,14.7,74.5
		C14.8,74.5,14.7,74.5,14.7,74.5C14.7,74.5,14.7,74.5,14.7,74.5L14.7,74.5z M13.2,73.3C13.2,73.3,13.2,73.3,13.2,73.3
		C13.3,73.3,13.3,73.3,13.2,73.3C13.3,73.3,13.2,73.3,13.2,73.3L13.2,73.3z M12.1,77.5c0,0,0.1,0,0.1,0.1c0,0,0,0.1-0.1,0.2
		c-0.1-0.1-0.1-0.1-0.1-0.1C12,77.6,12.1,77.5,12.1,77.5z M11.3,78L11.3,78C11.4,78,11.4,78,11.3,78C11.4,78,11.4,78,11.3,78
		C11.3,78,11.3,78,11.3,78L11.3,78z M11.1,76.5L11.1,76.5L11.1,76.5L11.1,76.5z M11.7,81c0-0.2-0.2-0.4-0.4-0.7
		c-0.1,0-0.2,0.1-0.3,0.1c0-0.1-0.1-0.2-0.1-0.3c0.4-0.2,0.4-0.2,1.1,0.3c0.1,0,0.2-0.1,0.3-0.1C12.4,80.5,12.1,80.9,11.7,81z
		 M12.2,77.3L12.2,77.3C12.2,77.3,12.2,77.3,12.2,77.3c0-0.1,0.1-0.2,0.2-0.2c0.1,0,0.2,0.1,0.2,0.3C12.4,77.4,12.3,77.4,12.2,77.3z
		 M12.5,73.7c-0.1,0-0.3,0-0.3-0.2c0-0.1,0-0.2,0.2-0.2c0.1,0,0.2,0.1,0.4,0.2C12.7,73.6,12.6,73.7,12.5,73.7z M13.1,80
		C13.1,80,13,80,13.1,80C13,80,13,80,13.1,80C13,80,13.1,80,13.1,80C13.1,80,13.1,80,13.1,80z M13.1,77.4
		C13.1,77.4,13,77.4,13.1,77.4C13,77.4,13,77.4,13.1,77.4L13.1,77.4C13.1,77.4,13.1,77.4,13.1,77.4z M13.2,76.7
		C13.2,76.6,13.1,76.6,13.2,76.7L13.2,76.7c-0.1-0.1,0-0.1,0-0.2C13.2,76.5,13.3,76.5,13.2,76.7C13.3,76.6,13.2,76.7,13.2,76.7z
		 M14.1,77L14.1,77L14.1,77L14.1,77z M14.1,76C14.1,76,14.1,76,14.1,76C14.1,76,14.1,76,14.1,76C14.1,76,14.1,76,14.1,76L14.1,76
		C14.2,76,14.1,76,14.1,76z M14.3,77.7C14.3,77.7,14.3,77.6,14.3,77.7c-0.1-0.1,0-0.1,0-0.1C14.3,77.6,14.3,77.7,14.3,77.7
		L14.3,77.7z M14.5,78.2L14.5,78.2L14.5,78.2L14.5,78.2z M14.6,76.9c-0.2,0.1-0.3-0.1-0.3-0.2c0.1-0.1,0.1-0.2,0.2-0.3
		c0.2,0,0.3,0.1,0.3,0.3C14.8,76.7,14.7,76.9,14.6,76.9z M14.8,75.4C14.8,75.4,14.8,75.4,14.8,75.4L14.8,75.4
		C14.9,75.3,14.9,75.3,14.8,75.4C14.9,75.4,14.9,75.4,14.8,75.4z M15,78.1C15,78.1,15,78.1,15,78.1C15,78.1,15,78.1,15,78.1
		C15,78.1,15.1,78.1,15,78.1C15.1,78.1,15.1,78.1,15,78.1z M15.3,73.9c0-0.1,0.1-0.2,0.2-0.1v0c0.1,0,0.1,0.1,0.1,0.2
		c0,0.1,0,0.2-0.1,0.3c-0.2,0.1-0.4,0-0.5-0.2C15.2,74,15.3,74,15.3,73.9z M15.2,74.8c0,0,0.1,0,0.1,0l0,0c0,0.1,0,0.1,0,0.2
		c0,0-0.1,0-0.1,0C15.2,74.9,15.2,74.8,15.2,74.8z M15.2,76.9c0.2,0,0.3-0.1,0.5-0.1C15.6,77,15.4,77,15.2,76.9
		C15.3,77,15.3,76.9,15.2,76.9z M15.6,80.6C15.5,80.6,15.5,80.5,15.6,80.6C15.5,80.5,15.6,80.5,15.6,80.6
		C15.6,80.5,15.6,80.5,15.6,80.6L15.6,80.6z M16.2,81.1c-0.3-0.2-0.3-0.5-0.2-0.8v0c0.1,0,0.2,0,0.4,0.1
		C16.4,80.6,16.3,80.9,16.2,81.1z M16.2,79.8c-0.2-0.1-0.5-0.1-0.8-0.2c0.1-0.1,0.1-0.1,0.1-0.1c0.3,0.1,0.5,0,0.7-0.2
		c0.2-0.2,0.5,0,0.6,0.2c0,0.1,0,0.2,0.1,0.2C16.7,80,16.5,79.9,16.2,79.8z M17.7,76.2c0.1,0,0.1,0.1,0.1,0.1c0,0,0,0.1,0,0.1
		c0,0-0.1,0-0.1,0v0C17.7,76.4,17.7,76.4,17.7,76.2C17.7,76.3,17.7,76.3,17.7,76.2z M17.9,80.7c-0.2-0.2-0.2-0.4-0.1-0.6
		C17.9,80.3,18.2,80.4,17.9,80.7z M18.6,80.1c-0.2,0.1-0.4,0.1-0.5-0.1c0.1-0.1,0.4-0.2,0.3-0.4c0,0,0.1-0.1,0.2-0.1
		c0,0.1,0.1,0.1,0.1,0.2c-0.1,0.1-0.1,0.2-0.2,0.3C18.4,80,18.5,80,18.6,80.1z M18.6,79.1C18.6,79.1,18.6,79.1,18.6,79.1
		c0-0.1,0-0.1,0-0.1C18.7,79,18.7,79.1,18.6,79.1C18.7,79.1,18.6,79.1,18.6,79.1z M18.9,79.7C18.9,79.7,18.8,79.7,18.9,79.7
		c0-0.1,0-0.1,0-0.1C18.9,79.6,18.9,79.7,18.9,79.7C18.9,79.7,18.9,79.7,18.9,79.7z M20.3,81.3L20.3,81.3L20.3,81.3L20.3,81.3z
		 M20.9,81c-0.2-0.1-0.4-0.2-0.6-0.3c0,0.1,0,0.2,0,0.3c-0.1,0-0.3,0-0.3,0c-0.1-0.2-0.2-0.3-0.3-0.4v0c-0.1-0.2-0.3-0.1-0.5-0.1
		c-0.1,0-0.2,0-0.3-0.1c0.1-0.1,0.1-0.2,0.2-0.3c0.1-0.1,0.2-0.2,0.3-0.3c0.1-0.1,0-0.2-0.1-0.2h0v0c0,0,0-0.1,0-0.1
		c0.4-0.1,0.4-0.4,0.6-0.7c0.1,0.2,0.1,0.3,0.2,0.5c0.1,0,0.1-0.1,0.2-0.1c0.1,0,0.2-0.1,0.3,0c0.3,0.2,0.7,0.2,1.1,0.4
		c0,0.1,0.1,0.3,0.1,0.4c0.1,0.3,0,0.4-0.3,0.4C21.2,80.6,21.1,80.8,20.9,81z M21.7,80.9c0,0-0.1-0.1-0.1-0.2l0.1,0
		C21.7,80.7,21.8,80.8,21.7,80.9C21.8,80.8,21.8,80.8,21.7,80.9z M21.8,75.6C21.8,75.6,21.8,75.6,21.8,75.6L21.8,75.6L21.8,75.6
		C21.8,75.5,21.8,75.6,21.8,75.6C21.8,75.6,21.8,75.6,21.8,75.6z M22.1,75.4C22.1,75.4,22.1,75.4,22.1,75.4
		C22.1,75.4,22.1,75.4,22.1,75.4C22.1,75.4,22.1,75.4,22.1,75.4C22.1,75.4,22.1,75.4,22.1,75.4z M22.2,80.6
		C22.2,80.6,22.2,80.5,22.2,80.6c-0.1-0.1-0.1-0.1,0-0.1C22.2,80.5,22.2,80.5,22.2,80.6C22.3,80.5,22.2,80.5,22.2,80.6z M22.7,81.4
		C22.7,81.4,22.7,81.4,22.7,81.4C22.7,81.4,22.7,81.4,22.7,81.4C22.7,81.4,22.7,81.4,22.7,81.4C22.7,81.4,22.7,81.4,22.7,81.4z
		 M22.7,80.9C22.7,80.9,22.7,80.9,22.7,80.9C22.7,80.9,22.7,80.8,22.7,80.9C22.7,80.8,22.8,80.8,22.7,80.9
		C22.8,80.9,22.8,80.9,22.7,80.9z M22.8,80C22.8,80,22.7,80,22.8,80C22.7,79.9,22.7,79.9,22.8,80L22.8,80C22.8,79.9,22.8,80,22.8,80
		C22.8,80,22.8,80,22.8,80z M23.7,80.2c0,0.1,0,0.1-0.1,0.2c-0.1,0.1-0.2,0.3-0.3,0.4c-0.1-0.1-0.1-0.2-0.2-0.3
		c0.1-0.1,0.1-0.2,0.2-0.3c-0.3-0.5-1-0.6-1.2-1.2c0.5,0.1,0.8,0.5,1.3,0.4c0.1,0.2,0.1,0.4,0.2,0.5c0.1,0.1,0.2-0.2,0.2,0
		C23.9,80,23.7,80.1,23.7,80.2z M23.9,75.8L23.9,75.8L23.9,75.8C23.8,75.8,23.8,75.8,23.9,75.8z M24.2,80.6
		c-0.1-0.1-0.2-0.2-0.3-0.4C24.2,80.3,24.3,80.3,24.2,80.6z M24.7,80.6c-0.1-0.1-0.2-0.2-0.2-0.3c0-0.1,0-0.2,0-0.3
		c0.2-0.1,0.4-0.1,0.4,0.1c0,0.1,0,0.3,0,0.4C25,80.5,24.8,80.6,24.7,80.6z M25,80.8C25,80.8,25,80.8,25,80.8
		C25,80.8,25,80.8,25,80.8C25,80.7,25,80.8,25,80.8C25,80.8,25,80.8,25,80.8z M25.2,80c-0.1-0.1-0.1-0.2-0.1-0.2
		c0-0.1,0.1-0.1,0.2-0.1c0,0,0.2,0.1,0.2,0.1C25.4,79.9,25.3,79.9,25.2,80z M25.4,75.9L25.4,75.9C25.4,75.9,25.4,75.9,25.4,75.9
		L25.4,75.9C25.4,75.9,25.4,75.9,25.4,75.9z M25.9,78.1c0-0.1,0.1-0.1,0.1-0.2c0.1,0.1,0.2,0.3,0.3,0.4c-0.4,0.1-0.6,0-0.8-0.4
		C25.7,78,25.8,78,25.9,78.1z M26.5,80.1c-0.3,0.2-0.5,0.2-0.7,0.1c-0.1-0.1-0.2-0.3,0.1-0.4c-0.3-0.1-0.3-0.3-0.3-0.5
		c0.2,0,0.3,0.1,0.5,0.1c0.1,0,0.2,0.1,0.2,0.2C26.4,79.8,26.5,79.9,26.5,80.1L26.5,80.1z M26.5,78.3c0.1-0.1,0.2-0.1,0.4,0.1
		c-0.2,0-0.2,0.1-0.3,0.1C26.6,78.4,26.5,78.3,26.5,78.3z M26.9,79.7c0,0.1-0.1,0.1-0.2,0.2l0,0c0,0-0.1-0.1-0.2-0.2
		c0.1-0.1,0.2-0.2,0.2-0.3C27,79.5,27,79.6,26.9,79.7z M27,78.2c0-0.1-0.1-0.1-0.1-0.1c0,0,0.1-0.1,0.1,0c0,0,0.1,0.1,0.1,0.1
		C27.2,78.1,27.1,78.2,27,78.2z M27.3,79.9c0,0,0.1,0,0.1,0c0,0,0,0.1,0,0.1C27.4,80,27.4,80,27.3,79.9C27.4,80,27.3,79.9,27.3,79.9
		z M27.5,81.3C27.5,81.3,27.4,81.2,27.5,81.3c-0.1,0,0-0.1,0-0.1C27.5,81.2,27.5,81.2,27.5,81.3C27.5,81.2,27.5,81.2,27.5,81.3z
		 M27.5,77.6c-0.1,0.1-0.1,0.2-0.2,0.3c-0.1-0.1-0.2-0.2-0.4-0.3C27.2,77.4,27.4,77.5,27.5,77.6c0.1-0.1,0.1-0.1,0.2-0.1
		c0,0,0,0,0,0.1C27.7,77.6,27.6,77.6,27.5,77.6C27.5,77.6,27.5,77.6,27.5,77.6z M27.6,79.4C27.6,79.4,27.6,79.4,27.6,79.4
		c0.1,0,0.1,0,0.1,0c0,0,0,0,0,0H27.6z M27.7,80.6L27.7,80.6C27.7,80.6,27.7,80.6,27.7,80.6C27.7,80.6,27.8,80.6,27.7,80.6
		C27.8,80.6,27.7,80.6,27.7,80.6z M27.8,77.8C27.8,77.8,27.8,77.8,27.8,77.8C27.8,77.8,27.8,77.8,27.8,77.8
		C27.8,77.8,27.9,77.8,27.8,77.8C27.9,77.8,27.9,77.8,27.8,77.8z M28.5,74.2c-0.2,0.3-0.3,0.4-0.6,0.4
		C27.9,74.1,28.2,74.3,28.5,74.2z M28.3,78.9c0,0.1-0.2,0.1-0.2,0.1c0-0.1-0.1-0.2-0.1-0.2c0.1-0.1,0.2-0.1,0.3-0.2
		c0,0,0.1,0.1,0.1,0.1C28.3,78.7,28.4,78.8,28.3,78.9z M28.4,81c0-0.1,0-0.2,0.1-0.2c0.1,0,0.2,0,0.3,0C28.7,81,28.5,81,28.4,81z
		 M29.2,81C29,81,29,80.9,29.1,80.8c0.2,0,0.2,0,0.2,0.2C29.3,81,29.2,81,29.2,81z M29,80.3c0.1-0.1,0.1-0.1,0.1-0.1
		c0,0,0.1,0.1,0.1,0.1c0,0-0.1,0.1-0.1,0.1C29.1,80.4,29.1,80.4,29,80.3z M29.4,77.5C29.3,77.4,29.3,77.4,29.4,77.5
		c-0.2-0.2-0.4-0.3-0.5-0.4c0.2-0.1,0.4-0.1,0.6-0.2c-0.1,0.2-0.1,0.3-0.2,0.4C29.3,77.4,29.3,77.4,29.4,77.5
		C29.4,77.5,29.4,77.5,29.4,77.5C29.4,77.5,29.4,77.5,29.4,77.5z M29.8,81.4c-0.1,0-0.2-0.1-0.2-0.2c0-0.1,0.1-0.2,0.2-0.2
		c0.1,0,0.2,0,0.3,0.2C30,81.2,29.9,81.4,29.8,81.4z M29.4,80.2c0.1-0.1-0.1-0.4,0.3-0.4c0.1,0.1,0.2,0.2,0.3,0.3
		C29.8,80.5,29.8,80.5,29.4,80.2z M30.2,80.7L30.2,80.7C30.3,80.7,30.3,80.7,30.2,80.7C30.3,80.7,30.3,80.8,30.2,80.7
		C30.2,80.8,30.2,80.7,30.2,80.7z M30.3,81.5C30.3,81.5,30.3,81.5,30.3,81.5C30.3,81.5,30.3,81.4,30.3,81.5
		C30.4,81.4,30.4,81.4,30.3,81.5C30.4,81.4,30.4,81.5,30.3,81.5z M30,78.3c0.2-0.1,0.3-0.2,0.5-0.1C30.3,78.5,30.2,78.3,30,78.3z
		 M30.2,76.2C30.2,76.2,30.2,76.2,30.2,76.2C30.2,76.1,30.2,76.1,30.2,76.2C30.2,76.2,30.2,76.2,30.2,76.2z M30.8,75.5
		C30.8,75.5,30.7,75.5,30.8,75.5C30.7,75.5,30.8,75.4,30.8,75.5L30.8,75.5C30.8,75.4,30.8,75.4,30.8,75.5
		C30.8,75.5,30.8,75.5,30.8,75.5z M30.8,75.2c-0.1-0.1-0.1-0.1-0.1-0.1c0,0,0.1-0.1,0.1-0.1c0,0,0.1,0,0.1,0.1
		C30.8,75.1,30.8,75.2,30.8,75.2z M31,76C31,76,31,76,31,76C31,76,31,76,31,76L31,76C31,76,31,76,31,76C31,76,31,76,31,76z
		 M31.1,80.5C31.1,80.5,31,80.5,31.1,80.5L31.1,80.5L31.1,80.5C31.1,80.5,31.1,80.5,31.1,80.5C31.1,80.5,31.1,80.5,31.1,80.5z
		 M30.1,74.4c0.1-0.1,0.2-0.2,0.2-0.3c0.2-0.3,0.4-0.3,0.7-0.2v0c0.1,0,0.3,0.4,0.2,0.5c0,0.1-0.1,0.1-0.1,0.2c0,0.1,0,0.1,0,0.2
		C30.7,74.9,30.3,74.9,30.1,74.4z M31.3,80.3c0.2,0.1,0.3,0.3,0.3,0.4C31.4,80.6,31.4,80.4,31.3,80.3z M31.5,79.9
		C31.5,79.9,31.5,79.9,31.5,79.9L31.5,79.9C31.5,79.8,31.5,79.8,31.5,79.9C31.6,79.9,31.5,79.9,31.5,79.9z M31.9,79.6
		c-0.2-0.2-0.4-0.3-0.7-0.5c0.1-0.3,0.2-0.4,0.4-0.4v0.5c0.2,0.1,0.4,0.2,0.5,0.3C32,79.8,32,79.7,31.9,79.6z M31.8,78.7
		c-0.1,0,0-0.2,0-0.3h0c0.2-0.2,0.3,0,0.4,0.1C32.1,78.7,32,78.9,31.8,78.7z M32.4,77.5c0,0,0-0.1-0.1-0.2c0.1,0,0.2-0.1,0.2-0.1
		c0.2,0.1,0.3,0.2,0.1,0.4C32.6,77.6,32.5,77.6,32.4,77.5z M32.7,78.1C32.7,78.1,32.8,78.1,32.7,78.1L32.7,78.1
		C32.6,78.2,32.7,78.1,32.7,78.1z M32.8,79C32.8,79,32.8,79,32.8,79C32.8,79,32.8,79,32.8,79C32.8,79,32.8,79,32.8,79z M32.8,78.9
		c-0.3-0.1-0.1-0.2,0.1-0.4C32.8,78.7,32.8,78.8,32.8,78.9z M32.9,79.9c0-0.1,0-0.1-0.1-0.2c0,0,0.1,0,0.1,0h0c0,0,0,0.1,0,0.2
		C33,79.9,33,79.9,32.9,79.9z M33.1,80.2C33.1,80.2,33.1,80.2,33.1,80.2C33.1,80.2,33.1,80.2,33.1,80.2
		C33.1,80.1,33.1,80.1,33.1,80.2C33.1,80.1,33.1,80.1,33.1,80.2z M33.1,75.6c0.2,0.1,0.4,0.2,0.5,0.3c0.1,0.1,0.1,0.2,0.1,0.2
		c0,0.1-0.1,0.2-0.2,0.1c-0.1-0.1-0.2-0.2-0.3-0.3C33.1,75.9,33.1,75.8,33.1,75.6z M33.6,79.9C33.6,79.9,33.6,79.9,33.6,79.9
		C33.6,79.9,33.5,79.9,33.6,79.9C33.5,79.9,33.6,79.9,33.6,79.9C33.6,79.9,33.6,79.9,33.6,79.9z M34.3,81.4L34.3,81.4
		C34.3,81.4,34.3,81.4,34.3,81.4C34.3,81.3,34.3,81.3,34.3,81.4C34.3,81.3,34.3,81.3,34.3,81.4C34.4,81.3,34.3,81.4,34.3,81.4z
		 M34.8,80.9c-0.2,0-0.5,0.1-0.7,0.1c-0.1,0-0.1-0.1-0.2-0.1c-0.1-0.1-0.2-0.2-0.3-0.3c0,0-0.1,0-0.1-0.1c0.2-0.3-0.2-0.2-0.3-0.4
		c0.3,0,0.4-0.1,0.5-0.3c0.1-0.2,0.3-0.3,0.2-0.5c0.2,0.2,0.4,0.3,0.6,0.3c0.2,0.1,0.2,0.2-0.1,0.4c0,0.2-0.3,0.2-0.3,0.4
		C34.3,80.7,34.6,80.8,34.8,80.9C34.8,80.9,34.8,80.9,34.8,80.9z M35.2,81.4C35.2,81.4,35.2,81.4,35.2,81.4
		C35.2,81.4,35.2,81.4,35.2,81.4L35.2,81.4z M35.2,80.8L35.2,80.8c-0.1-0.1-0.1-0.1-0.1-0.2c0-0.1,0.1-0.1,0.1-0.1
		c0,0,0.1,0.1,0.1,0.1C35.3,80.7,35.2,80.7,35.2,80.8z M35.6,80L35.6,80L35.6,80L35.6,80z M35,79.5c-0.2-0.1-0.2-0.2-0.1-0.3
		c0.2-0.1,0.4-0.2,0.6-0.1C35.4,79.3,35.2,79.4,35,79.5z M35.8,78.9C35.8,78.8,35.8,78.8,35.8,78.9c0.1-0.1,0.2,0,0.2,0l0,0
		c0,0,0,0.1-0.1,0.1C35.8,78.9,35.8,78.9,35.8,78.9z M35.9,80.1C35.9,80.1,35.9,80.1,35.9,80.1C35.9,80.1,35.9,80.1,35.9,80.1
		C35.9,80.1,35.9,80.1,35.9,80.1C35.9,80.1,35.9,80.1,35.9,80.1z M35.5,76c0.1-0.2,0.2-0.3,0.4-0.3c0.2,0.1,0.3,0.3,0.2,0.5
		C36,76,35.8,75.9,35.5,76z M36.5,74.8C36.5,74.8,36.5,74.8,36.5,74.8c0,0.1,0,0.1,0,0.1C36.4,74.9,36.4,74.9,36.5,74.8
		C36.4,74.8,36.4,74.8,36.5,74.8z M36.4,77.5C36.4,77.5,36.4,77.4,36.4,77.5C36.4,77.4,36.4,77.4,36.4,77.5
		C36.4,77.4,36.4,77.4,36.4,77.5L36.4,77.5z M36.5,75.4C36.5,75.4,36.4,75.4,36.5,75.4C36.5,75.4,36.5,75.4,36.5,75.4
		C36.5,75.4,36.5,75.4,36.5,75.4C36.5,75.4,36.5,75.4,36.5,75.4z M36.6,75C36.6,75,36.6,75,36.6,75c-0.1-0.1,0-0.1,0-0.1
		C36.7,75,36.7,75,36.6,75C36.7,75,36.7,75,36.6,75z M36.7,74.7c-0.1-0.1-0.1-0.1-0.1-0.2c0,0,0.1-0.1,0.1-0.1
		c0,0.1,0.1,0.1,0.1,0.1C36.8,74.6,36.8,74.6,36.7,74.7z M36.8,75.8L36.8,75.8C36.8,75.9,36.8,75.9,36.8,75.8
		C36.8,75.9,36.8,75.9,36.8,75.8c0-0.1,0-0.2,0.2-0.2C37,75.8,36.9,75.8,36.8,75.8z M37.1,73.7c0.1,0.1,0.2,0.1,0.3,0.2
		c0,0,0,0.1-0.1,0.1C37.1,73.9,37.1,73.8,37.1,73.7z M37.3,74.7c0,0-0.1-0.1-0.1-0.1c0,0,0.1-0.1,0.1-0.1c0,0,0.1,0,0.1,0.1
		C37.4,74.6,37.4,74.7,37.3,74.7z M37.9,74.3c0.1,0,0.1-0.1,0.1-0.1c0,0,0,0,0,0.1C38.1,74.3,38,74.3,37.9,74.3z M38.2,73
		c0.2,0,0.3,0.1,0.4,0.3C38.4,73.3,38.3,73.2,38.2,73z M43.8,73.3c0-0.1-0.1-0.1-0.1-0.1c0,0,0.1-0.1,0.1-0.1c0,0,0.1,0,0.1,0.1
		C43.9,73.2,43.8,73.2,43.8,73.3z M48.8,81.1c0.1,0,0.3-0.1,0.4-0.1C49.1,81.3,49.1,81.3,48.8,81.1z M49.8,81.5
		C49.8,81.5,49.8,81.5,49.8,81.5c0.1,0,0.2,0,0.2,0H49.8z M50.8,80.8c-0.1,0.1-0.3,0.1-0.4-0.2c0.2,0,0.3,0,0.4,0.1
		C50.8,80.7,50.8,80.8,50.8,80.8z M50.9,81.2C50.9,81.2,50.9,81.2,50.9,81.2L50.9,81.2C50.9,81.2,50.9,81.2,50.9,81.2
		C50.9,81.2,51,81.2,50.9,81.2C51,81.2,50.9,81.2,50.9,81.2z M51.4,80.6c-0.1,0-0.1,0-0.2,0c0,0,0-0.1-0.1-0.1
		c0.1,0,0.1-0.1,0.2-0.1C51.4,80.4,51.4,80.5,51.4,80.6C51.5,80.6,51.4,80.6,51.4,80.6z M51.9,80.8c0,0-0.1,0-0.1-0.1
		c0,0,0.1-0.1,0.1-0.1C51.9,80.7,52,80.7,51.9,80.8C52,80.8,51.9,80.8,51.9,80.8z M52,81.1C52,81.1,52,81.1,52,81.1
		C52,81.1,52,81.1,52,81.1C52,81.1,52.1,81.1,52,81.1C52.1,81.1,52,81.1,52,81.1z M52,80.1c0,0.1,0.1,0.2,0.1,0.3
		C51.8,80.3,51.8,80.2,52,80.1z M52.7,81.1c0.1-0.2,0.3,0,0.4,0.1c-0.1,0-0.3,0-0.4,0.1L52.7,81.1z M53.3,81.6
		c-0.1,0-0.1-0.1-0.2-0.2c0.2,0,0.3,0,0.5,0.1C53.5,81.5,53.4,81.6,53.3,81.6z M60.5,73.1L60.5,73.1c0,0,0.1,0.1,0,0.1
		c0,0-0.1,0.1-0.1,0.1c0,0,0-0.1-0.1-0.1C60.4,73.1,60.4,73.1,60.5,73.1z M55.4,73.3C55.4,73.3,55.4,73.3,55.4,73.3
		C55.4,73.3,55.4,73.3,55.4,73.3C55.4,73.2,55.5,73.2,55.4,73.3C55.4,73.3,55.4,73.3,55.4,73.3z M57.1,80.7
		C57.1,80.7,57.1,80.7,57.1,80.7C57.1,80.6,57.1,80.6,57.1,80.7C57.1,80.6,57.1,80.7,57.1,80.7z M60.2,75.3c0.2-0.1,0.3-0.1,0.4-0.2
		c0,0.1,0,0.2,0.1,0.3C60.5,75.3,60.4,75.3,60.2,75.3z M61.1,73.1L61.1,73.1L61.1,73.1L61.1,73.1z M61.1,78L61.1,78L61.1,78L61.1,78
		z M62.4,80.9C62.4,80.9,62.4,80.8,62.4,80.9c-0.1-0.1,0-0.1,0-0.1c0,0,0.1,0,0.1,0.1C62.5,80.8,62.4,80.9,62.4,80.9z M65.4,74.8
		c0,0-0.1,0-0.2,0c0,0,0-0.1,0-0.1c0.1,0,0.2-0.1,0.3-0.2v0C65.4,74.8,65.4,74.8,65.4,74.8z M65.5,76.3
		C65.5,76.3,65.4,76.3,65.5,76.3c-0.1,0-0.1,0-0.1,0C65.4,76.2,65.4,76.2,65.5,76.3C65.5,76.2,65.5,76.3,65.5,76.3z M65.2,75.7
		c0.1,0.1,0.1,0.2,0.1,0.3C65.1,75.9,65.1,75.8,65.2,75.7z M65.1,80.3c-0.2-0.3-0.2-0.4,0-0.6C65.3,79.9,65.2,80.1,65.1,80.3z
		 M65.2,73c0,0,0,0.1,0,0.1c0,0,0,0-0.1,0C65.1,73.1,65.1,73.1,65.2,73C65.1,73,65.1,73,65.2,73z M65.1,75C65.1,75,65.1,75,65.1,75
		C65.1,75,65.1,75.1,65.1,75C65,75.1,65,75,65.1,75C65,75,65,75,65.1,75z M65,79.2C65,79.2,65,79.3,65,79.2c0,0.1,0,0.1-0.1,0.2
		c0,0-0.1-0.1-0.1-0.1C64.9,79.3,64.9,79.2,65,79.2z M63.8,75.7L63.8,75.7L63.8,75.7L63.8,75.7z M63.5,73.8
		C63.5,73.8,63.5,73.8,63.5,73.8C63.5,73.8,63.5,73.8,63.5,73.8L63.5,73.8C63.5,73.8,63.5,73.8,63.5,73.8z M63.3,74L63.3,74L63.3,74
		L63.3,74L63.3,74z M63.4,75.3c-0.2-0.2,0.1-0.2,0.2-0.3c0,0.1-0.1,0.2-0.1,0.3C63.4,75.4,63.4,75.4,63.4,75.3z M64.1,80.6
		C64.1,80.6,64.1,80.5,64.1,80.6c0-0.1,0.1,0,0.1,0C64.2,80.6,64.2,80.6,64.1,80.6z M64.2,80.2c-0.2,0-0.4,0-0.6,0
		c-0.1-0.2,0.1-0.4,0.2-0.6v0c0.2,0.2,0.4,0.3,0.7,0.5C64.3,80.2,64.2,80.2,64.2,80.2z M64.5,77C64.5,77,64.5,77,64.5,77
		C64.4,77,64.4,77,64.5,77C64.4,77,64.5,77,64.5,77L64.5,77z M65,81.4c0,0-0.1,0-0.1-0.1c0,0,0.1-0.1,0.1-0.1
		C65,81.3,65.1,81.3,65,81.4C65.1,81.4,65.1,81.4,65,81.4z M65.3,81.3c-0.2-0.1-0.4-0.1-0.6-0.2c0-0.2-0.1-0.3-0.1-0.5
		c0,0,0.1,0,0.1,0c0.1,0.1,0.2,0.1,0.3,0.2c0.1,0,0.2,0,0.4-0.1C65.4,80.9,65.4,81.1,65.3,81.3z M65.5,80.4
		C65.5,80.4,65.4,80.4,65.5,80.4C65.4,80.4,65.5,80.3,65.5,80.4C65.5,80.4,65.5,80.4,65.5,80.4C65.5,80.4,65.5,80.4,65.5,80.4z
		 M74.3,75L74.3,75L74.3,75L74.3,75L74.3,75z M68.4,80.4L68.4,80.4C68.5,80.4,68.4,80.4,68.4,80.4C68.4,80.4,68.4,80.4,68.4,80.4
		C68.4,80.4,68.4,80.4,68.4,80.4z M66,78.4c0,0,0.1,0,0.1,0.1c0,0-0.1,0.1-0.1,0.1C66,78.5,66,78.5,66,78.4C66,78.4,66,78.4,66,78.4
		z M66,81.4C66,81.4,66,81.4,66,81.4c0-0.1,0-0.1,0-0.1C66,81.3,66.1,81.4,66,81.4C66.1,81.4,66,81.4,66,81.4z M66.2,81.7
		C66.2,81.7,66.2,81.6,66.2,81.7C66.2,81.6,66.2,81.6,66.2,81.7C66.2,81.6,66.2,81.6,66.2,81.7C66.2,81.6,66.2,81.6,66.2,81.7z
		 M65.8,80.7c0.1-0.2-0.1-0.4,0.2-0.5c0.2,0,0.3,0.2,0.3,0.3C66.2,80.7,66,80.8,65.8,80.7z M66.3,73.5
		C66.3,73.5,66.3,73.5,66.3,73.5C66.3,73.5,66.3,73.4,66.3,73.5C66.3,73.4,66.4,73.5,66.3,73.5C66.3,73.5,66.3,73.5,66.3,73.5z
		 M66.6,80.8C66.6,80.8,66.6,80.8,66.6,80.8C66.6,80.8,66.6,80.7,66.6,80.8L66.6,80.8C66.6,80.7,66.7,80.7,66.6,80.8
		C66.7,80.8,66.6,80.8,66.6,80.8z M67,73.4c0-0.1,0.1-0.1,0.1-0.1l0,0c0,0,0.1,0.1,0.1,0.1c0,0.1,0,0.1-0.1,0.2
		C67,73.4,67,73.4,67,73.4z M67.4,74.3c0.2,0.1,0.3,0.2,0.2,0.4c-0.2-0.1-0.3-0.2-0.4-0.2C67.2,74.3,67.3,74.3,67.4,74.3z
		 M67.6,81.5C67.6,81.5,67.6,81.4,67.6,81.5L67.6,81.5c-0.1-0.1,0-0.1,0-0.2c0,0,0.1,0,0.1,0.1C67.7,81.4,67.7,81.4,67.6,81.5z
		 M68.4,81.2c0,0.1-0.2,0.1-0.3,0.1c-0.1,0-0.3-0.1-0.4-0.1c0,0,0-0.1,0-0.1c0.1,0,0.2-0.1,0.3-0.1c-0.1-0.1-0.2-0.3,0-0.3
		c0.2-0.1,0.3,0,0.4,0.2C68.5,80.9,68.5,81.1,68.4,81.2z M68.7,79.1L68.7,79.1L68.7,79.1L68.7,79.1C68.7,79.1,68.7,79.1,68.7,79.1z
		 M68.9,77.7c-0.1-0.1-0.1-0.1-0.1-0.1c0,0,0.1-0.1,0.1-0.1c0,0,0.1,0,0.1,0.1C68.9,77.6,68.9,77.6,68.9,77.7z M69.2,80.4
		c0-0.1,0-0.1-0.1-0.1c0,0,0,0,0-0.1c0,0,0.1,0,0.1,0.1h0C69.3,80.2,69.3,80.3,69.2,80.4z M69.4,73.5c0,0-0.2,0-0.2,0
		c-0.2-0.1-0.1-0.2,0.1-0.3h0C69.4,73.3,69.5,73.4,69.4,73.5z M69.5,80.4L69.5,80.4L69.5,80.4c0.1,0.1,0.1,0.2,0.1,0.2
		c0,0-0.1,0-0.1,0C69.5,80.6,69.5,80.5,69.5,80.4z M69.9,81.3c-0.4-0.2-0.4-0.2,0-0.5C69.9,81,69.9,81.1,69.9,81.3z M70,80L70,80
		L70,80L70,80z M70.4,79.5c-0.1-0.1-0.1-0.1-0.1-0.2l0,0c0,0,0.1-0.1,0.1-0.1c0.1,0,0.1,0.1,0.1,0.1C70.5,79.4,70.4,79.5,70.4,79.5z
		 M70.3,74.3c0.2-0.1,0.2-0.1,0.3-0.1c0,0,0.1,0.1,0.1,0.1h0C70.6,74.4,70.5,74.4,70.3,74.3z M70.8,78c-0.1-0.1-0.2-0.1-0.3-0.2h0
		c0-0.1,0-0.2,0.2-0.2c0.1,0,0.2,0.1,0.3,0.2C71,77.9,70.9,78,70.8,78z M71.3,78.4C71.3,78.4,71.2,78.3,71.3,78.4
		C71.2,78.3,71.3,78.3,71.3,78.4L71.3,78.4C71.3,78.3,71.3,78.4,71.3,78.4z M71.6,75.1c0-0.1,0-0.1,0-0.1c0,0,0.1,0,0.1,0
		c0,0,0,0.1,0.1,0.1C71.7,75.1,71.7,75.1,71.6,75.1z M72.3,78.1L72.3,78.1L72.3,78.1L72.3,78.1z M72.9,79C72.8,79,72.8,78.9,72.9,79
		C72.8,78.9,72.8,78.9,72.9,79C72.9,78.9,72.9,78.9,72.9,79L72.9,79C72.9,79,72.9,79,72.9,79z M72.9,75.6
		C72.9,75.6,72.9,75.6,72.9,75.6C72.9,75.6,72.9,75.6,72.9,75.6C72.9,75.6,72.9,75.6,72.9,75.6L72.9,75.6z M73.4,75
		C73.4,75,73.5,74.9,73.4,75c0.1-0.1,0.2,0,0.2,0c0,0,0,0.1-0.1,0.2C73.5,75.1,73.4,75.1,73.4,75z M73.7,79.7
		C73.7,79.7,73.7,79.7,73.7,79.7C73.7,79.7,73.6,79.7,73.7,79.7C73.6,79.7,73.6,79.7,73.7,79.7C73.6,79.7,73.7,79.7,73.7,79.7
		L73.7,79.7z M74.4,76.7c0,0-0.1,0-0.1,0c0-0.1,0-0.1,0-0.2h0.1C74.4,76.6,74.4,76.7,74.4,76.7z M77.9,75.5L77.9,75.5L77.9,75.5
		L77.9,75.5C77.9,75.5,77.9,75.5,77.9,75.5z M77.5,75.3c0,0,0.1,0.1,0.1,0.1c0,0-0.1,0.1-0.1,0.1C77.4,75.5,77.4,75.4,77.5,75.3
		C77.4,75.4,77.4,75.3,77.5,75.3z M75.8,73.5C75.8,73.5,75.8,73.5,75.8,73.5L75.8,73.5C75.8,73.5,75.8,73.5,75.8,73.5
		C75.8,73.5,75.8,73.5,75.8,73.5z M77.3,74.7c0,0.2,0.1,0.3,0,0.4c0,0.1-0.2,0.1-0.3,0.1c-0.1,0-0.2-0.1-0.3-0.3
		C77,74.8,77.1,74.7,77.3,74.7z M77.2,79.8c-0.1,0-0.1,0-0.2,0c0-0.1,0.1-0.2,0.1-0.3v0l0.1,0.1C77.3,79.6,77.3,79.7,77.2,79.8z
		 M77.4,76.3c0,0,0.1,0.1,0.1,0.1c0,0,0,0,0,0s0,0,0,0c0,0-0.1,0.1-0.2,0.1C77.3,76.5,77.4,76.4,77.4,76.3z M77.6,78.3
		c-0.2-0.3-0.2-0.4,0-0.4c0.2-0.1,0.3,0,0.3,0.2C77.9,78.3,77.7,78.3,77.6,78.3z M78.3,80.1c-0.1,0.1-0.2,0.1-0.4,0
		c0.1-0.1,0.1-0.4,0.4-0.4c0,0.1-0.1,0.2-0.1,0.2C78.2,80.1,78.3,80.1,78.3,80.1z M78.3,73.7c-0.2,0.1-0.3,0-0.4-0.2v0
		c0.2,0,0.3-0.2,0.4,0C78.3,73.6,78.3,73.7,78.3,73.7z M78.4,75.4L78.4,75.4C78.4,75.4,78.4,75.4,78.4,75.4L78.4,75.4
		C78.4,75.3,78.4,75.3,78.4,75.4C78.4,75.4,78.4,75.4,78.4,75.4z M78.5,80.6C78.5,80.6,78.5,80.6,78.5,80.6
		C78.5,80.5,78.5,80.5,78.5,80.6C78.5,80.5,78.6,80.5,78.5,80.6C78.6,80.6,78.5,80.6,78.5,80.6z M78.7,74c-0.1-0.1-0.1-0.2,0-0.3h0
		c0,0,0.1,0,0.1,0C78.9,73.9,78.9,74,78.7,74z M78.9,80.9c0,0-0.1,0-0.1,0c0-0.1,0-0.1,0-0.2c0,0,0.1,0,0.2,0
		C79,80.7,79,80.8,78.9,80.9z M79.3,76.4c-0.1-0.1-0.2-0.2-0.3-0.3C79.3,76.1,79.3,76.3,79.3,76.4z M79.3,76.8
		c0-0.2,0.1-0.3,0.1-0.4C79.6,76.7,79.6,76.7,79.3,76.8z M83.9,73.2c0.1,0.1,0.1,0.1,0.1,0.2c0,0-0.1,0.1-0.1,0.2
		c-0.1-0.1-0.1-0.2-0.1-0.2C83.7,73.3,83.8,73.2,83.9,73.2z M83.4,73.6C83.4,73.6,83.5,73.6,83.4,73.6
		C83.5,73.7,83.5,73.7,83.4,73.6C83.5,73.7,83.5,73.7,83.4,73.6C83.4,73.7,83.4,73.6,83.4,73.6z M83.1,74.5L83.1,74.5
		C83.1,74.5,83.1,74.5,83.1,74.5C83.1,74.5,83.1,74.5,83.1,74.5C83.1,74.5,83.1,74.5,83.1,74.5z M83,75.1C83,75.1,83,75.1,83,75.1
		c0.1,0.1,0,0.1,0,0.1C82.9,75.2,82.9,75.1,83,75.1C82.9,75.1,82.9,75.1,83,75.1z M83,75.8C83,75.8,83,75.8,83,75.8L83,75.8
		C83,75.9,82.9,75.8,83,75.8L83,75.8z M82.6,73.7L82.6,73.7c0.1,0.1,0.2,0.1,0.2,0.2c0,0-0.1,0.1-0.1,0.2c-0.1-0.1-0.2-0.2-0.2-0.2
		C82.5,73.8,82.6,73.7,82.6,73.7z M82.5,75.4c0,0,0.1-0.1,0.1-0.1c0,0,0,0.1,0.1,0.1C82.6,75.4,82.6,75.4,82.5,75.4
		C82.6,75.4,82.5,75.4,82.5,75.4L82.5,75.4z M81.6,73.4c0.1,0,0.2,0,0.3,0v0c-0.2,0.2-0.3,0.2-0.4,0.1
		C81.6,73.6,81.6,73.4,81.6,73.4z M79.6,77.2C79.6,77.2,79.6,77.1,79.6,77.2c0-0.1,0-0.2,0.1-0.3c0,0,0.1,0,0.1,0.1
		C79.7,77,79.7,77.1,79.6,77.2z M80.1,76.6C80.1,76.6,80,76.6,80.1,76.6c-0.1-0.1,0-0.1,0-0.1C80.1,76.5,80.1,76.6,80.1,76.6
		L80.1,76.6C80.2,76.6,80.1,76.6,80.1,76.6z M80.3,79.7L80.3,79.7C80.3,79.7,80.3,79.7,80.3,79.7C80.3,79.7,80.3,79.7,80.3,79.7z
		 M80.3,79.6L80.3,79.6C80.3,79.6,80.3,79.6,80.3,79.6C80.3,79.6,80.3,79.6,80.3,79.6z M80.5,76.2L80.5,76.2L80.5,76.2L80.5,76.2
		L80.5,76.2z M81.3,81.5L81.3,81.5C81.3,81.5,81.3,81.5,81.3,81.5C81.3,81.5,81.3,81.4,81.3,81.5C81.3,81.4,81.3,81.4,81.3,81.5
		C81.3,81.4,81.3,81.5,81.3,81.5z M81.5,74.3c0.1,0.1,0.1,0.2,0.2,0.3c0,0-0.1,0-0.1,0.1c-0.1-0.1-0.1-0.2-0.2-0.2L81.5,74.3z
		 M81.7,74.8C81.7,74.8,81.7,74.8,81.7,74.8c-0.1,0.1-0.1,0-0.1,0C81.6,74.8,81.6,74.8,81.7,74.8C81.7,74.8,81.7,74.8,81.7,74.8z
		 M81.6,77.9C81.6,77.9,81.5,77.9,81.6,77.9C81.5,77.9,81.6,77.8,81.6,77.9L81.6,77.9C81.6,77.9,81.6,77.9,81.6,77.9z M82,77
		c-0.1,0.1-0.3,0.1-0.4,0.1c0,0-0.1-0.1-0.1-0.1c0.1-0.1,0.2-0.2,0.4-0.2c0.1,0,0.2-0.1,0.2-0.1c0,0,0.1,0.1,0.1,0.1
		C82.1,76.8,82.1,77,82,77z M82,75.4c-0.1-0.2-0.1-0.3-0.2-0.4h0c0.2-0.1,0.3,0,0.5,0.2C82.2,75.3,82.1,75.3,82,75.4z M82.4,79.9
		C82.4,79.9,82.4,79.9,82.4,79.9c0.1-0.1,0.2-0.1,0.3-0.1c0,0,0.1,0.1,0.2,0.2C82.6,80,82.5,80,82.4,79.9z M83.1,79.3
		c0,0-0.1-0.1-0.1-0.1c0.1,0,0.1-0.1,0.1-0.1c0,0,0.1,0.1,0.1,0.1C83.2,79.2,83.1,79.3,83.1,79.3z M83.1,77.4
		c-0.1,0-0.2-0.1-0.4-0.1c0.1-0.2,0.2-0.4,0.5-0.4C83.3,77.2,83.3,77.3,83.1,77.4z M83.6,81.1c0,0-0.1,0-0.1-0.1c0.1,0,0.1,0,0.1,0
		C83.7,81,83.7,81,83.6,81.1C83.7,81.1,83.7,81.1,83.6,81.1z M83.7,77.5C83.7,77.5,83.7,77.5,83.7,77.5
		C83.7,77.6,83.7,77.6,83.7,77.5C83.7,77.6,83.7,77.6,83.7,77.5L83.7,77.5z M83.7,79.7L83.7,79.7L83.7,79.7L83.7,79.7z M83.8,79.2
		L83.8,79.2C83.8,79.2,83.8,79.2,83.8,79.2L83.8,79.2C83.8,79.2,83.8,79.2,83.8,79.2z M83.4,75c0.2-0.2,0.3-0.3,0.6-0.3
		C83.9,75.1,83.9,75.1,83.4,75z M84.2,78C84.2,78,84.2,78,84.2,78C84.2,77.9,84.2,77.9,84.2,78C84.2,77.9,84.2,77.9,84.2,78
		C84.2,77.9,84.2,77.9,84.2,78z M84.2,75C84.2,75,84.2,74.9,84.2,75l0.3-0.1c0,0,0,0,0,0.1c-0.1,0-0.1,0.1-0.2,0.1
		C84.4,75,84.3,75,84.2,75L84.2,75z M84.5,79c0,0,0.1,0.1,0.1,0.1c0,0-0.1,0.1-0.1,0.1C84.4,79.2,84.4,79.1,84.5,79
		C84.4,79.1,84.4,79,84.5,79z M84.6,80.8c0,0-0.1,0-0.1,0C84.4,80.8,84.5,80.7,84.6,80.8L84.6,80.8C84.5,80.8,84.6,80.8,84.6,80.8
		C84.6,80.8,84.6,80.8,84.6,80.8z M84.9,75.6C84.9,75.6,84.9,75.6,84.9,75.6C84.9,75.6,84.9,75.5,84.9,75.6
		C84.9,75.5,84.9,75.6,84.9,75.6C84.9,75.6,84.9,75.6,84.9,75.6z M84.9,73.7C84.9,73.7,84.9,73.7,84.9,73.7
		C84.9,73.6,85,73.7,84.9,73.7C85,73.7,84.9,73.7,84.9,73.7z M91,75c0,0.1,0,0.2-0.1,0.3c-0.2,0.1-0.3,0-0.4-0.2h0
		C90.7,75,90.9,74.8,91,75z M90.3,73.1C90.3,73.1,90.3,73.1,90.3,73.1L90.3,73.1C90.3,73.1,90.2,73.1,90.3,73.1L90.3,73.1z M90.4,74
		c0.2-0.1,0.3-0.1,0.3,0.2c0,0.1,0,0.3,0,0.5c-0.2-0.2-0.3-0.3-0.5-0.5C90.3,74.1,90.3,74,90.4,74z M90.3,74.6
		C90.3,74.6,90.2,74.6,90.3,74.6c-0.1,0-0.2,0-0.2-0.1l0-0.1C90.1,74.5,90.2,74.5,90.3,74.6z M90,73.6C90,73.6,90,73.6,90,73.6
		C90,73.6,90,73.6,90,73.6C90,73.6,90,73.6,90,73.6C90,73.6,90,73.6,90,73.6z M88,73.5L88,73.5L88,73.5L88,73.5z M88,75.2
		c0,0,0.1,0,0.1,0.1c0,0,0,0.1-0.1,0.1v0C88.1,75.3,88,75.2,88,75.2C88,75.2,88,75.2,88,75.2z M86.5,77.5L86.5,77.5L86.5,77.5
		L86.5,77.5z M86.3,73.2C86.3,73.2,86.3,73.3,86.3,73.2c0.1,0.1,0,0.1,0,0.1C86.3,73.3,86.2,73.3,86.3,73.2
		C86.2,73.2,86.3,73.2,86.3,73.2z M85.1,74.9L85.1,74.9c0.1-0.1,0.2-0.1,0.2-0.1l0,0c0,0,0,0,0,0C85.2,74.9,85.1,74.9,85.1,74.9z
		 M85.3,81C85.3,81,85.3,81,85.3,81C85.3,81,85.3,80.9,85.3,81C85.4,80.9,85.4,81,85.3,81C85.4,81,85.4,81,85.3,81z M85.5,75.4
		C85.5,75.4,85.5,75.4,85.5,75.4c0-0.1,0-0.1,0-0.1C85.5,75.3,85.5,75.3,85.5,75.4C85.5,75.4,85.5,75.4,85.5,75.4z M85.7,77L85.7,77
		L85.7,77L85.7,77z M86.2,77.2C86.2,77.2,86.2,77.3,86.2,77.2c0,0.1,0,0.1,0,0.1v0C86.1,77.3,86.1,77.3,86.2,77.2
		C86.1,77.2,86.1,77.2,86.2,77.2z M86.2,80.3L86.2,80.3c0,0,0-0.2,0-0.2c0.1,0,0.2,0,0.3,0.1c0.1,0.1,0,0.2,0,0.3
		C86.3,80.3,86.2,80.3,86.2,80.3z M86.4,78.4C86.4,78.4,86.5,78.3,86.4,78.4c0.2,0,0.3,0,0.3,0.1c0,0.1,0,0.2-0.2,0.2
		C86.5,78.6,86.5,78.5,86.4,78.4z M86.9,81.6c-0.2,0-0.3,0-0.3-0.2c0-0.1,0-0.3,0.2-0.3c0.4-0.1,0.4-0.1,0.5,0.3
		C87.1,81.5,87,81.6,86.9,81.6z M87.2,80.5C87.2,80.5,87.1,80.4,87.2,80.5c-0.1-0.1,0-0.1,0-0.2c0,0,0.1,0,0.1,0.1
		C87.3,80.4,87.2,80.5,87.2,80.5z M87.4,73.3c0,0,0-0.1,0-0.2h0.2v0.2H87.4z M87.5,75.4c-0.1-0.2,0-0.4,0.3-0.5
		C87.6,75,87.8,75.3,87.5,75.4z M87.8,74.5C87.7,74.5,87.7,74.5,87.8,74.5c-0.1-0.1,0-0.1,0-0.1C87.8,74.4,87.8,74.4,87.8,74.5
		C87.8,74.5,87.8,74.5,87.8,74.5z M88.4,79.7L88.4,79.7C88.3,79.9,88.2,80,88,80c-0.1,0.1-0.2-0.2-0.1-0.3c0.1-0.1,0.2-0.2,0.3-0.3
		C88.4,79.5,88.5,79.6,88.4,79.7z M88.4,78.4c-0.1,0-0.2-0.1-0.3-0.1c0,0,0-0.1,0.1-0.1h0.4C88.5,78.3,88.5,78.4,88.4,78.4z
		 M88.6,74.3c-0.1-0.1-0.1-0.1-0.1-0.2c0-0.1,0.1-0.1,0.1-0.1l0,0c0,0,0.1,0.1,0.1,0.1C88.7,74.2,88.7,74.2,88.6,74.3z M89.2,77.9
		L89.2,77.9L89.2,77.9L89.2,77.9L89.2,77.9z M89.2,76.7C89.2,76.6,89.1,76.6,89.2,76.7c0-0.1,0-0.1,0-0.1
		C89.2,76.6,89.2,76.6,89.2,76.7C89.2,76.6,89.2,76.6,89.2,76.7z M89.1,75.2C89.1,75.2,89.2,75.2,89.1,75.2c0.1,0,0.1,0,0.2,0
		C89.3,75.3,89.2,75.3,89.1,75.2C89.2,75.3,89.2,75.3,89.1,75.2z M89.4,81.1c0-0.1,0-0.1-0.1-0.1c0-0.1-0.2-0.2,0-0.3h0
		c0,0,0.2,0,0.2,0c0.1,0.1,0.2,0.2,0.2,0.3C89.7,81.1,89.6,81.1,89.4,81.1z M89.6,77.4c-0.2,0-0.4-0.1-0.3-0.3
		C89.6,77.1,89.6,77.3,89.6,77.4z M89.4,75.5C89.4,75.5,89.5,75.5,89.4,75.5C89.5,75.5,89.5,75.5,89.4,75.5
		C89.5,75.5,89.5,75.5,89.4,75.5C89.5,75.5,89.4,75.5,89.4,75.5z M89.8,78.3C89.8,78.3,89.8,78.3,89.8,78.3
		C89.8,78.3,89.8,78.3,89.8,78.3L89.8,78.3C89.8,78.3,89.8,78.3,89.8,78.3z M89.7,75c-0.2-0.2-0.4-0.3-0.6-0.5v-0.4
		c0.4,0,0.5,0.4,0.8,0.5C89.8,74.8,89.8,74.9,89.7,75z M90,75.2L90,75.2c0,0,0.1-0.1,0.1-0.1c0.1,0,0.1,0,0.3,0.1
		c-0.2,0.1-0.2,0.2-0.3,0.2C90.1,75.3,90,75.2,90,75.2z M90.1,77.2L90.1,77.2C90.1,77.2,90.1,77.1,90.1,77.2
		C90.1,77.1,90.1,77.2,90.1,77.2C90.1,77.2,90.1,77.2,90.1,77.2z M90.3,78.9c-0.1-0.4-0.1-0.5,0.3-0.5
		C90.6,78.6,90.5,78.8,90.3,78.9z M90.7,76.9c0.1,0,0.1,0.1,0.2,0.1c0.2,0.1,0.1,0.2,0.1,0.3c-0.1,0.1-0.1,0.2-0.2,0.3
		C90.7,77.5,90.6,77.1,90.7,76.9z M91,80.9c-0.1-0.1-0.2-0.1-0.2-0.2c0-0.1,0.1-0.2,0.2-0.2c0,0,0.2,0.1,0.1,0.1
		C91.2,80.7,91.1,80.8,91,80.9z M90.8,76.1c0.2-0.2,0.4,0,0.7-0.1l0,0c0.1,0.2-0.1,0.5,0.3,0.5c0,0,0.1-0.1,0.1-0.1
		c0,0-0.1,0.1-0.1,0.1c0,0.1,0.1,0.1,0.1,0.2c0.1,0.3,0.1,0.3-0.3,0.5c-0.1-0.2-0.2-0.4-0.1-0.6C91.3,76.5,90.9,76.4,90.8,76.1z
		 M91.4,77.6C91.4,77.6,91.5,77.7,91.4,77.6c0.1,0.1,0,0.2,0,0.2c0,0-0.1,0-0.1-0.1C91.4,77.7,91.4,77.6,91.4,77.6z M91.7,78.5
		C91.7,78.5,91.7,78.5,91.7,78.5c0-0.1,0.1-0.2,0.1-0.3c-0.2,0-0.3-0.1-0.4-0.3H92c0,0.1-0.1,0.2-0.1,0.3h0c0,0,0.1,0.1,0.2,0.1
		C91.9,78.4,91.8,78.4,91.7,78.5z"/>
	<path class="st0" d="M97.5,44.9L97.5,44.9c-3.1-3.3-7.5-3.6-10.2,0.1c-3.6-2.7-7.8-1.2-9.8,2.9c-0.1,0.3,0.2,0.5,0.5,0.3
		c0.2-0.2,0.5-0.4,0.7-0.6c-0.1-0.1-0.1-0.2,0-0.3c0,0.1,0,0.2,0.1,0.3c1.9-1.5,3.9-2.1,6.7-1.3c0.8,0.3,1.3,0.5,2,0.7
		c0,0,0.1,0,0.1,0c0,0,0,0,0,0c0,0,0,0,0,0c0,0,0,0,0,0c0,0,0.1,0,0.1,0c0.1,0,0.2,0,0.2-0.1c0.6-0.4,1-0.8,1.7-1.3
		c2.8-1.8,5.2-1.6,7.7-0.3C97.5,45.5,97.7,45.1,97.5,44.9z M85.8,44.6C85.8,44.6,85.8,44.6,85.8,44.6C85.8,44.6,85.7,44.6,85.8,44.6
		C85.7,44.6,85.8,44.6,85.8,44.6C85.8,44.6,85.8,44.6,85.8,44.6z M87.2,46.1C87.2,46.1,87.1,46.1,87.2,46.1
		C87.1,46.1,87.2,46.1,87.2,46.1L87.2,46.1C87.2,46,87.2,46,87.2,46.1C87.2,46.1,87.2,46.1,87.2,46.1z M93,42.9c0,0,0.1-0.1,0.1-0.1
		c0,0,0.1,0.1,0.1,0.1C93.2,42.9,93.1,42.9,93,42.9C93,42.9,93,42.9,93,42.9z M93.2,44C93.2,44,93.2,44,93.2,44
		c-0.1-0.1,0-0.1,0-0.1C93.2,43.9,93.3,43.9,93.2,44C93.3,43.9,93.3,44,93.2,44z M93.4,42.9C93.4,42.9,93.4,42.8,93.4,42.9
		c0-0.1,0-0.1,0-0.1l0,0C93.5,42.8,93.4,42.8,93.4,42.9z M94.1,43.9C94.1,43.9,94.1,43.9,94.1,43.9C94.1,43.9,94.2,43.8,94.1,43.9
		C94.2,43.9,94.2,43.9,94.1,43.9C94.2,43.9,94.2,43.9,94.1,43.9z M95.6,44.1c-0.1-0.1-0.1-0.1-0.1-0.2l0,0c0,0,0.1-0.1,0.1-0.1
		c0,0,0.1,0.1,0.1,0.1C95.7,44,95.7,44,95.6,44.1z"/>
</g>
</svg>
