<?xml version="1.0" encoding="utf-8"?>
<!-- Generator: Adobe Illustrator 24.3.0, SVG Export Plug-In . SVG Version: 6.00 Build 0)  -->
<svg version="1.1" id="Layer_1" xmlns="http://www.w3.org/2000/svg" xmlns:xlink="http://www.w3.org/1999/xlink" x="0px" y="0px"
	 viewBox="0 0 100 100" style="enable-background:new 0 0 100 100;" xml:space="preserve">
<style type="text/css">
	.st0{fill:#CBC2AC;}
</style>
<g>
	<polygon class="st0" points="86.2,57.3 86.2,57.3 86.2,57.3 	"/>
	<path class="st0" d="M29.4,48.7L29.4,48.7L29.4,48.7l0,0.2h-0.1v-0.1c-0.7,0.8-1.3,1.7-1.7,2.7c2.2,4.3,6.2,7.3,10.9,7.3
		c2.9,0,5.6-1.2,7.8-3.1v19c0.1,0,0.1-0.1,0.2-0.1c0.1,0.2,0.2,0.4,0.2,0.5c-0.2,0-0.2,0.3-0.4,0.4v1.7c0.1-0.1,0.2-0.1,0.4-0.2
		c0,0.2-0.1,0.4-0.1,0.5c0,0-0.1,0-0.1,0c-0.1-0.1-0.1-0.2-0.2-0.3v0.5c0,0.6,0.5,1,1,1h1.1c0.6,0,1-0.5,1-1v-0.4c0,0,0,0,0,0
		c-0.1,0-0.1,0-0.2,0c0,0,0-0.1,0-0.1c0.1,0,0.2,0,0.2,0l0,0V51.5h-0.1c-1-2-2.4-3.7-4.1-4.9l0,0.1l-0.1-0.1c-2-1.4-4.3-2.3-6.7-2.3
		C34.9,44.3,31.7,46,29.4,48.7z M46.5,76.4c0,0-0.1,0-0.1-0.1c0.1-0.1,0.1-0.1,0.1-0.1c0,0,0.1,0.1,0.1,0.1
		C46.6,76.3,46.6,76.4,46.5,76.4z M48.9,54.7L48.9,54.7L48.9,54.7C48.9,54.7,48.9,54.8,48.9,54.7C48.9,54.8,48.9,54.7,48.9,54.7
		L48.9,54.7z M48.2,75.5C48.2,75.5,48.2,75.5,48.2,75.5C48.3,75.5,48.3,75.6,48.2,75.5C48.2,75.6,48.2,75.5,48.2,75.5
		C48.2,75.5,48.2,75.5,48.2,75.5z M48.2,77.3c0.2,0.1,0.3,0.1,0.3,0.3l0,0c0,0.1,0.1,0.2,0.2,0.4c-0.2-0.1-0.4,0-0.6,0
		c-0.2,0-0.4-0.1-0.7-0.2C47.7,77.3,47.9,77.2,48.2,77.3z M47.7,75.7c0,0-0.1,0.1-0.1,0.1c-0.1,0-0.1-0.1-0.1-0.1
		c0,0,0.1-0.1,0.1-0.1C47.7,75.6,47.7,75.7,47.7,75.7z M47.5,74.2C47.5,74.2,47.5,74.2,47.5,74.2C47.5,74.2,47.5,74.3,47.5,74.2
		C47.5,74.2,47.5,74.2,47.5,74.2C47.5,74.2,47.5,74.2,47.5,74.2z M47.5,76.5L47.5,76.5c0,0.1-0.1,0.2-0.2,0.3
		c0.1,0.1,0.2,0.1,0.3,0.2c0,0,0,0,0,0.1c-0.1,0-0.2,0.1-0.2,0c-0.1,0-0.1-0.1-0.2-0.2c-0.1-0.2-0.3-0.2-0.4-0.1c0,0-0.1,0-0.1,0
		c0-0.3,0.2-0.5,0.7-0.5c0-0.1,0-0.1,0.1-0.2C47.6,76.2,47.6,76.4,47.5,76.5z M47.4,76c-0.4,0.1-0.6-0.3-1-0.2
		c0-0.3,0.1-0.3,0.3-0.3c0,0.1,0,0.2,0,0.2c0.2-0.1,0.3-0.2,0.5-0.2C47.3,75.6,47.4,75.7,47.4,76z M47.1,75
		c-0.1-0.1-0.1-0.3-0.1-0.5v0c-0.1,0-0.1,0-0.2,0c0,0,0,0,0,0s0,0,0,0c0.1,0,0.1,0,0.2,0C47.3,74.7,47.2,74.9,47.1,75z M46.8,73.7
		c0.2-0.1,0.2,0.1,0.3,0.2c-0.1,0.2-0.3,0.2-0.4,0.1C46.7,73.9,46.7,73.7,46.8,73.7z M46.6,73.2C46.6,73.2,46.6,73.2,46.6,73.2
		c0,0.1-0.1,0.1-0.1,0.2c0,0,0,0,0-0.1C46.5,73.3,46.6,73.2,46.6,73.2z M40.1,47.7H40v-0.2h0.1V47.7z M41.9,47.9h-0.1v-0.2h0.1V47.9
		z M42.7,57L42.7,57c0-0.2,0-0.3,0.1-0.4c0,0,0.1,0,0.1,0c0,0.1,0.1,0.2,0.1,0.2C42.9,56.9,42.8,57,42.7,57z M44.4,53.7L44.4,53.7
		C44.4,53.7,44.5,53.8,44.4,53.7C44.5,53.8,44.4,53.8,44.4,53.7L44.4,53.7C44.4,53.8,44.4,53.8,44.4,53.7z M43.8,54.9
		C43.8,54.9,43.8,55,43.8,54.9C43.7,55,43.7,55,43.8,54.9C43.7,55,43.8,54.9,43.8,54.9z M43.5,55.2L43.5,55.2L43.5,55.2L43.5,55.2z
		 M43.4,45.6h0.1v0.2h-0.1V45.6z M43.2,53.6c0,0.1,0.1,0.1,0.1,0.1c0,0,0,0.1-0.1,0.1c0,0-0.1-0.1-0.1-0.1
		C43.1,53.6,43.1,53.6,43.2,53.6z M42.8,45.3H43v0.2h-0.1V45.3z M42.6,45.4h0.1v0.2h-0.1V45.4z M42.5,45.9h0.1v0.2h-0.1V45.9z
		 M42.5,47h0.1v0.1h0.1v0.2h-0.1v-0.1h-0.1V47z M42.4,47.4h-0.1v-0.2h0.1V47.4z M42.4,45.9v0.2h-0.1v-0.2H42.4z M42.1,46.3h0.1v0.2
		h-0.1V46.3z M41.9,46H42v0.2h-0.1V46z M41.8,46.6h0.1v0.2h-0.1V46.6z M41.5,47.5h0.1v0.2h-0.1V47.5z M41.2,45.7h0.1v0.2h-0.1V45.7z
		 M41,46.3c-0.1,0.1-0.1,0.3-0.1,0.5C40.7,46,41.2,46.3,41,46.3z M40.7,47h0.1v0.2h-0.1V47z M40.7,47h-0.1v-0.2h0.1V47z M40.5,45.3
		h0.1v0.2h-0.1V45.3z M40.4,46.3L40.4,46.3h0.1v0.2h-0.1V46.3z M40.2,45.3h0.1v0.2h-0.1V45.3z M40.1,46.9h0.1v0.2h-0.1V46.9z
		 M40,47.2h-0.1V47H40V47.2z M39.8,46.2h0.1v0.2h-0.1V46.2z M39.8,53.5v0.1l-0.1-0.2L39.8,53.5z M39.5,47.4h0.1v0.2h-0.1V47.4z
		 M39.5,56.4c0.1,0,0.1,0.1,0.1,0.1c0,0.2-0.1,0.2-0.3,0.2C39.3,56.5,39.2,56.4,39.5,56.4z M38.8,55.6H39v0.2h-0.1V55.6z M32.2,55.3
		c0,0,0.1,0,0.1-0.1c0,0.1,0.1,0.2,0.1,0.3c0,0-0.1,0-0.1,0C32.3,55.5,32.3,55.4,32.2,55.3z M33.2,54.6c0,0,0.2,0.1,0.2,0.1
		c0,0.1-0.1,0.2-0.2,0.3c-0.1-0.1-0.2-0.2-0.2-0.3C33,54.7,33.1,54.6,33.2,54.6z M33.1,53.8C33.1,53.8,33.2,53.8,33.1,53.8
		L33.1,53.8C33.2,53.8,33.2,53.8,33.1,53.8C33.2,53.8,33.2,53.8,33.1,53.8z M33.2,54.2L33.2,54.2c0,0,0.1-0.1,0.1-0.2
		c0.1,0.1,0.1,0.1,0.1,0.1c0,0-0.1,0.1-0.1,0.1C33.3,54.3,33.2,54.3,33.2,54.2z M33.1,56.2c-0.1-0.4,0-0.4,0.3-0.3
		C33.4,56,33.3,56.1,33.1,56.2z M33.7,55.2c0.1-0.1,0.2-0.1,0.3-0.2C34.1,55.4,34.1,55.4,33.7,55.2z M33.8,53.6
		c-0.4,0.1-0.5,0.1-0.7-0.4c0.1-0.1,0.3-0.2,0.2-0.4c0-0.1,0.1-0.2,0.1-0.3c0.1,0,0.2,0,0.3,0.1c0.1,0.1,0.1,0.2,0.1,0.3
		c0,0,0,0.1-0.1,0.1c0.1,0,0.2,0.1,0.2,0.1c0.1,0.3,0.2,0.5,0.2,0.7C33.9,53.9,33.9,53.7,33.8,53.6z M34.3,54.7L34.3,54.7L34.3,54.7
		L34.3,54.7z M34.4,55.1L34.4,55.1L34.4,55.1L34.4,55.1z M34.5,56.9c0-0.2,0-0.5,0.2-0.5C34.8,56.8,34.4,56.5,34.5,56.9z M35.1,57.2
		H35V57h0.1V57.2z M35,56.6C35,56.6,35.1,56.5,35,56.6c0.1-0.1,0.1,0,0.1,0C35.1,56.6,35.1,56.6,35,56.6C35.1,56.6,35,56.6,35,56.6z
		 M35.5,56.8c0-0.1,0-0.1,0-0.1c0,0,0.1,0,0.1,0c0,0,0,0.1,0,0.1C35.5,56.7,35.5,56.8,35.5,56.8z M38.1,53.7
		C38.1,53.7,38.1,53.8,38.1,53.7c-0.1,0.1-0.1,0.1-0.2,0.2c0-0.1-0.1-0.1-0.1-0.3C38,53.7,38,53.7,38.1,53.7z M36,55.5
		C36,55.5,36,55.5,36,55.5C36,55.5,36,55.5,36,55.5C36,55.5,36,55.5,36,55.5C35.9,55.5,36,55.5,36,55.5z M35.3,51.8
		c0-0.1,0.1-0.1,0.2-0.1s0.1,0.1,0.3,0.1c-0.1,0.1-0.2,0.2-0.2,0.2l0,0c0,0-0.2,0-0.2,0C35.3,52,35.3,51.8,35.3,51.8z M35.1,57
		C35.1,57,35.1,57,35.1,57C35.1,56.9,35.1,56.9,35.1,57C35.1,56.9,35.1,56.9,35.1,57C35.1,57,35.1,57,35.1,57z M35,50.2
		C35.1,50.2,35.1,50.2,35,50.2c0.1,0,0,0.1,0,0.1C35.1,50.3,35,50.2,35,50.2C35,50.2,35,50.2,35,50.2z M35.1,54.6
		c0.1,0.3,0,0.4-0.3,0.5C34.9,54.9,35,54.8,35.1,54.6z M34.6,55.4c0,0,0-0.1,0-0.1c0,0,0.1,0,0.1,0v0c0,0,0,0.1,0.1,0.1
		C34.7,55.4,34.6,55.4,34.6,55.4z M34.7,52.5c-0.2,0.1-0.4,0-0.5-0.3c0.1-0.2,0.2-0.3,0.3-0.4C34.8,52,34.7,52.3,34.7,52.5z
		 M34.1,45.9c0,0.1,0.1,0.1,0.1,0.1c0,0,0,0.1-0.1,0.1C34.1,46.1,34.1,46.1,34.1,45.9C34,46,34.1,46,34.1,45.9z M33.1,49.9
		c0,0,0.1,0,0.1,0.1c-0.1,0.1-0.1,0.1-0.1,0.1c0,0-0.1-0.1-0.1-0.1C33,50,33.1,50,33.1,49.9z M33.4,51.1c0-0.1-0.1-0.2-0.1-0.2
		c-0.1-0.3,0-0.5,0.3-0.6c0.2-0.1,0.3,0.1,0.2,0.2c-0.1,0.2-0.2,0.3-0.2,0.5c0.1,0.1,0.2,0.3,0.3,0.5h0.3c-0.1,0.3-0.4,0.5-0.8,0.5
		c-0.2-0.3-0.3-0.5-0.5-0.7C33.1,51.2,33.3,51.1,33.4,51.1z M32.8,54.6h0.1v0.2h-0.1V54.6z M32.7,50.7L32.7,50.7L32.7,50.7
		C32.7,50.7,32.6,50.7,32.7,50.7C32.6,50.7,32.7,50.7,32.7,50.7z M32.6,55.5h0.1v0.2h-0.1V55.5z M32.5,56.7h-0.1v-0.2h0.1V56.7z
		 M32.4,51.1L32.4,51.1C32.4,51.1,32.4,51.1,32.4,51.1C32.4,51.2,32.4,51.1,32.4,51.1C32.4,51.1,32.4,51.1,32.4,51.1z M32.1,52.4
		c0.1,0,0.2,0.1,0.3,0.3c-0.1,0.1-0.2,0.2-0.3,0.2c-0.1,0-0.2-0.1-0.2-0.2C31.9,52.5,32,52.4,32.1,52.4z M31,55
		c-0.2-0.4-0.2-0.5,0-0.6c0.1-0.1,0.3-0.1,0.5,0.2C31.5,54.9,31.3,55,31,55z M31.1,49.4c0.1-0.1,0.1-0.1,0.2-0.3
		c0.2,0.4-0.1,0.6-0.1,0.9c0,0-0.1,0-0.1,0c-0.1-0.1-0.1-0.3-0.2-0.4C31,49.5,31.1,49.5,31.1,49.4z M30.8,53.7h0.1v0.2h-0.1V53.7z
		 M30.2,49.5c-0.2,0.1-0.5-0.1-0.5-0.4c0-0.1,0.1-0.2,0.2-0.3s0.2,0,0.3,0.1c0.1,0.1,0.2,0.2,0.4,0.4C30.5,49.4,30.4,49.5,30.2,49.5
		z"/>
	<path class="st0" d="M51.9,48.6v29.1c0,0.6,0.5,1,1,1H54c0.6,0,1-0.5,1-1V47.7c-0.1,0-0.1-0.1-0.2-0.2c0.1,0,0.1,0,0.2,0V45
		c0,0-0.1,0-0.1,0c0-0.2,0-0.4,0.1-0.6c0,0,0,0,0,0v-3.4c0.4,0.4,0.9,0.7,1.4,1.1c0,0,0.1,0,0.2,0c0.1,0,0.2,0.1,0.3,0.2
		c0,0.1,0,0.1,0,0.2c-0.2-0.1-0.3-0.2-0.5-0.3c1.9,1.3,4.1,2.1,6.4,2.1c4.6,0,8.7-2.9,10.9-7.3c-0.5-1-1.1-1.9-1.7-2.7v0.1h-0.1V34
		h0c-0.8-0.9-1.6-1.7-2.5-2.3c0.1,0,0.1,0.1,0.2,0.1c0,0,0,0,0,0c-0.1,0-0.2,0-0.2-0.1c0,0,0-0.1,0-0.1c-0.1-0.1-0.3-0.2-0.4-0.3
		c0,0,0,0,0,0c0,0,0,0,0,0c0,0,0,0,0,0c-1.8-1.1-3.8-1.8-6-1.8c-2.5,0-4.8,0.8-6.7,2.3L56,31.9l0-0.1c-1.6,1.2-3,2.9-4,4.9h0v0.1
		v2.8c0,0,0.1,0,0.1,0c0,0,0,0.1,0,0.1c0,0-0.1,0-0.2,0.1v8.3c0,0,0.1,0,0.1,0C52,48.3,52,48.5,51.9,48.6
		C51.9,48.7,51.9,48.6,51.9,48.6z M72.9,36.7C72.9,36.7,72.9,36.7,72.9,36.7L72.9,36.7C73,36.8,72.9,36.8,72.9,36.7L72.9,36.7z
		 M72.5,38.2C72.5,38.2,72.5,38.2,72.5,38.2c0,0,0,0.1,0,0.1C72.5,38.3,72.5,38.3,72.5,38.2C72.5,38.2,72.5,38.2,72.5,38.2z
		 M72.2,38.9C72.2,38.9,72.2,38.9,72.2,38.9C72.3,38.9,72.3,39,72.2,38.9C72.3,39,72.2,39,72.2,38.9C72.2,39,72.2,38.9,72.2,38.9z
		 M71.8,39.1c0,0,0,0.1,0,0.1c-0.1,0-0.2,0-0.2-0.2C71.7,39,71.8,39.1,71.8,39.1z M71,36.5c0.3-0.2,0.5-0.1,0.4,0.2
		c0,0.1-0.1,0.3-0.1,0.5c-0.1-0.1-0.2-0.1-0.2-0.1C71.3,36.8,71.2,36.7,71,36.5L71,36.5z M70.3,32.5C70.4,32.5,70.4,32.6,70.3,32.5
		c0,0.1,0,0.2-0.1,0.2c0,0,0-0.1-0.1-0.1C70.2,32.6,70.3,32.6,70.3,32.5z M70.2,38.9h0.1v0.2h-0.1V38.9z M70.1,40L70,40.1L69.9,40
		H70.1z M69.7,32.3c0,0.1,0.1,0.1,0.1,0.2c0,0-0.1,0.1-0.1,0.1c0,0-0.1-0.1-0.1-0.1C69.5,32.5,69.6,32.4,69.7,32.3z M69.3,37
		c0,0,0.1,0,0.1,0.1c-0.1,0.1-0.1,0.1-0.1,0.1C69.3,37.1,69.3,37.1,69.3,37C69.3,37,69.3,36.9,69.3,37z M69,31.7L69,31.7L69,31.7
		L69,31.7z M69,34.9c0.1,0,0.1,0.1,0.2,0.1c-0.1,0.1-0.1,0.1-0.1,0.1S69,35.1,68.9,35L69,34.9z M68.8,41.9L68.8,41.9l-0.1-0.2h0.1
		V41.9z M68.8,31.6L68.8,31.6c0,0.2,0,0.2,0,0.3c-0.1,0-0.1,0-0.2,0C68.6,31.8,68.7,31.7,68.8,31.6z M68.5,40.7L68.5,40.7l0.1,0.2
		h-0.1V40.7z M68.3,31.5C68.3,31.5,68.3,31.5,68.3,31.5C68.4,31.5,68.3,31.6,68.3,31.5C68.3,31.6,68.3,31.5,68.3,31.5
		C68.3,31.5,68.3,31.5,68.3,31.5z M68.2,39.8h0.1V40h-0.1V39.8z M68.1,32.7C68.1,32.8,68.1,32.8,68.1,32.7L68.1,32.7
		C68.1,32.8,68.1,32.8,68.1,32.7C68.1,32.7,68.1,32.7,68.1,32.7z M68.1,33.3C68.1,33.3,68.1,33.3,68.1,33.3
		C68.1,33.3,68.1,33.2,68.1,33.3L68.1,33.3C68.1,33.2,68.1,33.2,68.1,33.3z M68,31.4L68,31.4L68,31.4L68,31.4z M68.4,41.1
		c0,0.2-0.1,0.3-0.2,0.3c-0.2,0-0.2-0.2-0.3-0.4C68.2,41,68.3,41,68.4,41.1z M67.8,34.6L67.8,34.6C67.8,34.6,67.8,34.6,67.8,34.6
		C67.7,34.6,67.8,34.6,67.8,34.6z M67.6,35.2L67.6,35.2L67.6,35.2L67.6,35.2z M67.4,35.5C67.4,35.5,67.4,35.5,67.4,35.5
		c0,0.1,0,0.1-0.1,0.1C67.3,35.6,67.3,35.5,67.4,35.5C67.3,35.5,67.3,35.5,67.4,35.5z M67.7,42.7h-0.5
		C67.4,42.5,67.6,42.6,67.7,42.7z M66.5,41.6c0,0,0.1,0,0.1,0c0,0,0-0.1,0.1-0.1c0,0,0.1,0,0.1,0.1c0,0-0.1,0.1-0.1,0.1c0,0,0,0,0,0
		l0,0c0.1,0.1,0.1,0.3,0.1,0.4C66.7,41.8,66.4,42,66.5,41.6z M66.1,42.3L66.1,42.3l0.1,0.2h-0.1V42.3z M65.7,43.5
		C65.7,43.5,65.7,43.4,65.7,43.5C65.7,43.4,65.7,43.5,65.7,43.5C65.7,43.5,65.7,43.5,65.7,43.5C65.7,43.5,65.7,43.5,65.7,43.5
		L65.7,43.5z M65.6,42.1C65.6,42.1,65.6,42.1,65.6,42.1C65.6,42.1,65.5,42.2,65.6,42.1C65.5,42.2,65.5,42.2,65.6,42.1
		C65.5,42.1,65.5,42.1,65.6,42.1z M65,34.1c-0.1,0.1-0.2,0.2-0.3,0.1C64.8,34.2,64.9,34.2,65,34.1z M64.4,29.7
		C64.4,29.7,64.4,29.7,64.4,29.7c0.1,0.1,0,0.1,0,0.2C64.4,29.8,64.3,29.8,64.4,29.7C64.3,29.7,64.3,29.7,64.4,29.7z M56.7,35.7
		c0,0-0.1-0.1-0.1-0.1c0,0,0.1-0.1,0.1-0.1c0.1,0,0.1,0.1,0.2,0.1C56.7,35.6,56.7,35.7,56.7,35.7z M58.9,36.2c0,0-0.1-0.1-0.1-0.1
		c0,0,0-0.1,0.1-0.1c0,0,0.1,0,0.1,0.1C59,36.1,58.9,36.1,58.9,36.2z M59.4,33.1L59.4,33.1l-0.1-0.2h0.1V33.1z M62.2,40.9h0.1V41
		h-0.1V40.9z M61.5,32.6h0.1v0.2h-0.1V32.6z M61.3,38.8v-0.1l0.1-0.1L61.3,38.8z M61.3,31.4h0.1v0.2h-0.1V31.4z M61.2,32.2h0.1v0.2
		h-0.1V32.2z M61.1,32.9L61.1,32.9l-0.1-0.2h0.1V32.9z M61,32.1h0.1v0.2H61V32.1z M60.8,30.5H61v0.2h-0.1V30.5z M60.8,31.8h-0.1
		v-0.2h0.1V31.8z M60.6,30.5h0.1v0.2h-0.1V30.5z M60.5,32h0.1v0.2h-0.1V32z M60.4,32.2h0.1v0.2h-0.1V32.2z M60.3,32
		c-0.1-0.2,0.1-0.4-0.1-0.5C60,31.5,60.5,31.2,60.3,32z M59.8,31h0.1v0.2h-0.1V31z M59.6,32.7h0.1v0.2h-0.1V32.7z M59.4,31.9h-0.1
		v-0.2h0.1V31.9z M59.2,31.2h0.1v0.2h-0.1V31.2z M59,31.7L59,31.7L59,31.5H59V31.7z M58.8,31.1H59v0.2h-0.1V31.1z M58.7,32.5h0.1
		v0.2h-0.1V32.5z M58.7,32.4L58.7,32.4l-0.1,0.1h-0.1v-0.2h0.1v-0.1h0.1V32.4z M58.6,31.3h-0.1v-0.2h0.1V31.3z M58.4,30.6h0.1v0.2
		h-0.1V30.6z M58.2,30.5h0.1v0.2h-0.1V30.5z M57.7,30.8L57.7,30.8l0.1,0.2h-0.1V30.8z M57.7,34.7c-0.1,0.1-0.1,0.1-0.2,0.2
		c0-0.1-0.1-0.1-0.1-0.2C57.5,34.5,57.6,34.5,57.7,34.7z M56.7,33.5c0.2,0,0.2,0.2,0.3,0.3c-0.2,0.1-0.4,0.1-0.4-0.1
		C56.5,33.7,56.6,33.5,56.7,33.5z M56.5,41C56.5,41,56.5,41,56.5,41C56.5,41,56.5,41.1,56.5,41L56.5,41C56.5,41,56.5,41,56.5,41z
		 M56,37.8C56.1,37.8,56.1,37.9,56,37.8c0.1,0.1,0,0.1,0,0.2C56,37.9,56,37.9,56,37.8C56,37.9,56,37.8,56,37.8z M53.5,52.9
		c-0.1,0.2-0.2,0.3-0.4,0.3c-0.3,0-0.2-0.3-0.3-0.5c0.2-0.1,0.4-0.2,0.5-0.2c0.1,0,0.2,0.1,0.2,0.2C53.6,52.8,53.6,52.9,53.5,52.9z
		 M53,50L53,50c0-0.1,0.2,0,0.2,0.1c0,0,0,0.1-0.1,0.1L53,50z M54.2,52.5c-0.2,0-0.4-0.1-0.4-0.3c0,0,0.1-0.1,0.1-0.1
		c0.2,0,0.4,0.1,0.4,0.2C54.3,52.4,54.2,52.5,54.2,52.5z M54.4,47.8C54.4,47.7,54.4,47.7,54.4,47.8c-0.1-0.1-0.1-0.1,0-0.2
		C54.4,47.6,54.5,47.6,54.4,47.8C54.5,47.7,54.4,47.7,54.4,47.8z M54.4,44.4C54.4,44.4,54.3,44.3,54.4,44.4c0-0.1,0-0.1,0-0.2
		c0,0.1,0.1,0.1,0.1,0.1C54.4,44.3,54.4,44.4,54.4,44.4z M54.8,40.9c0,0.1,0.1,0.1,0,0.1c0,0-0.1,0.1-0.1,0.1c0,0,0-0.1-0.1-0.1
		C54.7,40.9,54.8,40.9,54.8,40.9z M54.5,42.2c0,0.1,0.1,0.3,0.1,0.4c0,0.1,0.1,0.2-0.1,0.3c-0.1,0.1-0.3,0-0.4-0.1
		C54,42.6,54.2,42.3,54.5,42.2z M54,43.8C54,43.8,54.1,43.8,54,43.8C54.1,43.8,54.1,43.8,54,43.8C54.1,43.9,54,43.8,54,43.8
		C54,43.8,54,43.8,54,43.8z M53.8,49.6c0,0,0.1,0.1,0.2,0.1c-0.1,0.1-0.1,0.1-0.1,0.2c-0.1-0.1-0.1-0.1-0.2-0.2
		C53.7,49.7,53.8,49.6,53.8,49.6z M53.7,45.4c0,0.1,0,0.2,0,0.2h0c0,0-0.1,0-0.1,0c0-0.1-0.1-0.1-0.1-0.2c0-0.1,0-0.1,0-0.3
		C53.6,45.3,53.7,45.3,53.7,45.4z M53.3,40.8L53.3,40.8L53.3,40.8L53.3,40.8z M53.2,41.1L53.2,41.1C53.2,41.2,53.2,41.2,53.2,41.1
		C53.2,41.2,53.2,41.2,53.2,41.1L53.2,41.1z M53,44.3c0-0.1,0.1-0.2,0.1-0.2c0.1,0,0.3,0.1,0.3,0.2c0.1,0.2,0.1,0.4,0.1,0.7
		c-0.2-0.1-0.4-0.1-0.5-0.2C53,44.5,53,44.4,53,44.3z M52.8,40.7c0,0.1,0.1,0.1,0.1,0.2c0,0-0.1,0.1-0.1,0.1c-0.1,0-0.1-0.1-0.1-0.1
		C52.7,40.7,52.7,40.7,52.8,40.7z M52.5,45.6C52.5,45.6,52.5,45.6,52.5,45.6c0.1,0.1,0,0.2,0,0.2C52.4,45.7,52.4,45.7,52.5,45.6
		C52.4,45.7,52.5,45.6,52.5,45.6z M52.4,47.4c0.1-0.1,0.3-0.1,0.4-0.2c0,0,0.1,0.1,0.1,0.1c0,0.1,0,0.3-0.1,0.4
		c-0.1,0.1-0.2,0.1-0.3,0.1c-0.1,0-0.1-0.1-0.1-0.2C52.4,47.5,52.4,47.5,52.4,47.4z"/>
	<path class="st0" d="M14.9,63L14.9,63C14.9,63,14.9,63,14.9,63L14.9,63z"/>
	<path class="st0" d="M48.2,10.7c-0.1-0.1-0.1-0.1-0.2-0.2C48.1,10.6,48.1,10.7,48.2,10.7L48.2,10.7C48.1,10.8,48.2,10.7,48.2,10.7z
		"/>
	<path class="st0" d="M63.3,9.4c0-0.1,0-0.1,0.1-0.1c-0.1,0-0.1,0-0.2-0.1C63.1,9.4,63.2,9.4,63.3,9.4z"/>
	<path class="st0" d="M14.7,30.2L14.7,30.2C14.7,30.2,14.7,30.2,14.7,30.2C14.7,30.3,14.7,30.3,14.7,30.2
		C14.7,30.3,14.7,30.3,14.7,30.2z"/>
	<polygon class="st0" points="51.9,93.5 51.9,93.5 51.9,93.5 	"/>
	<path class="st0" d="M37.4,19H37c0.1,0.1,0.1,0.2,0.2,0.3C37.2,19.2,37.3,19.1,37.4,19C37.4,19,37.4,19,37.4,19z"/>
	<path class="st0" d="M91.4,34.2c0,0-0.1,0-0.1-0.1c0,0,0-0.1,0-0.1c-0.5-1.2-1.1-2.4-1.7-3.6c-1.8-3.3-4-6.3-6.5-8.9
		c0,0,0,0.1,0,0.1c-0.1-0.1-0.1-0.2-0.2-0.3c0,0,0,0,0,0c-0.3-0.3-0.7-0.7-1-1c-0.1,0.1-0.2,0.1-0.3,0.1c-0.2,0-0.3-0.1-0.4-0.5
		c0.1,0,0.2,0,0.2-0.1c-0.8-0.7-1.5-1.4-2.3-2.1c0,0,0,0,0,0c-0.1,0.1-0.1,0.1-0.2,0.2c0,0,0-0.1-0.1-0.1c0.1-0.1,0.1-0.1,0.2-0.1v0
		c0,0,0,0,0,0c-4.5-3.8-9.8-6.6-15.6-8.3c-0.1,0-0.1,0.1-0.2,0.1c0,0.1,0,0.1,0,0.2c0.1,0,0.2-0.1,0.2-0.1c0.2,0,0.3,0.1,0.3,0.3
		c0,0.3,0.3,0.6-0.1,0.8c-0.1,0.1-0.4-0.1-0.5-0.3c-0.1-0.2-0.1-0.5-0.1-0.7c-0.3,0.1-0.4,0.2-0.5,0.5c-0.2-0.1-0.3-0.3-0.6-0.2
		c0,0-0.1-0.1-0.2-0.2c0-0.2,0.1-0.4,0.4-0.4c0.1,0,0.1-0.1,0.2-0.2c0.1,0,0.2,0,0.3-0.1c0,0,0.1,0,0.1,0c-0.8-0.2-1.7-0.4-2.5-0.6
		l0.4-3.5l0,0.4c-0.1-0.1-0.3-0.2-0.3-0.3l0,0.1c-0.1,0.3-0.1,0.5-0.3,0.6c0,0,0,0.1,0,0.2c-0.1,0-0.1,0-0.1,0
		C60,5.8,60,5.7,59.8,5.6c0,0,0-0.2,0-0.2c0.1,0,0.1-0.1,0.2-0.1c0-0.2,0-0.3,0-0.5c0,0,0,0,0,0c-0.1,0-0.1-0.1-0.2-0.1
		c0,0,0.1-0.1,0.1-0.1c0,0.1,0.1,0.1,0.1,0.2c0.1-0.1,0.3-0.1,0.4-0.2c0-0.1,0.1-0.3,0.2-0.1c0.1,0,0.1,0,0.2-0.1
		c0,0.1,0.1,0.2,0.1,0.3c-0.1-0.8-1-1.3-1.8-0.9c0,0,0.1,0,0.1,0c0,0,0.1,0,0.1,0.1c-0.1,0-0.1,0-0.2-0.1c0,0,0,0,0,0l-1.5,0.8
		c0,0.1-0.1,0.2-0.2,0.2c0,0,0,0,0,0l-7.7,3.8c0,0,0,0-0.1,0.1c0,0.1-0.1,0.2-0.1,0.3c0,0-0.1,0-0.1,0c0-0.1,0-0.2,0-0.3l-0.1,0
		c0,0.2,0,0.3,0,0.5C49.1,9.1,49,8.9,49,8.8l0.1-0.1l-1,0.5c0.2,0.2,0.5,0.3,0.7,0.5c0-0.1,0.1-0.1,0.1-0.2c0,0,0,0,0,0c0,0,0,0,0,0
		c0,0.1-0.1,0.1-0.1,0.2c0.1,0.2-0.1,0.2-0.1,0.3c0.1,0.2,0.2,0.4,0.1,0.6c-0.1,0-0.2,0-0.2,0c0,0.3,0,0.5-0.3,0.5
		c-0.2,0-0.4,0-0.5-0.3c0.1,0,0.2-0.1,0.3-0.1c0-0.1,0.1-0.2,0.1-0.3c0,0,0,0,0,0c0,0,0,0,0,0c0,0,0-0.1,0-0.1c0,0,0.1,0,0.1,0
		c0.2-0.2,0.2-0.2-0.1-0.5c-0.1-0.1-0.2-0.2-0.2-0.3c0-0.1,0-0.2,0-0.3l-2,1c-0.4,0.2-0.6,0.6-0.7,0.9c0,0,0.1,0,0.1,0
		c0.1,0.1,0.1,0.2-0.1,0.3l0,0c0,0,0,0-0.1,0c0-0.1,0-0.2,0-0.4c-0.1,0.4,0.1,0.9,0.5,1.2l1.3,1l-0.1-0.1c0.1,0.1,0.2,0.1,0.3,0.2
		l0,0c0,0,0-0.1,0-0.2c0,0,0,0,0,0c-0.1-0.1-0.2-0.2-0.3-0.3c0,0,0-0.1,0-0.1c0.1,0,0.2,0,0.2,0c0.2,0.1,0.1,0.2,0.1,0.4
		c0.1,0.1,0.1,0.1,0.2,0.2c0,0,0,0,0,0.1c-0.1,0-0.1,0-0.2,0c0,0,0,0,0,0.1l10.1,7.9c0.8,0.6,2,0.1,2.1-0.9l0.1-1.1l0,0.4
		c-0.1,0-0.2,0-0.4-0.1c0.1-0.1,0.2-0.3,0.3-0.4c0,0,0.1,0,0.1,0l0.2-2.1c2.9,0.7,5.7,1.8,8.3,3.3c0,0,0,0,0,0c0,0,0.1,0,0.1,0
		c0,0,0,0-0.1,0.1c0,0,0,0,0,0c0.5,0.3,1,0.6,1.5,0.9c0-0.1,0.1-0.1,0.1-0.2c0.1,0,0.3,0,0.4,0c0,0.1-0.1,0.3-0.1,0.4
		c4.9,3.1,9,7.4,11.8,12.7c3.5,6.5,4.9,14.1,3.9,21.4c-0.1,0.5,0,1,0.2,1.5c0,0,0-0.1,0-0.1c0.1-0.1,0.2-0.1,0.3-0.1
		c0,0,0,0,0.1-0.1c0,0,0,0,0,0.1c0,0-0.1,0-0.1,0l0,0c-0.1,0.1-0.2,0.2-0.3,0.3c0.4,1,1.3,1.8,2.4,2l2.4,0.4c0.2,0,0.4,0.1,0.6,0.1
		c0.7,0,1.3-0.2,1.9-0.6c0.7-0.5,1.2-1.3,1.3-2.2C95.6,49.5,94.5,41.4,91.4,34.2z M60.7,6.7C60.7,6.7,60.7,6.8,60.7,6.7L60.7,6.7
		C60.6,6.8,60.6,6.7,60.7,6.7L60.7,6.7z M48.5,13c-0.1,0-0.2,0-0.3,0c0,0.1,0,0.2-0.1,0.3c-0.2,0.1-0.4,0.1-0.4-0.1c0,0,0-0.1,0-0.1
		c0.1-0.1,0.3-0.2,0.4-0.3c0.1,0,0.2,0,0.3,0.1C48.5,12.9,48.5,12.9,48.5,13z M57.2,7.5C57.2,7.5,57.3,7.6,57.2,7.5L57.2,7.5
		c0.1,0.1,0,0.1,0,0.2C57.2,7.7,57.2,7.6,57.2,7.5C57.2,7.6,57.2,7.5,57.2,7.5z M56.4,11C56.4,11,56.5,11.1,56.4,11
		c0,0.1,0,0.2-0.1,0.2c0-0.1-0.1-0.1-0.1-0.1C56.4,11.1,56.4,11.1,56.4,11z M52.4,15.1c0,0.1,0.1,0.2,0.1,0.2l0,0c0,0-0.1,0-0.1,0
		C52.4,15.3,52.4,15.2,52.4,15.1C52.4,15.1,52.4,15.1,52.4,15.1z M49.4,9.7c0-0.1,0.1-0.3,0.1-0.4c0.3,0,0.4,0.3,0.5,0.6
		c-0.2,0.2-0.5,0.3-0.7,0.5c-0.1-0.2-0.2-0.3-0.3-0.6C49.2,9.8,49.3,9.7,49.4,9.7z M49.1,10.3c0.1,0.2,0.1,0.2,0.1,0.3
		C49,10.7,49,10.5,49.1,10.3z M49,12.8c0.1-0.1,0.1-0.2,0.2-0.1c0.1,0,0.2,0.1,0.3,0.2c-0.1,0.1-0.2,0.2-0.2,0.2
		C49.1,13,49.1,12.9,49,12.8z M49.8,15.5L49.8,15.5c-0.1,0-0.1,0-0.2,0c-0.1,0-0.1-0.1-0.2-0.1c0-0.2,0-0.4,0.2-0.3
		C49.9,15.1,49.8,15.3,49.8,15.5z M49.8,14C49.8,14,49.8,14,49.8,14C49.8,14,49.9,13.9,49.8,14C49.9,13.9,49.9,14,49.8,14
		C49.9,14,49.9,14,49.8,14z M50.1,15.1L50.1,15.1L50.1,15.1L50.1,15.1z M50.2,10.9C50.1,10.9,50,11,49.9,11c-0.1-0.1-0.1-0.3,0-0.4
		c0.1-0.1,0.2-0.1,0.3,0C50.4,10.7,50.4,10.8,50.2,10.9z M50.4,10.4L50.4,10.4C50.4,10.3,50.4,10.3,50.4,10.4
		C50.4,10.3,50.4,10.3,50.4,10.4C50.4,10.3,50.4,10.4,50.4,10.4z M50.6,12.6L50.6,12.6L50.6,12.6L50.6,12.6L50.6,12.6z M50.5,11.3
		C50.5,11.3,50.5,11.3,50.5,11.3C50.5,11.3,50.5,11.3,50.5,11.3C50.5,11.3,50.5,11.3,50.5,11.3C50.6,11.3,50.5,11.3,50.5,11.3z
		 M51.1,11.1c0.1-0.1,0.1-0.2,0.2-0.2c0,0,0.1,0,0.1,0.1c0,0.2-0.1,0.3-0.2,0.3L51.1,11.1C51.2,11.2,51.2,11.1,51.1,11.1z
		 M51.3,14.1C51.2,14.1,51.2,14.1,51.3,14.1c0-0.1,0-0.2,0.1-0.2c0,0,0.1,0.1,0.1,0.1C51.4,14.1,51.3,14.1,51.3,14.1z M51.3,9.1
		c-0.2,0-0.2-0.2-0.3-0.4c0.2,0,0.3,0,0.5,0C51.5,8.8,51.5,9,51.3,9.1z M51.7,13.6C51.7,13.5,51.6,13.5,51.7,13.6
		C51.6,13.5,51.7,13.5,51.7,13.6C51.7,13.5,51.7,13.5,51.7,13.6C51.7,13.5,51.7,13.5,51.7,13.6z M52.1,16.2c0,0,0.1-0.1,0.1-0.1
		c0,0,0.1,0.1,0.1,0.1c0,0.1-0.1,0.1-0.1,0.2C52.2,16.3,52.1,16.3,52.1,16.2z M52.2,17.3c0-0.3,0.1-0.4,0.3-0.6
		c0.1,0.1,0.1,0.2,0.2,0.4C52.6,17.2,52.5,17.4,52.2,17.3z M54.3,11.1C54.3,11.1,54.3,11.1,54.3,11.1C54.3,11.1,54.3,11.1,54.3,11.1
		C54.3,11,54.3,11,54.3,11.1C54.3,11.1,54.3,11.1,54.3,11.1z M54.8,18.8c-0.1-0.1-0.1-0.2-0.1-0.3c0,0,0.1-0.1,0.1-0.1
		c0.1,0.1,0.1,0.1,0.2,0.2C55,18.6,54.9,18.7,54.8,18.8z M55.1,15.1C55.1,15.1,55.1,15.1,55.1,15.1C55.1,15.1,55.1,15.1,55.1,15.1
		L55.1,15.1C55.1,15.1,55.1,15.1,55.1,15.1C55.1,15.1,55.1,15.1,55.1,15.1z M55.9,12.4C55.9,12.4,55.8,12.4,55.9,12.4L55.9,12.4
		C55.9,12.4,55.9,12.4,55.9,12.4C55.9,12.4,55.9,12.4,55.9,12.4z M56,15.8C56,15.8,56,15.8,56,15.8c-0.1-0.1-0.1-0.1-0.1-0.2H56
		C56,15.7,56,15.8,56,15.8z M56.5,18.6c-0.1,0-0.1,0-0.3-0.2c0.1,0,0.2,0.1,0.3,0.1C56.5,18.5,56.5,18.6,56.5,18.6z M56.6,11.6
		L56.6,11.6L56.6,11.6L56.6,11.6z M56.6,13.5L56.6,13.5c0,0,0-0.1,0-0.1C56.7,13.4,56.7,13.4,56.6,13.5
		C56.7,13.5,56.7,13.5,56.6,13.5C56.7,13.6,56.6,13.5,56.6,13.5z M56.8,16c-0.1,0-0.2-0.1-0.1-0.3c0.1,0,0.2,0,0.2,0.2
		C56.9,15.9,56.8,16,56.8,16z M56.7,11C56.7,11,56.8,11,56.7,11c0.1,0.1,0.1,0.1,0.1,0.2c0,0-0.1,0-0.1,0
		C56.7,11.2,56.7,11.1,56.7,11z M56.6,8.2L56.6,8.2c0,0,0-0.1,0.1-0.2c0.1-0.1,0.2,0,0.3,0.3C56.8,8.3,56.7,8.2,56.6,8.2z
		 M57.2,15.3C57.2,15.3,57.2,15.3,57.2,15.3L57.2,15c0,0,0.1,0,0.1,0C57.3,15.1,57.2,15.2,57.2,15.3z M57.1,13.6
		c0-0.1,0.1-0.2,0.1-0.2v0c0.2,0,0.1,0.2,0.2,0.3C57.2,13.8,57.1,13.8,57.1,13.6z M61.6,9L61.6,9L61.6,9L61.6,9z M58.8,5.4
		C58.8,5.4,58.8,5.5,58.8,5.4C58.9,5.5,58.9,5.5,58.8,5.4c0.3-0.1,0.5-0.1,0.7,0c-0.1,0.4-0.1,0.4-0.4,0.4l0,0l0,0
		c0.1-0.1,0.1-0.2,0.2-0.4c-0.2,0.1-0.3,0.1-0.4,0.2c0-0.1,0-0.1-0.1-0.1C58.9,5.5,58.9,5.5,58.8,5.4C58.8,5.5,58.8,5.5,58.8,5.4
		C58.8,5.4,58.8,5.4,58.8,5.4z M58.8,4.7C58.8,4.7,58.8,4.7,58.8,4.7C58.8,4.8,58.7,4.8,58.8,4.7C58.7,4.8,58.7,4.7,58.8,4.7
		C58.7,4.7,58.8,4.7,58.8,4.7z M58.8,9.3c0.3,0,0.5-0.1,0.7,0.2h0c-0.1,0.4-0.3,0.5-0.6,0.3c-0.1-0.1-0.2-0.2-0.3-0.2
		C58.6,9.4,58.7,9.3,58.8,9.3z M59.3,11.7L59.3,11.7L59.3,11.7L59.3,11.7z M59.2,13.4L59.2,13.4L59.2,13.4L59.2,13.4z M59.2,10.4
		C59.2,10.4,59.2,10.4,59.2,10.4L59.2,10.4L59.2,10.4C59.1,10.4,59.2,10.3,59.2,10.4C59.2,10.3,59.2,10.3,59.2,10.4z M58.8,12.6
		L58.8,12.6L58.8,12.6L58.8,12.6z M58.4,10.2L58.4,10.2c0.1,0.1,0.1,0.2,0.1,0.2c0,0-0.1,0-0.1,0C58.4,10.3,58.4,10.3,58.4,10.2z
		 M58.6,11.4c0,0,0,0.1-0.1,0.1c0,0-0.1-0.1-0.1-0.1c0,0,0-0.1,0-0.1C58.5,11.4,58.6,11.4,58.6,11.4z M58.3,9.7
		C58.3,9.7,58.3,9.8,58.3,9.7C58.3,9.8,58.3,9.8,58.3,9.7C58.3,9.7,58.3,9.7,58.3,9.7C58.3,9.7,58.3,9.7,58.3,9.7z M58.1,4.5
		C58.1,4.5,58.2,4.6,58.1,4.5c0.1,0.1,0,0.2,0,0.1c0,0-0.1-0.1-0.1-0.1C58,4.6,58.1,4.5,58.1,4.5z M58.1,5.4
		C58.1,5.4,58.2,5.4,58.1,5.4c0,0.3-0.1,0.3-0.3,0.3c0,0-0.1-0.1-0.1-0.2C57.8,5.4,57.8,5.4,58.1,5.4z M57.5,6C57.6,6,57.6,6,57.5,6
		L57.5,6C57.5,6,57.5,6,57.5,6C57.5,6,57.5,6,57.5,6z M57.8,6.6L57.8,6.6C57.8,6.5,57.8,6.5,57.8,6.6C57.8,6.6,57.8,6.6,57.8,6.6
		c-0.1,0-0.2,0-0.3-0.1C57.7,6.4,57.7,6.5,57.8,6.6z M57.5,10.8L57.5,10.8C57.5,10.8,57.5,10.7,57.5,10.8L57.5,10.8
		C57.5,10.7,57.5,10.8,57.5,10.8z M57.8,7.8c-0.1-0.1-0.1-0.2-0.2-0.3c0.1-0.2,0.2-0.3,0.4-0.2c0.3,0.1,0.2,0.4,0.3,0.6
		C58.1,7.9,57.9,7.9,57.8,7.8c0.1,0.2,0.2,0.3,0.1,0.5c-0.1,0-0.3,0-0.3-0.2C57.5,7.9,57.6,7.9,57.8,7.8z M57.7,10.5
		C57.7,10.5,57.7,10.5,57.7,10.5C57.7,10.5,57.7,10.5,57.7,10.5C57.7,10.5,57.7,10.5,57.7,10.5C57.7,10.5,57.7,10.5,57.7,10.5z
		 M57.6,21.9C57.6,21.8,57.6,21.8,57.6,21.9C57.6,21.8,57.6,21.8,57.6,21.9C57.6,21.8,57.6,21.8,57.6,21.9
		C57.6,21.8,57.6,21.8,57.6,21.9z M58.5,20.1c0,0-0.1-0.1-0.1-0.1c0,0,0,0,0,0c-0.1,0.2-0.2,0.4-0.5,0.3c-0.1,0-0.1,0.1-0.2,0.1
		c-0.1,0.1-0.1,0.1-0.2,0.2c0-0.2-0.1-0.4-0.1-0.6c0-0.2,0.1-0.3,0.1-0.6c0.3,0.1,0.6,0.2,0.8,0.5C58.5,20,58.5,20,58.5,20.1
		C58.6,20,58.5,20,58.5,20.1z M58.8,19.9c0,0-0.1,0-0.1,0c0,0,0-0.1,0-0.1C58.7,19.8,58.7,19.8,58.8,19.9
		C58.8,19.8,58.8,19.9,58.8,19.9z M58.8,18.5c0,0-0.1,0.1-0.1,0.1c0,0-0.1-0.1-0.1-0.1c0,0,0.1-0.1,0.1-0.1S58.8,18.4,58.8,18.5
		L58.8,18.5z M59,16.6C58.9,16.6,58.9,16.5,59,16.6c-0.1-0.1,0-0.2,0-0.2v0c0,0,0.1,0,0.1,0.1C59,16.5,59,16.6,59,16.6z M58.9,15.1
		c0.1-0.1,0.2-0.2,0.3-0.3C59.2,15,59.1,15.1,58.9,15.1z M59.4,17.4c0-0.1-0.1-0.1-0.1-0.1c0,0,0.1-0.1,0.1-0.1c0,0,0.1,0.1,0.1,0.1
		C59.5,17.3,59.5,17.4,59.4,17.4z M59.2,14.2c-0.1,0-0.2-0.1-0.3-0.1c0-0.2,0.1-0.4,0.1-0.6c0,0,0.1,0.1,0.1,0.1
		c0,0.1,0,0.2,0.1,0.2c0.2,0,0.2,0.2,0.3,0.5C59.4,14.3,59.3,14.2,59.2,14.2z M59.6,13.9c0,0-0.1-0.1-0.1-0.2c0,0,0.1,0,0.1-0.1
		C59.6,13.8,59.6,13.8,59.6,13.9C59.6,13.9,59.6,13.9,59.6,13.9z M59.8,13.5C59.8,13.5,59.8,13.5,59.8,13.5
		C59.8,13.5,59.8,13.5,59.8,13.5L59.8,13.5L59.8,13.5C59.8,13.5,59.8,13.5,59.8,13.5z M59.8,11.7L59.8,11.7
		C59.8,11.7,59.7,11.7,59.8,11.7C59.7,11.7,59.8,11.6,59.8,11.7C59.8,11.6,59.8,11.7,59.8,11.7C59.8,11.7,59.8,11.7,59.8,11.7z
		 M59.9,10.7L59.9,10.7L59.9,10.7L59.9,10.7z M59.8,7.9c0.3,0.2,0.3,0.3,0.1,0.6C59.7,8.2,59.7,8.2,59.8,7.9z M59.9,14
		c0,0,0-0.1,0-0.1c0,0,0.1,0,0.1-0.1C60,13.9,60,13.9,59.9,14C60,14,60,14,59.9,14z M60,10.4C60,10.4,60,10.4,60,10.4
		C59.9,10.4,60,10.4,60,10.4C60,10.4,60,10.4,60,10.4L60,10.4z M60.2,11.8L60.2,11.8L60.2,11.8L60.2,11.8z M60,7.1
		c-0.4-0.3-0.4-0.4,0-0.9c0.2,0.2,0.4,0.5,0.4,0.7C60.2,7,60.1,7,60,7.1z M60.5,12.1c0-0.1,0-0.2,0-0.3C60.6,11.9,60.6,12,60.5,12.1
		z M60.8,11.4C60.9,11.4,60.9,11.4,60.8,11.4C60.9,11.4,60.9,11.5,60.8,11.4C60.9,11.5,60.9,11.4,60.8,11.4z M61,12.5L61,12.5
		C61,12.5,61,12.5,61,12.5L61,12.5L61,12.5z M61,11.5C61,11.5,61,11.5,61,11.5L61,11.5C61,11.5,61,11.5,61,11.5
		C61,11.5,61,11.5,61,11.5z M60.7,11c0.2,0.1,0.3,0.1,0.4,0.1C60.9,11.3,60.7,11.3,60.7,11z M61.4,17.1L61.4,17.1
		c0,0-0.1-0.1-0.1-0.1c0,0,0.1-0.1,0.1-0.1c0.1,0,0.1,0.1,0.2,0.1C61.4,17,61.4,17.1,61.4,17.1z M61.6,11.4L61.6,11.4
		C61.6,11.3,61.5,11.3,61.6,11.4c-0.1-0.1-0.1-0.1,0-0.1C61.6,11.3,61.6,11.3,61.6,11.4C61.6,11.3,61.6,11.3,61.6,11.4z M62,12.9
		v-0.2c0,0,0,0,0.1,0C62,12.8,62.1,12.8,62,12.9C62.1,12.9,62,12.9,62,12.9z M62.2,14L62.2,14C62.2,14,62.2,14,62.2,14
		c-0.1-0.1,0-0.1,0-0.1C62.2,13.9,62.2,13.9,62.2,14C62.2,14,62.2,14,62.2,14z M62.7,10.8C62.7,10.8,62.6,10.8,62.7,10.8
		C62.6,10.8,62.6,10.8,62.7,10.8C62.6,10.8,62.6,10.7,62.7,10.8C62.7,10.7,62.7,10.7,62.7,10.8z M73.6,14.4L73.6,14.4
		C73.6,14.4,73.6,14.4,73.6,14.4L73.6,14.4C73.6,14.4,73.6,14.4,73.6,14.4z M73.6,19.8C73.6,19.8,73.6,19.8,73.6,19.8
		C73.6,19.8,73.6,19.8,73.6,19.8C73.6,19.8,73.5,19.8,73.6,19.8C73.5,19.8,73.5,19.8,73.6,19.8z M73.2,19.6
		C73.2,19.6,73.2,19.6,73.2,19.6C73.2,19.6,73.2,19.7,73.2,19.6C73.2,19.7,73.1,19.6,73.2,19.6C73.1,19.6,73.1,19.6,73.2,19.6z
		 M72.2,20.8C72.2,20.8,72.2,20.8,72.2,20.8C72.2,20.8,72.2,20.8,72.2,20.8C72.2,20.8,72.2,20.8,72.2,20.8
		C72.2,20.8,72.2,20.8,72.2,20.8z M71.9,15.6c0.1,0.1,0.1,0.3,0.2,0.5c-0.3,0-0.4,0-0.5-0.2h0C71.7,15.8,71.8,15.7,71.9,15.6z
		 M71.5,14.5L71.5,14.5L71.5,14.5L71.5,14.5L71.5,14.5z M71.3,16.7c0,0,0,0.1,0.1,0.1L71.3,16.7c0,0.1,0,0.1,0,0.1
		C71.3,16.8,71.2,16.7,71.3,16.7C71.2,16.7,71.3,16.7,71.3,16.7z M70.8,14.4C70.8,14.4,70.8,14.4,70.8,14.4
		C70.8,14.4,70.8,14.4,70.8,14.4C70.8,14.4,70.8,14.4,70.8,14.4z M70.8,15.7L70.8,15.7c0,0,0.2-0.1,0.2-0.1c0.1,0,0.1,0.2,0.1,0.3
		c-0.1,0.1-0.1,0.2-0.2,0.3c-0.1,0-0.2,0-0.3-0.1C70.7,15.9,70.8,15.8,70.8,15.7z M70.1,17.4L70.1,17.4c0,0,0.1,0.1,0.2,0.1
		c-0.1,0.1-0.1,0.1-0.1,0.1c0,0-0.1-0.1-0.1-0.1C70,17.5,70.1,17.4,70.1,17.4z M69.7,19.3C69.7,19.3,69.7,19.4,69.7,19.3l0,0.1
		l-0.1,0C69.6,19.4,69.6,19.4,69.7,19.3C69.6,19.3,69.6,19.3,69.7,19.3z M69.5,18.5c0,0,0,0.1,0,0.1C69.5,18.6,69.5,18.6,69.5,18.5
		L69.5,18.5z M69.4,16.5C69.4,16.5,69.4,16.6,69.4,16.5C69.4,16.6,69.4,16.6,69.4,16.5C69.4,16.6,69.3,16.6,69.4,16.5
		C69.4,16.5,69.4,16.5,69.4,16.5z M67.2,14.5C67.2,14.5,67.2,14.5,67.2,14.5C67.2,14.5,67.2,14.5,67.2,14.5
		C67.2,14.5,67.2,14.5,67.2,14.5L67.2,14.5z M66.7,11c-0.2-0.1-0.2-0.1-0.3-0.1C66.5,10.7,66.6,10.7,66.7,11z M66.8,14.6
		c-0.1,0.1-0.1,0.1-0.2,0.1c0,0-0.1-0.1-0.1-0.1c0,0,0.1-0.1,0.1-0.1C66.7,14.6,66.8,14.6,66.8,14.6z M66,10.8
		c0.1,0,0.2,0.1,0.1,0.4C66,11.1,66,11,66,10.8C65.9,10.9,66,10.8,66,10.8z M66.1,11.4C66.1,11.4,66.1,11.4,66.1,11.4
		C66.1,11.4,66,11.4,66.1,11.4C66,11.4,66,11.4,66.1,11.4C66.1,11.4,66.1,11.4,66.1,11.4z M65.9,11.6C65.9,11.6,65.9,11.6,65.9,11.6
		L65.9,11.6L65.9,11.6L65.9,11.6C65.8,11.6,65.9,11.6,65.9,11.6z M65.9,13.1L65.9,13.1c0.1-0.1,0.2-0.1,0.4-0.2v0.6
		c-0.1,0-0.2,0-0.3-0.1c-0.1,0-0.1-0.1-0.2-0.1C65.8,13.2,65.8,13.1,65.9,13.1z M65.3,12.8c0.2,0.1,0.2,0.2,0,0.3V12.8z M64.5,10.1
		c0.1,0,0.3,0.1,0.5,0.1c0,0.3,0,0.5-0.2,0.6c-0.2-0.1-0.3-0.2-0.4-0.2C64.4,10.5,64.5,10.3,64.5,10.1z M64.7,12.2
		c-0.1-0.2-0.1-0.3-0.2-0.4C64.9,11.8,64.9,11.8,64.7,12.2z M64.4,12.1C64.4,12.1,64.4,12.1,64.4,12.1c0,0.1,0,0.1,0,0.1
		C64.4,12.2,64.4,12.1,64.4,12.1C64.4,12.1,64.4,12.1,64.4,12.1z M63.9,12c-0.2-0.1-0.2-0.3-0.3-0.4C63.8,11.7,63.9,11.8,63.9,12z
		 M63.6,10.8C63.6,10.8,63.6,10.8,63.6,10.8C63.5,10.8,63.5,10.8,63.6,10.8C63.5,10.8,63.5,10.8,63.6,10.8z M63,15.4
		c-0.1-0.1-0.1-0.1-0.1-0.1c0,0,0.1-0.1,0.1-0.1c0,0,0.1,0,0.1,0.1h0C63,15.2,63,15.3,63,15.4z M63.2,12.8
		C63.2,12.8,63.2,12.7,63.2,12.8C63.2,12.7,63.2,12.7,63.2,12.8C63.2,12.7,63.2,12.7,63.2,12.8C63.3,12.8,63.2,12.8,63.2,12.8z
		 M63.7,11.6h-0.3C63.5,11.3,63.6,11.4,63.7,11.6z M63.6,12.7C63.6,12.7,63.6,12.8,63.6,12.7L63.6,12.7
		C63.5,12.8,63.5,12.7,63.6,12.7C63.5,12.7,63.6,12.7,63.6,12.7z M63.8,17.9c0,0.2-0.1,0.2-0.2,0.2c-0.1,0-0.2-0.1-0.2-0.2h0
		c0-0.2,0.1-0.3,0.4-0.5C63.8,17.6,63.8,17.8,63.8,17.9z M63.9,12.8c0.1,0,0.2,0,0.3,0.1C64,13.1,63.9,13.1,63.9,12.8z M64.2,11.2
		C64.1,11.2,64.1,11.2,64.2,11.2c-0.1-0.1-0.1-0.1-0.1-0.2C64.1,11.1,64.2,11.1,64.2,11.2L64.2,11.2C64.2,11.1,64.2,11.2,64.2,11.2z
		 M64.4,17.3c-0.1-0.1-0.2-0.1-0.1-0.4v0C64.4,17.1,64.4,17.2,64.4,17.3C64.5,17.3,64.4,17.3,64.4,17.3z M64.7,18.9
		C64.7,18.9,64.7,18.8,64.7,18.9C64.7,18.8,64.7,18.8,64.7,18.9C64.7,18.8,64.7,18.8,64.7,18.9C64.7,18.8,64.7,18.9,64.7,18.9z
		 M64.9,19.2L64.9,19.2C64.9,19.2,64.9,19.2,64.9,19.2L64.9,19.2C64.9,19.2,64.9,19.2,64.9,19.2z M64.6,17.3l0-0.1
		c0.1-0.1,0.2,0,0.3,0.2C64.8,17.4,64.7,17.4,64.6,17.3z M64.8,16.2C64.9,16.2,64.9,16.2,64.8,16.2C64.9,16.2,64.9,16.2,64.8,16.2
		C64.9,16.3,64.9,16.3,64.8,16.2C64.9,16.3,64.9,16.3,64.8,16.2z M65,15.2C65,15.2,65,15.2,65,15.2C64.9,15.2,65,15.2,65,15.2
		C65,15.2,65,15.2,65,15.2C65,15.2,65,15.2,65,15.2z M65,14.3C65,14.3,64.9,14.3,65,14.3c-0.1-0.1-0.1-0.2,0-0.2h0
		c0,0,0.1,0.1,0.1,0.1C65.1,14.3,65,14.3,65,14.3z M64.6,12.9c-0.1-0.1-0.2-0.2-0.2-0.3c0.1,0,0.3,0,0.4,0c0.4,0,0.4,0,0.4,0.5
		C65,13.1,64.8,13,64.6,12.9z M65.3,18.5c0.2,0.1,0.4-0.1,0.5,0.2C65.4,19,65.3,18.9,65.3,18.5z M65.5,17.6L65.5,17.6
		c-0.1-0.1-0.1-0.3-0.2-0.4c0.2,0,0.4,0,0.5,0.3C65.7,17.5,65.6,17.6,65.5,17.6z M65.7,14.3c0.1-0.2,0.3-0.2,0.4-0.1
		C66.1,14.3,65.9,14.4,65.7,14.3z M66.1,19.1L66.1,19.1C66.1,19.1,66.1,19.1,66.1,19.1C66.1,19.1,66.2,19.1,66.1,19.1L66.1,19.1
		C66.2,19.1,66.2,19.1,66.1,19.1z M66.3,16.5c0,0-0.1-0.1-0.1-0.1c0-0.1,0.1-0.1,0.1-0.2c0.1,0.1,0.1,0.1,0.1,0.1
		C66.4,16.5,66.3,16.5,66.3,16.5z M66.3,14.8v-0.3c0,0,0,0,0.1,0C66.4,14.6,66.4,14.7,66.3,14.8C66.4,14.8,66.4,14.8,66.3,14.8z
		 M66.7,20c-0.1,0-0.3-0.1-0.3-0.4v0c0.2,0,0.3,0,0.4,0.1c0.1,0,0.1,0.2,0.1,0.2C66.9,19.9,66.8,20,66.7,20z M67.2,15.4
		C67.2,15.4,67.2,15.4,67.2,15.4c-0.1-0.1-0.1-0.1,0-0.1C67.2,15.3,67.3,15.3,67.2,15.4C67.3,15.3,67.3,15.4,67.2,15.4z M67.3,11.8
		C67.3,11.8,67.3,11.8,67.3,11.8C67.4,11.9,67.4,11.9,67.3,11.8C67.4,11.9,67.3,11.9,67.3,11.8C67.3,11.9,67.3,11.8,67.3,11.8z
		 M67.4,14.9C67.4,14.9,67.4,14.9,67.4,14.9c0.1-0.1,0.1-0.1,0.2,0C67.5,15,67.4,15,67.4,14.9C67.4,15,67.4,15,67.4,14.9z
		 M67.6,20.1c-0.1-0.1-0.1-0.2-0.2-0.2l0.1-0.1C67.6,19.9,67.6,20,67.6,20.1C67.7,20.1,67.6,20.1,67.6,20.1z M67.9,11.1
		c0,0-0.1-0.1-0.1-0.1c0,0,0.1-0.1,0.1-0.1c0,0,0.1,0,0.2,0.1C67.9,11.1,67.9,11.1,67.9,11.1z M68.1,15.7L68.1,15.7
		c0,0-0.1-0.1-0.1-0.1c0,0,0.1-0.1,0.1-0.1c0,0,0.1,0,0.1,0.1C68.1,15.7,68.1,15.7,68.1,15.7z M68.6,20.8
		C68.6,20.8,68.6,20.7,68.6,20.8c0-0.1,0-0.1,0-0.1C68.6,20.7,68.7,20.7,68.6,20.8C68.7,20.7,68.6,20.8,68.6,20.8z M69.2,20.4
		c-0.4,0-0.7,0-0.7-0.2h0h0.6c0-0.1,0-0.2-0.1-0.3c0.1,0,0.1,0,0.1,0C69.4,20,69.2,20.2,69.2,20.4z M69.3,18.8c0,0,0.1,0,0.2,0.1
		C69.4,19,69.4,19,69.4,19C69.4,19,69.3,18.9,69.3,18.8C69.3,18.9,69.3,18.8,69.3,18.8z M69.5,20C69.5,20,69.5,20,69.5,20L69.5,20
		C69.5,20.1,69.5,20.1,69.5,20C69.5,20.1,69.5,20,69.5,20C69.5,20,69.5,20,69.5,20z M69.4,19.7c0-0.1,0-0.1,0-0.2
		C69.4,19.6,69.4,19.7,69.4,19.7C69.4,19.7,69.4,19.7,69.4,19.7z M69.5,20.8c0.2,0.2,0.2,0.5,0.2,0.7C69.4,21.3,69.4,21.1,69.5,20.8
		z M69.9,21.3C69.9,21.3,69.9,21.3,69.9,21.3L69.9,21.3L69.9,21.3C69.9,21.3,69.9,21.3,69.9,21.3C69.9,21.2,69.9,21.3,69.9,21.3z
		 M70.1,21.1c0-0.1,0-0.2-0.1-0.2v0C70.1,20.9,70.1,21,70.1,21.1C70.1,21.1,70.1,21.1,70.1,21.1z M69.8,20.6c0,0-0.1,0.1-0.2,0.1
		c-0.1-0.3-0.1-0.5,0.1-0.7c0.2-0.2,0.2-0.4,0.2-0.7c0.1-0.1,0.3-0.1,0.4-0.2c0.1-0.1,0.2-0.2,0.3-0.2c0.1,0.1,0.4,0.1,0.3,0.4
		c0,0.1,0,0.1,0.1,0.2h-0.7l0,0C70.1,19.9,70,20.2,69.8,20.6z M70.8,22C70.8,22,70.8,22,70.8,22C70.8,22,70.8,22,70.8,22
		C70.8,22,70.8,22,70.8,22L70.8,22C70.9,22,70.8,22,70.8,22z M70.6,21.8C70.6,21.8,70.5,21.8,70.6,21.8c0-0.2,0-0.3,0.1-0.4
		c0,0,0,0,0,0c0,0,0,0,0,0c0.2,0,0.3,0.1,0.2,0.3C70.9,21.7,70.7,21.8,70.6,21.8z M71,21.7C71,21.7,71,21.7,71,21.7
		c-0.1-0.1,0-0.1,0-0.2h0c0,0,0.1,0,0.1,0.1C71.1,21.7,71,21.7,71,21.7z M70.9,20.2c0.2-0.2,0.3-0.2,0.5-0.1
		C71.2,20.4,71,20.2,70.9,20.2z M71.2,21.9c0.1,0,0.2,0.1,0.2,0.2C71.3,22.1,71.3,22,71.2,21.9z M71.9,21.6
		C71.9,21.6,71.8,21.6,71.9,21.6c-0.1,0-0.2,0-0.2,0c0-0.1-0.1-0.2-0.1-0.3c0.1,0,0.2,0,0.2,0C72,21.3,72,21.5,71.9,21.6z
		 M71.5,19.2c0.1-0.1,0.1-0.2,0.1-0.2c0.2,0,0.3,0,0.4,0.3C71.8,19.3,71.6,19.3,71.5,19.2z M72,19.5C72,19.5,72.1,19.5,72,19.5
		c0.1,0,0.1,0,0.1,0v0C72.1,19.6,72.1,19.6,72,19.5C72.1,19.6,72,19.6,72,19.5z M72.3,22.9C72.2,22.9,72.2,22.9,72.3,22.9
		c-0.1,0-0.2,0-0.2-0.1c0,0,0.1-0.1,0.1-0.1c0.1,0,0.1,0,0.2,0C72.3,22.8,72.3,22.8,72.3,22.9z M72.3,19.7c0,0-0.1-0.1-0.1-0.1
		c0,0,0.1-0.1,0.1-0.1C72.3,19.6,72.4,19.6,72.3,19.7C72.4,19.7,72.3,19.7,72.3,19.7z M72.5,17.7C72.5,17.7,72.5,17.6,72.5,17.7
		c-0.1-0.1-0.1-0.1,0-0.1C72.5,17.5,72.6,17.5,72.5,17.7C72.6,17.6,72.6,17.6,72.5,17.7z M72.7,14C72.7,14,72.8,14,72.7,14
		c0,0.1,0,0.2,0,0.2c0,0,0,0-0.1,0L72.7,14z M72.7,18.9c0,0,0-0.1,0-0.1c0,0,0,0,0.1,0C72.8,18.8,72.8,18.8,72.7,18.9L72.7,18.9z
		 M72.7,17.5C73,17.6,73,17.7,73,18C72.8,17.9,72.7,17.8,72.7,17.5z M73.2,23.4c-0.1,0-0.1-0.1-0.2-0.2l0,0c0,0,0.1-0.1,0.1-0.1
		c0.1,0,0.1,0.1,0.2,0.2C73.3,23.3,73.2,23.4,73.2,23.4z M73,21.3C73,21.3,73,21.3,73,21.3C73.1,21.3,73.1,21.3,73,21.3L73,21.3
		C73.1,21.4,73,21.4,73,21.3C73,21.4,73,21.4,73,21.3z M73.6,20.7c-0.3,0.2-0.4,0.2-0.6,0.1c0-0.1-0.1-0.1-0.1-0.2
		c0-0.1,0.1-0.1,0.2-0.2C73.3,20.4,73.5,20.6,73.6,20.7L73.6,20.7z M73.9,19.9L73.9,19.9C73.9,19.9,73.9,19.9,73.9,19.9
		C73.9,19.9,73.9,19.9,73.9,19.9C73.9,19.9,73.9,19.9,73.9,19.9z M74.2,17.9L74.2,17.9C74.2,17.9,74.1,17.9,74.2,17.9
		C74.1,17.9,74.1,17.9,74.2,17.9C74.2,17.8,74.2,17.9,74.2,17.9C74.2,17.9,74.2,17.9,74.2,17.9z M74.2,19.6
		C74.2,19.6,74.2,19.5,74.2,19.6C74.3,19.5,74.3,19.6,74.2,19.6C74.3,19.6,74.3,19.6,74.2,19.6C74.2,19.6,74.2,19.6,74.2,19.6z
		 M74.3,20.7c0,0-0.1-0.2-0.1-0.2c0.1-0.2,0.2-0.1,0.4,0C74.6,20.6,74.5,20.7,74.3,20.7z M74.6,15.8c0,0-0.1-0.1-0.1-0.1
		c0,0,0-0.1,0.1-0.2C74.7,15.6,74.7,15.7,74.6,15.8C74.7,15.7,74.6,15.8,74.6,15.8z M75,16.7c-0.1-0.3-0.1-0.5,0.1-0.8
		C75.1,16.3,75.1,16.5,75,16.7z M85.9,26.6c-0.1,0.1-0.2,0.3-0.3,0.4C85.5,26.6,85.5,26.6,85.9,26.6z M84.2,26.2
		c0.1-0.1,0.1-0.4,0.2-0.4c0.2,0,0.3,0.2,0.4,0.4c0,0,0,0.1,0,0.1c-0.2,0-0.4,0-0.6,0.1C84.2,26.3,84.2,26.2,84.2,26.2z M83.6,25.4
		C83.6,25.4,83.6,25.5,83.6,25.4L83.6,25.4C83.6,25.5,83.6,25.5,83.6,25.4C83.6,25.5,83.6,25.4,83.6,25.4z M83.3,23.7
		c0.1-0.1,0.2,0,0.3,0.2c-0.1-0.1-0.2-0.1-0.3-0.1C83.2,23.8,83.3,23.7,83.3,23.7z M82.6,21c0.1,0.1,0.1,0.3,0.2,0.4
		C82.6,21.4,82.5,21.2,82.6,21z M82.8,21.7c0,0-0.1,0-0.1,0.1C82.7,21.8,82.7,21.7,82.8,21.7C82.8,21.7,82.8,21.7,82.8,21.7z
		 M82.6,21.9C82.6,21.9,82.6,22,82.6,21.9c0,0.1,0,0.1,0,0.1C82.5,22,82.5,22,82.6,21.9C82.5,21.9,82.5,21.9,82.6,21.9z M82.5,27
		C82.5,27,82.6,27,82.5,27C82.6,27,82.5,27.1,82.5,27C82.5,27.1,82.5,27,82.5,27C82.5,27,82.5,27,82.5,27z M82.1,29
		C82.1,29,82.2,29,82.1,29c0.1,0.1,0.1,0.1,0,0.1C82.1,29.1,82.1,29.1,82.1,29C82.1,29,82.1,29,82.1,29z M82.1,25.9
		C82.1,25.9,82.1,25.8,82.1,25.9L82.1,25.9C82.1,25.9,82.1,25.9,82.1,25.9z M82.2,27.9c0.2,0.1,0.2,0.2,0.2,0.4
		c0.1-0.1,0.2-0.1,0.3-0.2c-0.1,0.3-0.1,0.3-0.3,0.2C82.2,28.2,82.1,28.1,82.2,27.9z M82.3,26.7C82.4,26.7,82.4,26.7,82.3,26.7
		C82.4,26.7,82.4,26.7,82.3,26.7C82.4,26.8,82.4,26.8,82.3,26.7C82.4,26.8,82.4,26.8,82.3,26.7z M82.4,25C82.4,25,82.4,25.1,82.4,25
		c0,0.1,0,0.1,0,0.1C82.3,25.1,82.3,25.1,82.4,25L82.4,25C82.3,25.1,82.4,25,82.4,25z M82.2,27.1C82.2,27.1,82.3,27.2,82.2,27.1
		c0.1,0.1,0.1,0.1,0,0.1C82.2,27.3,82.2,27.2,82.2,27.1C82.2,27.2,82.2,27.2,82.2,27.1z M81.7,21.1c0.1,0.1,0.3,0.2,0.4,0.3
		c-0.2,0-0.4,0.1-0.5,0.1c0,0-0.1-0.1-0.2-0.1c0-0.1,0-0.2,0-0.2C81.6,21.1,81.7,21,81.7,21.1z M81.8,26.6L81.8,26.6
		C81.8,26.6,81.9,26.6,81.8,26.6C81.9,26.6,81.9,26.6,81.8,26.6C81.9,26.6,81.9,26.6,81.8,26.6C81.8,26.6,81.8,26.6,81.8,26.6z
		 M81.9,27.4L81.9,27.4L81.9,27.4L81.9,27.4C81.8,27.4,81.8,27.4,81.9,27.4C81.8,27.4,81.9,27.4,81.9,27.4z M81.1,22.2
		c-0.1-0.3,0-0.5,0.3-0.6c0.2-0.1,0.4,0.1,0.5,0.4C81.6,22,81.4,22.4,81.1,22.2z M80.8,27.2c0.1-0.1,0.1-0.2,0.2-0.2
		c0.1,0,0.2,0.1,0.3,0.2c-0.2,0.1-0.3,0.2-0.3,0.2C80.9,27.4,80.8,27.3,80.8,27.2z M80.9,28.6L80.9,28.6c0,0-0.1,0-0.1,0.1
		c0,0,0-0.1,0-0.1C80.8,28.5,80.8,28.5,80.9,28.6C80.9,28.5,80.9,28.6,80.9,28.6z M80.7,23.6c0,0-0.1-0.1-0.1-0.1
		c0,0,0.1-0.1,0.1-0.1c0,0,0.1,0,0.2,0.1C80.8,23.5,80.8,23.6,80.7,23.6z M81.1,26L81.1,26c0,0,0.1,0,0.2,0.1c0,0,0,0.1-0.1,0.1
		c0,0-0.1,0.1-0.1,0.1c-0.1,0-0.1-0.1-0.1-0.1C81,26.1,81.1,26,81.1,26z M81,25.1L81,25.1L81,25.1L81,25.1z M81.3,28
		c0,0,0,0.1,0,0.1c-0.1,0.1-0.1,0.1-0.2,0.2l0,0c-0.1-0.1-0.1-0.2-0.2-0.3H81.3z M81.1,24.7c0-0.2-0.1-0.3-0.1-0.5
		c0.3-0.2,0.4-0.2,0.5,0.2c0,0.1,0,0.2,0,0.3c0,0,0,0,0,0.1c0,0,0,0,0-0.1C81.3,24.7,81.2,24.7,81.1,24.7z M81.3,22.8
		C81.3,22.8,81.3,22.8,81.3,22.8C81.3,22.8,81.3,22.8,81.3,22.8C81.3,22.8,81.3,22.8,81.3,22.8C81.3,22.8,81.3,22.8,81.3,22.8z
		 M81.5,26.8C81.5,26.8,81.5,26.8,81.5,26.8c0.1,0.1,0,0.1,0,0.2c0,0-0.1-0.1-0.1-0.1C81.4,26.8,81.5,26.8,81.5,26.8z M81.5,24
		C81.5,24,81.6,23.9,81.5,24C81.6,24,81.6,24,81.5,24C81.6,24,81.6,24,81.5,24C81.6,24,81.5,24,81.5,24z M80.9,19.7
		c0.1,0.2,0.1,0.2-0.1,0.3C80.8,19.9,80.9,19.8,80.9,19.7z M80.8,21.1c0-0.4,0.2-0.5,0.5-0.4c0.1,0,0.1,0,0.2,0.1
		c-0.1,0.2-0.1,0.3-0.2,0.4c0,0,0,0-0.1,0c0-0.1,0-0.1,0-0.2c-0.2,0.1-0.1,0.3-0.2,0.5c-0.1,0-0.2-0.1-0.3-0.1
		C80.7,21.3,80.8,21.2,80.8,21.1L80.8,21.1z M80.7,22.4L80.7,22.4c0,0.1,0,0.2,0,0.4c-0.1-0.1-0.2-0.2-0.3-0.2
		c0-0.1-0.1-0.2-0.1-0.2c0-0.1,0.1-0.1,0.2-0.1C80.6,22.3,80.7,22.3,80.7,22.4z M80.6,24.2L80.6,24.2L80.6,24.2L80.6,24.2z
		 M80.5,26.5C80.5,26.5,80.5,26.5,80.5,26.5C80.5,26.5,80.5,26.5,80.5,26.5C80.4,26.5,80.5,26.4,80.5,26.5
		C80.5,26.4,80.5,26.4,80.5,26.5z M80.4,19.2C80.4,19.2,80.4,19.2,80.4,19.2L80.4,19.2C80.5,19.2,80.4,19.2,80.4,19.2L80.4,19.2z
		 M80.4,19.4C80.5,19.4,80.5,19.5,80.4,19.4C80.5,19.5,80.5,19.5,80.4,19.4C80.5,19.5,80.5,19.5,80.4,19.4
		C80.4,19.5,80.4,19.5,80.4,19.4z M80,20L80,20L80,20L80,20z M79.9,20.7C79.9,20.7,80,20.7,79.9,20.7C80,20.7,80,20.7,79.9,20.7
		C79.9,20.7,79.9,20.7,79.9,20.7C79.9,20.7,79.9,20.7,79.9,20.7z M79.8,19.1C79.8,19.1,79.8,19.1,79.8,19.1
		C79.8,19.1,79.8,19.1,79.8,19.1C79.7,19.1,79.7,19.1,79.8,19.1C79.7,19.1,79.7,19.1,79.8,19.1z M79.2,19.5c0.1-0.1,0.3,0,0.3,0.2
		l0,0c0,0.3,0.1,0.5,0.3,0.6c-0.3,0.2-0.5,0-0.7-0.1C78.9,20.1,79,19.6,79.2,19.5z M79.6,22.6C79.6,22.7,79.6,22.7,79.6,22.6
		c-0.1,0.1-0.1,0-0.1,0C79.5,22.6,79.5,22.6,79.6,22.6C79.6,22.6,79.6,22.6,79.6,22.6z M79,20.4c-0.2,0-0.3,0-0.3-0.3
		C78.8,20.1,78.9,20.2,79,20.4z M78.9,21.6c0,0.1-0.1,0.2-0.1,0.3c0,0,0,0,0,0c0-0.1,0-0.2,0-0.3C78.8,21.6,78.9,21.6,78.9,21.6z
		 M78.7,18.9h0.1c0,0.1,0,0.2,0,0.3l0,0c0,0-0.1,0-0.1,0C78.7,19.1,78.7,19,78.7,18.9z M77.5,19.5C77.5,19.5,77.5,19.5,77.5,19.5
		C77.5,19.5,77.5,19.5,77.5,19.5L77.5,19.5z M77.4,18.8C77.4,18.8,77.4,18.9,77.4,18.8L77.4,18.8C77.4,18.9,77.4,18.9,77.4,18.8
		C77.4,18.9,77.4,18.9,77.4,18.8z M75.2,22.3L75.2,22.3L75.2,22.3L75.2,22.3z M75.6,19.1C75.6,19.1,75.6,19.1,75.6,19.1
		C75.6,19.1,75.6,19.1,75.6,19.1C75.6,19.1,75.6,19.1,75.6,19.1C75.6,19.1,75.6,19.1,75.6,19.1z M75.7,16.3c-0.2,0-0.3,0-0.4,0
		c-0.1-0.1-0.1-0.3-0.1-0.5C75.5,15.7,75.6,15.9,75.7,16.3L75.7,16.3z M75.9,19.3L75.9,19.3C75.9,19.3,75.9,19.3,75.9,19.3
		L75.9,19.3C75.9,19.3,75.9,19.3,75.9,19.3z M76.5,19.5c0,0-0.1,0-0.2,0c0-0.2,0.1-0.3,0.1-0.4c0-0.3,0.1-0.3,0.4-0.2
		C76.9,19.1,76.6,19.2,76.5,19.5z M77,18.5C77,18.5,76.9,18.5,77,18.5L77,18.5c0-0.1,0-0.1,0-0.1C77,18.4,77,18.4,77,18.5
		C77,18.5,77,18.5,77,18.5z M77.1,20.9C77.1,20.9,77.2,20.9,77.1,20.9c0.1,0.1,0,0.1,0,0.2v0C77.1,21.1,77.1,21,77.1,20.9
		C77.1,20.9,77.1,20.9,77.1,20.9z M77.3,23C77.2,23,77.2,23,77.3,23c-0.1-0.1,0-0.1,0-0.1c0,0,0,0,0,0c0-0.2-0.1-0.3-0.1-0.5
		c0.2,0.1,0.4,0.1,0.5,0.2l0,0c-0.1,0.3-0.2,0.4-0.4,0.4C77.3,22.9,77.3,22.9,77.3,23z M77.5,28.1C77.5,28.1,77.5,28.1,77.5,28.1
		c-0.1-0.1,0-0.1,0-0.1C77.5,28,77.5,28,77.5,28.1C77.5,28,77.5,28.1,77.5,28.1z M77.3,27.1c0,0,0-0.1,0-0.2
		c0.1-0.1,0.2-0.1,0.4,0.2C77.5,27.1,77.4,27.1,77.3,27.1z M77.6,25.8C77.6,25.8,77.6,25.7,77.6,25.8C77.6,25.7,77.6,25.7,77.6,25.8
		C77.6,25.7,77.7,25.7,77.6,25.8C77.7,25.7,77.7,25.8,77.6,25.8z M77.7,21.8C77.7,21.8,77.7,21.7,77.7,21.8
		C77.7,21.7,77.7,21.7,77.7,21.8C77.7,21.7,77.7,21.7,77.7,21.8C77.7,21.7,77.7,21.8,77.7,21.8z M77.8,19.5
		C77.8,19.5,77.8,19.5,77.8,19.5C77.8,19.5,77.8,19.4,77.8,19.5C77.8,19.4,77.8,19.5,77.8,19.5L77.8,19.5z M77.8,18.6
		c0,0-0.1-0.1-0.1-0.1c0,0,0-0.1,0-0.1c0,0,0,0,0.1,0C77.8,18.4,77.8,18.5,77.8,18.6C77.9,18.6,77.9,18.6,77.8,18.6z M77.9,17.3
		c0,0-0.1-0.2,0-0.2c0.1-0.1,0.2-0.1,0.3,0.1C78.1,17.3,78,17.4,77.9,17.3L77.9,17.3z M78.4,19.4C78.4,19.4,78.4,19.4,78.4,19.4
		c-0.1,0.1-0.1,0.1-0.2,0.1c0,0,0-0.1,0-0.1H78.4z M78.1,21C78.1,21,78.1,21,78.1,21L78.1,21C78.1,21,78.1,21,78.1,21
		C78.1,21,78.1,21,78.1,21z M78.1,21.4L78.1,21.4L78.1,21.4L78.1,21.4z M77.9,22.4c-0.1-0.2,0.3-0.6,0.6-0.6l0,0
		c0.1,0,0.2,0.1,0.3,0.1c0.1,0.2,0.2,0.4,0.2,0.5c-0.1,0.1-0.2,0.3-0.3,0.5c-0.1,0.2-0.2,0.3-0.4,0.5c0.1,0.1,0.2,0.2,0.3,0.2v0.4
		c-0.4,0.1-0.5,0-0.6-0.4C77.9,23.3,78.1,22.8,77.9,22.4z M78.6,25.9C78.6,25.9,78.5,25.9,78.6,25.9C78.5,25.9,78.5,25.9,78.6,25.9
		c-0.1-0.1-0.2,0-0.2-0.1c-0.1-0.1-0.1-0.2-0.1-0.3c0,0,0.1-0.1,0.2-0.1c0.1,0,0.1,0.1,0.1,0.2C78.6,25.7,78.5,25.8,78.6,25.9
		C78.5,25.8,78.5,25.8,78.6,25.9C78.5,25.9,78.6,25.9,78.6,25.9z M78.1,25.1C78.2,25.1,78.2,25,78.1,25.1c0.1,0,0.1,0,0.1,0.1
		c0,0,0,0.1-0.1,0.1C78.2,25.2,78.2,25.1,78.1,25.1z M78.3,29.4C78.3,29.4,78.3,29.4,78.3,29.4c-0.1-0.2-0.1-0.3-0.1-0.5
		c0.1-0.1,0.2-0.2,0.3-0.3C78.6,28.9,78.6,29.2,78.3,29.4z M78.6,25.1c0,0-0.1-0.1-0.2-0.2c0,0,0.1-0.1,0.1-0.1
		c0.1,0,0.1,0.1,0.2,0.2C78.7,25,78.6,25.1,78.6,25.1L78.6,25.1z M78.6,26.9C78.6,26.9,78.6,26.9,78.6,26.9L78.6,26.9
		C78.6,26.8,78.7,26.8,78.6,26.9C78.7,26.8,78.7,26.9,78.6,26.9z M78.7,28.6c0.1,0,0.1-0.1,0.2-0.1c0,0,0.1,0.1,0.1,0.1
		c0,0.1-0.1,0.1-0.1,0.1C78.8,28.8,78.8,28.7,78.7,28.6z M78.9,29.2c0,0,0-0.1,0.1-0.1c0,0,0.1,0,0.1,0.1C79,29.2,79,29.2,78.9,29.2
		C79,29.2,78.9,29.2,78.9,29.2z M79.1,30.3C79.1,30.3,79.1,30.3,79.1,30.3L79.1,30.3C79,30.3,79,30.3,79.1,30.3
		c0-0.1,0.1-0.1,0.1-0.2c0,0,0,0,0.1,0.1C79.2,30.2,79.1,30.2,79.1,30.3z M78.9,23.9L78.9,23.9c-0.1-0.2-0.3-0.3-0.2-0.6
		c0.3,0,0.5,0.1,0.6,0.3C79.2,23.7,79.1,23.8,78.9,23.9z M79.5,22.2L79.5,22.2L79.5,22.2L79.5,22.2z M79.6,23.5
		C79.6,23.5,79.6,23.6,79.6,23.5L79.6,23.5c0,0.1,0,0.1,0,0.1c0-0.1-0.1-0.1-0.1-0.2C79.5,23.5,79.6,23.5,79.6,23.5z M79.7,30.5
		c-0.1,0-0.1-0.1-0.1-0.1v0c0,0,0.1-0.1,0.1-0.1c0,0,0.1,0.1,0.2,0.1C79.8,30.4,79.7,30.5,79.7,30.5z M80,24.4c-0.1,0-0.2,0-0.3,0
		c0.1-0.2,0.2-0.3,0.3-0.1C80,24.3,80,24.4,80,24.4z M80.1,23.8C80.1,23.8,80.1,23.8,80.1,23.8L80.1,23.8
		C80.1,23.7,80.1,23.8,80.1,23.8C80.1,23.8,80.1,23.8,80.1,23.8z M80.4,20.6c-0.1-0.1-0.2-0.2-0.3-0.3
		C80.3,20.2,80.4,20.3,80.4,20.6z M80.4,21.6c0.1,0.1,0.1,0.2,0.2,0.3C80.3,22,80.3,21.9,80.4,21.6C80.3,21.3,80.3,21.6,80.4,21.6z
		 M80.6,31.1c-0.1,0.1-0.2,0-0.3,0c0,0-0.1-0.2,0-0.2c0-0.2,0.1-0.2,0.3-0.2c0.1,0,0.1,0.1,0.2,0.1C80.7,31,80.7,31.1,80.6,31.1z
		 M80.7,30.2C80.7,30.2,80.8,30.2,80.7,30.2L80.7,30.2L80.7,30.2L80.7,30.2z M80.8,29.6C80.8,29.6,80.7,29.6,80.8,29.6
		c-0.1-0.1,0-0.1,0-0.1C80.8,29.5,80.8,29.6,80.8,29.6c0.1,0,0.2,0,0.3-0.1C80.9,29.8,80.8,29.8,80.8,29.6z M81.2,30.9
		c0,0-0.2,0-0.2,0c-0.1-0.2,0-0.3,0.1-0.4C81.3,30.6,81.3,30.8,81.2,30.9z M81.1,30c0.1-0.1,0.2,0,0.3,0.2
		C81.2,30.1,81.2,30,81.1,30z M81.7,29.6L81.7,29.6c0,0-0.1,0.1-0.2,0c-0.1,0-0.2-0.1-0.2-0.2c0-0.1,0-0.2,0.1-0.2
		c0.1,0,0.2-0.1,0.2,0c0.2,0.2,0.3,0.4,0.5,0.6C81.9,30,81.8,29.9,81.7,29.6z M81.9,30.4c0.1-0.2,0.2-0.3,0.4-0.1
		C82.2,30.3,82.1,30.4,81.9,30.4z M83.1,29.1c-0.2,0-0.5,0-0.8,0c0.2-0.3,0.4-0.3,0.7-0.4c0.1,0,0.3,0,0.3,0.2
		C83.3,28.9,83.2,29.1,83.1,29.1z M83.4,37.4L83.4,37.4c0,0-0.1-0.1-0.1-0.1c0.1-0.1,0.1-0.1,0.2-0.3C83.6,37.3,83.5,37.4,83.4,37.4
		z M83.4,33.5C83.4,33.5,83.4,33.4,83.4,33.5c0-0.1,0.1-0.1,0.1-0.2l0,0.1C83.6,33.4,83.5,33.5,83.4,33.5z M83.4,27.5
		c-0.1-0.1-0.2-0.3,0-0.4c0.2-0.1,0.2,0,0.3,0.2C83.7,27.4,83.6,27.5,83.4,27.5z M84.1,30.2C84.1,30.3,84.1,30.3,84.1,30.2
		L84.1,30.2c0.1,0.1,0,0.2,0,0.2c0,0,0,0-0.1,0C84,30.3,84.1,30.3,84.1,30.2z M84.1,37.5c0.2-0.1,0.3-0.1,0.3,0.1
		c-0.1,0.1-0.2,0.1-0.3,0.2C84.1,37.7,84.1,37.6,84.1,37.5z M84.4,39.1c-0.1-0.1-0.2-0.2-0.2-0.3c0-0.1,0-0.1,0-0.2
		c0,0,0.1-0.1,0.1,0c0.1,0,0.1,0.1,0.1,0.2C84.4,38.8,84.4,38.9,84.4,39.1z M84.8,39.8c-0.1-0.1-0.1-0.1-0.1-0.2h0
		c0.1-0.1,0.1-0.1,0.2-0.2c0,0,0.1,0.1,0.1,0.1C84.9,39.6,84.8,39.7,84.8,39.8z M85.1,26.2C85.1,26.2,85.1,26.2,85.1,26.2
		C85.1,26.2,85.1,26.2,85.1,26.2C85.2,26.2,85.2,26.2,85.1,26.2C85.2,26.2,85.2,26.2,85.1,26.2z M85.6,39.5c0,0-0.1-0.1-0.1-0.1
		c-0.1-0.1,0-0.2,0.3-0.3c0,0,0.1,0.1,0.1,0.1C85.8,39.3,85.7,39.4,85.6,39.5z M85.8,38.8c0-0.2,0-0.3,0.2-0.3
		C85.9,38.7,85.8,38.7,85.8,38.8z M85.8,34.4C85.8,34.4,85.8,34.3,85.8,34.4c-0.1-0.1,0-0.1,0-0.1C85.9,34.3,85.9,34.3,85.8,34.4
		C85.9,34.4,85.9,34.4,85.8,34.4z M86.1,51.4C86.1,51.4,86.1,51.4,86.1,51.4C86.1,51.3,86.1,51.3,86.1,51.4
		C86.1,51.3,86.1,51.3,86.1,51.4C86.1,51.4,86.1,51.4,86.1,51.4z M92.6,38.6L92.6,38.6L92.6,38.6L92.6,38.6z M90.7,47.8
		C90.7,47.8,90.7,47.8,90.7,47.8c0,0.1,0,0.1-0.1,0.1c0,0,0-0.1,0-0.1C90.6,47.8,90.6,47.8,90.7,47.8z M90.5,47.4L90.5,47.4
		L90.5,47.4L90.5,47.4z M90,42.6c-0.1,0-0.2,0.1-0.3,0.1c-0.1,0-0.1-0.1-0.2-0.2c0.1,0,0.2-0.1,0.2-0.1h0
		C89.9,42.4,89.9,42.5,90,42.6z M89.5,34.7L89.5,34.7C89.5,34.7,89.5,34.8,89.5,34.7c0,0.1,0,0.1,0,0.1
		C89.5,34.8,89.5,34.8,89.5,34.7C89.5,34.7,89.5,34.7,89.5,34.7z M89.3,30.2L89.3,30.2L89.3,30.2L89.3,30.2z M89.3,35.3
		C89.3,35.3,89.4,35.4,89.3,35.3c0.1,0.1,0.1,0.2,0,0.2c0,0-0.1-0.1-0.1-0.1C89.3,35.4,89.3,35.4,89.3,35.3z M89.1,36.4
		c0.3-0.1,0.4-0.4,0.7-0.4c0,0,0,0,0,0s0,0,0,0c0,0.1-0.1,0.2-0.1,0.2c-0.1,0.1-0.2,0.1-0.2,0.3h0c0,0.1-0.1,0.2-0.1,0.2
		c-0.1,0-0.2,0-0.3-0.1C89.1,36.7,89.1,36.4,89.1,36.4z M89.1,43.4C89.1,43.4,89.1,43.5,89.1,43.4C89.1,43.5,89.1,43.5,89.1,43.4
		C89.1,43.5,89.1,43.5,89.1,43.4C89.1,43.5,89.1,43.4,89.1,43.4z M89.1,30.5C89.1,30.5,89.1,30.5,89.1,30.5
		C89.1,30.6,89.1,30.6,89.1,30.5L89.1,30.5C89,30.6,89,30.5,89.1,30.5z M89,35.3L89,35.3L89,35.3L89,35.3z M88.8,36.6
		C88.8,36.6,88.8,36.6,88.8,36.6C88.8,36.6,88.8,36.6,88.8,36.6C88.8,36.6,88.7,36.6,88.8,36.6C88.7,36.6,88.7,36.6,88.8,36.6z
		 M88.4,36.5C88.4,36.5,88.5,36.6,88.4,36.5L88.4,36.5c0.1,0,0.1,0.1,0,0.1C88.4,36.6,88.4,36.6,88.4,36.5
		C88.4,36.6,88.4,36.6,88.4,36.5z M88.4,43.4c0,0,0.1,0.1,0.2,0.1c-0.1,0-0.2,0.1-0.2,0.1c0,0-0.1-0.1-0.1-0.1
		C88.4,43.5,88.4,43.4,88.4,43.4z M88.4,50.1c-0.1,0.1-0.1,0.1-0.1,0.1c0,0-0.1,0-0.1-0.1c0,0,0.1-0.1,0.1-0.1
		C88.3,50,88.3,50,88.4,50.1z M87.9,37.7C87.9,37.7,88,37.7,87.9,37.7C88,37.7,88,37.7,87.9,37.7C88,37.7,87.9,37.8,87.9,37.7
		L87.9,37.7z M88.1,38.8C88.1,38.9,88.1,38.9,88.1,38.8c-0.1,0.1-0.2,0.1-0.3,0.1C88,38.9,88.1,38.9,88.1,38.8z M87.8,34.5
		C87.8,34.5,87.8,34.5,87.8,34.5C87.8,34.5,87.8,34.5,87.8,34.5C87.8,34.5,87.8,34.5,87.8,34.5C87.8,34.5,87.8,34.5,87.8,34.5z
		 M86.5,36C86.5,36,86.5,36,86.5,36C86.6,36,86.6,36,86.5,36C86.6,36,86.5,36,86.5,36C86.5,36,86.5,36,86.5,36z M86.5,51.3
		C86.5,51.3,86.5,51.3,86.5,51.3C86.5,51.3,86.5,51.2,86.5,51.3C86.6,51.2,86.6,51.2,86.5,51.3C86.6,51.3,86.6,51.3,86.5,51.3z
		 M86.8,36c0,0-0.1,0-0.1-0.1c0,0,0,0,0,0C86.8,36,86.8,35.9,86.8,36C86.8,36,86.8,36,86.8,36z M87,53.6C87,53.6,87,53.6,87,53.6
		C87,53.5,87,53.5,87,53.6C87,53.5,87,53.5,87,53.6C87.1,53.6,87,53.6,87,53.6z M87.3,45.4C87.3,45.4,87.2,45.4,87.3,45.4
		C87.2,45.4,87.3,45.3,87.3,45.4C87.3,45.3,87.3,45.3,87.3,45.4L87.3,45.4z M87.8,38.9c0,0.2-0.1,0.2-0.3,0.3
		C87.6,39,87.7,38.9,87.8,38.9z M87.8,50.5C87.8,50.5,87.8,50.5,87.8,50.5C87.8,50.4,87.8,50.5,87.8,50.5
		C87.8,50.5,87.8,50.5,87.8,50.5z M87.8,40.7C87.8,40.7,87.8,40.6,87.8,40.7c-0.1-0.1,0-0.1,0-0.2C87.8,40.5,87.9,40.5,87.8,40.7
		C87.9,40.6,87.8,40.6,87.8,40.7z M88.1,54C88.1,54,88.1,54,88.1,54C88.1,53.9,88.1,53.9,88.1,54C88.1,53.9,88.1,54,88.1,54
		C88.2,54,88.1,54,88.1,54z M88.7,56.2c-0.2,0.2-0.3,0-0.5,0H88.7z M88.2,59.1c0-0.2,0-0.3,0.2-0.2C88.4,58.9,88.3,59,88.2,59.1z
		 M88.3,57.5c0.1,0,0.2,0,0.3,0C88.6,57.8,88.5,57.7,88.3,57.5z M88.5,38.8L88.5,38.8c0.1-0.1,0.2-0.3,0.3-0.1
		c0,0.1-0.1,0.1-0.1,0.1C88.7,38.8,88.6,38.8,88.5,38.8z M88.8,41.3c0.1,0.1,0.1,0.2,0.2,0.3C88.8,41.6,88.7,41.5,88.8,41.3z M89,50
		C89,50,89,50,89,50C89,50,89,50,89,50C89,49.9,89,49.9,89,50C89,50,89,50,89,50z M89.3,57.9C89.3,57.9,89.2,57.8,89.3,57.9
		c-0.1-0.1,0-0.2,0-0.2C89.3,57.7,89.3,57.7,89.3,57.9C89.3,57.8,89.3,57.8,89.3,57.9z M89.2,50.1c0,0,0-0.1,0.1-0.1
		c0,0,0,0,0.1,0.1C89.3,50.1,89.2,50.1,89.2,50.1z M89.2,46.7L89.2,46.7L89.2,46.7L89.2,46.7C89.3,46.7,89.2,46.8,89.2,46.7
		C89.2,46.8,89.2,46.7,89.2,46.7z M89.4,52.7L89.4,52.7L89.4,52.7L89.4,52.7z M89,45c0-0.2,0-0.3,0-0.5c0.2,0,0.3-0.1,0.4-0.1
		c0-0.1,0.1-0.3,0.1-0.5c0.1,0,0.2-0.1,0.3,0c0.1,0,0.2,0.1,0.2,0.2c0,0.1-0.1,0.2-0.1,0.3c-0.1,0.1-0.2,0.2-0.3,0.3l0,0
		C89.5,45,89.3,45.1,89,45z M89.8,50.1L89.8,50.1L89.8,50.1L89.8,50.1z M90,59.7C90,59.7,90,59.7,90,59.7L90,59.7
		C90,59.7,90,59.7,90,59.7C90,59.7,90,59.7,90,59.7z M89.8,57.7C89.8,57.7,89.8,57.6,89.8,57.7c0.1-0.1,0.1-0.2,0.2-0.2l0,0.1
		C90,57.6,89.9,57.7,89.8,57.7z M90.8,50c-0.3,0.2-0.5,0.3-0.7,0.1C90.2,50,90.4,49.9,90.8,50z M90.7,51.9L90.7,51.9L90.7,51.9
		L90.7,51.9z M90.1,57.6c0.2,0,0.4,0.1,0.5,0.1C90.5,58,90.4,58,90.1,57.6z M90.7,52.7c0-0.1-0.1-0.1-0.1-0.1l0,0
		c0,0,0.1-0.1,0.1-0.1c0,0,0.1,0.1,0.1,0.1C90.8,52.6,90.8,52.6,90.7,52.7z M90.8,43.7L90.8,43.7c0.1-0.1,0.2-0.3,0.3-0.1
		c0,0,0,0.2,0,0.2C91,43.9,90.9,43.8,90.8,43.7z M91.1,37.1C91.1,37.1,91.1,37.1,91.1,37.1C91.1,37.1,91.1,37.1,91.1,37.1
		C91.1,37.1,91.1,37.1,91.1,37.1L91.1,37.1z M91,57.7C91,57.7,91,57.7,91,57.7C90.9,57.7,91,57.7,91,57.7C91,57.7,91,57.7,91,57.7
		C91,57.7,91,57.7,91,57.7z M91.2,46.7C91.2,46.7,91.1,46.7,91.2,46.7c0-0.1,0-0.1,0-0.1C91.2,46.7,91.2,46.7,91.2,46.7
		C91.2,46.7,91.2,46.7,91.2,46.7z M91.1,46c-0.1,0-0.1-0.1-0.1-0.1l0,0c0,0,0.1-0.1,0.1-0.1c0.1,0,0.1,0,0.2,0.1
		C91.2,46,91.1,46,91.1,46z M91.1,34.9L91.1,34.9c-0.1-0.2-0.2-0.3,0-0.4c0,0,0.2,0,0.2,0.1C91.4,34.7,91.3,34.9,91.1,34.9z
		 M91.4,49.5C91.4,49.5,91.3,49.5,91.4,49.5C91.3,49.4,91.4,49.4,91.4,49.5C91.4,49.4,91.4,49.5,91.4,49.5L91.4,49.5z M91.6,49.7
		L91.6,49.7L91.6,49.7L91.6,49.7L91.6,49.7z M91.7,42.3c0,0,0.1-0.1,0.1-0.1c0.1,0.1,0.2,0.2,0,0.4C91.8,42.5,91.7,42.4,91.7,42.3z
		 M91.9,45.5c0.1-0.2,0.2-0.3,0.4-0.2c-0.1,0.2-0.2,0.3-0.2,0.4C91.9,45.8,91.8,45.7,91.9,45.5z M92.4,47.7
		C92.4,47.7,92.4,47.8,92.4,47.7c-0.1,0-0.1-0.1-0.2-0.3h0c0.1,0.1,0.2,0.1,0.2,0.1C92.5,47.6,92.4,47.7,92.4,47.7z M92.6,39.2
		c0,0,0.1,0,0.2,0.1c-0.1,0-0.2,0.1-0.2,0.1c0,0-0.1-0.1-0.1-0.1C92.6,39.3,92.6,39.2,92.6,39.2z M92.7,41.3c-0.1,0-0.1,0-0.1,0
		c0,0,0-0.1,0-0.1c0,0,0.1,0,0.1-0.1C92.7,41.2,92.7,41.2,92.7,41.3z M92.6,47.9C92.6,47.9,92.6,47.9,92.6,47.9L92.6,47.9
		C92.6,47.9,92.7,47.9,92.6,47.9C92.7,47.9,92.6,47.9,92.6,47.9C92.6,47.9,92.6,47.9,92.6,47.9z M92.9,52.8
		c-0.1-0.2-0.1-0.3-0.2-0.4c0.1,0,0.2,0,0.3-0.1C92.9,52.5,92.9,52.6,92.9,52.8z M92.9,49.6c-0.2,0.2-0.2-0.1-0.3-0.2
		c0.1,0,0.2,0.1,0.3,0.1C93,49.6,93,49.6,92.9,49.6z M93.3,39.9C93.3,39.9,93.3,39.9,93.3,39.9C93.2,39.9,93.2,39.9,93.3,39.9
		L93.3,39.9C93.3,39.8,93.3,39.9,93.3,39.9z M93.4,49.3L93.4,49.3L93.4,49.3L93.4,49.3z M93.4,47.8c0.1-0.1,0.2-0.1,0.3-0.1
		C93.6,47.9,93.6,47.9,93.4,47.8z M94,47.6C94,47.6,94,47.6,94,47.6c0-0.1,0-0.1,0-0.1C94,47.5,94.1,47.6,94,47.6
		C94,47.6,94,47.6,94,47.6z M94.7,48.5L94.7,48.5C94.8,48.5,94.8,48.6,94.7,48.5C94.8,48.6,94.8,48.6,94.7,48.5
		C94.7,48.6,94.7,48.6,94.7,48.5z"/>
	<path class="st0" d="M46.2,75.2c0,0,0.1-0.1,0.1-0.1c0,0,0,0-0.1-0.1V75.2z"/>
	<path class="st0" d="M48.3,96.2c-0.2,0-0.4,0-0.5,0C47.9,96.2,48.1,96.2,48.3,96.2z"/>
	<path class="st0" d="M77.5,86.6L77.5,86.6C77.5,86.6,77.5,86.6,77.5,86.6L77.5,86.6z"/>
	<path class="st0" d="M53,91.9c0.1,0,0.1,0,0.2,0.1c0,0,0-0.1,0-0.1c-0.1,0-0.1,0-0.2-0.1C53.1,91.8,53.1,91.9,53,91.9z"/>
	<path class="st0" d="M19.9,61.3l-3,1.4l0,0c0,0.1,0.1,0.1,0.1,0.2c0.1,0.1,0.1,0.2,0.2,0.3c0,0.1,0,0.3-0.1,0.3
		c-0.1,0-0.2-0.1-0.3-0.2c-0.1-0.1,0-0.2,0-0.3c0-0.2-0.1-0.3-0.3-0.3c-0.1,0-0.2,0-0.2-0.1c-0.1-0.1-0.3-0.2-0.2-0.4
		c0.1-0.2,0.2-0.3,0.4-0.3c0.1,0,0.1,0,0.2,0c0,0.1,0.1,0.3,0.1,0.4c0,0.1,0,0.2,0.1,0.3c0,0,0,0.1,0,0.1c-1.1-3.3-1.6-6.7-1.7-10
		c0,0,0,0,0,0.1c0,0-0.1-0.1-0.2-0.2c0.1,0,0.1,0,0.2,0c0-1.3,0-2.6,0.1-3.9c-0.1,0-0.2-0.1-0.1-0.2c0-0.1,0.1-0.2,0.2-0.2v0
		c0.5-4.7,2-9.3,4.4-13.5c0.1-0.2,0.2-0.4,0.3-0.5c0,0-0.1-0.1-0.1-0.2c0-0.2,0.1-0.3,0.3-0.3c0.1,0,0.1,0,0.1,0
		c3.7-6,9.1-10.8,15.5-13.6c0.1-0.1,0.2-0.1,0.4-0.2c0,0,0,0,0,0c0,0,0,0,0,0c0,0,0,0,0,0c0,0,0,0,0,0v0c0,0,0,0,0,0
		c0.3-0.2,0.5-0.4,0.7-0.7c-0.3,0-0.5-0.2-0.6-0.5c0-0.1-0.1-0.2-0.1-0.2h0.5l0,0c0.1,0.1,0.3,0.2,0.5,0.4c0.1-0.1,0.1-0.2,0.2-0.3
		c0,0.1-0.1,0.2-0.1,0.2c0-0.1,0-0.1-0.1-0.2c-0.1-0.1-0.2-0.2-0.1-0.4c0.1,0.1,0.3,0.1,0.4,0.2c0.3-0.7,0.4-1.6,0-2.4l-0.1-0.3
		c-0.2,0.1-0.5,0.1-0.7,0c0.2-0.1,0.4-0.2,0.5-0.3c0,0,0,0,0-0.1l0,0.1l-0.7-1.7c-0.3-0.8-1-1.5-1.8-1.8c0,0,0,0,0,0
		c0,0.1,0.1,0.1,0.1,0.2c-0.1-0.1-0.1-0.2-0.2-0.3c0,0,0.1,0,0.1,0c-0.8-0.3-1.8-0.3-2.6,0c-2.4,1.1-4.7,2.4-6.9,3.9c0,0,0,0,0,0
		c0,0,0,0,0,0c0,0,0,0,0,0c-4.9,3.4-9.2,7.8-12.3,12.9c0,0,0,0,0,0V29c0,0,0,0-0.1,0c-0.3,0.5-0.6,1-0.9,1.5
		c-0.8,1.4-1.5,2.8-2.1,4.2c0.1-0.1,0.1-0.3,0.2-0.4c0.1,0.2,0,0.3-0.2,0.5c0,0,0,0,0,0c-0.7,1.7-1.3,3.5-1.9,5.2c0,0,0,0,0,0
		c0.1,0,0.1,0.1,0.2,0.2c-0.1,0.1-0.2,0.1-0.2,0.1c0,0-0.1,0-0.1-0.1c0,0,0-0.1,0-0.1c-0.2,0.8-0.4,1.5-0.6,2.3c0,0,0,0,0,0
		c0,0.1,0,0.2,0.1,0.4c-0.1,0-0.1,0-0.2,0C7.3,43.5,7.1,44.2,7,45c0.1-0.1,0.2-0.1,0.3-0.1c0.2,0,0.4,0.2,0.7,0.1
		c0,0,0.1,0.2,0.2,0.3c-0.2,0-0.3,0-0.5,0.1c-0.4,0.2-0.5,0.2-0.7-0.2c0,0,0,0,0,0c-0.2,1.3-0.4,2.6-0.5,4c0,0,0,0,0,0
		c0,0.1,0,0.2,0,0.2c0,0.4-0.1,0.9-0.1,1.3c0,0,0.1,0,0.1,0c0,0,0,0.1,0,0.1c0,0-0.1,0-0.1,0c0,0,0,0,0,0c0,0.2,0,0.3,0,0.5
		c0.1,0.1,0.1,0.2,0.2,0.3c-0.1,0-0.1,0-0.2,0.1c0,1.6,0.1,3.3,0.2,4.9c0,0,0,0,0,0c0,0,0.1,0,0.1,0.1c0,0-0.1,0.1-0.1,0.1
		c0,0,0,0,0,0c0.4,3.4,1.1,6.8,2.3,10l-3.2,1.6c-0.9,0.4-1,1.7-0.1,2.2l12.5,7.7c0.8,0.5,1.8,0,1.9-1l1.2-10.8l0,0.2
		c-0.1-0.1-0.2-0.2-0.2-0.3c0-0.1,0.1-0.2,0.2-0.2c0,0,0,0,0,0l0.4-3.5C21.9,61.6,20.9,60.9,19.9,61.3z M36.7,19.5
		c0,0,0.1,0.1,0.1,0.1c0,0.2-0.1,0.2-0.2,0.1C36.5,19.6,36.6,19.5,36.7,19.5z M37.5,16.1L37.5,16.1L37.5,16.1L37.5,16.1z M37,17.8
		l0.3,0.1c0,0,0,0.1,0,0.1C37.2,18,37.1,18,37,18C37,17.9,37,17.9,37,17.8z M36.3,15.7C36.3,15.7,36.3,15.8,36.3,15.7
		C36.3,15.8,36.3,15.8,36.3,15.7C36.3,15.8,36.3,15.8,36.3,15.7C36.3,15.7,36.3,15.7,36.3,15.7z M36.1,19.2c0,0,0.1,0.1,0.2,0.1
		c-0.1,0.1-0.1,0.2-0.2,0.2h0c0,0-0.1-0.1-0.1-0.1C36,19.4,36.1,19.3,36.1,19.2z M35.9,15.8C35.9,15.8,35.9,15.8,35.9,15.8
		c-0.1,0-0.1,0-0.1,0C35.8,15.8,35.9,15.7,35.9,15.8C35.9,15.7,35.9,15.8,35.9,15.8z M35.8,15.4C35.8,15.4,35.8,15.4,35.8,15.4
		C35.8,15.4,35.8,15.4,35.8,15.4C35.8,15.4,35.8,15.4,35.8,15.4C35.8,15.4,35.8,15.4,35.8,15.4z M35.8,18.6c0-0.1-0.1-0.3-0.2-0.5
		C35.9,18.3,36,18.4,35.8,18.6z M35.2,13.2c0.1,0,0.1,0,0.2,0.1c0,0,0,0.1,0,0.1c-0.1,0-0.1,0-0.2-0.1
		C35.2,13.3,35.2,13.2,35.2,13.2z M35.5,15.1c0.1,0.3,0,0.4-0.1,0.6c0,0-0.1,0-0.3-0.1C35.3,15.4,35.4,15.3,35.5,15.1z M35.1,16
		c0.2,0,0.3,0.1,0.4,0.3c-0.1,0.1-0.2,0.2-0.4,0.4c-0.1-0.2-0.2-0.3-0.2-0.5C34.9,16.2,35,16.1,35.1,16z M34.9,14.5
		C34.9,14.5,35,14.5,34.9,14.5C35,14.5,35,14.5,34.9,14.5C34.9,14.5,34.9,14.5,34.9,14.5C34.9,14.5,34.9,14.5,34.9,14.5z M34.3,12.2
		C34.3,12.2,34.4,12.3,34.3,12.2c0,0.1,0,0.1,0,0.1C34.3,12.3,34.2,12.3,34.3,12.2C34.3,12.2,34.3,12.2,34.3,12.2z M34.6,14.8
		c-0.2,0.1-0.3,0.1-0.5,0.2C34.3,14.5,34.3,14.5,34.6,14.8z M34.1,15.4C34.1,15.4,34.2,15.4,34.1,15.4L34.1,15.4
		c0.1,0.1,0,0.1,0,0.1C34.1,15.5,34.1,15.5,34.1,15.4C34.1,15.4,34.1,15.4,34.1,15.4z M33.9,17.9C33.9,17.9,33.9,17.9,33.9,17.9
		C33.9,17.9,33.9,17.9,33.9,17.9C33.9,17.9,34,17.9,33.9,17.9C33.9,17.9,33.9,18,33.9,17.9z M33.9,16.7
		C33.9,16.7,33.9,16.8,33.9,16.7c0.1,0.1,0,0.1,0,0.1C33.9,16.8,33.9,16.8,33.9,16.7L33.9,16.7C33.8,16.8,33.9,16.7,33.9,16.7z
		 M21.1,26.3L21.1,26.3L21.1,26.3L21.1,26.3L21.1,26.3z M22.5,30.8C22.5,30.7,22.5,30.7,22.5,30.8C22.5,30.7,22.5,30.7,22.5,30.8
		C22.5,30.7,22.5,30.7,22.5,30.8C22.6,30.7,22.5,30.8,22.5,30.8z M22.4,29.9c0.1-0.2,0.2-0.3,0.4-0.3C22.7,29.8,22.6,29.8,22.4,29.9
		z M23,29.2c0,0-0.1-0.1-0.1-0.1c0,0,0.1-0.1,0.1-0.1C23,29,23,29.1,23,29.2C23.1,29.1,23,29.2,23,29.2z M23.4,28L23.4,28L23.4,28
		L23.4,28L23.4,28z M23.6,27.8L23.6,27.8C23.6,27.8,23.6,27.7,23.6,27.8L23.6,27.8C23.6,27.7,23.6,27.8,23.6,27.8z M24.1,27.1
		C24.1,27.1,24.1,27.1,24.1,27.1c0.2-0.2,0.4-0.2,0.6-0.3c0,0.1,0.1,0.2,0.1,0.3H24.1z M24.2,25.8C24.2,25.8,24.2,25.8,24.2,25.8
		C24.2,25.8,24.2,25.8,24.2,25.8C24.2,25.8,24.2,25.8,24.2,25.8C24.2,25.8,24.2,25.8,24.2,25.8z M29.6,17.9L29.6,17.9L29.6,17.9
		L29.6,17.9z M32.8,16.2L32.8,16.2L32.8,16.2L32.8,16.2z M32.9,15.9C32.9,15.9,32.9,15.8,32.9,15.9C32.9,15.9,32.9,15.9,32.9,15.9
		C32.9,15.9,32.9,15.9,32.9,15.9z M33.4,15.3c0.1,0,0.2,0.1,0.2,0.1c0,0,0,0.1,0,0.1c-0.1,0-0.2-0.1-0.3-0.1L33.4,15.3z M33.4,17.4
		C33.4,17.4,33.4,17.4,33.4,17.4C33.4,17.4,33.4,17.4,33.4,17.4C33.4,17.4,33.4,17.4,33.4,17.4C33.4,17.4,33.4,17.4,33.4,17.4z
		 M33.1,14c0,0,0.1,0,0.1,0c0,0,0,0,0,0C33.2,14,33.2,14.1,33.1,14C33.1,14.1,33.1,14,33.1,14z M32.9,12.3c0.1,0.1,0.1,0.1,0.1,0.2
		c0,0-0.1,0.1-0.1,0.1c-0.1-0.1-0.1-0.1-0.2-0.2C32.7,12.4,32.8,12.3,32.9,12.3z M32.5,15.5C32.5,15.5,32.5,15.6,32.5,15.5
		c0.1,0.1,0,0.1,0,0.2C32.4,15.7,32.4,15.7,32.5,15.5C32.4,15.6,32.4,15.6,32.5,15.5z M32.2,15.7c-0.1,0.1-0.1,0.1-0.2,0.1
		C32.1,15.7,32.2,15.7,32.2,15.7z M31.9,14.1C31.9,14.1,32,14.1,31.9,14.1L31.9,14.1C32,14.2,31.9,14.2,31.9,14.1
		C31.9,14.2,31.9,14.2,31.9,14.1C31.9,14.2,31.9,14.1,31.9,14.1z M31.9,15.5C31.9,15.5,31.9,15.4,31.9,15.5
		C31.9,15.4,31.9,15.5,31.9,15.5C31.9,15.5,31.9,15.5,31.9,15.5L31.9,15.5z M30.6,13.9C30.7,13.9,30.7,13.9,30.6,13.9l0,0.1
		C30.7,14,30.6,14,30.6,13.9C30.6,14,30.6,13.9,30.6,13.9z M29.4,15.9c0.1-0.1,0.2,0,0.3,0.2c-0.1,0.1-0.1,0.2-0.2,0.3
		C29.2,16.2,29.2,16.1,29.4,15.9z M28.8,18L28.8,18L28.8,18L28.8,18C28.8,18,28.8,18,28.8,18z M28.1,22.7
		C28.1,22.7,28.1,22.7,28.1,22.7C28.1,22.7,28.1,22.8,28.1,22.7C28.1,22.8,28.1,22.8,28.1,22.7C28.1,22.7,28.1,22.7,28.1,22.7z
		 M27.6,16.1c0,0,0,0.1,0.1,0.1l-0.1,0C27.6,16.3,27.5,16.2,27.6,16.1C27.5,16.2,27.6,16.2,27.6,16.1z M27.5,18.1L27.5,18.1
		C27.5,18.1,27.5,18.1,27.5,18.1C27.6,18.1,27.6,18.1,27.5,18.1C27.5,18.1,27.5,18.1,27.5,18.1C27.5,18.1,27.5,18.1,27.5,18.1z
		 M27,15.1C27,15.1,27,15.1,27,15.1C27,15.1,27,15.1,27,15.1C27,15.1,27,15.1,27,15.1z M26,23.7C26,23.7,26,23.7,26,23.7
		C26,23.7,26,23.7,26,23.7L26,23.7C26,23.7,26,23.7,26,23.7L26,23.7z M25.9,26.7C26,26.7,26,26.8,25.9,26.7l0.1,0.1
		c0,0-0.1,0.1-0.1,0.1C25.9,26.9,25.9,26.8,25.9,26.7C25.9,26.8,25.9,26.7,25.9,26.7z M25.6,19.9L25.6,19.9L25.6,19.9L25.6,19.9z
		 M25.5,18.9c0,0.1,0.1,0.1,0.1,0.2c0,0,0,0.1-0.1,0.1c0,0-0.1,0-0.1,0C25.5,19.1,25.5,19.1,25.5,18.9z M25.6,26.2
		C25.6,26.2,25.6,26.2,25.6,26.2C25.5,26.2,25.5,26.2,25.6,26.2C25.5,26.1,25.6,26.1,25.6,26.2C25.6,26.1,25.6,26.2,25.6,26.2z
		 M25.6,26.7c0,0,0.1,0.1,0.1,0.1s-0.1,0.1-0.1,0.1c0,0,0-0.1-0.1-0.1C25.5,26.8,25.5,26.8,25.6,26.7z M25.3,27.2
		C25.3,27.2,25.2,27.2,25.3,27.2c-0.1-0.1,0-0.2,0-0.1c0,0,0.1,0,0.1,0.1C25.4,27.2,25.3,27.2,25.3,27.2z M25.1,17.5
		c0,0,0.1,0,0.1,0c0,0,0.1,0.1,0.1,0.1c-0.1,0-0.1,0.1-0.1,0.1C25.2,17.6,25.2,17.5,25.1,17.5L25.1,17.5z M25,16.7L25,16.7
		C25.1,16.7,25.1,16.7,25,16.7C25.1,16.7,25,16.7,25,16.7C25,16.7,25,16.7,25,16.7z M25,18.3C25,18.3,25,18.3,25,18.3
		C25,18.3,25,18.3,25,18.3C25,18.3,25,18.3,25,18.3z M24.8,17.9C24.9,17.9,24.9,18,24.8,17.9C24.9,18,24.9,18,24.8,17.9
		C24.8,18,24.8,18,24.8,17.9L24.8,17.9z M24.9,19.1L24.9,19.1C24.9,19.1,24.9,19.1,24.9,19.1C24.9,19.1,24.9,19.1,24.9,19.1
		C24.9,19.1,24.9,19.1,24.9,19.1z M24.7,18.8C24.7,18.8,24.8,18.9,24.7,18.8C24.7,18.9,24.7,18.9,24.7,18.8
		C24.7,18.9,24.7,18.9,24.7,18.8C24.7,18.8,24.7,18.8,24.7,18.8z M24.5,17L24.5,17C24.5,17,24.6,17.1,24.5,17c0.1,0.1,0,0.1,0,0.1
		C24.5,17.2,24.5,17.1,24.5,17C24.5,17.1,24.5,17.1,24.5,17z M24.1,18.9c0.2,0,0.2,0.1,0.3,0.3c0,0,0,0,0,0c0,0,0.1,0.1,0.1,0.1
		c0,0,0,0,0,0c0,0,0-0.1-0.1-0.1c0,0,0,0,0,0C24.2,19.2,24.1,19.1,24.1,18.9L24.1,18.9z M24.8,23.3c0-0.1-0.1-0.2-0.1-0.3
		c0-0.2,0.1-0.3,0.3-0.1c-0.1,0.2-0.1,0.3-0.2,0.5c0,0.1,0.1,0.2,0.1,0.4c0.1,0.2,0,0.3-0.1,0.4v0c-0.1,0-0.3,0-0.5,0
		c-0.1-0.1-0.2-0.2-0.3-0.3C24.3,23.6,24.6,23.4,24.8,23.3z M24,27.8c0.1,0,0.1,0,0.2,0.1c0,0,0,0,0,0.1C24.1,27.9,24,27.8,24,27.8
		C24,27.8,24,27.8,24,27.8z M23.8,21.2L23.8,21.2c0,0.1,0,0.2,0,0.3c0,0-0.1-0.1-0.1-0.1C23.8,21.3,23.8,21.2,23.8,21.2z M23.6,18.8
		C23.6,18.8,23.6,18.8,23.6,18.8L23.6,18.8C23.6,18.9,23.6,18.9,23.6,18.8L23.6,18.8C23.6,18.9,23.6,18.8,23.6,18.8z M23.6,25.7
		C23.6,25.8,23.6,25.8,23.6,25.7C23.5,25.8,23.5,25.8,23.6,25.7C23.5,25.8,23.5,25.8,23.6,25.7C23.5,25.8,23.5,25.7,23.6,25.7z
		 M23.8,27c-0.2,0.1-0.3,0.2-0.5,0.1C23.5,26.8,23.7,26.7,23.8,27z M23,28.7c-0.2,0.1-0.3,0.1-0.4,0c-0.2-0.2-0.2-0.4-0.1-0.6l0,0
		c0.3,0,0.4,0.4,0.7,0.2C23.4,28.6,23.1,28.6,23,28.7z M23,28C23,28,23,27.9,23,28c0.1,0,0.1,0,0.1,0c0,0,0,0.1-0.1,0.1
		C23.1,28,23,28,23,28z M23.1,20.1C23.1,20.1,23.1,20.1,23.1,20.1l0,0.1L23.1,20.1C23,20.2,23,20.1,23.1,20.1
		C23,20.1,23.1,20.1,23.1,20.1z M22.8,24.2C22.9,24.2,22.9,24.2,22.8,24.2C22.9,24.3,22.9,24.3,22.8,24.2
		C22.9,24.3,22.9,24.3,22.8,24.2L22.8,24.2z M23,26c0-0.1-0.1-0.1-0.1-0.3C23,25.8,23.1,25.9,23,26z M22.5,22.2
		C22.5,22.2,22.6,22.2,22.5,22.2C22.6,22.3,22.6,22.3,22.5,22.2C22.6,22.3,22.5,22.3,22.5,22.2C22.5,22.3,22.5,22.3,22.5,22.2z
		 M22.5,25.4c0,0,0,0.1,0.1,0.1c0,0-0.1,0-0.1,0C22.4,25.5,22.5,25.4,22.5,25.4C22.5,25.4,22.5,25.4,22.5,25.4z M23,27.3
		c-0.1,0.1-0.1,0.1-0.2,0.2c-0.1-0.1-0.3-0.2-0.4-0.3C22.6,27,22.8,27.1,23,27.3z M22.1,23.8c0,0,0.1,0.1,0.1,0.1v0
		c0,0-0.1,0.1-0.1,0.1C22.1,24,22.1,23.9,22.1,23.8C22.1,23.9,22.1,23.8,22.1,23.8z M21.8,20.2c0,0,0.1,0.1,0.1,0.1
		c-0.1,0-0.1,0.1-0.1,0.1c-0.1,0-0.1-0.1-0.1-0.1C21.7,20.2,21.7,20.2,21.8,20.2z M22.1,31.4c-0.1,0.1-0.1,0.2-0.2,0.2
		c-0.2-0.1-0.3-0.2-0.5-0.3C21.7,31.2,21.9,31.4,22.1,31.4z M20.9,21.6c0.2,0,0.4-0.1,0.5-0.1c0,0.1,0,0.1,0,0.2
		C21.2,21.7,21.1,21.7,20.9,21.6C20.9,21.7,20.9,21.6,20.9,21.6z M20.8,33.1C20.7,33.1,20.7,33,20.8,33.1C20.7,33,20.7,33,20.7,33
		C20.7,33,20.8,33,20.8,33.1C20.8,33,20.8,33.1,20.8,33.1z M20.7,26.1C20.7,26.1,20.7,26.1,20.7,26.1c0.1,0.1,0,0.1,0,0.1v0
		C20.7,26.2,20.6,26.2,20.7,26.1C20.6,26.2,20.6,26.1,20.7,26.1z M6.7,49.8C6.7,49.8,6.6,49.8,6.7,49.8c0-0.1,0-0.1,0-0.1
		C6.7,49.8,6.7,49.8,6.7,49.8C6.7,49.8,6.7,49.8,6.7,49.8z M9.6,35.9c0.1,0,0.1,0.1,0.1,0.2c0,0.1-0.1,0.1-0.1,0.2
		c0,0-0.1-0.1-0.1-0.1C9.5,36.1,9.5,36,9.6,35.9z M9.4,43.6c0,0,0-0.1,0.1-0.1c0.1,0.1,0.1,0.1,0.1,0.1c0,0-0.1,0.1-0.1,0.1
		C9.5,43.7,9.4,43.6,9.4,43.6L9.4,43.6z M8.9,42.1C9,42,9.1,42,9.2,42.1c0,0,0,0.1,0,0.2c-0.1,0.1-0.2,0.2-0.4,0.1
		c0,0-0.1-0.1-0.2-0.2C8.8,42.1,8.8,42.1,8.9,42.1z M9,46.2C9,46.2,9.1,46.2,9,46.2c0,0.2,0,0.3-0.2,0.2C8.9,46.2,8.9,46.2,9,46.2z
		 M8.9,44.4C8.9,44.4,8.9,44.4,8.9,44.4c0.1,0,0.1,0,0.1,0C9,44.4,9,44.5,8.9,44.4C8.9,44.4,8.9,44.4,8.9,44.4L8.9,44.4z M7.4,42.9
		C7.4,42.9,7.4,42.9,7.4,42.9C7.4,42.9,7.4,42.9,7.4,42.9C7.4,42.9,7.4,42.9,7.4,42.9z M7.6,44.6c-0.1-0.1-0.3-0.2-0.4-0.2
		c0.1-0.4,0.2-0.9,0.3-1.3c0.2,0,0.3,0,0.4,0.2c0,0,0.1,0.1,0.1,0.1c0.4-0.1,0.5,0.3,0.7,0.5c0.1,0.1,0.1,0.2,0.1,0.2
		c-0.1,0.1-0.2,0.3-0.3,0.4C8.1,44.3,7.8,44.4,7.6,44.6z M8.6,45c-0.2,0-0.3,0-0.3-0.2c0,0,0-0.1,0.1-0.1C8.4,44.8,8.5,44.9,8.6,45z
		 M7.5,46.8c0.1,0,0.2,0,0.3,0c0.1,0,0.1,0.2,0.1,0.2c-0.1,0-0.2,0.1-0.2,0.1C7.6,47.1,7.5,47,7.5,46.8C7.5,46.9,7.5,46.9,7.5,46.8z
		 M7.2,47.8C7.2,47.8,7.2,47.8,7.2,47.8C7.3,47.8,7.2,47.8,7.2,47.8C7.2,47.8,7.2,47.8,7.2,47.8C7.2,47.8,7.2,47.8,7.2,47.8z
		 M7,45.5C7.1,45.5,7.1,45.5,7,45.5c0,0.1,0,0.1,0,0.1C7,45.6,7,45.5,7,45.5C7,45.5,7,45.5,7,45.5z M6.9,46.3h0.2c0,0,0,0,0,0.1
		L6.9,46.3C6.9,46.4,6.9,46.4,6.9,46.3z M7.1,46.8L7.1,46.8L7.1,46.8L7.1,46.8z M6.9,48.1C7,48.1,7,48.1,7.1,48c0,0,0,0,0,0.1
		c0,0.1-0.1,0.1-0.1,0.1h0C7.1,48.2,7,48.2,6.9,48.1C6.9,48.2,6.9,48.2,6.9,48.1z M7.1,49.6C7.1,49.6,7.1,49.6,7.1,49.6
		C7.1,49.6,7.1,49.6,7.1,49.6C7.1,49.7,7.1,49.7,7.1,49.6C7.1,49.7,7.1,49.6,7.1,49.6z M7.6,55.5c-0.2-0.1-0.4-0.2-0.3-0.4
		C7.6,55,7.7,55.1,7.6,55.5z M7.6,50.2L7.6,50.2c-0.2,0.1-0.3,0.1-0.5,0.2C7.2,50,7.3,49.9,7.6,50c0.1,0,0.1,0.1,0.1,0.1
		C7.7,50.1,7.6,50.2,7.6,50.2z M7.9,62.1c0,0,0.1,0,0.2,0.1c-0.1,0.1-0.2,0.2-0.2,0.2c0,0-0.1-0.1-0.1-0.1
		C7.8,62.2,7.8,62.1,7.9,62.1z M8,56.7c0,0,0.1-0.1,0.1-0.1c0,0,0.1,0,0.1,0.1C8.1,56.8,8.1,56.8,8,56.7C8,56.8,8,56.8,8,56.7z
		 M7.8,62.7c0,0,0-0.1,0-0.1c0.2-0.1,0.3,0,0.4,0.3C8.1,62.8,8,62.7,7.8,62.7z M8,50.7c0.2-0.1,0.2,0,0.3,0.1
		C8.2,50.8,8.2,50.8,8,50.7z M8.7,62c0,0-0.1-0.1-0.1-0.1c0,0,0.1-0.1,0.1-0.1c0,0,0.1,0,0.2,0.1C8.8,62,8.8,62,8.7,62z M8.4,50.9
		l0.3,0c0,0,0,0.1,0,0.1C8.6,51.1,8.5,51,8.4,50.9z M9.2,48.1c-0.1,0.1-0.2,0.2-0.3,0.4c-0.1-0.2-0.1-0.3-0.2-0.3
		c-0.6,0-0.7-0.3-0.4-0.9c0.1,0,0.2-0.1,0.4-0.1c0.3-0.1,0.6,0.1,0.7,0.3C9.5,47.7,9.4,47.9,9.2,48.1z M9.5,46.7L9.5,46.7
		c0.1-0.2,0.2-0.3,0.3-0.4c0.2,0.1,0.2,0.3,0.1,0.4C9.8,46.9,9.7,46.8,9.5,46.7z M9.9,55C9.9,55,9.9,55,9.9,55c-0.1-0.1,0-0.1,0-0.1
		C9.9,54.9,10,54.9,9.9,55C10,55,10,55,9.9,55z M9.6,43.9c0.1-0.2,0.3-0.2,0.5-0.1C9.9,44.1,9.8,44.2,9.6,43.9z M15.8,61.9
		L15.8,61.9L15.8,61.9C15.8,61.9,15.8,61.9,15.8,61.9C15.7,61.9,15.7,61.9,15.8,61.9L15.8,61.9z M15.4,58.8L15.4,58.8L15.4,58.8
		L15.4,58.8z M15.3,63.3c0.1,0.1,0.2,0.3,0.2,0.4c0,0.1-0.1,0.1-0.1,0.2c-0.1-0.1-0.2-0.1-0.2-0.1c-0.1-0.1-0.2-0.3-0.1-0.4
		C15.1,63.4,15.3,63.3,15.3,63.3z M16.1,34.9c0.1-0.1,0.2-0.1,0.3,0.1C16.3,34.9,16.2,34.9,16.1,34.9z M18.4,24L18.4,24
		C18.3,24,18.3,24,18.4,24C18.4,24,18.4,24,18.4,24L18.4,24z M19.7,22c0,0,0.1,0,0.1,0.1c0,0,0,0.1-0.1,0.1
		C19.7,22.1,19.6,22.1,19.7,22C19.6,22.1,19.6,22,19.7,22z M19.4,26.7C19.4,26.7,19.4,26.7,19.4,26.7c0,0.1,0,0.1,0,0.1
		C19.4,26.8,19.4,26.7,19.4,26.7C19.4,26.7,19.4,26.7,19.4,26.7z M19,33.3C19,33.3,19,33.4,19,33.3c-0.1,0.1-0.2,0.1-0.2,0.1
		c0,0,0-0.1,0-0.1L19,33.3L19,33.3z M18.7,22.7c0,0,0.1,0.1,0.1,0.1c0,0-0.1,0.1-0.1,0.1C18.7,22.8,18.7,22.8,18.7,22.7
		C18.7,22.7,18.7,22.7,18.7,22.7z M18.3,22.9C18.3,22.9,18.3,22.9,18.3,22.9c0.1,0,0.1,0.1,0.1,0.1c0,0-0.1,0-0.1,0
		C18.3,23,18.3,22.9,18.3,22.9z M18.1,24.7C18.1,24.7,18.1,24.8,18.1,24.7C18.1,24.8,18.1,24.8,18.1,24.7
		C18.1,24.8,18.1,24.8,18.1,24.7C18.1,24.8,18.1,24.7,18.1,24.7z M17.3,25.3C17.3,25.3,17.3,25.3,17.3,25.3
		C17.3,25.3,17.3,25.3,17.3,25.3C17.3,25.3,17.3,25.3,17.3,25.3C17.3,25.3,17.3,25.3,17.3,25.3z M17.3,25.9c0.1,0.1,0.3,0.1,0.3,0.4
		c0,0,0,0,0,0.1c0,0,0,0,0,0c0,0,0,0,0.1,0C17.5,26.2,17.4,26,17.3,25.9C17.3,25.9,17.3,25.9,17.3,25.9z M17,27.1
		C17,27.1,17,27.2,17,27.1C17,27.2,17,27.2,17,27.1C17,27.2,17,27.2,17,27.1C17,27.1,17,27.1,17,27.1z M16.3,25.4L16.3,25.4
		c0.2-0.1,0.3,0,0.3,0.2c-0.1,0-0.2,0-0.3,0.1c-0.1,0-0.2,0-0.2-0.1C16.1,25.5,16.2,25.4,16.3,25.4z M15.9,37.9
		C15.9,37.9,15.9,37.9,15.9,37.9L15.9,37.9C16,37.9,15.9,37.9,15.9,37.9L15.9,37.9z M15.9,43.3L15.9,43.3c0,0.1,0,0.1-0.1,0.1
		C15.9,43.5,15.9,43.4,15.9,43.3C15.9,43.4,15.9,43.3,15.9,43.3z M15,46.4c-0.1-0.1-0.3-0.2-0.3-0.4c0.2,0.1,0.3,0.2,0.4,0.2
		c0.1,0,0.3-0.1,0.4-0.2C15.5,46.6,15.4,46.7,15,46.4z M14.8,53.2L14.8,53.2L14.8,53.2L14.8,53.2z M15.1,29.4
		c0.1-0.1,0.2-0.2,0.3-0.1c0.1,0.1,0.1,0.3,0.1,0.4c0,0.2-0.2,0.2-0.3,0.2c-0.1-0.1-0.3-0.1-0.4-0.1C14.9,29.6,15,29.5,15.1,29.4z
		 M13.7,29.2c0.3,0.1,0.6,0.1,0.9,0.2c0,0.1,0,0.2,0,0.4c0.5,0.3,0.5,0.5,0.4,1.1c-0.1,0-0.3-0.1-0.4,0.2c-0.1,0.2-0.3,0.1-0.6-0.1
		c0-0.1,0.1-0.3,0.1-0.4c0-0.1-0.1-0.3-0.2-0.4c0-0.2,0.1-0.3,0.1-0.5C13.9,29.5,13.8,29.4,13.7,29.2C13.7,29.3,13.7,29.3,13.7,29.2
		z M13.3,44.7c0,0,0.1-0.1,0.1-0.1c0.1,0,0.1,0.1,0.2,0.1c-0.1,0.1-0.1,0.2-0.2,0.2C13.4,44.8,13.4,44.8,13.3,44.7z M13.4,45.9
		C13.4,45.9,13.4,45.9,13.4,45.9C13.3,45.9,13.3,45.9,13.4,45.9C13.3,45.8,13.3,45.8,13.4,45.9C13.4,45.8,13.4,45.9,13.4,45.9z
		 M13.4,43.4c0-0.1,0.1-0.1,0.1-0.1c0,0,0.1,0.1,0.1,0.1c0,0.1,0,0.1-0.1,0.2C13.5,43.5,13.4,43.4,13.4,43.4z M13.6,55.3
		C13.6,55.3,13.7,55.3,13.6,55.3c0.1,0.1,0,0.2,0,0.2c0-0.1-0.1-0.1-0.1-0.1C13.5,55.4,13.6,55.3,13.6,55.3z M13.7,34.8
		C13.7,34.8,13.7,34.8,13.7,34.8C13.7,34.8,13.7,34.8,13.7,34.8L13.7,34.8L13.7,34.8L13.7,34.8z M13.7,58.5L13.7,58.5
		C13.7,58.5,13.7,58.4,13.7,58.5c0.1-0.1,0.1,0,0.2,0c0,0-0.1,0.1-0.1,0.1C13.7,58.6,13.7,58.5,13.7,58.5z M13.7,60.9
		C13.7,60.9,13.7,60.9,13.7,60.9C13.7,60.9,13.7,60.9,13.7,60.9C13.7,60.9,13.7,60.9,13.7,60.9C13.7,60.9,13.7,60.9,13.7,60.9z
		 M13.8,39.5L13.8,39.5C13.8,39.5,13.8,39.5,13.8,39.5c0-0.1,0.1-0.1,0.1-0.1C13.9,39.5,13.9,39.6,13.8,39.5
		C13.9,39.6,13.9,39.6,13.8,39.5z M13.4,30.3c0.1,0,0.2,0.1,0.4,0.2c-0.1,0.1-0.2,0.2-0.3,0.3c-0.1,0-0.3-0.2-0.3-0.3h0
		C13.2,30.4,13.3,30.3,13.4,30.3z M12.9,31.1C12.9,31.1,12.9,31.1,12.9,31.1c0.2,0,0.3,0,0.4,0.1c0.1-0.1,0.2-0.2,0.3-0.2
		c0.1,0.2,0.2,0.3,0.3,0.5c-0.3,0-0.5,0.2-0.6,0.4l0,0c-0.2,0.2-0.4,0.2-0.7-0.1c0.2-0.1,0.4-0.1,0.6-0.1C13,31.5,13,31.3,12.9,31.1
		z M12.4,31.3c0,0,0.1,0.1,0.1,0.1c0,0.1-0.1,0.1-0.1,0.1c-0.1,0-0.1-0.1-0.1-0.1C12.3,31.4,12.4,31.3,12.4,31.3z M12,38.5
		c0.1,0,0.1,0.1,0.2,0.1c0,0,0,0.1-0.1,0.1c-0.1,0-0.1-0.1-0.2-0.1C12,38.6,12,38.5,12,38.5z M12,46.8C11.9,46.8,11.9,46.9,12,46.8
		c-0.1,0.1-0.1,0.1-0.1,0C11.9,46.8,11.9,46.8,12,46.8C11.9,46.7,11.9,46.8,12,46.8z M11.8,33.4c0,0,0.1,0.1,0.1,0.1
		c0,0,0,0.1-0.1,0.2c-0.1-0.1-0.1-0.1-0.1-0.2S11.7,33.4,11.8,33.4z M11.8,50.6c-0.2,0-0.3,0-0.4,0c0,0,0-0.1,0-0.1
		c0.1-0.1,0.2-0.1,0.3-0.2C11.7,50.3,11.7,50.4,11.8,50.6z M11.4,35c0,0,0.1,0.1,0.1,0.1c0,0.1-0.1,0.1-0.1,0.2
		c-0.1-0.1-0.1-0.1-0.1-0.1C11.3,35.1,11.4,35,11.4,35z M11.2,36.2L11.2,36.2c0.1,0,0.2,0,0.4,0c-0.2,0.2-0.3,0.2-0.4,0.1
		C11.2,36.3,11.2,36.3,11.2,36.2z M11.4,54.1c-0.1,0.1-0.2,0.2-0.3,0.4c-0.1-0.2-0.1-0.4-0.2-0.6C11.1,54,11.2,54.1,11.4,54.1z
		 M10.4,50.8c-0.1,0-0.3-0.1-0.3-0.3c0-0.1,0.2-0.3,0.3-0.3c0.1,0,0.2,0.1,0.2,0.3C10.7,50.8,10.6,50.9,10.4,50.8z M10.7,52
		C10.7,52,10.7,52,10.7,52C10.6,52,10.6,51.9,10.7,52C10.6,51.9,10.7,51.9,10.7,52C10.7,51.9,10.7,52,10.7,52z M10.4,45.4
		c0.1,0.1,0.2,0.1,0.2,0.2l0,0c0,0.1,0.1,0.2,0.1,0.3c-0.1,0.2-0.2,0.2-0.4,0.1c-0.1-0.1-0.2-0.2-0.1-0.3c0-0.1,0.1-0.3,0.1-0.5
		c0.2-0.1,0.4-0.2,0.6,0C10.8,45.5,10.6,45.3,10.4,45.4z M10.7,33.4c0,0,0,0.1,0,0.1c0,0-0.1,0.1-0.1,0.1
		C10.6,33.6,10.6,33.5,10.7,33.4z M10.3,39.5c0.1,0,0.1,0.1,0.2,0.2c-0.1,0.1-0.1,0.2-0.2,0.2c-0.1,0-0.2-0.1-0.2-0.2
		C10.1,39.6,10.2,39.5,10.3,39.5z M10.4,52.3c0,0.2-0.1,0.4-0.4,0.3C10.2,52.4,10.3,52.4,10.4,52.3z M10.1,53.4c0.3,0,0.4,0,0.6,0.2
		C10.3,53.8,10.3,53.8,10.1,53.4z M10.3,64.8c0,0,0-0.1-0.1-0.1c0,0,0-0.1,0.1,0c0,0,0.1,0,0.1,0.1C10.4,64.7,10.4,64.8,10.3,64.8z
		 M10.6,57.9c0.3-0.1,0.4,0,0.4,0.2c0.1,0.2-0.1,0.2-0.3,0.2C10.7,58.2,10.7,58,10.6,57.9z M11,63.3v-0.8c0.2,0,0.3,0.1,0.5,0.1
		c0,0.2,0,0.3,0,0.5C11.3,63.2,11.2,63.2,11,63.3z M11.5,53.5L11.5,53.5C11.5,53.5,11.5,53.5,11.5,53.5
		C11.5,53.5,11.5,53.5,11.5,53.5L11.5,53.5z M11.8,55.5c0-0.1-0.1-0.1-0.1-0.2c0,0,0.1-0.1,0.1-0.1c0,0.1,0.1,0.1,0.1,0.2
		C11.9,55.4,11.9,55.4,11.8,55.5z M11.9,58.3L11.9,58.3C11.9,58.3,11.9,58.2,11.9,58.3C12,58.2,12,58.2,11.9,58.3
		C12,58.3,12,58.3,11.9,58.3z M12.1,55.8c0,0,0.1,0,0.1,0c0.1,0.1,0.1,0.2,0,0.4C12,56,12,55.9,12.1,55.8z M12.3,63.3L12.3,63.3
		c-0.1-0.1-0.1-0.1-0.2-0.2c0,0,0.1-0.1,0.1-0.2c0.1,0.1,0.1,0.2,0.2,0.2C12.4,63.2,12.3,63.3,12.3,63.3z M12.5,44.4
		C12.5,44.4,12.4,44.4,12.5,44.4c-0.1-0.1,0-0.2,0-0.2c0,0,0.1,0.1,0.1,0.1C12.5,44.4,12.5,44.4,12.5,44.4z M12.6,40.2
		c0,0-0.1,0-0.1,0c0-0.1,0-0.2,0.1-0.2c0,0,0.1,0,0.1,0L12.6,40.2z M12.7,46L12.7,46C12.7,45.9,12.7,45.9,12.7,46
		C12.7,45.9,12.8,45.9,12.7,46C12.8,46,12.7,46,12.7,46z M12.8,62.6L12.8,62.6L12.8,62.6L12.8,62.6z M12.8,44
		c0.1-0.1,0.2-0.1,0.3,0.1C12.9,44.1,12.9,44.1,12.8,44z M13,41.2c0.2-0.2,0.4,0,0.6,0C13.3,41.4,13.1,41.4,13,41.2z M13.4,61.8
		L13.4,61.8c0,0.1,0.1,0.2,0.1,0.2c-0.1,0-0.2,0.1-0.2,0.1c-0.1,0-0.1-0.1-0.1-0.2C13.3,61.9,13.4,61.8,13.4,61.8z M13.7,63.1
		L13.7,63.1c-0.1-0.2-0.2-0.4-0.4-0.7c0.3,0,0.5,0.1,0.8,0.1C14,62.7,13.9,62.9,13.7,63.1z M14.3,62.8c0-0.1,0.1-0.2,0.1-0.3
		c0,0,0.1,0,0.2,0c0,0.1,0,0.2,0,0.2c-0.1,0.1-0.1,0.2-0.2,0.2C14.4,62.8,14.3,62.8,14.3,62.8z M14.9,63c0,0,0-0.1,0-0.2
		c0.1,0,0.1,0,0.1,0C15,62.9,14.9,62.9,14.9,63c0,0.1,0,0.2,0.1,0.3c-0.4,0.1-0.4,0.1-0.4-0.3H14.9z M14.7,65.2
		c-0.1-0.1-0.1-0.1-0.1-0.2c0-0.1,0.1-0.1,0.2-0.2c0.1,0.1,0.1,0.2,0.1,0.3C14.8,65.1,14.8,65.2,14.7,65.2z M15,66.6
		c-0.1-0.1-0.1-0.1-0.2-0.2c0,0,0.1-0.1,0.2-0.2c0.1,0.1,0.1,0.2,0.1,0.3C15.2,66.5,15.1,66.5,15,66.6z M15.4,64.3
		c-0.1,0.3-0.1,0.3-0.3,0C15.2,64.1,15.3,64.2,15.4,64.3c0.1-0.2,0.1-0.2,0.3,0C15.6,64.3,15.5,64.3,15.4,64.3z M15.6,63.2
		c0.1-0.2,0.1-0.2,0.3-0.1c0,0,0,0.1,0,0.1C15.8,63.3,15.7,63.3,15.6,63.2z M16.1,61.4C16.1,61.4,16.1,61.4,16.1,61.4
		C16.1,61.4,16.1,61.5,16.1,61.4C16.1,61.5,16.1,61.5,16.1,61.4C16,61.5,16,61.4,16.1,61.4z M16.1,72.5L16.1,72.5
		C16.1,72.6,16.1,72.6,16.1,72.5L16.1,72.5C16.1,72.5,16.1,72.5,16.1,72.5C16.1,72.5,16.1,72.5,16.1,72.5z M17,64.7
		C17,64.7,16.9,64.6,17,64.7C16.9,64.6,17,64.6,17,64.7C17,64.6,17,64.6,17,64.7C17,64.6,17,64.7,17,64.7z M18.1,76.2
		C18.1,76.2,18.1,76.2,18.1,76.2c0,0.1,0,0.1,0,0.1v0C18.1,76.3,18,76.3,18.1,76.2C18,76.3,18,76.2,18.1,76.2z M17.9,65.9
		C17.9,65.9,18,65.9,17.9,65.9C18,65.9,18,66,17.9,65.9C18,66,18,66,17.9,65.9C17.9,66,17.9,66,17.9,65.9L17.9,65.9z M17.8,64.2
		L17.8,64.2L17.8,64.2L17.8,64.2L17.8,64.2z M17.7,63.3C17.7,63.3,17.8,63.3,17.7,63.3c0,0.1,0,0.1,0,0.1
		C17.7,63.4,17.7,63.4,17.7,63.3C17.7,63.3,17.7,63.3,17.7,63.3z M17.6,77.6L17.6,77.6L17.6,77.6L17.6,77.6c0.3-0.3,0.3-0.3,0.5-0.1
		C18,77.7,17.8,77.6,17.6,77.6z M20.1,64C20.1,64,20.1,64,20.1,64C20.1,64,20.1,64,20.1,64C20.1,64,20.1,64,20.1,64
		C20.1,64,20.1,64,20.1,64z M20.8,63.4C20.8,63.4,20.8,63.4,20.8,63.4C20.8,63.4,20.7,63.3,20.8,63.4C20.7,63.3,20.8,63.3,20.8,63.4
		z M20.4,61.3C20.4,61.3,20.4,61.2,20.4,61.3c0-0.1,0.1-0.1,0.1-0.1c0,0,0,0,0,0C20.4,61.2,20.4,61.3,20.4,61.3z M20.6,63
		c0,0.1,0.1,0.2,0.1,0.3C20.6,63.3,20.5,63.2,20.6,63z M20.8,64.7c0-0.2-0.1-0.4-0.1-0.6c0-0.1,0.1-0.1,0.1-0.2c0,0,0.1,0.1,0.1,0.1
		c0.1,0.1,0.3,0.2,0.1,0.4c0.2,0.1,0.3,0.1,0.5,0.2C21.2,64.9,21,64.7,20.8,64.7z"/>
	<path class="st0" d="M89.8,67.4C89.8,67.4,89.8,67.4,89.8,67.4C89.8,67.4,89.8,67.3,89.8,67.4c-0.1-0.9-1-1.5-1.8-1.1l-7.9,3.4
		c0,0,0,0,0,0c0,0-0.1,0-0.1,0l-5.5,2.4c-0.9,0.4-1.1,1.7-0.2,2.2l2.7,1.9c-1.8,2-3.9,3.8-6.1,5.3c0,0,0,0,0,0c0,0,0,0,0,0
		c0,0,0,0,0,0c-5.1,3.5-11.1,5.5-17.3,5.9c0.1,0,0.1,0,0.2,0c0.1,0.1,0.1,0.1,0.1,0.2c-0.4,0-0.5,0-0.5-0.2c-0.7,0-1.3,0.1-2,0.1
		c-7.4,0-14.8-2.4-20.7-6.8c-0.9-0.7-2-0.8-3-0.4c0.1,0,0.2-0.1,0.3-0.1v0.1c-0.1,0-0.2,0-0.3,0c-0.5,0.2-1,0.5-1.4,1l-1.5,1.8
		c-0.6,0.7-0.8,1.6-0.7,2.4c0.1,0.9,0.6,1.7,1.3,2.2c6.5,4.8,14.3,7.7,22.4,8.4c0.1-0.1,0.1-0.2,0.2-0.3c-0.1-0.1-0.1-0.1-0.2-0.2
		c0.2,0,0.2,0,0.2,0.2c0.1,0.1,0.2,0.2,0.3,0.4c1,0.1,2.1,0.1,3.1,0.1c0.9,0,1.8,0,2.7-0.1c0,0,0-0.1-0.1-0.2c0.1,0,0.2,0.1,0.3,0.1
		c-0.1,0.1-0.1,0.1-0.1,0.1c0,0,0,0,0,0c1.1-0.1,2.3-0.2,3.4-0.4c0,0,0,0,0,0c0,0,0.1,0,0.1-0.1c0,0,0,0,0,0c0.1,0,0.2,0,0.3,0
		c0,0,0,0-0.1,0c0,0,0-0.1,0-0.1c0,0,0.1,0,0.1,0l0,0c0,0,0,0.1,0,0.1c0.6-0.1,1.3-0.2,1.9-0.3c0.1-0.2,0.2-0.4,0.4-0.4
		c0,0.1,0,0.2,0,0.3c0,0,0,0,0,0.1c-0.1,0-0.1,0-0.2,0c9.3-1.9,17.9-6.9,24.2-14.2l2.9,2c0.8,0.6,2,0,2-1L89.8,67.4
		C89.8,67.5,89.8,67.4,89.8,67.4C89.8,67.4,89.8,67.4,89.8,67.4z M74.3,73.2C74.3,73.2,74.3,73.1,74.3,73.2
		C74.3,73.1,74.3,73.1,74.3,73.2C74.3,73.1,74.3,73.1,74.3,73.2C74.4,73.1,74.3,73.2,74.3,73.2z M75.4,73.8L75.4,73.8L75.4,73.8
		L75.4,73.8z M75.5,72.6c-0.1,0-0.1-0.1-0.2-0.1c0.1-0.1,0.1-0.1,0.1-0.2c0,0,0.1,0,0.1,0.1C75.5,72.4,75.5,72.5,75.5,72.6z
		 M75.7,74c0.3-0.2,0.3-0.2,0.4,0.2C75.9,74.3,75.8,74.1,75.7,74z M25.1,85.8L25.1,85.8C25.1,85.8,25.1,85.8,25.1,85.8
		C25.2,85.8,25.2,85.8,25.1,85.8z M27.5,80.5C27.5,80.5,27.5,80.6,27.5,80.5c0.1,0.1,0,0.1,0,0.1C27.4,80.6,27.4,80.6,27.5,80.5
		C27.4,80.6,27.4,80.5,27.5,80.5z M27.6,87.7C27.6,87.7,27.6,87.7,27.6,87.7c0-0.1,0-0.1,0-0.1C27.7,87.6,27.7,87.6,27.6,87.7
		C27.7,87.7,27.7,87.7,27.6,87.7z M27.6,82.2C27.6,82.2,27.7,82.1,27.6,82.2c0.1-0.1,0.1-0.1,0.1,0C27.7,82.2,27.7,82.2,27.6,82.2
		C27.7,82.2,27.6,82.2,27.6,82.2z M27.9,88.8c0,0-0.1-0.1-0.1-0.1c0-0.1,0-0.2,0.1-0.3h0c0,0,0.1-0.1,0.2-0.1c0,0.1,0.1,0.2,0.1,0.2
		C28.1,88.6,28,88.7,27.9,88.8z M27.9,87.3C27.9,87.3,28,87.3,27.9,87.3c0.1,0.1,0.2,0.2,0.2,0.3C27.9,87.5,27.9,87.4,27.9,87.3z
		 M27.7,81.9L27.7,81.9c-0.1,0-0.2,0.1-0.3,0.1c-0.1,0-0.1,0-0.3,0.1c0.2-0.2,0.3-0.4,0.3-0.6c0-0.2,0.2-0.3,0.4-0.2
		c0.2,0,0.3,0.1,0.5,0.2C28.1,81.7,28,81.9,27.7,81.9z M28.3,89.2C28.3,89.2,28.3,89.1,28.3,89.2L28.3,89.2c0-0.1,0-0.1,0.1-0.1
		C28.4,89.1,28.4,89.1,28.3,89.2C28.4,89.1,28.4,89.2,28.3,89.2z M54.8,89.5C54.7,89.4,54.7,89.4,54.8,89.5
		c-0.1-0.1-0.1-0.3-0.1-0.4l0,0c0,0,0.1,0,0.1,0C54.9,89.2,54.9,89.3,54.8,89.5z M54.9,91.1c0,0.1,0,0.2-0.1,0.2c0,0-0.1,0-0.1,0
		C54.8,91.2,54.8,91.1,54.9,91.1C54.8,91,54.9,91.1,54.9,91.1z M54.7,90.9c0,0.1-0.1,0.1-0.1,0.2c0,0-0.1,0-0.1,0
		c0-0.1-0.1-0.2-0.1-0.3c0,0,0.1-0.1,0.1-0.2C54.6,90.7,54.7,90.8,54.7,90.9z M54.4,88.8C54.4,88.8,54.4,88.7,54.4,88.8
		C54.4,88.7,54.4,88.7,54.4,88.8C54.5,88.7,54.5,88.7,54.4,88.8C54.5,88.7,54.5,88.8,54.4,88.8z M53.6,88C53.6,88,53.6,88,53.6,88
		C53.5,88,53.5,88,53.6,88C53.5,88,53.5,88,53.6,88C53.5,88,53.5,88,53.6,88z M53.7,88.4C53.7,88.4,53.7,88.4,53.7,88.4
		c0,0.2-0.1,0.4-0.2,0.4c-0.2,0-0.3-0.2-0.3-0.3C53.3,88.4,53.5,88.4,53.7,88.4z M48.8,91.8c0,0.1,0,0.1,0.1,0.2c0,0,0,0-0.1,0V91.8
		C48.8,91.8,48.8,91.8,48.8,91.8z M47.5,91C47.5,91,47.5,91,47.5,91L47.5,91c0.1,0.1,0,0.2-0.1,0.2c0,0,0-0.1-0.1-0.1
		C47.4,91,47.5,91,47.5,91z M46.4,88.3C46.4,88.3,46.4,88.4,46.4,88.3c0,0.2,0,0.2-0.1,0.3c0,0-0.1-0.1-0.1-0.1
		C46.3,88.5,46.3,88.4,46.4,88.3z M46.5,90.1c0,0-0.1,0-0.1,0.1c0-0.1-0.1-0.1-0.1-0.2c0,0,0.1-0.1,0.1-0.1
		C46.4,90,46.5,90,46.5,90.1z M45.3,93.2C45.3,93.2,45.4,93.2,45.3,93.2C45.4,93.2,45.4,93.2,45.3,93.2
		C45.3,93.3,45.3,93.3,45.3,93.2C45.3,93.2,45.3,93.2,45.3,93.2z M42.7,93.2L42.7,93.2L42.7,93.2L42.7,93.2L42.7,93.2z M44.8,92.4
		C44.8,92.4,44.8,92.4,44.8,92.4L44.8,92.4C44.8,92.3,44.8,92.3,44.8,92.4L44.8,92.4z M45.1,91.4c0,0,0,0-0.1-0.1
		c0.1,0,0.1,0,0.2-0.1C45.1,91.4,45.1,91.4,45.1,91.4z M45.6,95.4c-0.1-0.1-0.2-0.2-0.4-0.2c0.2-0.4,0.3-0.4,0.5-0.1
		C45.7,95.2,45.6,95.3,45.6,95.4z M45.7,88.1C45.7,88.1,45.7,88,45.7,88.1c-0.1-0.1,0-0.1,0-0.1S45.7,88,45.7,88.1
		C45.7,88,45.7,88,45.7,88.1z M46.5,94.3c-0.1,0-0.3-0.1-0.4-0.1c-0.1-0.2-0.2-0.3-0.2-0.5l0,0c0.1-0.2,0.3-0.4,0.4-0.6
		c0,0,0.1,0.1,0.2,0.2c0.1,0.1,0.1,0.1,0.1,0.2c0.1,0.1,0.1,0.3,0.2,0.4c0,0.1,0.1,0.2,0.1,0.3C46.7,94.2,46.6,94.3,46.5,94.3z
		 M46.5,93C46.5,92.9,46.6,92.9,46.5,93C46.6,92.9,46.6,93,46.5,93C46.6,93,46.6,93,46.5,93C46.5,93,46.5,93,46.5,93z M46.6,92.2
		C46.6,92.2,46.6,92.2,46.6,92.2C46.7,92.2,46.7,92.2,46.6,92.2C46.7,92.2,46.7,92.2,46.6,92.2C46.6,92.2,46.6,92.2,46.6,92.2z
		 M46.9,93.5c0-0.1,0-0.1,0-0.1c0,0,0,0,0,0C47,93.5,47,93.5,46.9,93.5z M46.7,90.6c0,0.2,0.2,0.4,0,0.5c0,0,0.1,0.2,0.2,0.3
		c-0.1,0.2-0.4,0.2-0.7,0l0,0c0.2-0.1,0.3-0.2,0.3-0.3c0-0.2-0.1-0.4-0.1-0.5c0-0.2,0.2-0.3,0.3-0.4c0.2,0,0.3,0.1,0.3,0.3
		C46.9,90.5,46.8,90.5,46.7,90.6z M47.4,95.7c0,0-0.1-0.1-0.1-0.1c0-0.3,0.2-0.4,0.4-0.5c0,0,0.1,0,0.1,0.1
		C47.6,95.4,47.5,95.5,47.4,95.7z M47.3,94.5c0.2-0.1,0.3,0.1,0.5,0.2C47.6,94.7,47.5,94.7,47.3,94.5z M47.8,92.3
		c-0.1,0.2-0.3,0.3-0.5,0.1c-0.1-0.1-0.1-0.2,0-0.3c0.1-0.1,0.3-0.2,0.5-0.4c0,0,0.1,0,0.1,0C47.8,91.9,47.8,92.1,47.8,92.3z
		 M48.4,95.5C48.4,95.5,48.4,95.5,48.4,95.5C48.4,95.5,48.4,95.5,48.4,95.5C48.4,95.5,48.4,95.5,48.4,95.5
		C48.4,95.5,48.4,95.5,48.4,95.5z M48.4,95.1c-0.1,0.1-0.2,0.2-0.3,0.2c-0.2-0.2-0.1-0.4-0.1-0.6c0.4-0.2,0.5-0.2,0.7,0.1
		C48.6,95,48.5,95,48.4,95.1z M49,95.8c-0.1,0-0.2,0-0.2-0.1c-0.1-0.2,0.1-0.3,0.2-0.3C49.1,95.5,49.1,95.7,49,95.8z M49,94.8
		C49,94.8,49,94.8,49,94.8c0.1,0,0.1,0,0.1,0c0,0-0.1,0.1-0.1,0.1C49,94.9,49,94.9,49,94.8z M48.7,94.5L48.7,94.5
		c0-0.2,0.1-0.3,0.2-0.3c0.1,0,0.2-0.1,0.2-0.1c0.2-0.4,0.2-0.4,0.5-0.3C49.6,94.4,49.4,94.7,48.7,94.5z M50.1,94.1L50.1,94.1
		L50.1,94.1L50.1,94.1z M50.4,93.3C50.4,93.3,50.4,93.3,50.4,93.3L50.4,93.3C50.4,93.3,50.5,93.3,50.4,93.3L50.4,93.3z M51.2,94.5
		c0.1,0.2,0,0.3-0.1,0.4C51.1,94.7,51,94.6,51.2,94.5z M51.7,96.1c-0.4-0.2-0.6-0.5-0.5-0.9c0-0.2,0.1-0.3,0.3-0.2
		c0.1,0.1,0.2,0.1,0.3,0.2C51.8,95.5,51.7,95.8,51.7,96.1z M52,95.9c0.1-0.2,0.2-0.2,0.4-0.2C52.2,95.9,52.1,96,52,95.9z M52.8,95.6
		C52.8,95.6,52.8,95.6,52.8,95.6C52.8,95.6,52.8,95.6,52.8,95.6C52.9,95.6,52.9,95.6,52.8,95.6C52.8,95.6,52.8,95.6,52.8,95.6z
		 M53.3,95.1c0.2,0.1,0.2,0.2,0.1,0.4C53.4,95.3,53.4,95.2,53.3,95.1z M53.5,95.7C53.5,95.7,53.5,95.7,53.5,95.7
		c-0.1-0.1,0-0.1,0-0.2C53.6,95.6,53.6,95.6,53.5,95.7C53.6,95.7,53.5,95.7,53.5,95.7z M53.7,94.6C53.7,94.6,53.7,94.6,53.7,94.6
		c-0.2-0.1-0.3-0.1-0.5-0.1c0-0.2,0.1-0.2,0.1-0.3c-0.1,0-0.1-0.1-0.2-0.1c0.4-0.3,0.3-0.7,0.2-1c-0.2-0.1-0.4-0.2-0.5-0.4
		c-0.1-0.1-0.2-0.1-0.3,0c-0.1,0.1-0.1,0.2-0.1,0.3c0,0.1,0.1,0.3,0.2,0.4c0.1-0.1,0.2-0.1,0.3-0.2c-0.2,0.4-0.3,0.6-0.4,0.9
		c0,0.1-0.1,0.1-0.2,0.1c-0.2,0-0.4,0-0.7-0.1c-0.2,0-0.2-0.1-0.1-0.5c-0.3,0.3-0.4,0.4-0.6,0.6c-0.2-0.1-0.4-0.3-0.4-0.6
		c0.1-0.3,0.1-0.6,0.5-0.7c0.1,0,0.2-0.1,0.4-0.2c0,0.1,0.1,0.2,0.1,0.3c0.1-0.1,0.2-0.1,0.2-0.2c0-0.1,0.1-0.2,0.1-0.3
		c0-0.1-0.1-0.2-0.1-0.3c0.1-0.1,0.2-0.1,0.3-0.2c0.2,0,0.4,0,0.6-0.1c0.3,0,0.4-0.1,0.2-0.4c0,0,0-0.1-0.1-0.1
		c0.1-0.1,0.2-0.3,0.3-0.4c0-0.1-0.1-0.2-0.1-0.3c0.1-0.3,0.6-0.5,0.8-0.4c0.1,0,0.1,0.1,0.1,0.2c-0.3,0.2-0.3,0.6-0.7,0.7
		c0.2,0.1,0.4,0.1,0.6-0.1c0.2-0.2,0.4,0,0.7,0c-0.2,0.2-0.4,0.4-0.6,0.6c0.3,0.1,0.5-0.2,0.9,0c-0.2,0.1-0.3,0.2-0.5,0.3
		c0.1,0.2,0.2,0.5,0.4,0.6c0,0,0,0,0,0c0,0,0.1-0.1,0.1-0.1c0,0,0,0,0,0.1c-0.1,0-0.1,0-0.1,0c0,0.1,0,0.1,0.1,0.2
		c-0.1,0.1-0.2,0.3-0.4,0.4c-0.1,0.1-0.2,0.1-0.2,0.1c-0.1-0.1-0.1-0.2,0-0.3c-0.3,0.3-0.3,0.4-0.1,0.7c0.1,0.1,0.1,0.2,0.1,0.4
		c0.1-0.1,0.1-0.4,0.4-0.3c-0.1,0.3-0.1,0.3-0.4,0.3C53.9,94.4,53.8,94.5,53.7,94.6L53.7,94.6z M54.2,95.3L54.2,95.3
		c-0.1,0.1-0.2,0-0.3-0.1c0.1-0.1,0.1-0.3,0.2-0.5c0.1,0,0.2-0.1,0.3,0.1C54.4,95,54.4,95.2,54.2,95.3z M54.8,94.8
		c-0.2,0-0.3-0.1-0.2-0.3c-0.1,0-0.1-0.1-0.2-0.1c0.3-0.2,0.4,0.1,0.6,0.1C55,94.6,55,94.8,54.8,94.8z M54.9,90.1L54.9,90.1
		L54.9,90.1L54.9,90.1z M55,95.8C55,95.8,55,95.8,55,95.8C55,95.8,55,95.8,55,95.8C55,95.8,55,95.8,55,95.8C55,95.8,55,95.8,55,95.8
		z M55,94.1C55,94.1,55,94.1,55,94.1C55,94.1,55,94.1,55,94.1C55.1,94.1,55.1,94.1,55,94.1C55.1,94.1,55,94.1,55,94.1z M54.4,88.1
		c0.3,0.1,0.5-0.2,0.7,0.1C54.8,88.6,54.6,88.5,54.4,88.1z M55.8,94.9c0.2,0.1,0.1,0.3,0.2,0.6C55.7,95.3,55.8,95.1,55.8,94.9z
		 M55.7,89.9c0,0.1,0,0.1,0.1,0.2c0,0.1,0,0.1,0,0.2c-0.1,0-0.2,0-0.2,0c0-0.1,0-0.3-0.1-0.4C55.6,89.9,55.7,89.9,55.7,89.9
		c0.1-0.1,0.2-0.4,0.4-0.3C56.1,90,56.1,90.1,55.7,89.9z M56.4,91.7C56.4,91.7,56.4,91.7,56.4,91.7L56.4,91.7
		C56.4,91.6,56.4,91.6,56.4,91.7C56.4,91.7,56.4,91.7,56.4,91.7z M58.6,90.6c0,0-0.1-0.1-0.1-0.1c0.1-0.1,0.1-0.1,0.2-0.2
		c0,0,0.1,0,0.1,0.1C58.7,90.5,58.6,90.6,58.6,90.6z M60.7,94.4L60.7,94.4C60.7,94.4,60.7,94.4,60.7,94.4
		C60.7,94.4,60.7,94.4,60.7,94.4z M60.7,95L60.7,95c0.2-0.1,0.4-0.3,0.3-0.5c0.1,0,0.2,0,0.2,0c0.1,0.2,0.1,0.3,0.1,0.5
		C61.3,95.1,61.2,95.1,60.7,95z M61.1,92.9c-0.1-0.2-0.2-0.3-0.1-0.4c0,0,0.2,0,0.2,0v0C61.4,92.6,61.3,92.7,61.1,92.9z M62.3,93.8
		C62.3,93.8,62.3,93.8,62.3,93.8C62.3,93.8,62.3,93.8,62.3,93.8L62.3,93.8C62.3,93.8,62.3,93.8,62.3,93.8
		C62.3,93.8,62.3,93.8,62.3,93.8z M81.3,74.4C81.3,74.4,81.3,74.4,81.3,74.4C81.4,74.4,81.4,74.5,81.3,74.4
		C81.3,74.5,81.3,74.4,81.3,74.4C81.3,74.4,81.3,74.4,81.3,74.4z M81.3,73.1C81.3,73.1,81.3,73.1,81.3,73.1
		C81.3,73.1,81.3,73.1,81.3,73.1C81.3,73.1,81.3,73.1,81.3,73.1C81.2,73.1,81.3,73.1,81.3,73.1z M81.2,74.5
		C81.2,74.6,81.2,74.6,81.2,74.5C81.2,74.6,81.1,74.6,81.2,74.5C81.1,74.6,81.1,74.6,81.2,74.5C81.1,74.6,81.1,74.5,81.2,74.5z
		 M81,73.7c-0.1,0.1-0.2,0.1-0.3,0h0c0,0,0-0.1,0-0.2C80.9,73.4,80.9,73.5,81,73.7z M80.4,69.8c0.1-0.1,0.2-0.1,0.4-0.1
		c-0.1,0.2-0.1,0.3-0.2,0.3v0c0,0-0.2,0.1-0.2,0.1C80.4,70,80.4,69.9,80.4,69.8z M80.4,71.5c0-0.1,0.1-0.1,0.2-0.2
		c0.1-0.1,0.3,0.1,0.3,0.2c0,0.3-0.2,0.3-0.4,0.3l0,0C80.4,71.7,80.3,71.6,80.4,71.5z M80.5,73C80.5,73,80.5,73,80.5,73
		C80.4,73,80.4,73,80.5,73L80.5,73z M80.5,74c0.1,0,0.2-0.1,0.2,0c0.1,0.1,0.2,0.2,0.3,0.2c-0.1,0.1-0.2,0.2-0.3,0.3
		c-0.1,0.1-0.2,0-0.2-0.2c-0.1-0.1-0.1-0.1-0.2-0.2C80.4,74.2,80.4,74.1,80.5,74z M80.2,73.5c0,0.2-0.1,0.2-0.2,0.2
		C80.1,73.6,80.2,73.5,80.2,73.5z M79.3,71.6C79.3,71.6,79.3,71.7,79.3,71.6L79.3,71.6C79.3,71.7,79.3,71.7,79.3,71.6
		C79.3,71.7,79.3,71.7,79.3,71.6z M79.2,74c-0.1,0.2-0.3,0.3-0.5,0.2C78.8,74,79,74,79.2,74z M79.1,77.1c0,0-0.1,0.1-0.1,0.1
		c0,0-0.1-0.1-0.1-0.1c0,0,0-0.1,0.1-0.2C79.1,77.1,79.1,77.1,79.1,77.1z M78.4,71.3L78.4,71.3c0.1,0,0.2,0,0.3,0.1
		c0.1,0.1,0,0.2-0.1,0.3c-0.1,0.1-0.3,0.1-0.4-0.1C78.3,71.5,78.3,71.3,78.4,71.3z M78.4,72c0.1-0.1,0.2-0.2,0.3,0
		c0.1,0.1,0,0.3-0.1,0.3c-0.2,0.1-0.4,0.1-0.6,0.2c0,0,0-0.1,0-0.1C78.1,72.3,78.3,72.2,78.4,72z M78.6,77.3L78.6,77.3
		C78.6,77.3,78.6,77.3,78.6,77.3C78.6,77.3,78.5,77.3,78.6,77.3C78.5,77.3,78.5,77.3,78.6,77.3C78.6,77.3,78.6,77.3,78.6,77.3z
		 M77.8,82.8C77.7,82.8,77.7,82.8,77.8,82.8c-0.1,0-0.1,0-0.1,0C77.7,82.7,77.7,82.7,77.8,82.8C77.7,82.7,77.7,82.7,77.8,82.8z
		 M77.6,71.8L77.6,71.8L77.6,71.8L77.6,71.8z M77.3,72C77.3,72,77.4,72,77.3,72c0,0.2-0.1,0.3-0.2,0.4C77.1,72,77.2,72,77.3,72z
		 M77.5,72.8C77.5,72.8,77.5,72.8,77.5,72.8C77.4,72.8,77.4,72.8,77.5,72.8C77.4,72.8,77.5,72.8,77.5,72.8z M76.6,83.8L76.6,83.8
		c0,0-0.1-0.1-0.1-0.1c0,0,0.1-0.1,0.1-0.1c0,0,0.1,0.1,0.1,0.1C76.7,83.7,76.7,83.8,76.6,83.8z M77,82.8c0,0,0.1,0,0.1,0v0
		C77.1,82.8,77.1,82.8,77,82.8C77,82.8,77,82.8,77,82.8z M77.5,83.4c-0.1,0.2-0.2,0.4-0.4,0.3C77.1,83.4,77.3,83.4,77.5,83.4z
		 M77.2,85.8c0-0.2,0-0.4,0.2-0.4c0.1,0,0.2,0.1,0.2,0.3c0,0.2-0.1,0.4-0.3,0.4C77.2,86,77.2,86,77.2,85.8z M77.7,86.9
		c-0.2,0.1-0.2-0.1-0.3-0.2c0,0,0-0.1-0.1-0.1v0c0,0,0,0.1,0.1,0.1c0.1-0.1,0.1-0.1,0.2-0.2c0.1,0.1,0.2,0.2,0.2,0.3
		C77.9,86.7,77.8,86.9,77.7,86.9z M78,77.6C78,77.6,78,77.6,78,77.6L78,77.6C78,77.6,78,77.6,78,77.6C78,77.6,78,77.6,78,77.6z
		 M78.1,76.5c0.1,0.2,0.1,0.3-0.2,0.4C78,76.7,78.1,76.6,78.1,76.5z M78.2,79.6C78.2,79.6,78.1,79.6,78.2,79.6c0-0.1,0-0.1,0-0.2
		c0.1,0.1,0.1,0.1,0.1,0.1C78.3,79.6,78.2,79.6,78.2,79.6z M78.4,85.8C78.4,85.8,78.4,85.7,78.4,85.8c0-0.1,0-0.1,0-0.1
		C78.5,85.7,78.5,85.7,78.4,85.8C78.5,85.7,78.4,85.7,78.4,85.8z M78.5,79.7C78.5,79.7,78.5,79.7,78.5,79.7L78.5,79.7
		C78.5,79.7,78.5,79.7,78.5,79.7L78.5,79.7C78.5,79.7,78.5,79.7,78.5,79.7z M79.2,80L79.2,80c-0.2,0.2-0.3,0.2-0.5,0.1c0,0,0,0,0,0
		c0,0-0.1,0-0.1,0c0,0,0,0,0,0c0,0,0.1,0.1,0.1,0.1c0,0,0,0,0,0c0.2-0.2,0.3-0.3,0.4-0.5C79.4,79.8,79.4,79.8,79.2,80z M79.4,80.7
		L79.4,80.7C79.4,80.6,79.4,80.6,79.4,80.7C79.4,80.6,79.4,80.7,79.4,80.7C79.5,80.7,79.5,80.7,79.4,80.7z M79.5,80L79.5,80L79.5,80
		L79.5,80z M79.6,76.7C79.6,76.7,79.6,76.7,79.6,76.7C79.6,76.7,79.6,76.7,79.6,76.7C79.6,76.7,79.6,76.7,79.6,76.7
		C79.6,76.7,79.6,76.7,79.6,76.7z M79.6,75c-0.1,0-0.1-0.1-0.2-0.1h0c0,0,0-0.1,0.1-0.1C79.5,74.9,79.6,74.9,79.6,75
		C79.6,75,79.6,75.1,79.6,75z M79.7,76.2C79.7,76.2,79.7,76.3,79.7,76.2L79.7,76.2C79.7,76.3,79.7,76.3,79.7,76.2
		C79.7,76.2,79.7,76.2,79.7,76.2z M79.7,81.6C79.7,81.6,79.6,81.6,79.7,81.6c-0.1-0.1,0-0.2,0.1-0.3c0.1,0.1,0.1,0.2,0.1,0.2
		C79.8,81.6,79.8,81.6,79.7,81.6z M79.9,76.6L79.9,76.6C79.9,76.6,79.9,76.6,79.9,76.6C79.9,76.6,79.9,76.6,79.9,76.6
		C79.9,76.6,79.9,76.6,79.9,76.6z M80.7,76L80.7,76c-0.2,0-0.3-0.1-0.3-0.3c-0.1-0.1-0.2-0.3-0.3-0.4c-0.1-0.1-0.2-0.2-0.3-0.4
		c0.1-0.1,0.3-0.2,0.3-0.1c0.3,0.2,0.6,0,1,0c0.2,0,0.2,0,0.3,0.3c-0.2,0.1-0.4,0.3-0.4,0.6C80.9,75.9,80.9,76,80.7,76z M81.2,75.8
		C81.2,75.8,81.2,75.8,81.2,75.8C81.2,75.8,81.2,75.8,81.2,75.8C81.2,75.8,81.2,75.8,81.2,75.8C81.2,75.8,81.2,75.8,81.2,75.8
		L81.2,75.8z M81.4,81.6c-0.2,0.2-0.3,0-0.5-0.1c0.1-0.1,0.1-0.1,0.1-0.2c0-0.4,0-0.4,0.3-0.4c0,0,0-0.1,0.1-0.1c0,0,0,0.1,0,0.1
		c0,0,0,0.1,0.1,0.1C81.5,81.3,81.6,81.5,81.4,81.6z M81.6,76.1L81.6,76.1L81.6,76.1L81.6,76.1C81.6,76.1,81.6,76.1,81.6,76.1
		L81.6,76.1z M81.7,80.4C81.7,80.4,81.6,80.4,81.7,80.4c0-0.2,0-0.3,0.1-0.4C81.9,80.3,81.8,80.4,81.7,80.4z M81.8,76.2
		C81.8,76.2,81.8,76.2,81.8,76.2C81.8,76.2,81.8,76.2,81.8,76.2C81.8,76.2,81.8,76.2,81.8,76.2C81.8,76.2,81.8,76.2,81.8,76.2z
		 M81.8,74.5C81.8,74.5,81.8,74.5,81.8,74.5L81.8,74.5C81.8,74.5,81.8,74.5,81.8,74.5L81.8,74.5z M82.1,72.4
		C82.1,72.4,82.1,72.4,82.1,72.4C82.1,72.4,82.1,72.4,82.1,72.4C82.1,72.4,82.1,72.4,82.1,72.4C82.2,72.4,82.1,72.4,82.1,72.4z
		 M82.9,81.3C82.9,81.3,82.9,81.3,82.9,81.3C82.9,81.3,82.9,81.3,82.9,81.3C83,81.3,83,81.3,82.9,81.3C83,81.3,82.9,81.3,82.9,81.3z
		 M83.4,77.4L83.4,77.4L83.4,77.4L83.4,77.4L83.4,77.4z M83.6,77.8L83.6,77.8C83.6,77.8,83.5,77.7,83.6,77.8c0-0.1,0-0.2,0-0.2
		c0,0,0.1,0.1,0.1,0.1C83.6,77.8,83.6,77.8,83.6,77.8z M83.7,71.7L83.7,71.7C83.7,71.7,83.7,71.7,83.7,71.7
		C83.7,71.7,83.7,71.7,83.7,71.7z M84.2,68.8c0.1,0.1,0.1,0.3-0.1,0.5C84,69,84,68.9,84.2,68.8z M84.2,71.9
		C84.2,71.9,84.2,71.8,84.2,71.9c0.1-0.1,0.1-0.1,0.1,0L84.2,71.9C84.2,72,84.2,71.9,84.2,71.9z M84.3,77.2L84.3,77.2
		C84.3,77.2,84.3,77.2,84.3,77.2C84.3,77.2,84.3,77.2,84.3,77.2C84.3,77.2,84.4,77.2,84.3,77.2C84.3,77.2,84.3,77.2,84.3,77.2z
		 M89,75.1c-0.1,0.1-0.2,0.2-0.3,0.3C88.6,75.1,88.8,75.1,89,75.1z M88.8,76.6c0.1,0.5-0.2,0.7-0.5,0.8
		C88.5,77.1,88.7,76.9,88.8,76.6z M87.7,75.1C87.7,75.1,87.7,75.1,87.7,75.1L87.7,75.1C87.7,75.1,87.7,75.1,87.7,75.1
		C87.6,75.1,87.6,75.1,87.7,75.1z M86.6,77.1C86.6,77.1,86.6,77.2,86.6,77.1c0,0.1,0,0.1,0,0.1C86.6,77.2,86.6,77.2,86.6,77.1
		C86.6,77.1,86.6,77.1,86.6,77.1z M86.2,70.5c0,0,0.1,0,0.1,0.1c0,0.2,0,0.3-0.2,0.4c0,0-0.1-0.1-0.1-0.1
		C86.1,70.8,86.2,70.6,86.2,70.5z M86.2,71.5c0-0.1,0-0.2,0-0.2c0,0,0,0,0.1,0C86.2,71.3,86.2,71.4,86.2,71.5
		C86.2,71.5,86.2,71.5,86.2,71.5z M86.2,77C86.2,77,86.2,77,86.2,77C86.2,77,86.2,77,86.2,77L86.2,77L86.2,77
		C86.2,77,86.2,77,86.2,77z M85.3,77.1L85.3,77.1L85.3,77.1L85.3,77.1z M85.8,71.6c0.1,0,0.2-0.1,0.2,0c0.1,0.1,0.1,0.2-0.1,0.3
		c-0.1-0.1-0.2-0.2-0.3-0.2C85.7,71.7,85.7,71.6,85.8,71.6z M86.2,74.6L86.2,74.6c0,0.2,0,0.3-0.1,0.3c-0.1,0-0.2,0-0.3-0.2
		C86,74.7,86.1,74.6,86.2,74.6z M86,81.1L86,81.1c0,0-0.1-0.1-0.2-0.2c0-0.2,0.1-0.3,0.2-0.3c0.1,0,0.1,0.1,0.3,0.2
		C86.2,81,86.1,81,86,81.1z M86.4,72.2C86.4,72.2,86.5,72.2,86.4,72.2C86.5,72.2,86.5,72.2,86.4,72.2C86.5,72.2,86.5,72.2,86.4,72.2
		C86.5,72.2,86.5,72.2,86.4,72.2z M86.9,77.8c-0.1,0.1-0.2,0.2-0.4,0c0.1-0.1,0.2-0.2,0.3-0.4C87,77.6,87,77.7,86.9,77.8z
		 M87.1,82.7L87.1,82.7L87.1,82.7L87.1,82.7z M86.7,71.7c0.1-0.1,0.2-0.1,0.4-0.2C87,71.7,86.9,71.8,86.7,71.7z M87.2,78.5
		C87.2,78.5,87.1,78.5,87.2,78.5c0-0.1,0-0.2,0.1-0.3c0,0,0.1,0.1,0.1,0.1C87.3,78.4,87.2,78.5,87.2,78.5z M87.4,71.7
		c0,0,0.1-0.1,0.1-0.2c0,0.1,0.1,0.1,0.1,0.2c0,0-0.1,0.1-0.1,0.1C87.5,71.8,87.4,71.7,87.4,71.7z M87.9,81.3
		C87.8,81.3,87.8,81.3,87.9,81.3C87.8,81.2,87.8,81.2,87.9,81.3C87.8,81.2,87.9,81.2,87.9,81.3C87.9,81.2,87.9,81.3,87.9,81.3z
		 M87.7,75.9c0,0-0.1-0.1-0.1-0.1c0-0.2,0.1-0.3,0.3-0.3c0,0.1,0,0.1,0,0.1C87.8,75.7,87.8,75.8,87.7,75.9z M87.9,73.2
		C87.9,73.2,88,73.1,87.9,73.2c0.1-0.1,0.1,0,0.1,0C88.1,73.2,88,73.2,87.9,73.2C88,73.3,87.9,73.2,87.9,73.2z M88.1,83.2L88.1,83.2
		C88.1,83.2,88.1,83.2,88.1,83.2c-0.1-0.1-0.1-0.1,0-0.1C88.1,83.1,88.1,83.1,88.1,83.2C88.2,83.2,88.1,83.2,88.1,83.2z M88.3,82
		L88.3,82C88.3,82,88.3,82,88.3,82c0.1,0.1,0.1,0.1,0.2,0.2C88.2,82.2,88.2,82.1,88.3,82z M88.3,80.9c-0.1,0-0.1-0.2-0.1-0.2
		c0-0.1,0.1-0.3,0.1-0.3c0.1,0,0.2,0.1,0.4,0.2C88.5,80.7,88.5,81,88.3,80.9z M88.6,83.3c0.1-0.2,0.3-0.3,0.5-0.5c0,0,0,0,0,0.1
		C88.9,83.1,88.8,83.2,88.6,83.3z"/>
</g>
</svg>
