<svg width="286" height="48" viewBox="0 0 286 48" fill="none" xmlns="http://www.w3.org/2000/svg">
<g clip-path="url(#clip0_45_37)">
<path d="M79.8731 23.3262C79.8731 23.3262 59.2641 48.0629 18.2351 48.0459C-22.7939 48.0289 18.2351 73.4771 18.2351 73.4771H86.0831L79.8731 23.3262Z" fill="#434535"/>
<path d="M205.647 23.3262C205.647 23.3262 226.256 48.0629 267.285 48.0459C308.314 48.0289 267.285 73.4771 267.285 73.4771H199.438L205.647 23.3262Z" fill="#434535"/>
<path d="M142.783 0C192.325 0 232.483 36.351 232.483 81.191C232.483 126.031 192.321 162.382 142.783 162.382C93.245 162.382 53.083 126.032 53.083 81.191C53.083 36.35 93.245 0 142.783 0Z" fill="#434535"/>
</g>
<defs>
<clipPath id="clip0_45_37">
<rect width="286" height="48" fill="white"/>
</clipPath>
</defs>
</svg>
