<svg width="53" height="71" viewBox="0 0 53 71" fill="none" xmlns="http://www.w3.org/2000/svg">
<path d="M52.0899 52.1151L41.0899 39.6551H45.3069C45.9061 39.6605 46.4942 39.4937 47.0014 39.1746C47.5085 38.8555 47.9134 38.3975 48.1679 37.8551C48.4248 37.3195 48.519 36.7203 48.4386 36.1318C48.3583 35.5432 48.107 34.9912 47.7159 34.5441L36.9589 22.0311H40.9369C41.5463 22.0333 42.1431 21.8571 42.6535 21.524C43.1638 21.191 43.5655 20.7158 43.8089 20.1571C44.046 19.6077 44.117 19.0009 44.0132 18.4117C43.9094 17.8224 43.6354 17.2764 43.2249 16.8411L28.0419 0.666066C27.8312 0.454928 27.581 0.287417 27.3055 0.173124C27.03 0.0588308 26.7347 0 26.4364 0C26.1381 0 25.8428 0.0588308 25.5673 0.173124C25.2918 0.287417 25.0416 0.454928 24.8309 0.666066L9.64589 16.8421C9.23563 17.2775 8.96174 17.8235 8.85797 18.4127C8.7542 19.0019 8.82509 19.6086 9.06189 20.1581C9.30562 20.7169 9.70766 21.1922 10.2184 21.5253C10.7291 21.8583 11.3262 22.0345 11.9359 22.0321H15.9139L5.15489 34.5491C4.76491 34.9966 4.51449 35.5485 4.43452 36.1367C4.35455 36.7249 4.44854 37.3237 4.70489 37.8591C4.95927 38.4016 5.36413 38.8597 5.87133 39.1788C6.37852 39.4979 6.96669 39.6646 7.56589 39.6591H11.7829L0.782893 52.1191C0.380773 52.5653 0.119678 53.1206 0.0324846 53.7149C-0.0547092 54.3093 0.0358964 54.9161 0.292893 55.4591C0.55295 56.0056 0.962974 56.4669 1.47518 56.7893C1.98738 57.1117 2.58067 57.2819 3.18589 57.2801H22.0299V60.6471L17.8599 67.3111C17.6909 67.6468 17.6108 68.0203 17.6271 68.3959C17.6435 68.7714 17.7558 69.1365 17.9534 69.4563C18.1509 69.7761 18.4271 70.0399 18.7556 70.2227C19.0842 70.4054 19.454 70.5009 19.8299 70.5001H33.0429C33.4188 70.5009 33.7886 70.4054 34.1171 70.2227C34.4456 70.0399 34.7218 69.7761 34.9194 69.4563C35.117 69.1365 35.2293 68.7714 35.2456 68.3959C35.262 68.0203 35.1819 67.6468 35.0129 67.3111L30.8419 60.6471V57.2801H49.6869C50.2924 57.2817 50.886 57.111 51.3982 56.7881C51.9104 56.4651 52.3203 56.0031 52.5799 55.4561C52.8371 54.913 52.9278 54.3059 52.8406 53.7114C52.7534 53.1168 52.4922 52.5614 52.0899 52.1151Z" fill="#CCC7BC"/>
</svg>
